<?xml version="1.0" encoding="utf-8" standalone="no"?>
<!DOCTYPE svg PUBLIC "-//W3C//DTD SVG 1.1//EN"
  "http://www.w3.org/Graphics/SVG/1.1/DTD/svg11.dtd">
<!-- Created with matplotlib (http://matplotlib.org/) -->
<svg height="199pt" version="1.1" viewBox="0 0 333 199" width="333pt" xmlns="http://www.w3.org/2000/svg" xmlns:xlink="http://www.w3.org/1999/xlink">
 <defs>
  <style type="text/css">
*{stroke-linecap:butt;stroke-linejoin:round;}
  </style>
 </defs>
 <g id="figure_1">
  <g id="patch_1">
   <path d="M -0 199.266703 
L 333.910312 199.266703 
L 333.910312 0 
L -0 0 
z
" style="fill:#ffffff;"/>
  </g>
  <g id="axes_1">
   <g id="patch_2">
    <path d="M 66.575312 147.1 
L 317.675313 147.1 
L 317.675313 11.2 
L 66.575312 11.2 
z
" style="fill:#ffffff;"/>
   </g>
   <g id="matplotlib.axis_1">
    <g id="xtick_1">
     <g id="line2d_1">
      <defs>
       <path d="M 0 0 
L 0 4 
" id="m5eaa02f529" style="stroke:#262626;"/>
      </defs>
      <g>
       <use style="fill:#262626;stroke:#262626;" x="66.575312" xlink:href="#m5eaa02f529" y="152.1"/>
      </g>
     </g>
     <g id="text_1">
      <!-- 0.8 -->
      <defs>
       <path d="M 4.15625 35.296875 
Q 4.15625 48 6.765625 55.734375 
Q 9.375 63.484375 14.515625 67.671875 
Q 19.671875 71.875 27.484375 71.875 
Q 33.25 71.875 37.59375 69.546875 
Q 41.9375 67.234375 44.765625 62.859375 
Q 47.609375 58.5 49.21875 52.21875 
Q 50.828125 45.953125 50.828125 35.296875 
Q 50.828125 22.703125 48.234375 14.96875 
Q 45.65625 7.234375 40.5 3 
Q 35.359375 -1.21875 27.484375 -1.21875 
Q 17.140625 -1.21875 11.234375 6.203125 
Q 4.15625 15.140625 4.15625 35.296875 
z
M 13.1875 35.296875 
Q 13.1875 17.671875 17.3125 11.828125 
Q 21.4375 6 27.484375 6 
Q 33.546875 6 37.671875 11.859375 
Q 41.796875 17.71875 41.796875 35.296875 
Q 41.796875 52.984375 37.671875 58.78125 
Q 33.546875 64.59375 27.390625 64.59375 
Q 21.34375 64.59375 17.71875 59.46875 
Q 13.1875 52.9375 13.1875 35.296875 
z
" id="ArialMT-30"/>
       <path d="M 9.078125 0 
L 9.078125 10.015625 
L 19.09375 10.015625 
L 19.09375 0 
z
" id="ArialMT-2e"/>
       <path d="M 17.671875 38.8125 
Q 12.203125 40.828125 9.5625 44.53125 
Q 6.9375 48.25 6.9375 53.421875 
Q 6.9375 61.234375 12.546875 66.546875 
Q 18.171875 71.875 27.484375 71.875 
Q 36.859375 71.875 42.578125 66.421875 
Q 48.296875 60.984375 48.296875 53.171875 
Q 48.296875 48.1875 45.671875 44.5 
Q 43.0625 40.828125 37.75 38.8125 
Q 44.34375 36.671875 47.78125 31.875 
Q 51.21875 27.09375 51.21875 20.453125 
Q 51.21875 11.28125 44.71875 5.03125 
Q 38.234375 -1.21875 27.640625 -1.21875 
Q 17.046875 -1.21875 10.546875 5.046875 
Q 4.046875 11.328125 4.046875 20.703125 
Q 4.046875 27.6875 7.59375 32.390625 
Q 11.140625 37.109375 17.671875 38.8125 
z
M 15.921875 53.71875 
Q 15.921875 48.640625 19.1875 45.40625 
Q 22.46875 42.1875 27.6875 42.1875 
Q 32.765625 42.1875 36.015625 45.375 
Q 39.265625 48.578125 39.265625 53.21875 
Q 39.265625 58.0625 35.90625 61.359375 
Q 32.5625 64.65625 27.59375 64.65625 
Q 22.5625 64.65625 19.234375 61.421875 
Q 15.921875 58.203125 15.921875 53.71875 
z
M 13.09375 20.65625 
Q 13.09375 16.890625 14.875 13.375 
Q 16.65625 9.859375 20.171875 7.921875 
Q 23.6875 6 27.734375 6 
Q 34.03125 6 38.125 10.046875 
Q 42.234375 14.109375 42.234375 20.359375 
Q 42.234375 26.703125 38.015625 30.859375 
Q 33.796875 35.015625 27.4375 35.015625 
Q 21.234375 35.015625 17.15625 30.90625 
Q 13.09375 26.8125 13.09375 20.65625 
z
" id="ArialMT-38"/>
      </defs>
      <g style="fill:#262626;" transform="translate(57.540312 172.405156)scale(0.13 -0.13)">
       <use xlink:href="#ArialMT-30"/>
       <use x="55.615234" xlink:href="#ArialMT-2e"/>
       <use x="83.398438" xlink:href="#ArialMT-38"/>
      </g>
     </g>
    </g>
    <g id="xtick_2">
     <g id="line2d_2">
      <g>
       <use style="fill:#262626;stroke:#262626;" x="116.795313" xlink:href="#m5eaa02f529" y="152.1"/>
      </g>
     </g>
     <g id="text_2">
      <!-- 0.9 -->
      <defs>
       <path d="M 5.46875 16.546875 
L 13.921875 17.328125 
Q 14.984375 11.375 18.015625 8.6875 
Q 21.046875 6 25.78125 6 
Q 29.828125 6 32.875 7.859375 
Q 35.9375 9.71875 37.890625 12.8125 
Q 39.84375 15.921875 41.15625 21.1875 
Q 42.484375 26.46875 42.484375 31.9375 
Q 42.484375 32.515625 42.4375 33.6875 
Q 39.796875 29.5 35.234375 26.875 
Q 30.671875 24.265625 25.34375 24.265625 
Q 16.453125 24.265625 10.296875 30.703125 
Q 4.15625 37.15625 4.15625 47.703125 
Q 4.15625 58.59375 10.578125 65.234375 
Q 17 71.875 26.65625 71.875 
Q 33.640625 71.875 39.421875 68.109375 
Q 45.21875 64.359375 48.21875 57.390625 
Q 51.21875 50.4375 51.21875 37.25 
Q 51.21875 23.53125 48.234375 15.40625 
Q 45.265625 7.28125 39.375 3.03125 
Q 33.5 -1.21875 25.59375 -1.21875 
Q 17.1875 -1.21875 11.859375 3.4375 
Q 6.546875 8.109375 5.46875 16.546875 
z
M 41.453125 48.140625 
Q 41.453125 55.71875 37.421875 60.15625 
Q 33.40625 64.59375 27.734375 64.59375 
Q 21.875 64.59375 17.53125 59.8125 
Q 13.1875 55.03125 13.1875 47.40625 
Q 13.1875 40.578125 17.3125 36.296875 
Q 21.4375 32.03125 27.484375 32.03125 
Q 33.59375 32.03125 37.515625 36.296875 
Q 41.453125 40.578125 41.453125 48.140625 
z
" id="ArialMT-39"/>
      </defs>
      <g style="fill:#262626;" transform="translate(107.760313 172.405156)scale(0.13 -0.13)">
       <use xlink:href="#ArialMT-30"/>
       <use x="55.615234" xlink:href="#ArialMT-2e"/>
       <use x="83.398438" xlink:href="#ArialMT-39"/>
      </g>
     </g>
    </g>
    <g id="xtick_3">
     <g id="line2d_3">
      <g>
       <use style="fill:#262626;stroke:#262626;" x="167.015312" xlink:href="#m5eaa02f529" y="152.1"/>
      </g>
     </g>
     <g id="text_3">
      <!-- 1.0 -->
      <defs>
       <path d="M 37.25 0 
L 28.46875 0 
L 28.46875 56 
Q 25.296875 52.984375 20.140625 49.953125 
Q 14.984375 46.921875 10.890625 45.40625 
L 10.890625 53.90625 
Q 18.265625 57.375 23.78125 62.296875 
Q 29.296875 67.234375 31.59375 71.875 
L 37.25 71.875 
z
" id="ArialMT-31"/>
      </defs>
      <g style="fill:#262626;" transform="translate(157.980312 172.405156)scale(0.13 -0.13)">
       <use xlink:href="#ArialMT-31"/>
       <use x="55.615234" xlink:href="#ArialMT-2e"/>
       <use x="83.398438" xlink:href="#ArialMT-30"/>
      </g>
     </g>
    </g>
    <g id="xtick_4">
     <g id="line2d_4">
      <g>
       <use style="fill:#262626;stroke:#262626;" x="217.235313" xlink:href="#m5eaa02f529" y="152.1"/>
      </g>
     </g>
     <g id="text_4">
      <!-- 1.1 -->
      <g style="fill:#262626;" transform="translate(208.200313 172.405156)scale(0.13 -0.13)">
       <use xlink:href="#ArialMT-31"/>
       <use x="55.615234" xlink:href="#ArialMT-2e"/>
       <use x="83.398438" xlink:href="#ArialMT-31"/>
      </g>
     </g>
    </g>
    <g id="xtick_5">
     <g id="line2d_5">
      <g>
       <use style="fill:#262626;stroke:#262626;" x="267.455312" xlink:href="#m5eaa02f529" y="152.1"/>
      </g>
     </g>
     <g id="text_5">
      <!-- 1.2 -->
      <defs>
       <path d="M 50.34375 8.453125 
L 50.34375 0 
L 3.03125 0 
Q 2.9375 3.171875 4.046875 6.109375 
Q 5.859375 10.9375 9.828125 15.625 
Q 13.8125 20.3125 21.34375 26.46875 
Q 33.015625 36.03125 37.109375 41.625 
Q 41.21875 47.21875 41.21875 52.203125 
Q 41.21875 57.421875 37.46875 61 
Q 33.734375 64.59375 27.734375 64.59375 
Q 21.390625 64.59375 17.578125 60.78125 
Q 13.765625 56.984375 13.71875 50.25 
L 4.6875 51.171875 
Q 5.609375 61.28125 11.65625 66.578125 
Q 17.71875 71.875 27.9375 71.875 
Q 38.234375 71.875 44.234375 66.15625 
Q 50.25 60.453125 50.25 52 
Q 50.25 47.703125 48.484375 43.546875 
Q 46.734375 39.40625 42.65625 34.8125 
Q 38.578125 30.21875 29.109375 22.21875 
Q 21.1875 15.578125 18.9375 13.203125 
Q 16.703125 10.84375 15.234375 8.453125 
z
" id="ArialMT-32"/>
      </defs>
      <g style="fill:#262626;" transform="translate(258.420312 172.405156)scale(0.13 -0.13)">
       <use xlink:href="#ArialMT-31"/>
       <use x="55.615234" xlink:href="#ArialMT-2e"/>
       <use x="83.398438" xlink:href="#ArialMT-32"/>
      </g>
     </g>
    </g>
    <g id="xtick_6">
     <g id="line2d_6">
      <g>
       <use style="fill:#262626;stroke:#262626;" x="317.675312" xlink:href="#m5eaa02f529" y="152.1"/>
      </g>
     </g>
     <g id="text_6">
      <!-- 1.3 -->
      <defs>
       <path d="M 4.203125 18.890625 
L 12.984375 20.0625 
Q 14.5 12.59375 18.140625 9.296875 
Q 21.78125 6 27 6 
Q 33.203125 6 37.46875 10.296875 
Q 41.75 14.59375 41.75 20.953125 
Q 41.75 27 37.796875 30.921875 
Q 33.84375 34.859375 27.734375 34.859375 
Q 25.25 34.859375 21.53125 33.890625 
L 22.515625 41.609375 
Q 23.390625 41.5 23.921875 41.5 
Q 29.546875 41.5 34.03125 44.421875 
Q 38.53125 47.359375 38.53125 53.46875 
Q 38.53125 58.296875 35.25 61.46875 
Q 31.984375 64.65625 26.8125 64.65625 
Q 21.6875 64.65625 18.265625 61.421875 
Q 14.84375 58.203125 13.875 51.765625 
L 5.078125 53.328125 
Q 6.6875 62.15625 12.390625 67.015625 
Q 18.109375 71.875 26.609375 71.875 
Q 32.46875 71.875 37.390625 69.359375 
Q 42.328125 66.84375 44.9375 62.5 
Q 47.5625 58.15625 47.5625 53.265625 
Q 47.5625 48.640625 45.0625 44.828125 
Q 42.578125 41.015625 37.703125 38.765625 
Q 44.046875 37.3125 47.5625 32.6875 
Q 51.078125 28.078125 51.078125 21.140625 
Q 51.078125 11.765625 44.234375 5.25 
Q 37.40625 -1.265625 26.953125 -1.265625 
Q 17.53125 -1.265625 11.296875 4.34375 
Q 5.078125 9.96875 4.203125 18.890625 
z
" id="ArialMT-33"/>
      </defs>
      <g style="fill:#262626;" transform="translate(308.640312 172.405156)scale(0.13 -0.13)">
       <use xlink:href="#ArialMT-31"/>
       <use x="55.615234" xlink:href="#ArialMT-2e"/>
       <use x="83.398438" xlink:href="#ArialMT-33"/>
      </g>
     </g>
    </g>
    <g id="text_7">
     <!-- division rate -->
     <defs>
      <path d="M 40.234375 0 
L 40.234375 6.546875 
Q 35.296875 -1.171875 25.734375 -1.171875 
Q 19.53125 -1.171875 14.328125 2.25 
Q 9.125 5.671875 6.265625 11.796875 
Q 3.421875 17.921875 3.421875 25.875 
Q 3.421875 33.640625 6 39.96875 
Q 8.59375 46.296875 13.765625 49.65625 
Q 18.953125 53.03125 25.34375 53.03125 
Q 30.03125 53.03125 33.6875 51.046875 
Q 37.359375 49.078125 39.65625 45.90625 
L 39.65625 71.578125 
L 48.390625 71.578125 
L 48.390625 0 
z
M 12.453125 25.875 
Q 12.453125 15.921875 16.640625 10.984375 
Q 20.84375 6.0625 26.5625 6.0625 
Q 32.328125 6.0625 36.34375 10.765625 
Q 40.375 15.484375 40.375 25.140625 
Q 40.375 35.796875 36.265625 40.765625 
Q 32.171875 45.75 26.171875 45.75 
Q 20.3125 45.75 16.375 40.96875 
Q 12.453125 36.1875 12.453125 25.875 
z
" id="ArialMT-64"/>
      <path d="M 6.640625 61.46875 
L 6.640625 71.578125 
L 15.4375 71.578125 
L 15.4375 61.46875 
z
M 6.640625 0 
L 6.640625 51.859375 
L 15.4375 51.859375 
L 15.4375 0 
z
" id="ArialMT-69"/>
      <path d="M 21 0 
L 1.265625 51.859375 
L 10.546875 51.859375 
L 21.6875 20.796875 
Q 23.484375 15.765625 25 10.359375 
Q 26.171875 14.453125 28.265625 20.21875 
L 39.796875 51.859375 
L 48.828125 51.859375 
L 29.203125 0 
z
" id="ArialMT-76"/>
      <path d="M 3.078125 15.484375 
L 11.765625 16.84375 
Q 12.5 11.625 15.84375 8.84375 
Q 19.1875 6.0625 25.203125 6.0625 
Q 31.25 6.0625 34.171875 8.515625 
Q 37.109375 10.984375 37.109375 14.3125 
Q 37.109375 17.28125 34.515625 19 
Q 32.71875 20.171875 25.53125 21.96875 
Q 15.875 24.421875 12.140625 26.203125 
Q 8.40625 27.984375 6.46875 31.125 
Q 4.546875 34.28125 4.546875 38.09375 
Q 4.546875 41.546875 6.125 44.5 
Q 7.71875 47.46875 10.453125 49.421875 
Q 12.5 50.921875 16.03125 51.96875 
Q 19.578125 53.03125 23.640625 53.03125 
Q 29.734375 53.03125 34.34375 51.265625 
Q 38.96875 49.515625 41.15625 46.5 
Q 43.359375 43.5 44.1875 38.484375 
L 35.59375 37.3125 
Q 35.015625 41.3125 32.203125 43.546875 
Q 29.390625 45.796875 24.265625 45.796875 
Q 18.21875 45.796875 15.625 43.796875 
Q 13.03125 41.796875 13.03125 39.109375 
Q 13.03125 37.40625 14.109375 36.03125 
Q 15.1875 34.625 17.484375 33.6875 
Q 18.796875 33.203125 25.25 31.453125 
Q 34.578125 28.953125 38.25 27.359375 
Q 41.9375 25.78125 44.03125 22.75 
Q 46.140625 19.734375 46.140625 15.234375 
Q 46.140625 10.84375 43.578125 6.953125 
Q 41.015625 3.078125 36.171875 0.953125 
Q 31.34375 -1.171875 25.25 -1.171875 
Q 15.140625 -1.171875 9.84375 3.03125 
Q 4.546875 7.234375 3.078125 15.484375 
z
" id="ArialMT-73"/>
      <path d="M 3.328125 25.921875 
Q 3.328125 40.328125 11.328125 47.265625 
Q 18.015625 53.03125 27.640625 53.03125 
Q 38.328125 53.03125 45.109375 46.015625 
Q 51.90625 39.015625 51.90625 26.65625 
Q 51.90625 16.65625 48.90625 10.90625 
Q 45.90625 5.171875 40.15625 2 
Q 34.421875 -1.171875 27.640625 -1.171875 
Q 16.75 -1.171875 10.03125 5.8125 
Q 3.328125 12.796875 3.328125 25.921875 
z
M 12.359375 25.921875 
Q 12.359375 15.96875 16.703125 11.015625 
Q 21.046875 6.0625 27.640625 6.0625 
Q 34.1875 6.0625 38.53125 11.03125 
Q 42.875 16.015625 42.875 26.21875 
Q 42.875 35.84375 38.5 40.796875 
Q 34.125 45.75 27.640625 45.75 
Q 21.046875 45.75 16.703125 40.8125 
Q 12.359375 35.890625 12.359375 25.921875 
z
" id="ArialMT-6f"/>
      <path d="M 6.59375 0 
L 6.59375 51.859375 
L 14.5 51.859375 
L 14.5 44.484375 
Q 20.21875 53.03125 31 53.03125 
Q 35.6875 53.03125 39.625 51.34375 
Q 43.5625 49.65625 45.515625 46.921875 
Q 47.46875 44.1875 48.25 40.4375 
Q 48.734375 37.984375 48.734375 31.890625 
L 48.734375 0 
L 39.9375 0 
L 39.9375 31.546875 
Q 39.9375 36.921875 38.90625 39.578125 
Q 37.890625 42.234375 35.28125 43.8125 
Q 32.671875 45.40625 29.15625 45.40625 
Q 23.53125 45.40625 19.453125 41.84375 
Q 15.375 38.28125 15.375 28.328125 
L 15.375 0 
z
" id="ArialMT-6e"/>
      <path id="ArialMT-20"/>
      <path d="M 6.5 0 
L 6.5 51.859375 
L 14.40625 51.859375 
L 14.40625 44 
Q 17.4375 49.515625 20 51.265625 
Q 22.5625 53.03125 25.640625 53.03125 
Q 30.078125 53.03125 34.671875 50.203125 
L 31.640625 42.046875 
Q 28.421875 43.953125 25.203125 43.953125 
Q 22.3125 43.953125 20.015625 42.21875 
Q 17.71875 40.484375 16.75 37.40625 
Q 15.28125 32.71875 15.28125 27.15625 
L 15.28125 0 
z
" id="ArialMT-72"/>
      <path d="M 40.4375 6.390625 
Q 35.546875 2.25 31.03125 0.53125 
Q 26.515625 -1.171875 21.34375 -1.171875 
Q 12.796875 -1.171875 8.203125 3 
Q 3.609375 7.171875 3.609375 13.671875 
Q 3.609375 17.484375 5.34375 20.625 
Q 7.078125 23.78125 9.890625 25.6875 
Q 12.703125 27.59375 16.21875 28.5625 
Q 18.796875 29.25 24.03125 29.890625 
Q 34.671875 31.15625 39.703125 32.90625 
Q 39.75 34.71875 39.75 35.203125 
Q 39.75 40.578125 37.25 42.78125 
Q 33.890625 45.75 27.25 45.75 
Q 21.046875 45.75 18.09375 43.578125 
Q 15.140625 41.40625 13.71875 35.890625 
L 5.125 37.0625 
Q 6.296875 42.578125 8.984375 45.96875 
Q 11.671875 49.359375 16.75 51.1875 
Q 21.828125 53.03125 28.515625 53.03125 
Q 35.15625 53.03125 39.296875 51.46875 
Q 43.453125 49.90625 45.40625 47.53125 
Q 47.359375 45.171875 48.140625 41.546875 
Q 48.578125 39.3125 48.578125 33.453125 
L 48.578125 21.734375 
Q 48.578125 9.46875 49.140625 6.21875 
Q 49.703125 2.984375 51.375 0 
L 42.1875 0 
Q 40.828125 2.734375 40.4375 6.390625 
z
M 39.703125 26.03125 
Q 34.90625 24.078125 25.34375 22.703125 
Q 19.921875 21.921875 17.671875 20.9375 
Q 15.4375 19.96875 14.203125 18.09375 
Q 12.984375 16.21875 12.984375 13.921875 
Q 12.984375 10.40625 15.640625 8.0625 
Q 18.3125 5.71875 23.4375 5.71875 
Q 28.515625 5.71875 32.46875 7.9375 
Q 36.421875 10.15625 38.28125 14.015625 
Q 39.703125 17 39.703125 22.796875 
z
" id="ArialMT-61"/>
      <path d="M 25.78125 7.859375 
L 27.046875 0.09375 
Q 23.34375 -0.6875 20.40625 -0.6875 
Q 15.625 -0.6875 12.984375 0.828125 
Q 10.359375 2.34375 9.28125 4.8125 
Q 8.203125 7.28125 8.203125 15.1875 
L 8.203125 45.015625 
L 1.765625 45.015625 
L 1.765625 51.859375 
L 8.203125 51.859375 
L 8.203125 64.703125 
L 16.9375 69.96875 
L 16.9375 51.859375 
L 25.78125 51.859375 
L 25.78125 45.015625 
L 16.9375 45.015625 
L 16.9375 14.703125 
Q 16.9375 10.9375 17.40625 9.859375 
Q 17.875 8.796875 18.921875 8.15625 
Q 19.96875 7.515625 21.921875 7.515625 
Q 23.390625 7.515625 25.78125 7.859375 
z
" id="ArialMT-74"/>
      <path d="M 42.09375 16.703125 
L 51.171875 15.578125 
Q 49.03125 7.625 43.21875 3.21875 
Q 37.40625 -1.171875 28.375 -1.171875 
Q 17 -1.171875 10.328125 5.828125 
Q 3.65625 12.84375 3.65625 25.484375 
Q 3.65625 38.578125 10.390625 45.796875 
Q 17.140625 53.03125 27.875 53.03125 
Q 38.28125 53.03125 44.875 45.953125 
Q 51.46875 38.875 51.46875 26.03125 
Q 51.46875 25.25 51.421875 23.6875 
L 12.75 23.6875 
Q 13.234375 15.140625 17.578125 10.59375 
Q 21.921875 6.0625 28.421875 6.0625 
Q 33.25 6.0625 36.671875 8.59375 
Q 40.09375 11.140625 42.09375 16.703125 
z
M 13.234375 30.90625 
L 42.1875 30.90625 
Q 41.609375 37.453125 38.875 40.71875 
Q 34.671875 45.796875 27.984375 45.796875 
Q 21.921875 45.796875 17.796875 41.75 
Q 13.671875 37.703125 13.234375 30.90625 
z
" id="ArialMT-65"/>
     </defs>
     <g style="fill:#262626;" transform="translate(153.975594 189.224578)scale(0.143 -0.143)">
      <use xlink:href="#ArialMT-64"/>
      <use x="55.615234" xlink:href="#ArialMT-69"/>
      <use x="77.832031" xlink:href="#ArialMT-76"/>
      <use x="127.832031" xlink:href="#ArialMT-69"/>
      <use x="150.048828" xlink:href="#ArialMT-73"/>
      <use x="200.048828" xlink:href="#ArialMT-69"/>
      <use x="222.265625" xlink:href="#ArialMT-6f"/>
      <use x="277.880859" xlink:href="#ArialMT-6e"/>
      <use x="333.496094" xlink:href="#ArialMT-20"/>
      <use x="361.279297" xlink:href="#ArialMT-72"/>
      <use x="394.580078" xlink:href="#ArialMT-61"/>
      <use x="450.195312" xlink:href="#ArialMT-74"/>
      <use x="477.978516" xlink:href="#ArialMT-65"/>
     </g>
    </g>
   </g>
   <g id="matplotlib.axis_2">
    <g id="ytick_1">
     <g id="line2d_7">
      <defs>
       <path d="M 0 0 
L -4 0 
" id="md9a764d971" style="stroke:#262626;"/>
      </defs>
      <g>
       <use style="fill:#262626;stroke:#262626;" x="61.575312" xlink:href="#md9a764d971" y="147.1"/>
      </g>
     </g>
     <g id="text_8">
      <!-- 0 -->
      <g style="fill:#262626;" transform="translate(43.346094 151.752578)scale(0.13 -0.13)">
       <use xlink:href="#ArialMT-30"/>
      </g>
     </g>
    </g>
    <g id="ytick_2">
     <g id="line2d_8">
      <g>
       <use style="fill:#262626;stroke:#262626;" x="61.575312" xlink:href="#md9a764d971" y="110.702764"/>
      </g>
     </g>
     <g id="text_9">
      <!-- 50000 -->
      <defs>
       <path d="M 4.15625 18.75 
L 13.375 19.53125 
Q 14.40625 12.796875 18.140625 9.390625 
Q 21.875 6 27.15625 6 
Q 33.5 6 37.890625 10.78125 
Q 42.28125 15.578125 42.28125 23.484375 
Q 42.28125 31 38.0625 35.34375 
Q 33.84375 39.703125 27 39.703125 
Q 22.75 39.703125 19.328125 37.765625 
Q 15.921875 35.84375 13.96875 32.765625 
L 5.71875 33.84375 
L 12.640625 70.609375 
L 48.25 70.609375 
L 48.25 62.203125 
L 19.671875 62.203125 
L 15.828125 42.96875 
Q 22.265625 47.46875 29.34375 47.46875 
Q 38.71875 47.46875 45.15625 40.96875 
Q 51.609375 34.46875 51.609375 24.265625 
Q 51.609375 14.546875 45.953125 7.46875 
Q 39.0625 -1.21875 27.15625 -1.21875 
Q 17.390625 -1.21875 11.203125 4.25 
Q 5.03125 9.71875 4.15625 18.75 
z
" id="ArialMT-35"/>
      </defs>
      <g style="fill:#262626;" transform="translate(14.429219 115.355342)scale(0.13 -0.13)">
       <use xlink:href="#ArialMT-35"/>
       <use x="55.615234" xlink:href="#ArialMT-30"/>
       <use x="111.230469" xlink:href="#ArialMT-30"/>
       <use x="166.845703" xlink:href="#ArialMT-30"/>
       <use x="222.460938" xlink:href="#ArialMT-30"/>
      </g>
     </g>
    </g>
    <g id="ytick_3">
     <g id="line2d_9">
      <g>
       <use style="fill:#262626;stroke:#262626;" x="61.575312" xlink:href="#md9a764d971" y="74.305528"/>
      </g>
     </g>
     <g id="text_10">
      <!-- 100000 -->
      <g style="fill:#262626;" transform="translate(7.2 78.958106)scale(0.13 -0.13)">
       <use xlink:href="#ArialMT-31"/>
       <use x="55.615234" xlink:href="#ArialMT-30"/>
       <use x="111.230469" xlink:href="#ArialMT-30"/>
       <use x="166.845703" xlink:href="#ArialMT-30"/>
       <use x="222.460938" xlink:href="#ArialMT-30"/>
       <use x="278.076172" xlink:href="#ArialMT-30"/>
      </g>
     </g>
    </g>
    <g id="ytick_4">
     <g id="line2d_10">
      <g>
       <use style="fill:#262626;stroke:#262626;" x="61.575312" xlink:href="#md9a764d971" y="37.908292"/>
      </g>
     </g>
     <g id="text_11">
      <!-- 150000 -->
      <g style="fill:#262626;" transform="translate(7.2 42.56087)scale(0.13 -0.13)">
       <use xlink:href="#ArialMT-31"/>
       <use x="55.615234" xlink:href="#ArialMT-35"/>
       <use x="111.230469" xlink:href="#ArialMT-30"/>
       <use x="166.845703" xlink:href="#ArialMT-30"/>
       <use x="222.460938" xlink:href="#ArialMT-30"/>
       <use x="278.076172" xlink:href="#ArialMT-30"/>
      </g>
     </g>
    </g>
   </g>
   <g id="patch_3">
    <path clip-path="url(#pf01e76b4cd)" d="M 91.685312 147.1 
L 93.945212 147.1 
L 93.945212 147.1 
L 91.685312 147.1 
z
" style="fill:#1f77b4;"/>
   </g>
   <g id="patch_4">
    <path clip-path="url(#pf01e76b4cd)" d="M 93.945212 147.1 
L 96.205112 147.1 
L 96.205112 147.1 
L 93.945212 147.1 
z
" style="fill:#1f77b4;"/>
   </g>
   <g id="patch_5">
    <path clip-path="url(#pf01e76b4cd)" d="M 96.205112 147.1 
L 98.465012 147.1 
L 98.465012 147.1 
L 96.205112 147.1 
z
" style="fill:#1f77b4;"/>
   </g>
   <g id="patch_6">
    <path clip-path="url(#pf01e76b4cd)" d="M 98.465012 147.1 
L 100.724912 147.1 
L 100.724912 147.092721 
L 98.465012 147.092721 
z
" style="fill:#1f77b4;"/>
   </g>
   <g id="patch_7">
    <path clip-path="url(#pf01e76b4cd)" d="M 100.724912 147.1 
L 102.984812 147.1 
L 102.984812 147.078162 
L 100.724912 147.078162 
z
" style="fill:#1f77b4;"/>
   </g>
   <g id="patch_8">
    <path clip-path="url(#pf01e76b4cd)" d="M 102.984812 147.1 
L 105.244712 147.1 
L 105.244712 147.078162 
L 102.984812 147.078162 
z
" style="fill:#1f77b4;"/>
   </g>
   <g id="patch_9">
    <path clip-path="url(#pf01e76b4cd)" d="M 105.244712 147.1 
L 107.504612 147.1 
L 107.504612 147.078162 
L 105.244712 147.078162 
z
" style="fill:#1f77b4;"/>
   </g>
   <g id="patch_10">
    <path clip-path="url(#pf01e76b4cd)" d="M 107.504612 147.1 
L 109.764512 147.1 
L 109.764512 147.041764 
L 107.504612 147.041764 
z
" style="fill:#1f77b4;"/>
   </g>
   <g id="patch_11">
    <path clip-path="url(#pf01e76b4cd)" d="M 109.764512 147.1 
L 112.024412 147.1 
L 112.024412 146.983529 
L 109.764512 146.983529 
z
" style="fill:#1f77b4;"/>
   </g>
   <g id="patch_12">
    <path clip-path="url(#pf01e76b4cd)" d="M 112.024412 147.1 
L 114.284312 147.1 
L 114.284312 146.83066 
L 112.024412 146.83066 
z
" style="fill:#1f77b4;"/>
   </g>
   <g id="patch_13">
    <path clip-path="url(#pf01e76b4cd)" d="M 114.284312 147.1 
L 116.544212 147.1 
L 116.544212 146.765145 
L 114.284312 146.765145 
z
" style="fill:#1f77b4;"/>
   </g>
   <g id="patch_14">
    <path clip-path="url(#pf01e76b4cd)" d="M 116.544212 147.1 
L 118.804112 147.1 
L 118.804112 146.44485 
L 116.544212 146.44485 
z
" style="fill:#1f77b4;"/>
   </g>
   <g id="patch_15">
    <path clip-path="url(#pf01e76b4cd)" d="M 118.804112 147.1 
L 121.064012 147.1 
L 121.064012 146.059039 
L 118.804112 146.059039 
z
" style="fill:#1f77b4;"/>
   </g>
   <g id="patch_16">
    <path clip-path="url(#pf01e76b4cd)" d="M 121.064012 147.1 
L 123.323912 147.1 
L 123.323912 145.52036 
L 121.064012 145.52036 
z
" style="fill:#1f77b4;"/>
   </g>
   <g id="patch_17">
    <path clip-path="url(#pf01e76b4cd)" d="M 123.323913 147.1 
L 125.583812 147.1 
L 125.583812 144.588591 
L 123.323913 144.588591 
z
" style="fill:#1f77b4;"/>
   </g>
   <g id="patch_18">
    <path clip-path="url(#pf01e76b4cd)" d="M 125.583812 147.1 
L 127.843712 147.1 
L 127.843712 143.402041 
L 125.583812 143.402041 
z
" style="fill:#1f77b4;"/>
   </g>
   <g id="patch_19">
    <path clip-path="url(#pf01e76b4cd)" d="M 127.843712 147.1 
L 130.103612 147.1 
L 130.103612 141.924313 
L 127.843712 141.924313 
z
" style="fill:#1f77b4;"/>
   </g>
   <g id="patch_20">
    <path clip-path="url(#pf01e76b4cd)" d="M 130.103612 147.1 
L 132.363512 147.1 
L 132.363512 139.150844 
L 130.103612 139.150844 
z
" style="fill:#1f77b4;"/>
   </g>
   <g id="patch_21">
    <path clip-path="url(#pf01e76b4cd)" d="M 132.363513 147.1 
L 134.623413 147.1 
L 134.623413 135.685827 
L 132.363513 135.685827 
z
" style="fill:#1f77b4;"/>
   </g>
   <g id="patch_22">
    <path clip-path="url(#pf01e76b4cd)" d="M 134.623412 147.1 
L 136.883312 147.1 
L 136.883312 131.492865 
L 134.623412 131.492865 
z
" style="fill:#1f77b4;"/>
   </g>
   <g id="patch_23">
    <path clip-path="url(#pf01e76b4cd)" d="M 136.883312 147.1 
L 139.143213 147.1 
L 139.143213 126.615636 
L 136.883312 126.615636 
z
" style="fill:#1f77b4;"/>
   </g>
   <g id="patch_24">
    <path clip-path="url(#pf01e76b4cd)" d="M 139.143213 147.1 
L 141.403112 147.1 
L 141.403112 120.013177 
L 139.143213 120.013177 
z
" style="fill:#1f77b4;"/>
   </g>
   <g id="patch_25">
    <path clip-path="url(#pf01e76b4cd)" d="M 141.403112 147.1 
L 143.663012 147.1 
L 143.663012 112.275125 
L 141.403112 112.275125 
z
" style="fill:#1f77b4;"/>
   </g>
   <g id="patch_26">
    <path clip-path="url(#pf01e76b4cd)" d="M 143.663012 147.1 
L 145.922912 147.1 
L 145.922912 103.197654 
L 143.663012 103.197654 
z
" style="fill:#1f77b4;"/>
   </g>
   <g id="patch_27">
    <path clip-path="url(#pf01e76b4cd)" d="M 145.922912 147.1 
L 148.182813 147.1 
L 148.182813 92.300321 
L 145.922912 92.300321 
z
" style="fill:#1f77b4;"/>
   </g>
   <g id="patch_28">
    <path clip-path="url(#pf01e76b4cd)" d="M 148.182813 147.1 
L 150.442712 147.1 
L 150.442712 79.757834 
L 148.182813 79.757834 
z
" style="fill:#1f77b4;"/>
   </g>
   <g id="patch_29">
    <path clip-path="url(#pf01e76b4cd)" d="M 150.442712 147.1 
L 152.702612 147.1 
L 152.702612 71.197204 
L 150.442712 71.197204 
z
" style="fill:#1f77b4;"/>
   </g>
   <g id="patch_30">
    <path clip-path="url(#pf01e76b4cd)" d="M 152.702612 147.1 
L 154.962512 147.1 
L 154.962512 59.047807 
L 152.702612 59.047807 
z
" style="fill:#1f77b4;"/>
   </g>
   <g id="patch_31">
    <path clip-path="url(#pf01e76b4cd)" d="M 154.962513 147.1 
L 157.222412 147.1 
L 157.222412 46.650908 
L 154.962513 46.650908 
z
" style="fill:#1f77b4;"/>
   </g>
   <g id="patch_32">
    <path clip-path="url(#pf01e76b4cd)" d="M 157.222412 147.1 
L 159.482312 147.1 
L 159.482312 36.998361 
L 157.222412 36.998361 
z
" style="fill:#1f77b4;"/>
   </g>
   <g id="patch_33">
    <path clip-path="url(#pf01e76b4cd)" d="M 159.482312 147.1 
L 161.742212 147.1 
L 161.742212 26.778017 
L 159.482312 26.778017 
z
" style="fill:#1f77b4;"/>
   </g>
   <g id="patch_34">
    <path clip-path="url(#pf01e76b4cd)" d="M 161.742212 147.1 
L 164.002112 147.1 
L 164.002112 22.235642 
L 161.742212 22.235642 
z
" style="fill:#1f77b4;"/>
   </g>
   <g id="patch_35">
    <path clip-path="url(#pf01e76b4cd)" d="M 164.002113 147.1 
L 166.262012 147.1 
L 166.262012 18.020842 
L 164.002113 18.020842 
z
" style="fill:#1f77b4;"/>
   </g>
   <g id="patch_36">
    <path clip-path="url(#pf01e76b4cd)" d="M 166.262012 147.1 
L 168.521913 147.1 
L 168.521913 17.671429 
L 166.262012 17.671429 
z
" style="fill:#1f77b4;"/>
   </g>
   <g id="patch_37">
    <path clip-path="url(#pf01e76b4cd)" d="M 168.521913 147.1 
L 170.781813 147.1 
L 170.781813 19.112759 
L 168.521913 19.112759 
z
" style="fill:#1f77b4;"/>
   </g>
   <g id="patch_38">
    <path clip-path="url(#pf01e76b4cd)" d="M 170.781812 147.1 
L 173.041712 147.1 
L 173.041712 22.78888 
L 170.781812 22.78888 
z
" style="fill:#1f77b4;"/>
   </g>
   <g id="patch_39">
    <path clip-path="url(#pf01e76b4cd)" d="M 173.041713 147.1 
L 175.301613 147.1 
L 175.301613 28.532364 
L 173.041713 28.532364 
z
" style="fill:#1f77b4;"/>
   </g>
   <g id="patch_40">
    <path clip-path="url(#pf01e76b4cd)" d="M 175.301612 147.1 
L 177.561512 147.1 
L 177.561512 40.390583 
L 175.301612 40.390583 
z
" style="fill:#1f77b4;"/>
   </g>
   <g id="patch_41">
    <path clip-path="url(#pf01e76b4cd)" d="M 177.561512 147.1 
L 179.821413 147.1 
L 179.821413 49.802909 
L 177.561512 49.802909 
z
" style="fill:#1f77b4;"/>
   </g>
   <g id="patch_42">
    <path clip-path="url(#pf01e76b4cd)" d="M 179.821413 147.1 
L 182.081312 147.1 
L 182.081312 61.77032 
L 179.821413 61.77032 
z
" style="fill:#1f77b4;"/>
   </g>
   <g id="patch_43">
    <path clip-path="url(#pf01e76b4cd)" d="M 182.081312 147.1 
L 184.341212 147.1 
L 184.341212 74.727736 
L 182.081312 74.727736 
z
" style="fill:#1f77b4;"/>
   </g>
   <g id="patch_44">
    <path clip-path="url(#pf01e76b4cd)" d="M 184.341212 147.1 
L 186.601112 147.1 
L 186.601112 85.413964 
L 184.341212 85.413964 
z
" style="fill:#1f77b4;"/>
   </g>
   <g id="patch_45">
    <path clip-path="url(#pf01e76b4cd)" d="M 186.601112 147.1 
L 188.861013 147.1 
L 188.861013 95.787177 
L 186.601112 95.787177 
z
" style="fill:#1f77b4;"/>
   </g>
   <g id="patch_46">
    <path clip-path="url(#pf01e76b4cd)" d="M 188.861012 147.1 
L 191.120912 147.1 
L 191.120912 106.247742 
L 188.861012 106.247742 
z
" style="fill:#1f77b4;"/>
   </g>
   <g id="patch_47">
    <path clip-path="url(#pf01e76b4cd)" d="M 191.120912 147.1 
L 193.380812 147.1 
L 193.380812 114.073148 
L 191.120912 114.073148 
z
" style="fill:#1f77b4;"/>
   </g>
   <g id="patch_48">
    <path clip-path="url(#pf01e76b4cd)" d="M 193.380812 147.1 
L 195.640712 147.1 
L 195.640712 122.757529 
L 193.380812 122.757529 
z
" style="fill:#1f77b4;"/>
   </g>
   <g id="patch_49">
    <path clip-path="url(#pf01e76b4cd)" d="M 195.640713 147.1 
L 197.900613 147.1 
L 197.900613 128.333585 
L 195.640713 128.333585 
z
" style="fill:#1f77b4;"/>
   </g>
   <g id="patch_50">
    <path clip-path="url(#pf01e76b4cd)" d="M 197.900613 147.1 
L 200.160513 147.1 
L 200.160513 133.771332 
L 197.900613 133.771332 
z
" style="fill:#1f77b4;"/>
   </g>
   <g id="patch_51">
    <path clip-path="url(#pf01e76b4cd)" d="M 200.160512 147.1 
L 202.420412 147.1 
L 202.420412 136.945171 
L 200.160512 136.945171 
z
" style="fill:#1f77b4;"/>
   </g>
   <g id="patch_52">
    <path clip-path="url(#pf01e76b4cd)" d="M 202.420413 147.1 
L 204.680313 147.1 
L 204.680313 140.11901 
L 202.420413 140.11901 
z
" style="fill:#1f77b4;"/>
   </g>
   <g id="patch_53">
    <path clip-path="url(#pf01e76b4cd)" d="M 204.680312 147.1 
L 206.940212 147.1 
L 206.940212 142.441154 
L 204.680312 142.441154 
z
" style="fill:#1f77b4;"/>
   </g>
   <g id="patch_54">
    <path clip-path="url(#pf01e76b4cd)" d="M 206.940212 147.1 
L 209.200113 147.1 
L 209.200113 143.766013 
L 206.940212 143.766013 
z
" style="fill:#1f77b4;"/>
   </g>
   <g id="patch_55">
    <path clip-path="url(#pf01e76b4cd)" d="M 209.200112 147.1 
L 211.460012 147.1 
L 211.460012 145.018078 
L 209.200112 145.018078 
z
" style="fill:#1f77b4;"/>
   </g>
   <g id="patch_56">
    <path clip-path="url(#pf01e76b4cd)" d="M 211.460012 147.1 
L 213.719912 147.1 
L 213.719912 145.600434 
L 211.460012 145.600434 
z
" style="fill:#1f77b4;"/>
   </g>
   <g id="patch_57">
    <path clip-path="url(#pf01e76b4cd)" d="M 213.719913 147.1 
L 215.979813 147.1 
L 215.979813 146.284702 
L 213.719913 146.284702 
z
" style="fill:#1f77b4;"/>
   </g>
   <g id="patch_58">
    <path clip-path="url(#pf01e76b4cd)" d="M 215.979812 147.1 
L 218.239712 147.1 
L 218.239712 146.517644 
L 215.979812 146.517644 
z
" style="fill:#1f77b4;"/>
   </g>
   <g id="patch_59">
    <path clip-path="url(#pf01e76b4cd)" d="M 218.239712 147.1 
L 220.499613 147.1 
L 220.499613 146.816102 
L 218.239712 146.816102 
z
" style="fill:#1f77b4;"/>
   </g>
   <g id="patch_60">
    <path clip-path="url(#pf01e76b4cd)" d="M 220.499613 147.1 
L 222.759513 147.1 
L 222.759513 146.910734 
L 220.499613 146.910734 
z
" style="fill:#1f77b4;"/>
   </g>
   <g id="patch_61">
    <path clip-path="url(#pf01e76b4cd)" d="M 222.759512 147.1 
L 225.019412 147.1 
L 225.019412 147.034485 
L 222.759512 147.034485 
z
" style="fill:#1f77b4;"/>
   </g>
   <g id="patch_62">
    <path clip-path="url(#pf01e76b4cd)" d="M 225.019412 147.1 
L 227.279313 147.1 
L 227.279313 147.005367 
L 225.019412 147.005367 
z
" style="fill:#1f77b4;"/>
   </g>
   <g id="patch_63">
    <path clip-path="url(#pf01e76b4cd)" d="M 227.279313 147.1 
L 229.539212 147.1 
L 229.539212 147.056323 
L 227.279313 147.056323 
z
" style="fill:#1f77b4;"/>
   </g>
   <g id="patch_64">
    <path clip-path="url(#pf01e76b4cd)" d="M 229.539212 147.1 
L 231.799112 147.1 
L 231.799112 147.078162 
L 229.539212 147.078162 
z
" style="fill:#1f77b4;"/>
   </g>
   <g id="patch_65">
    <path clip-path="url(#pf01e76b4cd)" d="M 231.799113 147.1 
L 234.059013 147.1 
L 234.059013 147.092721 
L 231.799113 147.092721 
z
" style="fill:#1f77b4;"/>
   </g>
   <g id="patch_66">
    <path clip-path="url(#pf01e76b4cd)" d="M 234.059012 147.1 
L 236.318912 147.1 
L 236.318912 147.092721 
L 234.059012 147.092721 
z
" style="fill:#1f77b4;"/>
   </g>
   <g id="patch_67">
    <path clip-path="url(#pf01e76b4cd)" d="M 236.318912 147.1 
L 238.578813 147.1 
L 238.578813 147.1 
L 236.318912 147.1 
z
" style="fill:#1f77b4;"/>
   </g>
   <g id="patch_68">
    <path clip-path="url(#pf01e76b4cd)" d="M 238.578813 147.1 
L 240.838713 147.1 
L 240.838713 147.1 
L 238.578813 147.1 
z
" style="fill:#1f77b4;"/>
   </g>
   <g id="patch_69">
    <path clip-path="url(#pf01e76b4cd)" d="M 240.838712 147.1 
L 243.098612 147.1 
L 243.098612 147.1 
L 240.838712 147.1 
z
" style="fill:#1f77b4;"/>
   </g>
   <g id="patch_70">
    <path clip-path="url(#pf01e76b4cd)" d="M 243.098613 147.1 
L 245.358513 147.1 
L 245.358513 147.1 
L 243.098613 147.1 
z
" style="fill:#1f77b4;"/>
   </g>
   <g id="patch_71">
    <path clip-path="url(#pf01e76b4cd)" d="M 245.358513 147.1 
L 247.618413 147.1 
L 247.618413 147.1 
L 245.358513 147.1 
z
" style="fill:#1f77b4;"/>
   </g>
   <g id="patch_72">
    <path clip-path="url(#pf01e76b4cd)" d="M 247.618412 147.1 
L 249.878312 147.1 
L 249.878312 147.1 
L 247.618412 147.1 
z
" style="fill:#1f77b4;"/>
   </g>
   <g id="patch_73">
    <path clip-path="url(#pf01e76b4cd)" d="M 249.878313 147.1 
L 252.138213 147.1 
L 252.138213 147.1 
L 249.878313 147.1 
z
" style="fill:#1f77b4;"/>
   </g>
   <g id="patch_74">
    <path clip-path="url(#pf01e76b4cd)" d="M 252.138212 147.1 
L 254.398112 147.1 
L 254.398112 147.1 
L 252.138212 147.1 
z
" style="fill:#1f77b4;"/>
   </g>
   <g id="patch_75">
    <path clip-path="url(#pf01e76b4cd)" d="M 254.398112 147.1 
L 256.658013 147.1 
L 256.658013 147.1 
L 254.398112 147.1 
z
" style="fill:#1f77b4;"/>
   </g>
   <g id="patch_76">
    <path clip-path="url(#pf01e76b4cd)" d="M 256.658013 147.1 
L 258.917913 147.1 
L 258.917913 147.1 
L 256.658013 147.1 
z
" style="fill:#1f77b4;"/>
   </g>
   <g id="patch_77">
    <path clip-path="url(#pf01e76b4cd)" d="M 258.917912 147.1 
L 261.177812 147.1 
L 261.177812 147.1 
L 258.917912 147.1 
z
" style="fill:#1f77b4;"/>
   </g>
   <g id="patch_78">
    <path clip-path="url(#pf01e76b4cd)" d="M 261.177813 147.1 
L 263.437712 147.1 
L 263.437712 147.1 
L 261.177813 147.1 
z
" style="fill:#1f77b4;"/>
   </g>
   <g id="patch_79">
    <path clip-path="url(#pf01e76b4cd)" d="M 263.437712 147.1 
L 265.697612 147.1 
L 265.697612 147.1 
L 263.437712 147.1 
z
" style="fill:#1f77b4;"/>
   </g>
   <g id="patch_80">
    <path clip-path="url(#pf01e76b4cd)" d="M 265.697612 147.1 
L 267.957513 147.1 
L 267.957513 147.1 
L 265.697612 147.1 
z
" style="fill:#1f77b4;"/>
   </g>
   <g id="patch_81">
    <path clip-path="url(#pf01e76b4cd)" d="M 267.957513 147.1 
L 270.217413 147.1 
L 270.217413 147.1 
L 267.957513 147.1 
z
" style="fill:#1f77b4;"/>
   </g>
   <g id="patch_82">
    <path clip-path="url(#pf01e76b4cd)" d="M 270.217412 147.1 
L 272.477312 147.1 
L 272.477312 147.1 
L 270.217412 147.1 
z
" style="fill:#1f77b4;"/>
   </g>
   <g id="patch_83">
    <path clip-path="url(#pf01e76b4cd)" d="M 272.477312 147.1 
L 274.737213 147.1 
L 274.737213 147.1 
L 272.477312 147.1 
z
" style="fill:#1f77b4;"/>
   </g>
   <g id="patch_84">
    <path clip-path="url(#pf01e76b4cd)" d="M 274.737213 147.1 
L 276.997113 147.1 
L 276.997113 147.1 
L 274.737213 147.1 
z
" style="fill:#1f77b4;"/>
   </g>
   <g id="patch_85">
    <path clip-path="url(#pf01e76b4cd)" d="M 276.997112 147.1 
L 279.257012 147.1 
L 279.257012 147.1 
L 276.997112 147.1 
z
" style="fill:#1f77b4;"/>
   </g>
   <g id="patch_86">
    <path clip-path="url(#pf01e76b4cd)" d="M 279.257013 147.1 
L 281.516912 147.1 
L 281.516912 147.1 
L 279.257013 147.1 
z
" style="fill:#1f77b4;"/>
   </g>
   <g id="patch_87">
    <path clip-path="url(#pf01e76b4cd)" d="M 281.516912 147.1 
L 283.776812 147.1 
L 283.776812 147.1 
L 281.516912 147.1 
z
" style="fill:#1f77b4;"/>
   </g>
   <g id="patch_88">
    <path clip-path="url(#pf01e76b4cd)" d="M 283.776812 147.1 
L 286.036713 147.1 
L 286.036713 147.1 
L 283.776812 147.1 
z
" style="fill:#1f77b4;"/>
   </g>
   <g id="patch_89">
    <path clip-path="url(#pf01e76b4cd)" d="M 286.036713 147.1 
L 288.296613 147.1 
L 288.296613 147.1 
L 286.036713 147.1 
z
" style="fill:#1f77b4;"/>
   </g>
   <g id="patch_90">
    <path clip-path="url(#pf01e76b4cd)" d="M 288.296612 147.1 
L 290.556512 147.1 
L 290.556512 147.1 
L 288.296612 147.1 
z
" style="fill:#1f77b4;"/>
   </g>
   <g id="patch_91">
    <path clip-path="url(#pf01e76b4cd)" d="M 290.556512 147.1 
L 292.816412 147.1 
L 292.816412 147.1 
L 290.556512 147.1 
z
" style="fill:#1f77b4;"/>
   </g>
   <g id="patch_92">
    <path clip-path="url(#pf01e76b4cd)" d="M 292.816412 147.1 
L 295.076312 147.1 
L 295.076312 147.1 
L 292.816412 147.1 
z
" style="fill:#1f77b4;"/>
   </g>
   <g id="patch_93">
    <path clip-path="url(#pf01e76b4cd)" d="M 295.076312 147.1 
L 297.336212 147.1 
L 297.336212 147.1 
L 295.076312 147.1 
z
" style="fill:#1f77b4;"/>
   </g>
   <g id="patch_94">
    <path clip-path="url(#pf01e76b4cd)" d="M 297.336213 147.1 
L 299.596113 147.1 
L 299.596113 147.1 
L 297.336213 147.1 
z
" style="fill:#1f77b4;"/>
   </g>
   <g id="patch_95">
    <path clip-path="url(#pf01e76b4cd)" d="M 299.596112 147.1 
L 301.856012 147.1 
L 301.856012 147.1 
L 299.596112 147.1 
z
" style="fill:#1f77b4;"/>
   </g>
   <g id="patch_96">
    <path clip-path="url(#pf01e76b4cd)" d="M 301.856012 147.1 
L 304.115913 147.1 
L 304.115913 147.1 
L 301.856012 147.1 
z
" style="fill:#1f77b4;"/>
   </g>
   <g id="patch_97">
    <path clip-path="url(#pf01e76b4cd)" d="M 304.115913 147.1 
L 306.375813 147.1 
L 306.375813 147.1 
L 304.115913 147.1 
z
" style="fill:#1f77b4;"/>
   </g>
   <g id="patch_98">
    <path clip-path="url(#pf01e76b4cd)" d="M 306.375812 147.1 
L 308.635712 147.1 
L 308.635712 147.1 
L 306.375812 147.1 
z
" style="fill:#1f77b4;"/>
   </g>
   <g id="patch_99">
    <path clip-path="url(#pf01e76b4cd)" d="M 308.635713 147.1 
L 310.895612 147.1 
L 310.895612 147.1 
L 308.635713 147.1 
z
" style="fill:#1f77b4;"/>
   </g>
   <g id="patch_100">
    <path clip-path="url(#pf01e76b4cd)" d="M 310.895612 147.1 
L 313.155512 147.1 
L 313.155512 147.1 
L 310.895612 147.1 
z
" style="fill:#1f77b4;"/>
   </g>
   <g id="patch_101">
    <path clip-path="url(#pf01e76b4cd)" d="M 313.155512 147.1 
L 315.415413 147.1 
L 315.415413 147.1 
L 313.155512 147.1 
z
" style="fill:#1f77b4;"/>
   </g>
   <g id="patch_102">
    <path clip-path="url(#pf01e76b4cd)" d="M 315.415413 147.1 
L 317.675313 147.1 
L 317.675313 147.1 
L 315.415413 147.1 
z
" style="fill:#1f77b4;"/>
   </g>
   <g id="patch_103">
    <path clip-path="url(#pf01e76b4cd)" d="M 91.685312 147.1 
L 93.945212 147.1 
L 93.945212 147.1 
L 91.685312 147.1 
z
" style="fill:#ff7f0e;"/>
   </g>
   <g id="patch_104">
    <path clip-path="url(#pf01e76b4cd)" d="M 93.945212 147.1 
L 96.205112 147.1 
L 96.205112 147.1 
L 93.945212 147.1 
z
" style="fill:#ff7f0e;"/>
   </g>
   <g id="patch_105">
    <path clip-path="url(#pf01e76b4cd)" d="M 96.205112 147.1 
L 98.465012 147.1 
L 98.465012 147.1 
L 96.205112 147.1 
z
" style="fill:#ff7f0e;"/>
   </g>
   <g id="patch_106">
    <path clip-path="url(#pf01e76b4cd)" d="M 98.465012 147.1 
L 100.724912 147.1 
L 100.724912 147.1 
L 98.465012 147.1 
z
" style="fill:#ff7f0e;"/>
   </g>
   <g id="patch_107">
    <path clip-path="url(#pf01e76b4cd)" d="M 100.724912 147.1 
L 102.984812 147.1 
L 102.984812 147.095632 
L 100.724912 147.095632 
z
" style="fill:#ff7f0e;"/>
   </g>
   <g id="patch_108">
    <path clip-path="url(#pf01e76b4cd)" d="M 102.984812 147.1 
L 105.244712 147.1 
L 105.244712 147.09636 
L 102.984812 147.09636 
z
" style="fill:#ff7f0e;"/>
   </g>
   <g id="patch_109">
    <path clip-path="url(#pf01e76b4cd)" d="M 105.244712 147.1 
L 107.504612 147.1 
L 107.504612 147.09636 
L 105.244712 147.09636 
z
" style="fill:#ff7f0e;"/>
   </g>
   <g id="patch_110">
    <path clip-path="url(#pf01e76b4cd)" d="M 107.504612 147.1 
L 109.764512 147.1 
L 109.764512 147.092721 
L 107.504612 147.092721 
z
" style="fill:#ff7f0e;"/>
   </g>
   <g id="patch_111">
    <path clip-path="url(#pf01e76b4cd)" d="M 109.764512 147.1 
L 112.024412 147.1 
L 112.024412 147.083257 
L 109.764512 147.083257 
z
" style="fill:#ff7f0e;"/>
   </g>
   <g id="patch_112">
    <path clip-path="url(#pf01e76b4cd)" d="M 112.024412 147.1 
L 114.284312 147.1 
L 114.284312 147.066515 
L 112.024412 147.066515 
z
" style="fill:#ff7f0e;"/>
   </g>
   <g id="patch_113">
    <path clip-path="url(#pf01e76b4cd)" d="M 114.284312 147.1 
L 116.544212 147.1 
L 116.544212 147.029389 
L 114.284312 147.029389 
z
" style="fill:#ff7f0e;"/>
   </g>
   <g id="patch_114">
    <path clip-path="url(#pf01e76b4cd)" d="M 116.544212 147.1 
L 118.804112 147.1 
L 118.804112 146.999544 
L 116.544212 146.999544 
z
" style="fill:#ff7f0e;"/>
   </g>
   <g id="patch_115">
    <path clip-path="url(#pf01e76b4cd)" d="M 118.804112 147.1 
L 121.064012 147.1 
L 121.064012 146.901271 
L 118.804112 146.901271 
z
" style="fill:#ff7f0e;"/>
   </g>
   <g id="patch_116">
    <path clip-path="url(#pf01e76b4cd)" d="M 121.064012 147.1 
L 123.323912 147.1 
L 123.323912 146.814646 
L 121.064012 146.814646 
z
" style="fill:#ff7f0e;"/>
   </g>
   <g id="patch_117">
    <path clip-path="url(#pf01e76b4cd)" d="M 123.323913 147.1 
L 125.583812 147.1 
L 125.583812 146.668329 
L 123.323913 146.668329 
z
" style="fill:#ff7f0e;"/>
   </g>
   <g id="patch_118">
    <path clip-path="url(#pf01e76b4cd)" d="M 125.583812 147.1 
L 127.843712 147.1 
L 127.843712 146.443394 
L 125.583812 146.443394 
z
" style="fill:#ff7f0e;"/>
   </g>
   <g id="patch_119">
    <path clip-path="url(#pf01e76b4cd)" d="M 127.843712 147.1 
L 130.103612 147.1 
L 130.103612 146.067774 
L 127.843712 146.067774 
z
" style="fill:#ff7f0e;"/>
   </g>
   <g id="patch_120">
    <path clip-path="url(#pf01e76b4cd)" d="M 130.103612 147.1 
L 132.363512 147.1 
L 132.363512 145.46358 
L 130.103612 145.46358 
z
" style="fill:#ff7f0e;"/>
   </g>
   <g id="patch_121">
    <path clip-path="url(#pf01e76b4cd)" d="M 132.363513 147.1 
L 134.623413 147.1 
L 134.623413 144.659929 
L 132.363513 144.659929 
z
" style="fill:#ff7f0e;"/>
   </g>
   <g id="patch_122">
    <path clip-path="url(#pf01e76b4cd)" d="M 134.623412 147.1 
L 136.883312 147.1 
L 136.883312 143.564372 
L 134.623412 143.564372 
z
" style="fill:#ff7f0e;"/>
   </g>
   <g id="patch_123">
    <path clip-path="url(#pf01e76b4cd)" d="M 136.883312 147.1 
L 139.143213 147.1 
L 139.143213 142.156527 
L 136.883312 142.156527 
z
" style="fill:#ff7f0e;"/>
   </g>
   <g id="patch_124">
    <path clip-path="url(#pf01e76b4cd)" d="M 139.143213 147.1 
L 141.403112 147.1 
L 141.403112 140.114642 
L 139.143213 140.114642 
z
" style="fill:#ff7f0e;"/>
   </g>
   <g id="patch_125">
    <path clip-path="url(#pf01e76b4cd)" d="M 141.403112 147.1 
L 143.663012 147.1 
L 143.663012 137.33171 
L 141.403112 137.33171 
z
" style="fill:#ff7f0e;"/>
   </g>
   <g id="patch_126">
    <path clip-path="url(#pf01e76b4cd)" d="M 143.663012 147.1 
L 145.922912 147.1 
L 145.922912 134.060326 
L 143.663012 134.060326 
z
" style="fill:#ff7f0e;"/>
   </g>
   <g id="patch_127">
    <path clip-path="url(#pf01e76b4cd)" d="M 145.922912 147.1 
L 148.182813 147.1 
L 148.182813 130.146895 
L 145.922912 130.146895 
z
" style="fill:#ff7f0e;"/>
   </g>
   <g id="patch_128">
    <path clip-path="url(#pf01e76b4cd)" d="M 148.182813 147.1 
L 150.442712 147.1 
L 150.442712 124.975576 
L 148.182813 124.975576 
z
" style="fill:#ff7f0e;"/>
   </g>
   <g id="patch_129">
    <path clip-path="url(#pf01e76b4cd)" d="M 150.442712 147.1 
L 152.702612 147.1 
L 152.702612 118.711612 
L 150.442712 118.711612 
z
" style="fill:#ff7f0e;"/>
   </g>
   <g id="patch_130">
    <path clip-path="url(#pf01e76b4cd)" d="M 152.702612 147.1 
L 154.962512 147.1 
L 154.962512 111.112597 
L 152.702612 111.112597 
z
" style="fill:#ff7f0e;"/>
   </g>
   <g id="patch_131">
    <path clip-path="url(#pf01e76b4cd)" d="M 154.962513 147.1 
L 157.222412 147.1 
L 157.222412 103.366537 
L 154.962513 103.366537 
z
" style="fill:#ff7f0e;"/>
   </g>
   <g id="patch_132">
    <path clip-path="url(#pf01e76b4cd)" d="M 157.222412 147.1 
L 159.482312 147.1 
L 159.482312 95.15896 
L 157.222412 95.15896 
z
" style="fill:#ff7f0e;"/>
   </g>
   <g id="patch_133">
    <path clip-path="url(#pf01e76b4cd)" d="M 159.482312 147.1 
L 161.742212 147.1 
L 161.742212 85.905327 
L 159.482312 85.905327 
z
" style="fill:#ff7f0e;"/>
   </g>
   <g id="patch_134">
    <path clip-path="url(#pf01e76b4cd)" d="M 161.742212 147.1 
L 164.002112 147.1 
L 164.002112 76.86207 
L 161.742212 76.86207 
z
" style="fill:#ff7f0e;"/>
   </g>
   <g id="patch_135">
    <path clip-path="url(#pf01e76b4cd)" d="M 164.002113 147.1 
L 166.262012 147.1 
L 166.262012 67.103243 
L 164.002113 67.103243 
z
" style="fill:#ff7f0e;"/>
   </g>
   <g id="patch_136">
    <path clip-path="url(#pf01e76b4cd)" d="M 166.262012 147.1 
L 168.521913 147.1 
L 168.521913 56.835583 
L 166.262012 56.835583 
z
" style="fill:#ff7f0e;"/>
   </g>
   <g id="patch_137">
    <path clip-path="url(#pf01e76b4cd)" d="M 168.521913 147.1 
L 170.781813 147.1 
L 170.781813 49.096074 
L 168.521913 49.096074 
z
" style="fill:#ff7f0e;"/>
   </g>
   <g id="patch_138">
    <path clip-path="url(#pf01e76b4cd)" d="M 170.781812 147.1 
L 173.041712 147.1 
L 173.041712 41.708163 
L 170.781812 41.708163 
z
" style="fill:#ff7f0e;"/>
   </g>
   <g id="patch_139">
    <path clip-path="url(#pf01e76b4cd)" d="M 173.041713 147.1 
L 175.301613 147.1 
L 175.301613 36.100077 
L 173.041713 36.100077 
z
" style="fill:#ff7f0e;"/>
   </g>
   <g id="patch_140">
    <path clip-path="url(#pf01e76b4cd)" d="M 175.301612 147.1 
L 177.561512 147.1 
L 177.561512 32.439243 
L 175.301612 32.439243 
z
" style="fill:#ff7f0e;"/>
   </g>
   <g id="patch_141">
    <path clip-path="url(#pf01e76b4cd)" d="M 177.561512 147.1 
L 179.821413 147.1 
L 179.821413 31.314569 
L 177.561512 31.314569 
z
" style="fill:#ff7f0e;"/>
   </g>
   <g id="patch_142">
    <path clip-path="url(#pf01e76b4cd)" d="M 179.821413 147.1 
L 182.081312 147.1 
L 182.081312 30.888721 
L 179.821413 30.888721 
z
" style="fill:#ff7f0e;"/>
   </g>
   <g id="patch_143">
    <path clip-path="url(#pf01e76b4cd)" d="M 182.081312 147.1 
L 184.341212 147.1 
L 184.341212 33.459822 
L 182.081312 33.459822 
z
" style="fill:#ff7f0e;"/>
   </g>
   <g id="patch_144">
    <path clip-path="url(#pf01e76b4cd)" d="M 184.341212 147.1 
L 186.601112 147.1 
L 186.601112 38.403294 
L 184.341212 38.403294 
z
" style="fill:#ff7f0e;"/>
   </g>
   <g id="patch_145">
    <path clip-path="url(#pf01e76b4cd)" d="M 186.601112 147.1 
L 188.861013 147.1 
L 188.861013 44.175168 
L 186.601112 44.175168 
z
" style="fill:#ff7f0e;"/>
   </g>
   <g id="patch_146">
    <path clip-path="url(#pf01e76b4cd)" d="M 188.861012 147.1 
L 191.120912 147.1 
L 191.120912 51.397108 
L 188.861012 51.397108 
z
" style="fill:#ff7f0e;"/>
   </g>
   <g id="patch_147">
    <path clip-path="url(#pf01e76b4cd)" d="M 191.120912 147.1 
L 193.380812 147.1 
L 193.380812 59.840538 
L 191.120912 59.840538 
z
" style="fill:#ff7f0e;"/>
   </g>
   <g id="patch_148">
    <path clip-path="url(#pf01e76b4cd)" d="M 193.380812 147.1 
L 195.640712 147.1 
L 195.640712 68.293432 
L 193.380812 68.293432 
z
" style="fill:#ff7f0e;"/>
   </g>
   <g id="patch_149">
    <path clip-path="url(#pf01e76b4cd)" d="M 195.640713 147.1 
L 197.900613 147.1 
L 197.900613 77.666449 
L 195.640713 77.666449 
z
" style="fill:#ff7f0e;"/>
   </g>
   <g id="patch_150">
    <path clip-path="url(#pf01e76b4cd)" d="M 197.900613 147.1 
L 200.160513 147.1 
L 200.160513 86.395962 
L 197.900613 86.395962 
z
" style="fill:#ff7f0e;"/>
   </g>
   <g id="patch_151">
    <path clip-path="url(#pf01e76b4cd)" d="M 200.160512 147.1 
L 202.420412 147.1 
L 202.420412 94.885253 
L 200.160512 94.885253 
z
" style="fill:#ff7f0e;"/>
   </g>
   <g id="patch_152">
    <path clip-path="url(#pf01e76b4cd)" d="M 202.420413 147.1 
L 204.680313 147.1 
L 204.680313 103.304662 
L 202.420413 103.304662 
z
" style="fill:#ff7f0e;"/>
   </g>
   <g id="patch_153">
    <path clip-path="url(#pf01e76b4cd)" d="M 204.680312 147.1 
L 206.940212 147.1 
L 206.940212 110.600852 
L 204.680312 110.600852 
z
" style="fill:#ff7f0e;"/>
   </g>
   <g id="patch_154">
    <path clip-path="url(#pf01e76b4cd)" d="M 206.940212 147.1 
L 209.200113 147.1 
L 209.200113 117.196031 
L 206.940212 117.196031 
z
" style="fill:#ff7f0e;"/>
   </g>
   <g id="patch_155">
    <path clip-path="url(#pf01e76b4cd)" d="M 209.200112 147.1 
L 211.460012 147.1 
L 211.460012 123.312222 
L 209.200112 123.312222 
z
" style="fill:#ff7f0e;"/>
   </g>
   <g id="patch_156">
    <path clip-path="url(#pf01e76b4cd)" d="M 211.460012 147.1 
L 213.719912 147.1 
L 213.719912 128.278989 
L 211.460012 128.278989 
z
" style="fill:#ff7f0e;"/>
   </g>
   <g id="patch_157">
    <path clip-path="url(#pf01e76b4cd)" d="M 213.719913 147.1 
L 215.979813 147.1 
L 215.979813 132.447929 
L 213.719913 132.447929 
z
" style="fill:#ff7f0e;"/>
   </g>
   <g id="patch_158">
    <path clip-path="url(#pf01e76b4cd)" d="M 215.979812 147.1 
L 218.239712 147.1 
L 218.239712 135.961718 
L 215.979812 135.961718 
z
" style="fill:#ff7f0e;"/>
   </g>
   <g id="patch_159">
    <path clip-path="url(#pf01e76b4cd)" d="M 218.239712 147.1 
L 220.499613 147.1 
L 220.499613 138.845835 
L 218.239712 138.845835 
z
" style="fill:#ff7f0e;"/>
   </g>
   <g id="patch_160">
    <path clip-path="url(#pf01e76b4cd)" d="M 220.499613 147.1 
L 222.759513 147.1 
L 222.759513 141.020206 
L 220.499613 141.020206 
z
" style="fill:#ff7f0e;"/>
   </g>
   <g id="patch_161">
    <path clip-path="url(#pf01e76b4cd)" d="M 222.759512 147.1 
L 225.019412 147.1 
L 225.019412 142.678464 
L 222.759512 142.678464 
z
" style="fill:#ff7f0e;"/>
   </g>
   <g id="patch_162">
    <path clip-path="url(#pf01e76b4cd)" d="M 225.019412 147.1 
L 227.279313 147.1 
L 227.279313 143.931985 
L 225.019412 143.931985 
z
" style="fill:#ff7f0e;"/>
   </g>
   <g id="patch_163">
    <path clip-path="url(#pf01e76b4cd)" d="M 227.279313 147.1 
L 229.539212 147.1 
L 229.539212 144.817165 
L 227.279313 144.817165 
z
" style="fill:#ff7f0e;"/>
   </g>
   <g id="patch_164">
    <path clip-path="url(#pf01e76b4cd)" d="M 229.539212 147.1 
L 231.799112 147.1 
L 231.799112 145.54511 
L 229.539212 145.54511 
z
" style="fill:#ff7f0e;"/>
   </g>
   <g id="patch_165">
    <path clip-path="url(#pf01e76b4cd)" d="M 231.799113 147.1 
L 234.059013 147.1 
L 234.059013 146.079422 
L 231.799113 146.079422 
z
" style="fill:#ff7f0e;"/>
   </g>
   <g id="patch_166">
    <path clip-path="url(#pf01e76b4cd)" d="M 234.059012 147.1 
L 236.318912 147.1 
L 236.318912 146.407725 
L 234.059012 146.407725 
z
" style="fill:#ff7f0e;"/>
   </g>
   <g id="patch_167">
    <path clip-path="url(#pf01e76b4cd)" d="M 236.318912 147.1 
L 238.578813 147.1 
L 238.578813 146.666145 
L 236.318912 146.666145 
z
" style="fill:#ff7f0e;"/>
   </g>
   <g id="patch_168">
    <path clip-path="url(#pf01e76b4cd)" d="M 238.578813 147.1 
L 240.838713 147.1 
L 240.838713 146.780432 
L 238.578813 146.780432 
z
" style="fill:#ff7f0e;"/>
   </g>
   <g id="patch_169">
    <path clip-path="url(#pf01e76b4cd)" d="M 240.838712 147.1 
L 243.098612 147.1 
L 243.098612 146.88744 
L 240.838712 146.88744 
z
" style="fill:#ff7f0e;"/>
   </g>
   <g id="patch_170">
    <path clip-path="url(#pf01e76b4cd)" d="M 243.098613 147.1 
L 245.358513 147.1 
L 245.358513 146.954411 
L 243.098613 146.954411 
z
" style="fill:#ff7f0e;"/>
   </g>
   <g id="patch_171">
    <path clip-path="url(#pf01e76b4cd)" d="M 245.358513 147.1 
L 247.618413 147.1 
L 247.618413 147.010463 
L 245.358513 147.010463 
z
" style="fill:#ff7f0e;"/>
   </g>
   <g id="patch_172">
    <path clip-path="url(#pf01e76b4cd)" d="M 247.618412 147.1 
L 249.878312 147.1 
L 249.878312 147.052684 
L 247.618412 147.052684 
z
" style="fill:#ff7f0e;"/>
   </g>
   <g id="patch_173">
    <path clip-path="url(#pf01e76b4cd)" d="M 249.878313 147.1 
L 252.138213 147.1 
L 252.138213 147.06797 
L 249.878313 147.06797 
z
" style="fill:#ff7f0e;"/>
   </g>
   <g id="patch_174">
    <path clip-path="url(#pf01e76b4cd)" d="M 252.138212 147.1 
L 254.398112 147.1 
L 254.398112 147.078162 
L 252.138212 147.078162 
z
" style="fill:#ff7f0e;"/>
   </g>
   <g id="patch_175">
    <path clip-path="url(#pf01e76b4cd)" d="M 254.398112 147.1 
L 256.658013 147.1 
L 256.658013 147.094904 
L 254.398112 147.094904 
z
" style="fill:#ff7f0e;"/>
   </g>
   <g id="patch_176">
    <path clip-path="url(#pf01e76b4cd)" d="M 256.658013 147.1 
L 258.917913 147.1 
L 258.917913 147.097088 
L 256.658013 147.097088 
z
" style="fill:#ff7f0e;"/>
   </g>
   <g id="patch_177">
    <path clip-path="url(#pf01e76b4cd)" d="M 258.917912 147.1 
L 261.177812 147.1 
L 261.177812 147.1 
L 258.917912 147.1 
z
" style="fill:#ff7f0e;"/>
   </g>
   <g id="patch_178">
    <path clip-path="url(#pf01e76b4cd)" d="M 261.177813 147.1 
L 263.437712 147.1 
L 263.437712 147.099272 
L 261.177813 147.099272 
z
" style="fill:#ff7f0e;"/>
   </g>
   <g id="patch_179">
    <path clip-path="url(#pf01e76b4cd)" d="M 263.437712 147.1 
L 265.697612 147.1 
L 265.697612 147.1 
L 263.437712 147.1 
z
" style="fill:#ff7f0e;"/>
   </g>
   <g id="patch_180">
    <path clip-path="url(#pf01e76b4cd)" d="M 265.697612 147.1 
L 267.957513 147.1 
L 267.957513 147.1 
L 265.697612 147.1 
z
" style="fill:#ff7f0e;"/>
   </g>
   <g id="patch_181">
    <path clip-path="url(#pf01e76b4cd)" d="M 267.957513 147.1 
L 270.217413 147.1 
L 270.217413 147.1 
L 267.957513 147.1 
z
" style="fill:#ff7f0e;"/>
   </g>
   <g id="patch_182">
    <path clip-path="url(#pf01e76b4cd)" d="M 270.217412 147.1 
L 272.477312 147.1 
L 272.477312 147.1 
L 270.217412 147.1 
z
" style="fill:#ff7f0e;"/>
   </g>
   <g id="patch_183">
    <path clip-path="url(#pf01e76b4cd)" d="M 272.477312 147.1 
L 274.737213 147.1 
L 274.737213 147.1 
L 272.477312 147.1 
z
" style="fill:#ff7f0e;"/>
   </g>
   <g id="patch_184">
    <path clip-path="url(#pf01e76b4cd)" d="M 274.737213 147.1 
L 276.997113 147.1 
L 276.997113 147.1 
L 274.737213 147.1 
z
" style="fill:#ff7f0e;"/>
   </g>
   <g id="patch_185">
    <path clip-path="url(#pf01e76b4cd)" d="M 276.997112 147.1 
L 279.257012 147.1 
L 279.257012 147.1 
L 276.997112 147.1 
z
" style="fill:#ff7f0e;"/>
   </g>
   <g id="patch_186">
    <path clip-path="url(#pf01e76b4cd)" d="M 279.257013 147.1 
L 281.516912 147.1 
L 281.516912 147.1 
L 279.257013 147.1 
z
" style="fill:#ff7f0e;"/>
   </g>
   <g id="patch_187">
    <path clip-path="url(#pf01e76b4cd)" d="M 281.516912 147.1 
L 283.776812 147.1 
L 283.776812 147.1 
L 281.516912 147.1 
z
" style="fill:#ff7f0e;"/>
   </g>
   <g id="patch_188">
    <path clip-path="url(#pf01e76b4cd)" d="M 283.776812 147.1 
L 286.036713 147.1 
L 286.036713 147.1 
L 283.776812 147.1 
z
" style="fill:#ff7f0e;"/>
   </g>
   <g id="patch_189">
    <path clip-path="url(#pf01e76b4cd)" d="M 286.036713 147.1 
L 288.296613 147.1 
L 288.296613 147.1 
L 286.036713 147.1 
z
" style="fill:#ff7f0e;"/>
   </g>
   <g id="patch_190">
    <path clip-path="url(#pf01e76b4cd)" d="M 288.296612 147.1 
L 290.556512 147.1 
L 290.556512 147.1 
L 288.296612 147.1 
z
" style="fill:#ff7f0e;"/>
   </g>
   <g id="patch_191">
    <path clip-path="url(#pf01e76b4cd)" d="M 290.556512 147.1 
L 292.816412 147.1 
L 292.816412 147.1 
L 290.556512 147.1 
z
" style="fill:#ff7f0e;"/>
   </g>
   <g id="patch_192">
    <path clip-path="url(#pf01e76b4cd)" d="M 292.816412 147.1 
L 295.076312 147.1 
L 295.076312 147.1 
L 292.816412 147.1 
z
" style="fill:#ff7f0e;"/>
   </g>
   <g id="patch_193">
    <path clip-path="url(#pf01e76b4cd)" d="M 295.076312 147.1 
L 297.336212 147.1 
L 297.336212 147.1 
L 295.076312 147.1 
z
" style="fill:#ff7f0e;"/>
   </g>
   <g id="patch_194">
    <path clip-path="url(#pf01e76b4cd)" d="M 297.336213 147.1 
L 299.596113 147.1 
L 299.596113 147.1 
L 297.336213 147.1 
z
" style="fill:#ff7f0e;"/>
   </g>
   <g id="patch_195">
    <path clip-path="url(#pf01e76b4cd)" d="M 299.596112 147.1 
L 301.856012 147.1 
L 301.856012 147.1 
L 299.596112 147.1 
z
" style="fill:#ff7f0e;"/>
   </g>
   <g id="patch_196">
    <path clip-path="url(#pf01e76b4cd)" d="M 301.856012 147.1 
L 304.115913 147.1 
L 304.115913 147.1 
L 301.856012 147.1 
z
" style="fill:#ff7f0e;"/>
   </g>
   <g id="patch_197">
    <path clip-path="url(#pf01e76b4cd)" d="M 304.115913 147.1 
L 306.375813 147.1 
L 306.375813 147.1 
L 304.115913 147.1 
z
" style="fill:#ff7f0e;"/>
   </g>
   <g id="patch_198">
    <path clip-path="url(#pf01e76b4cd)" d="M 306.375812 147.1 
L 308.635712 147.1 
L 308.635712 147.1 
L 306.375812 147.1 
z
" style="fill:#ff7f0e;"/>
   </g>
   <g id="patch_199">
    <path clip-path="url(#pf01e76b4cd)" d="M 308.635713 147.1 
L 310.895612 147.1 
L 310.895612 147.1 
L 308.635713 147.1 
z
" style="fill:#ff7f0e;"/>
   </g>
   <g id="patch_200">
    <path clip-path="url(#pf01e76b4cd)" d="M 310.895612 147.1 
L 313.155512 147.1 
L 313.155512 147.1 
L 310.895612 147.1 
z
" style="fill:#ff7f0e;"/>
   </g>
   <g id="patch_201">
    <path clip-path="url(#pf01e76b4cd)" d="M 313.155512 147.1 
L 315.415413 147.1 
L 315.415413 147.1 
L 313.155512 147.1 
z
" style="fill:#ff7f0e;"/>
   </g>
   <g id="patch_202">
    <path clip-path="url(#pf01e76b4cd)" d="M 315.415413 147.1 
L 317.675313 147.1 
L 317.675313 147.1 
L 315.415413 147.1 
z
" style="fill:#ff7f0e;"/>
   </g>
   <g id="patch_203">
    <path clip-path="url(#pf01e76b4cd)" d="M 91.685312 147.1 
L 93.945212 147.1 
L 93.945212 147.1 
L 91.685312 147.1 
z
" style="fill:#2ca02c;"/>
   </g>
   <g id="patch_204">
    <path clip-path="url(#pf01e76b4cd)" d="M 93.945212 147.1 
L 96.205112 147.1 
L 96.205112 147.1 
L 93.945212 147.1 
z
" style="fill:#2ca02c;"/>
   </g>
   <g id="patch_205">
    <path clip-path="url(#pf01e76b4cd)" d="M 96.205112 147.1 
L 98.465012 147.1 
L 98.465012 147.1 
L 96.205112 147.1 
z
" style="fill:#2ca02c;"/>
   </g>
   <g id="patch_206">
    <path clip-path="url(#pf01e76b4cd)" d="M 98.465012 147.1 
L 100.724912 147.1 
L 100.724912 147.1 
L 98.465012 147.1 
z
" style="fill:#2ca02c;"/>
   </g>
   <g id="patch_207">
    <path clip-path="url(#pf01e76b4cd)" d="M 100.724912 147.1 
L 102.984812 147.1 
L 102.984812 147.1 
L 100.724912 147.1 
z
" style="fill:#2ca02c;"/>
   </g>
   <g id="patch_208">
    <path clip-path="url(#pf01e76b4cd)" d="M 102.984812 147.1 
L 105.244712 147.1 
L 105.244712 147.099272 
L 102.984812 147.099272 
z
" style="fill:#2ca02c;"/>
   </g>
   <g id="patch_209">
    <path clip-path="url(#pf01e76b4cd)" d="M 105.244712 147.1 
L 107.504612 147.1 
L 107.504612 147.098544 
L 105.244712 147.098544 
z
" style="fill:#2ca02c;"/>
   </g>
   <g id="patch_210">
    <path clip-path="url(#pf01e76b4cd)" d="M 107.504612 147.1 
L 109.764512 147.1 
L 109.764512 147.1 
L 107.504612 147.1 
z
" style="fill:#2ca02c;"/>
   </g>
   <g id="patch_211">
    <path clip-path="url(#pf01e76b4cd)" d="M 109.764512 147.1 
L 112.024412 147.1 
L 112.024412 147.098544 
L 109.764512 147.098544 
z
" style="fill:#2ca02c;"/>
   </g>
   <g id="patch_212">
    <path clip-path="url(#pf01e76b4cd)" d="M 112.024412 147.1 
L 114.284312 147.1 
L 114.284312 147.097816 
L 112.024412 147.097816 
z
" style="fill:#2ca02c;"/>
   </g>
   <g id="patch_213">
    <path clip-path="url(#pf01e76b4cd)" d="M 114.284312 147.1 
L 116.544212 147.1 
L 116.544212 147.09636 
L 114.284312 147.09636 
z
" style="fill:#2ca02c;"/>
   </g>
   <g id="patch_214">
    <path clip-path="url(#pf01e76b4cd)" d="M 116.544212 147.1 
L 118.804112 147.1 
L 118.804112 147.089809 
L 116.544212 147.089809 
z
" style="fill:#2ca02c;"/>
   </g>
   <g id="patch_215">
    <path clip-path="url(#pf01e76b4cd)" d="M 118.804112 147.1 
L 121.064012 147.1 
L 121.064012 147.081801 
L 118.804112 147.081801 
z
" style="fill:#2ca02c;"/>
   </g>
   <g id="patch_216">
    <path clip-path="url(#pf01e76b4cd)" d="M 121.064012 147.1 
L 123.323912 147.1 
L 123.323912 147.069426 
L 121.064012 147.069426 
z
" style="fill:#2ca02c;"/>
   </g>
   <g id="patch_217">
    <path clip-path="url(#pf01e76b4cd)" d="M 123.323913 147.1 
L 125.583812 147.1 
L 125.583812 147.043948 
L 123.323913 147.043948 
z
" style="fill:#2ca02c;"/>
   </g>
   <g id="patch_218">
    <path clip-path="url(#pf01e76b4cd)" d="M 125.583812 147.1 
L 127.843712 147.1 
L 127.843712 147.033757 
L 125.583812 147.033757 
z
" style="fill:#2ca02c;"/>
   </g>
   <g id="patch_219">
    <path clip-path="url(#pf01e76b4cd)" d="M 127.843712 147.1 
L 130.103612 147.1 
L 130.103612 146.973338 
L 127.843712 146.973338 
z
" style="fill:#2ca02c;"/>
   </g>
   <g id="patch_220">
    <path clip-path="url(#pf01e76b4cd)" d="M 130.103612 147.1 
L 132.363512 147.1 
L 132.363512 146.903455 
L 130.103612 146.903455 
z
" style="fill:#2ca02c;"/>
   </g>
   <g id="patch_221">
    <path clip-path="url(#pf01e76b4cd)" d="M 132.363513 147.1 
L 134.623413 147.1 
L 134.623413 146.76005 
L 132.363513 146.76005 
z
" style="fill:#2ca02c;"/>
   </g>
   <g id="patch_222">
    <path clip-path="url(#pf01e76b4cd)" d="M 134.623412 147.1 
L 136.883312 147.1 
L 136.883312 146.605726 
L 134.623412 146.605726 
z
" style="fill:#2ca02c;"/>
   </g>
   <g id="patch_223">
    <path clip-path="url(#pf01e76b4cd)" d="M 136.883312 147.1 
L 139.143213 147.1 
L 139.143213 146.381519 
L 136.883312 146.381519 
z
" style="fill:#2ca02c;"/>
   </g>
   <g id="patch_224">
    <path clip-path="url(#pf01e76b4cd)" d="M 139.143213 147.1 
L 141.403112 147.1 
L 141.403112 145.968046 
L 139.143213 145.968046 
z
" style="fill:#2ca02c;"/>
   </g>
   <g id="patch_225">
    <path clip-path="url(#pf01e76b4cd)" d="M 141.403112 147.1 
L 143.663012 147.1 
L 143.663012 145.456301 
L 141.403112 145.456301 
z
" style="fill:#2ca02c;"/>
   </g>
   <g id="patch_226">
    <path clip-path="url(#pf01e76b4cd)" d="M 143.663012 147.1 
L 145.922912 147.1 
L 145.922912 144.781496 
L 143.663012 144.781496 
z
" style="fill:#2ca02c;"/>
   </g>
   <g id="patch_227">
    <path clip-path="url(#pf01e76b4cd)" d="M 145.922912 147.1 
L 148.182813 147.1 
L 148.182813 143.732528 
L 145.922912 143.732528 
z
" style="fill:#2ca02c;"/>
   </g>
   <g id="patch_228">
    <path clip-path="url(#pf01e76b4cd)" d="M 148.182813 147.1 
L 150.442712 147.1 
L 150.442712 142.412764 
L 148.182813 142.412764 
z
" style="fill:#2ca02c;"/>
   </g>
   <g id="patch_229">
    <path clip-path="url(#pf01e76b4cd)" d="M 150.442712 147.1 
L 152.702612 147.1 
L 152.702612 140.846227 
L 150.442712 140.846227 
z
" style="fill:#2ca02c;"/>
   </g>
   <g id="patch_230">
    <path clip-path="url(#pf01e76b4cd)" d="M 152.702612 147.1 
L 154.962512 147.1 
L 154.962512 138.759937 
L 152.702612 138.759937 
z
" style="fill:#2ca02c;"/>
   </g>
   <g id="patch_231">
    <path clip-path="url(#pf01e76b4cd)" d="M 154.962513 147.1 
L 157.222412 147.1 
L 157.222412 136.150256 
L 154.962513 136.150256 
z
" style="fill:#2ca02c;"/>
   </g>
   <g id="patch_232">
    <path clip-path="url(#pf01e76b4cd)" d="M 157.222412 147.1 
L 159.482312 147.1 
L 159.482312 132.906534 
L 157.222412 132.906534 
z
" style="fill:#2ca02c;"/>
   </g>
   <g id="patch_233">
    <path clip-path="url(#pf01e76b4cd)" d="M 159.482312 147.1 
L 161.742212 147.1 
L 161.742212 128.95525 
L 159.482312 128.95525 
z
" style="fill:#2ca02c;"/>
   </g>
   <g id="patch_234">
    <path clip-path="url(#pf01e76b4cd)" d="M 161.742212 147.1 
L 164.002112 147.1 
L 164.002112 124.500956 
L 161.742212 124.500956 
z
" style="fill:#2ca02c;"/>
   </g>
   <g id="patch_235">
    <path clip-path="url(#pf01e76b4cd)" d="M 164.002113 147.1 
L 166.262012 147.1 
L 166.262012 119.355843 
L 164.002113 119.355843 
z
" style="fill:#2ca02c;"/>
   </g>
   <g id="patch_236">
    <path clip-path="url(#pf01e76b4cd)" d="M 166.262012 147.1 
L 168.521913 147.1 
L 168.521913 113.399071 
L 166.262012 113.399071 
z
" style="fill:#2ca02c;"/>
   </g>
   <g id="patch_237">
    <path clip-path="url(#pf01e76b4cd)" d="M 168.521913 147.1 
L 170.781813 147.1 
L 170.781813 106.589876 
L 168.521913 106.589876 
z
" style="fill:#2ca02c;"/>
   </g>
   <g id="patch_238">
    <path clip-path="url(#pf01e76b4cd)" d="M 170.781812 147.1 
L 173.041712 147.1 
L 173.041712 99.333723 
L 170.781812 99.333723 
z
" style="fill:#2ca02c;"/>
   </g>
   <g id="patch_239">
    <path clip-path="url(#pf01e76b4cd)" d="M 173.041713 147.1 
L 175.301613 147.1 
L 175.301613 92.483036 
L 173.041713 92.483036 
z
" style="fill:#2ca02c;"/>
   </g>
   <g id="patch_240">
    <path clip-path="url(#pf01e76b4cd)" d="M 175.301612 147.1 
L 177.561512 147.1 
L 177.561512 84.601578 
L 175.301612 84.601578 
z
" style="fill:#2ca02c;"/>
   </g>
   <g id="patch_241">
    <path clip-path="url(#pf01e76b4cd)" d="M 177.561512 147.1 
L 179.821413 147.1 
L 179.821413 77.220219 
L 177.561512 77.220219 
z
" style="fill:#2ca02c;"/>
   </g>
   <g id="patch_242">
    <path clip-path="url(#pf01e76b4cd)" d="M 179.821413 147.1 
L 182.081312 147.1 
L 182.081312 70.461252 
L 179.821413 70.461252 
z
" style="fill:#2ca02c;"/>
   </g>
   <g id="patch_243">
    <path clip-path="url(#pf01e76b4cd)" d="M 182.081312 147.1 
L 184.341212 147.1 
L 184.341212 63.515931 
L 182.081312 63.515931 
z
" style="fill:#2ca02c;"/>
   </g>
   <g id="patch_244">
    <path clip-path="url(#pf01e76b4cd)" d="M 184.341212 147.1 
L 186.601112 147.1 
L 186.601112 57.590461 
L 184.341212 57.590461 
z
" style="fill:#2ca02c;"/>
   </g>
   <g id="patch_245">
    <path clip-path="url(#pf01e76b4cd)" d="M 186.601112 147.1 
L 188.861013 147.1 
L 188.861013 52.529062 
L 186.601112 52.529062 
z
" style="fill:#2ca02c;"/>
   </g>
   <g id="patch_246">
    <path clip-path="url(#pf01e76b4cd)" d="M 188.861012 147.1 
L 191.120912 147.1 
L 191.120912 48.380505 
L 188.861012 48.380505 
z
" style="fill:#2ca02c;"/>
   </g>
   <g id="patch_247">
    <path clip-path="url(#pf01e76b4cd)" d="M 191.120912 147.1 
L 193.380812 147.1 
L 193.380812 45.609219 
L 191.120912 45.609219 
z
" style="fill:#2ca02c;"/>
   </g>
   <g id="patch_248">
    <path clip-path="url(#pf01e76b4cd)" d="M 193.380812 147.1 
L 195.640712 147.1 
L 195.640712 43.854144 
L 193.380812 43.854144 
z
" style="fill:#2ca02c;"/>
   </g>
   <g id="patch_249">
    <path clip-path="url(#pf01e76b4cd)" d="M 195.640713 147.1 
L 197.900613 147.1 
L 197.900613 44.427037 
L 195.640713 44.427037 
z
" style="fill:#2ca02c;"/>
   </g>
   <g id="patch_250">
    <path clip-path="url(#pf01e76b4cd)" d="M 197.900613 147.1 
L 200.160513 147.1 
L 200.160513 46.165369 
L 197.900613 46.165369 
z
" style="fill:#2ca02c;"/>
   </g>
   <g id="patch_251">
    <path clip-path="url(#pf01e76b4cd)" d="M 200.160512 147.1 
L 202.420412 147.1 
L 202.420412 49.458591 
L 200.160512 49.458591 
z
" style="fill:#2ca02c;"/>
   </g>
   <g id="patch_252">
    <path clip-path="url(#pf01e76b4cd)" d="M 202.420413 147.1 
L 204.680313 147.1 
L 204.680313 53.204594 
L 202.420413 53.204594 
z
" style="fill:#2ca02c;"/>
   </g>
   <g id="patch_253">
    <path clip-path="url(#pf01e76b4cd)" d="M 204.680312 147.1 
L 206.940212 147.1 
L 206.940212 58.162626 
L 204.680312 58.162626 
z
" style="fill:#2ca02c;"/>
   </g>
   <g id="patch_254">
    <path clip-path="url(#pf01e76b4cd)" d="M 206.940212 147.1 
L 209.200113 147.1 
L 209.200113 64.580186 
L 206.940212 64.580186 
z
" style="fill:#2ca02c;"/>
   </g>
   <g id="patch_255">
    <path clip-path="url(#pf01e76b4cd)" d="M 209.200112 147.1 
L 211.460012 147.1 
L 211.460012 70.759709 
L 209.200112 70.759709 
z
" style="fill:#2ca02c;"/>
   </g>
   <g id="patch_256">
    <path clip-path="url(#pf01e76b4cd)" d="M 211.460012 147.1 
L 213.719912 147.1 
L 213.719912 78.234973 
L 211.460012 78.234973 
z
" style="fill:#2ca02c;"/>
   </g>
   <g id="patch_257">
    <path clip-path="url(#pf01e76b4cd)" d="M 213.719913 147.1 
L 215.979813 147.1 
L 215.979813 84.734064 
L 213.719913 84.734064 
z
" style="fill:#2ca02c;"/>
   </g>
   <g id="patch_258">
    <path clip-path="url(#pf01e76b4cd)" d="M 215.979812 147.1 
L 218.239712 147.1 
L 218.239712 91.84026 
L 215.979812 91.84026 
z
" style="fill:#2ca02c;"/>
   </g>
   <g id="patch_259">
    <path clip-path="url(#pf01e76b4cd)" d="M 218.239712 147.1 
L 220.499613 147.1 
L 220.499613 98.294218 
L 218.239712 98.294218 
z
" style="fill:#2ca02c;"/>
   </g>
   <g id="patch_260">
    <path clip-path="url(#pf01e76b4cd)" d="M 220.499613 147.1 
L 222.759513 147.1 
L 222.759513 105.664659 
L 220.499613 105.664659 
z
" style="fill:#2ca02c;"/>
   </g>
   <g id="patch_261">
    <path clip-path="url(#pf01e76b4cd)" d="M 222.759512 147.1 
L 225.019412 147.1 
L 225.019412 111.911152 
L 222.759512 111.911152 
z
" style="fill:#2ca02c;"/>
   </g>
   <g id="patch_262">
    <path clip-path="url(#pf01e76b4cd)" d="M 225.019412 147.1 
L 227.279313 147.1 
L 227.279313 117.347443 
L 225.019412 117.347443 
z
" style="fill:#2ca02c;"/>
   </g>
   <g id="patch_263">
    <path clip-path="url(#pf01e76b4cd)" d="M 227.279313 147.1 
L 229.539212 147.1 
L 229.539212 122.726227 
L 227.279313 122.726227 
z
" style="fill:#2ca02c;"/>
   </g>
   <g id="patch_264">
    <path clip-path="url(#pf01e76b4cd)" d="M 229.539212 147.1 
L 231.799112 147.1 
L 231.799112 126.920644 
L 229.539212 126.920644 
z
" style="fill:#2ca02c;"/>
   </g>
   <g id="patch_265">
    <path clip-path="url(#pf01e76b4cd)" d="M 231.799113 147.1 
L 234.059013 147.1 
L 234.059013 130.518875 
L 231.799113 130.518875 
z
" style="fill:#2ca02c;"/>
   </g>
   <g id="patch_266">
    <path clip-path="url(#pf01e76b4cd)" d="M 234.059012 147.1 
L 236.318912 147.1 
L 236.318912 133.727655 
L 234.059012 133.727655 
z
" style="fill:#2ca02c;"/>
   </g>
   <g id="patch_267">
    <path clip-path="url(#pf01e76b4cd)" d="M 236.318912 147.1 
L 238.578813 147.1 
L 238.578813 136.341705 
L 236.318912 136.341705 
z
" style="fill:#2ca02c;"/>
   </g>
   <g id="patch_268">
    <path clip-path="url(#pf01e76b4cd)" d="M 238.578813 147.1 
L 240.838713 147.1 
L 240.838713 138.711893 
L 238.578813 138.711893 
z
" style="fill:#2ca02c;"/>
   </g>
   <g id="patch_269">
    <path clip-path="url(#pf01e76b4cd)" d="M 240.838712 147.1 
L 243.098612 147.1 
L 243.098612 140.458232 
L 240.838712 140.458232 
z
" style="fill:#2ca02c;"/>
   </g>
   <g id="patch_270">
    <path clip-path="url(#pf01e76b4cd)" d="M 243.098613 147.1 
L 245.358513 147.1 
L 245.358513 142.155072 
L 243.098613 142.155072 
z
" style="fill:#2ca02c;"/>
   </g>
   <g id="patch_271">
    <path clip-path="url(#pf01e76b4cd)" d="M 245.358513 147.1 
L 247.618413 147.1 
L 247.618413 143.328518 
L 245.358513 143.328518 
z
" style="fill:#2ca02c;"/>
   </g>
   <g id="patch_272">
    <path clip-path="url(#pf01e76b4cd)" d="M 247.618412 147.1 
L 249.878312 147.1 
L 249.878312 144.314883 
L 247.618412 144.314883 
z
" style="fill:#2ca02c;"/>
   </g>
   <g id="patch_273">
    <path clip-path="url(#pf01e76b4cd)" d="M 249.878313 147.1 
L 252.138213 147.1 
L 252.138213 144.956931 
L 249.878313 144.956931 
z
" style="fill:#2ca02c;"/>
   </g>
   <g id="patch_274">
    <path clip-path="url(#pf01e76b4cd)" d="M 252.138212 147.1 
L 254.398112 147.1 
L 254.398112 145.613537 
L 252.138212 145.613537 
z
" style="fill:#2ca02c;"/>
   </g>
   <g id="patch_275">
    <path clip-path="url(#pf01e76b4cd)" d="M 254.398112 147.1 
L 256.658013 147.1 
L 256.658013 145.970958 
L 254.398112 145.970958 
z
" style="fill:#2ca02c;"/>
   </g>
   <g id="patch_276">
    <path clip-path="url(#pf01e76b4cd)" d="M 256.658013 147.1 
L 258.917913 147.1 
L 258.917913 146.354585 
L 256.658013 146.354585 
z
" style="fill:#2ca02c;"/>
   </g>
   <g id="patch_277">
    <path clip-path="url(#pf01e76b4cd)" d="M 258.917912 147.1 
L 261.177812 147.1 
L 261.177812 146.570056 
L 258.917912 146.570056 
z
" style="fill:#2ca02c;"/>
   </g>
   <g id="patch_278">
    <path clip-path="url(#pf01e76b4cd)" d="M 261.177813 147.1 
L 263.437712 147.1 
L 263.437712 146.682888 
L 261.177813 146.682888 
z
" style="fill:#2ca02c;"/>
   </g>
   <g id="patch_279">
    <path clip-path="url(#pf01e76b4cd)" d="M 263.437712 147.1 
L 265.697612 147.1 
L 265.697612 146.812462 
L 263.437712 146.812462 
z
" style="fill:#2ca02c;"/>
   </g>
   <g id="patch_280">
    <path clip-path="url(#pf01e76b4cd)" d="M 265.697612 147.1 
L 267.957513 147.1 
L 267.957513 146.915102 
L 265.697612 146.915102 
z
" style="fill:#2ca02c;"/>
   </g>
   <g id="patch_281">
    <path clip-path="url(#pf01e76b4cd)" d="M 267.957513 147.1 
L 270.217413 147.1 
L 270.217413 146.94786 
L 267.957513 146.94786 
z
" style="fill:#2ca02c;"/>
   </g>
   <g id="patch_282">
    <path clip-path="url(#pf01e76b4cd)" d="M 270.217412 147.1 
L 272.477312 147.1 
L 272.477312 147.027933 
L 270.217412 147.027933 
z
" style="fill:#2ca02c;"/>
   </g>
   <g id="patch_283">
    <path clip-path="url(#pf01e76b4cd)" d="M 272.477312 147.1 
L 274.737213 147.1 
L 274.737213 147.049772 
L 272.477312 147.049772 
z
" style="fill:#2ca02c;"/>
   </g>
   <g id="patch_284">
    <path clip-path="url(#pf01e76b4cd)" d="M 274.737213 147.1 
L 276.997113 147.1 
L 276.997113 147.074522 
L 274.737213 147.074522 
z
" style="fill:#2ca02c;"/>
   </g>
   <g id="patch_285">
    <path clip-path="url(#pf01e76b4cd)" d="M 276.997112 147.1 
L 279.257012 147.1 
L 279.257012 147.083985 
L 276.997112 147.083985 
z
" style="fill:#2ca02c;"/>
   </g>
   <g id="patch_286">
    <path clip-path="url(#pf01e76b4cd)" d="M 279.257013 147.1 
L 281.516912 147.1 
L 281.516912 147.09636 
L 279.257013 147.09636 
z
" style="fill:#2ca02c;"/>
   </g>
   <g id="patch_287">
    <path clip-path="url(#pf01e76b4cd)" d="M 281.516912 147.1 
L 283.776812 147.1 
L 283.776812 147.09636 
L 281.516912 147.09636 
z
" style="fill:#2ca02c;"/>
   </g>
   <g id="patch_288">
    <path clip-path="url(#pf01e76b4cd)" d="M 283.776812 147.1 
L 286.036713 147.1 
L 286.036713 147.097088 
L 283.776812 147.097088 
z
" style="fill:#2ca02c;"/>
   </g>
   <g id="patch_289">
    <path clip-path="url(#pf01e76b4cd)" d="M 286.036713 147.1 
L 288.296613 147.1 
L 288.296613 147.1 
L 286.036713 147.1 
z
" style="fill:#2ca02c;"/>
   </g>
   <g id="patch_290">
    <path clip-path="url(#pf01e76b4cd)" d="M 288.296612 147.1 
L 290.556512 147.1 
L 290.556512 147.099272 
L 288.296612 147.099272 
z
" style="fill:#2ca02c;"/>
   </g>
   <g id="patch_291">
    <path clip-path="url(#pf01e76b4cd)" d="M 290.556512 147.1 
L 292.816412 147.1 
L 292.816412 147.1 
L 290.556512 147.1 
z
" style="fill:#2ca02c;"/>
   </g>
   <g id="patch_292">
    <path clip-path="url(#pf01e76b4cd)" d="M 292.816412 147.1 
L 295.076312 147.1 
L 295.076312 147.1 
L 292.816412 147.1 
z
" style="fill:#2ca02c;"/>
   </g>
   <g id="patch_293">
    <path clip-path="url(#pf01e76b4cd)" d="M 295.076312 147.1 
L 297.336212 147.1 
L 297.336212 147.1 
L 295.076312 147.1 
z
" style="fill:#2ca02c;"/>
   </g>
   <g id="patch_294">
    <path clip-path="url(#pf01e76b4cd)" d="M 297.336213 147.1 
L 299.596113 147.1 
L 299.596113 147.1 
L 297.336213 147.1 
z
" style="fill:#2ca02c;"/>
   </g>
   <g id="patch_295">
    <path clip-path="url(#pf01e76b4cd)" d="M 299.596112 147.1 
L 301.856012 147.1 
L 301.856012 147.1 
L 299.596112 147.1 
z
" style="fill:#2ca02c;"/>
   </g>
   <g id="patch_296">
    <path clip-path="url(#pf01e76b4cd)" d="M 301.856012 147.1 
L 304.115913 147.1 
L 304.115913 147.1 
L 301.856012 147.1 
z
" style="fill:#2ca02c;"/>
   </g>
   <g id="patch_297">
    <path clip-path="url(#pf01e76b4cd)" d="M 304.115913 147.1 
L 306.375813 147.1 
L 306.375813 147.1 
L 304.115913 147.1 
z
" style="fill:#2ca02c;"/>
   </g>
   <g id="patch_298">
    <path clip-path="url(#pf01e76b4cd)" d="M 306.375812 147.1 
L 308.635712 147.1 
L 308.635712 147.1 
L 306.375812 147.1 
z
" style="fill:#2ca02c;"/>
   </g>
   <g id="patch_299">
    <path clip-path="url(#pf01e76b4cd)" d="M 308.635713 147.1 
L 310.895612 147.1 
L 310.895612 147.1 
L 308.635713 147.1 
z
" style="fill:#2ca02c;"/>
   </g>
   <g id="patch_300">
    <path clip-path="url(#pf01e76b4cd)" d="M 310.895612 147.1 
L 313.155512 147.1 
L 313.155512 147.1 
L 310.895612 147.1 
z
" style="fill:#2ca02c;"/>
   </g>
   <g id="patch_301">
    <path clip-path="url(#pf01e76b4cd)" d="M 313.155512 147.1 
L 315.415413 147.1 
L 315.415413 147.1 
L 313.155512 147.1 
z
" style="fill:#2ca02c;"/>
   </g>
   <g id="patch_302">
    <path clip-path="url(#pf01e76b4cd)" d="M 315.415413 147.1 
L 317.675313 147.1 
L 317.675313 147.1 
L 315.415413 147.1 
z
" style="fill:#2ca02c;"/>
   </g>
   <g id="patch_303">
    <path clip-path="url(#pf01e76b4cd)" d="M 91.685312 147.1 
L 93.945212 147.1 
L 93.945212 147.1 
L 91.685312 147.1 
z
" style="fill:#d62728;"/>
   </g>
   <g id="patch_304">
    <path clip-path="url(#pf01e76b4cd)" d="M 93.945212 147.1 
L 96.205112 147.1 
L 96.205112 147.1 
L 93.945212 147.1 
z
" style="fill:#d62728;"/>
   </g>
   <g id="patch_305">
    <path clip-path="url(#pf01e76b4cd)" d="M 96.205112 147.1 
L 98.465012 147.1 
L 98.465012 147.1 
L 96.205112 147.1 
z
" style="fill:#d62728;"/>
   </g>
   <g id="patch_306">
    <path clip-path="url(#pf01e76b4cd)" d="M 98.465012 147.1 
L 100.724912 147.1 
L 100.724912 147.1 
L 98.465012 147.1 
z
" style="fill:#d62728;"/>
   </g>
   <g id="patch_307">
    <path clip-path="url(#pf01e76b4cd)" d="M 100.724912 147.1 
L 102.984812 147.1 
L 102.984812 147.1 
L 100.724912 147.1 
z
" style="fill:#d62728;"/>
   </g>
   <g id="patch_308">
    <path clip-path="url(#pf01e76b4cd)" d="M 102.984812 147.1 
L 105.244712 147.1 
L 105.244712 147.1 
L 102.984812 147.1 
z
" style="fill:#d62728;"/>
   </g>
   <g id="patch_309">
    <path clip-path="url(#pf01e76b4cd)" d="M 105.244712 147.1 
L 107.504612 147.1 
L 107.504612 147.1 
L 105.244712 147.1 
z
" style="fill:#d62728;"/>
   </g>
   <g id="patch_310">
    <path clip-path="url(#pf01e76b4cd)" d="M 107.504612 147.1 
L 109.764512 147.1 
L 109.764512 147.1 
L 107.504612 147.1 
z
" style="fill:#d62728;"/>
   </g>
   <g id="patch_311">
    <path clip-path="url(#pf01e76b4cd)" d="M 109.764512 147.1 
L 112.024412 147.1 
L 112.024412 147.1 
L 109.764512 147.1 
z
" style="fill:#d62728;"/>
   </g>
   <g id="patch_312">
    <path clip-path="url(#pf01e76b4cd)" d="M 112.024412 147.1 
L 114.284312 147.1 
L 114.284312 147.1 
L 112.024412 147.1 
z
" style="fill:#d62728;"/>
   </g>
   <g id="patch_313">
    <path clip-path="url(#pf01e76b4cd)" d="M 114.284312 147.1 
L 116.544212 147.1 
L 116.544212 147.1 
L 114.284312 147.1 
z
" style="fill:#d62728;"/>
   </g>
   <g id="patch_314">
    <path clip-path="url(#pf01e76b4cd)" d="M 116.544212 147.1 
L 118.804112 147.1 
L 118.804112 147.099272 
L 116.544212 147.099272 
z
" style="fill:#d62728;"/>
   </g>
   <g id="patch_315">
    <path clip-path="url(#pf01e76b4cd)" d="M 118.804112 147.1 
L 121.064012 147.1 
L 121.064012 147.098544 
L 118.804112 147.098544 
z
" style="fill:#d62728;"/>
   </g>
   <g id="patch_316">
    <path clip-path="url(#pf01e76b4cd)" d="M 121.064012 147.1 
L 123.323912 147.1 
L 123.323912 147.097088 
L 121.064012 147.097088 
z
" style="fill:#d62728;"/>
   </g>
   <g id="patch_317">
    <path clip-path="url(#pf01e76b4cd)" d="M 123.323913 147.1 
L 125.583812 147.1 
L 125.583812 147.097816 
L 123.323913 147.097816 
z
" style="fill:#d62728;"/>
   </g>
   <g id="patch_318">
    <path clip-path="url(#pf01e76b4cd)" d="M 125.583812 147.1 
L 127.843712 147.1 
L 127.843712 147.097088 
L 125.583812 147.097088 
z
" style="fill:#d62728;"/>
   </g>
   <g id="patch_319">
    <path clip-path="url(#pf01e76b4cd)" d="M 127.843712 147.1 
L 130.103612 147.1 
L 130.103612 147.093448 
L 127.843712 147.093448 
z
" style="fill:#d62728;"/>
   </g>
   <g id="patch_320">
    <path clip-path="url(#pf01e76b4cd)" d="M 130.103612 147.1 
L 132.363512 147.1 
L 132.363512 147.085441 
L 130.103612 147.085441 
z
" style="fill:#d62728;"/>
   </g>
   <g id="patch_321">
    <path clip-path="url(#pf01e76b4cd)" d="M 132.363513 147.1 
L 134.623413 147.1 
L 134.623413 147.081073 
L 132.363513 147.081073 
z
" style="fill:#d62728;"/>
   </g>
   <g id="patch_322">
    <path clip-path="url(#pf01e76b4cd)" d="M 134.623412 147.1 
L 136.883312 147.1 
L 136.883312 147.070882 
L 134.623412 147.070882 
z
" style="fill:#d62728;"/>
   </g>
   <g id="patch_323">
    <path clip-path="url(#pf01e76b4cd)" d="M 136.883312 147.1 
L 139.143213 147.1 
L 139.143213 147.044676 
L 136.883312 147.044676 
z
" style="fill:#d62728;"/>
   </g>
   <g id="patch_324">
    <path clip-path="url(#pf01e76b4cd)" d="M 139.143213 147.1 
L 141.403112 147.1 
L 141.403112 147.019926 
L 139.143213 147.019926 
z
" style="fill:#d62728;"/>
   </g>
   <g id="patch_325">
    <path clip-path="url(#pf01e76b4cd)" d="M 141.403112 147.1 
L 143.663012 147.1 
L 143.663012 146.977705 
L 141.403112 146.977705 
z
" style="fill:#d62728;"/>
   </g>
   <g id="patch_326">
    <path clip-path="url(#pf01e76b4cd)" d="M 143.663012 147.1 
L 145.922912 147.1 
L 145.922912 146.889624 
L 143.663012 146.889624 
z
" style="fill:#d62728;"/>
   </g>
   <g id="patch_327">
    <path clip-path="url(#pf01e76b4cd)" d="M 145.922912 147.1 
L 148.182813 147.1 
L 148.182813 146.741123 
L 145.922912 146.741123 
z
" style="fill:#d62728;"/>
   </g>
   <g id="patch_328">
    <path clip-path="url(#pf01e76b4cd)" d="M 148.182813 147.1 
L 150.442712 147.1 
L 150.442712 146.609365 
L 148.182813 146.609365 
z
" style="fill:#d62728;"/>
   </g>
   <g id="patch_329">
    <path clip-path="url(#pf01e76b4cd)" d="M 150.442712 147.1 
L 152.702612 147.1 
L 152.702612 146.361864 
L 150.442712 146.361864 
z
" style="fill:#d62728;"/>
   </g>
   <g id="patch_330">
    <path clip-path="url(#pf01e76b4cd)" d="M 152.702612 147.1 
L 154.962512 147.1 
L 154.962512 145.99862 
L 152.702612 145.99862 
z
" style="fill:#d62728;"/>
   </g>
   <g id="patch_331">
    <path clip-path="url(#pf01e76b4cd)" d="M 154.962513 147.1 
L 157.222412 147.1 
L 157.222412 145.567676 
L 154.962513 145.567676 
z
" style="fill:#d62728;"/>
   </g>
   <g id="patch_332">
    <path clip-path="url(#pf01e76b4cd)" d="M 157.222412 147.1 
L 159.482312 147.1 
L 159.482312 145.080681 
L 157.222412 145.080681 
z
" style="fill:#d62728;"/>
   </g>
   <g id="patch_333">
    <path clip-path="url(#pf01e76b4cd)" d="M 159.482312 147.1 
L 161.742212 147.1 
L 161.742212 144.216611 
L 159.482312 144.216611 
z
" style="fill:#d62728;"/>
   </g>
   <g id="patch_334">
    <path clip-path="url(#pf01e76b4cd)" d="M 161.742212 147.1 
L 164.002112 147.1 
L 164.002112 143.340893 
L 161.742212 143.340893 
z
" style="fill:#d62728;"/>
   </g>
   <g id="patch_335">
    <path clip-path="url(#pf01e76b4cd)" d="M 164.002113 147.1 
L 166.262012 147.1 
L 166.262012 142.093196 
L 164.002113 142.093196 
z
" style="fill:#d62728;"/>
   </g>
   <g id="patch_336">
    <path clip-path="url(#pf01e76b4cd)" d="M 166.262012 147.1 
L 168.521913 147.1 
L 168.521913 140.366511 
L 166.262012 140.366511 
z
" style="fill:#d62728;"/>
   </g>
   <g id="patch_337">
    <path clip-path="url(#pf01e76b4cd)" d="M 168.521913 147.1 
L 170.781813 147.1 
L 170.781813 138.472399 
L 168.521913 138.472399 
z
" style="fill:#d62728;"/>
   </g>
   <g id="patch_338">
    <path clip-path="url(#pf01e76b4cd)" d="M 170.781812 147.1 
L 173.041712 147.1 
L 173.041712 136.102939 
L 170.781812 136.102939 
z
" style="fill:#d62728;"/>
   </g>
   <g id="patch_339">
    <path clip-path="url(#pf01e76b4cd)" d="M 173.041713 147.1 
L 175.301613 147.1 
L 175.301613 133.140932 
L 173.041713 133.140932 
z
" style="fill:#d62728;"/>
   </g>
   <g id="patch_340">
    <path clip-path="url(#pf01e76b4cd)" d="M 175.301612 147.1 
L 177.561512 147.1 
L 177.561512 130.139616 
L 175.301612 130.139616 
z
" style="fill:#d62728;"/>
   </g>
   <g id="patch_341">
    <path clip-path="url(#pf01e76b4cd)" d="M 177.561512 147.1 
L 179.821413 147.1 
L 179.821413 126.583606 
L 177.561512 126.583606 
z
" style="fill:#d62728;"/>
   </g>
   <g id="patch_342">
    <path clip-path="url(#pf01e76b4cd)" d="M 179.821413 147.1 
L 182.081312 147.1 
L 182.081312 122.291644 
L 179.821413 122.291644 
z
" style="fill:#d62728;"/>
   </g>
   <g id="patch_343">
    <path clip-path="url(#pf01e76b4cd)" d="M 182.081312 147.1 
L 184.341212 147.1 
L 184.341212 117.471194 
L 182.081312 117.471194 
z
" style="fill:#d62728;"/>
   </g>
   <g id="patch_344">
    <path clip-path="url(#pf01e76b4cd)" d="M 184.341212 147.1 
L 186.601112 147.1 
L 186.601112 112.626722 
L 184.341212 112.626722 
z
" style="fill:#d62728;"/>
   </g>
   <g id="patch_345">
    <path clip-path="url(#pf01e76b4cd)" d="M 186.601112 147.1 
L 188.861013 147.1 
L 188.861013 106.941474 
L 186.601112 106.941474 
z
" style="fill:#d62728;"/>
   </g>
   <g id="patch_346">
    <path clip-path="url(#pf01e76b4cd)" d="M 188.861012 147.1 
L 191.120912 147.1 
L 191.120912 101.034202 
L 188.861012 101.034202 
z
" style="fill:#d62728;"/>
   </g>
   <g id="patch_347">
    <path clip-path="url(#pf01e76b4cd)" d="M 191.120912 147.1 
L 193.380812 147.1 
L 193.380812 94.934753 
L 191.120912 94.934753 
z
" style="fill:#d62728;"/>
   </g>
   <g id="patch_348">
    <path clip-path="url(#pf01e76b4cd)" d="M 193.380812 147.1 
L 195.640712 147.1 
L 195.640712 88.959055 
L 193.380812 88.959055 
z
" style="fill:#d62728;"/>
   </g>
   <g id="patch_349">
    <path clip-path="url(#pf01e76b4cd)" d="M 195.640713 147.1 
L 197.900613 147.1 
L 197.900613 83.0496 
L 195.640713 83.0496 
z
" style="fill:#d62728;"/>
   </g>
   <g id="patch_350">
    <path clip-path="url(#pf01e76b4cd)" d="M 197.900613 147.1 
L 200.160513 147.1 
L 200.160513 77.150336 
L 197.900613 77.150336 
z
" style="fill:#d62728;"/>
   </g>
   <g id="patch_351">
    <path clip-path="url(#pf01e76b4cd)" d="M 200.160512 147.1 
L 202.420412 147.1 
L 202.420412 72.391761 
L 200.160512 72.391761 
z
" style="fill:#d62728;"/>
   </g>
   <g id="patch_352">
    <path clip-path="url(#pf01e76b4cd)" d="M 202.420413 147.1 
L 204.680313 147.1 
L 204.680313 67.457024 
L 202.420413 67.457024 
z
" style="fill:#d62728;"/>
   </g>
   <g id="patch_353">
    <path clip-path="url(#pf01e76b4cd)" d="M 204.680312 147.1 
L 206.940212 147.1 
L 206.940212 63.248048 
L 204.680312 63.248048 
z
" style="fill:#d62728;"/>
   </g>
   <g id="patch_354">
    <path clip-path="url(#pf01e76b4cd)" d="M 206.940212 147.1 
L 209.200113 147.1 
L 209.200113 60.543733 
L 206.940212 60.543733 
z
" style="fill:#d62728;"/>
   </g>
   <g id="patch_355">
    <path clip-path="url(#pf01e76b4cd)" d="M 209.200112 147.1 
L 211.460012 147.1 
L 211.460012 57.857617 
L 209.200112 57.857617 
z
" style="fill:#d62728;"/>
   </g>
   <g id="patch_356">
    <path clip-path="url(#pf01e76b4cd)" d="M 211.460012 147.1 
L 213.719912 147.1 
L 213.719912 56.683442 
L 211.460012 56.683442 
z
" style="fill:#d62728;"/>
   </g>
   <g id="patch_357">
    <path clip-path="url(#pf01e76b4cd)" d="M 213.719913 147.1 
L 215.979813 147.1 
L 215.979813 56.122197 
L 213.719913 56.122197 
z
" style="fill:#d62728;"/>
   </g>
   <g id="patch_358">
    <path clip-path="url(#pf01e76b4cd)" d="M 215.979812 147.1 
L 218.239712 147.1 
L 218.239712 55.94749 
L 215.979812 55.94749 
z
" style="fill:#d62728;"/>
   </g>
   <g id="patch_359">
    <path clip-path="url(#pf01e76b4cd)" d="M 218.239712 147.1 
L 220.499613 147.1 
L 220.499613 57.946426 
L 218.239712 57.946426 
z
" style="fill:#d62728;"/>
   </g>
   <g id="patch_360">
    <path clip-path="url(#pf01e76b4cd)" d="M 220.499613 147.1 
L 222.759513 147.1 
L 222.759513 60.199415 
L 220.499613 60.199415 
z
" style="fill:#d62728;"/>
   </g>
   <g id="patch_361">
    <path clip-path="url(#pf01e76b4cd)" d="M 222.759512 147.1 
L 225.019412 147.1 
L 225.019412 64.408391 
L 222.759512 64.408391 
z
" style="fill:#d62728;"/>
   </g>
   <g id="patch_362">
    <path clip-path="url(#pf01e76b4cd)" d="M 225.019412 147.1 
L 227.279313 147.1 
L 227.279313 68.368411 
L 225.019412 68.368411 
z
" style="fill:#d62728;"/>
   </g>
   <g id="patch_363">
    <path clip-path="url(#pf01e76b4cd)" d="M 227.279313 147.1 
L 229.539212 147.1 
L 229.539212 72.686579 
L 227.279313 72.686579 
z
" style="fill:#d62728;"/>
   </g>
   <g id="patch_364">
    <path clip-path="url(#pf01e76b4cd)" d="M 229.539212 147.1 
L 231.799112 147.1 
L 231.799112 77.943796 
L 229.539212 77.943796 
z
" style="fill:#d62728;"/>
   </g>
   <g id="patch_365">
    <path clip-path="url(#pf01e76b4cd)" d="M 231.799113 147.1 
L 234.059013 147.1 
L 234.059013 83.370623 
L 231.799113 83.370623 
z
" style="fill:#d62728;"/>
   </g>
   <g id="patch_366">
    <path clip-path="url(#pf01e76b4cd)" d="M 234.059012 147.1 
L 236.318912 147.1 
L 236.318912 88.473516 
L 234.059012 88.473516 
z
" style="fill:#d62728;"/>
   </g>
   <g id="patch_367">
    <path clip-path="url(#pf01e76b4cd)" d="M 236.318912 147.1 
L 238.578813 147.1 
L 238.578813 93.882873 
L 236.318912 93.882873 
z
" style="fill:#d62728;"/>
   </g>
   <g id="patch_368">
    <path clip-path="url(#pf01e76b4cd)" d="M 238.578813 147.1 
L 240.838713 147.1 
L 240.838713 99.081854 
L 238.578813 99.081854 
z
" style="fill:#d62728;"/>
   </g>
   <g id="patch_369">
    <path clip-path="url(#pf01e76b4cd)" d="M 240.838712 147.1 
L 243.098612 147.1 
L 243.098612 104.299034 
L 240.838712 104.299034 
z
" style="fill:#d62728;"/>
   </g>
   <g id="patch_370">
    <path clip-path="url(#pf01e76b4cd)" d="M 243.098613 147.1 
L 245.358513 147.1 
L 245.358513 108.831946 
L 243.098613 108.831946 
z
" style="fill:#d62728;"/>
   </g>
   <g id="patch_371">
    <path clip-path="url(#pf01e76b4cd)" d="M 245.358513 147.1 
L 247.618413 147.1 
L 247.618413 113.804536 
L 245.358513 113.804536 
z
" style="fill:#d62728;"/>
   </g>
   <g id="patch_372">
    <path clip-path="url(#pf01e76b4cd)" d="M 247.618412 147.1 
L 249.878312 147.1 
L 249.878312 118.558743 
L 247.618412 118.558743 
z
" style="fill:#d62728;"/>
   </g>
   <g id="patch_373">
    <path clip-path="url(#pf01e76b4cd)" d="M 249.878313 147.1 
L 252.138213 147.1 
L 252.138213 122.504932 
L 249.878313 122.504932 
z
" style="fill:#d62728;"/>
   </g>
   <g id="patch_374">
    <path clip-path="url(#pf01e76b4cd)" d="M 252.138212 147.1 
L 254.398112 147.1 
L 254.398112 126.307715 
L 252.138212 126.307715 
z
" style="fill:#d62728;"/>
   </g>
   <g id="patch_375">
    <path clip-path="url(#pf01e76b4cd)" d="M 254.398112 147.1 
L 256.658013 147.1 
L 256.658013 129.828784 
L 254.398112 129.828784 
z
" style="fill:#d62728;"/>
   </g>
   <g id="patch_376">
    <path clip-path="url(#pf01e76b4cd)" d="M 256.658013 147.1 
L 258.917913 147.1 
L 258.917913 132.701981 
L 256.658013 132.701981 
z
" style="fill:#d62728;"/>
   </g>
   <g id="patch_377">
    <path clip-path="url(#pf01e76b4cd)" d="M 258.917912 147.1 
L 261.177812 147.1 
L 261.177812 135.072897 
L 258.917912 135.072897 
z
" style="fill:#d62728;"/>
   </g>
   <g id="patch_378">
    <path clip-path="url(#pf01e76b4cd)" d="M 261.177813 147.1 
L 263.437712 147.1 
L 263.437712 137.243628 
L 261.177813 137.243628 
z
" style="fill:#d62728;"/>
   </g>
   <g id="patch_379">
    <path clip-path="url(#pf01e76b4cd)" d="M 263.437712 147.1 
L 265.697612 147.1 
L 265.697612 139.255668 
L 263.437712 139.255668 
z
" style="fill:#d62728;"/>
   </g>
   <g id="patch_380">
    <path clip-path="url(#pf01e76b4cd)" d="M 265.697612 147.1 
L 267.957513 147.1 
L 267.957513 140.644586 
L 265.697612 140.644586 
z
" style="fill:#d62728;"/>
   </g>
   <g id="patch_381">
    <path clip-path="url(#pf01e76b4cd)" d="M 267.957513 147.1 
L 270.217413 147.1 
L 270.217413 141.765621 
L 267.957513 141.765621 
z
" style="fill:#d62728;"/>
   </g>
   <g id="patch_382">
    <path clip-path="url(#pf01e76b4cd)" d="M 270.217412 147.1 
L 272.477312 147.1 
L 272.477312 143.038068 
L 270.217412 143.038068 
z
" style="fill:#d62728;"/>
   </g>
   <g id="patch_383">
    <path clip-path="url(#pf01e76b4cd)" d="M 272.477312 147.1 
L 274.737213 147.1 
L 274.737213 143.925433 
L 272.477312 143.925433 
z
" style="fill:#d62728;"/>
   </g>
   <g id="patch_384">
    <path clip-path="url(#pf01e76b4cd)" d="M 274.737213 147.1 
L 276.997113 147.1 
L 276.997113 144.760386 
L 274.737213 144.760386 
z
" style="fill:#d62728;"/>
   </g>
   <g id="patch_385">
    <path clip-path="url(#pf01e76b4cd)" d="M 276.997112 147.1 
L 279.257012 147.1 
L 279.257012 145.291785 
L 276.997112 145.291785 
z
" style="fill:#d62728;"/>
   </g>
   <g id="patch_386">
    <path clip-path="url(#pf01e76b4cd)" d="M 279.257013 147.1 
L 281.516912 147.1 
L 281.516912 145.72928 
L 279.257013 145.72928 
z
" style="fill:#d62728;"/>
   </g>
   <g id="patch_387">
    <path clip-path="url(#pf01e76b4cd)" d="M 281.516912 147.1 
L 283.776812 147.1 
L 283.776812 146.12601 
L 281.516912 146.12601 
z
" style="fill:#d62728;"/>
   </g>
   <g id="patch_388">
    <path clip-path="url(#pf01e76b4cd)" d="M 283.776812 147.1 
L 286.036713 147.1 
L 286.036713 146.450673 
L 283.776812 146.450673 
z
" style="fill:#d62728;"/>
   </g>
   <g id="patch_389">
    <path clip-path="url(#pf01e76b4cd)" d="M 286.036713 147.1 
L 288.296613 147.1 
L 288.296613 146.627564 
L 286.036713 146.627564 
z
" style="fill:#d62728;"/>
   </g>
   <g id="patch_390">
    <path clip-path="url(#pf01e76b4cd)" d="M 288.296612 147.1 
L 290.556512 147.1 
L 290.556512 146.824837 
L 288.296612 146.824837 
z
" style="fill:#d62728;"/>
   </g>
   <g id="patch_391">
    <path clip-path="url(#pf01e76b4cd)" d="M 290.556512 147.1 
L 292.816412 147.1 
L 292.816412 146.953683 
L 290.556512 146.953683 
z
" style="fill:#d62728;"/>
   </g>
   <g id="patch_392">
    <path clip-path="url(#pf01e76b4cd)" d="M 292.816412 147.1 
L 295.076312 147.1 
L 295.076312 147.005367 
L 292.816412 147.005367 
z
" style="fill:#d62728;"/>
   </g>
   <g id="patch_393">
    <path clip-path="url(#pf01e76b4cd)" d="M 295.076312 147.1 
L 297.336212 147.1 
L 297.336212 147.041036 
L 295.076312 147.041036 
z
" style="fill:#d62728;"/>
   </g>
   <g id="patch_394">
    <path clip-path="url(#pf01e76b4cd)" d="M 297.336213 147.1 
L 299.596113 147.1 
L 299.596113 147.065059 
L 297.336213 147.065059 
z
" style="fill:#d62728;"/>
   </g>
   <g id="patch_395">
    <path clip-path="url(#pf01e76b4cd)" d="M 299.596112 147.1 
L 301.856012 147.1 
L 301.856012 147.086169 
L 299.596112 147.086169 
z
" style="fill:#d62728;"/>
   </g>
   <g id="patch_396">
    <path clip-path="url(#pf01e76b4cd)" d="M 301.856012 147.1 
L 304.115913 147.1 
L 304.115913 147.091993 
L 301.856012 147.091993 
z
" style="fill:#d62728;"/>
   </g>
   <g id="patch_397">
    <path clip-path="url(#pf01e76b4cd)" d="M 304.115913 147.1 
L 306.375813 147.1 
L 306.375813 147.092721 
L 304.115913 147.092721 
z
" style="fill:#d62728;"/>
   </g>
   <g id="patch_398">
    <path clip-path="url(#pf01e76b4cd)" d="M 306.375812 147.1 
L 308.635712 147.1 
L 308.635712 147.097088 
L 306.375812 147.097088 
z
" style="fill:#d62728;"/>
   </g>
   <g id="patch_399">
    <path clip-path="url(#pf01e76b4cd)" d="M 308.635713 147.1 
L 310.895612 147.1 
L 310.895612 147.1 
L 308.635713 147.1 
z
" style="fill:#d62728;"/>
   </g>
   <g id="patch_400">
    <path clip-path="url(#pf01e76b4cd)" d="M 310.895612 147.1 
L 313.155512 147.1 
L 313.155512 147.098544 
L 310.895612 147.098544 
z
" style="fill:#d62728;"/>
   </g>
   <g id="patch_401">
    <path clip-path="url(#pf01e76b4cd)" d="M 313.155512 147.1 
L 315.415413 147.1 
L 315.415413 147.099272 
L 313.155512 147.099272 
z
" style="fill:#d62728;"/>
   </g>
   <g id="patch_402">
    <path clip-path="url(#pf01e76b4cd)" d="M 315.415413 147.1 
L 317.675313 147.1 
L 317.675313 147.1 
L 315.415413 147.1 
z
" style="fill:#d62728;"/>
   </g>
   <g id="patch_403">
    <path d="M 61.575312 147.1 
L 61.575312 37.908292 
" style="fill:none;stroke:#262626;stroke-linecap:square;stroke-linejoin:miter;stroke-width:1.25;"/>
   </g>
   <g id="patch_404">
    <path d="M 66.575312 152.1 
L 317.675312 152.1 
" style="fill:none;stroke:#262626;stroke-linecap:square;stroke-linejoin:miter;stroke-width:1.25;"/>
   </g>
   <g id="legend_1">
    <g id="patch_405">
     <path d="M 259.000469 32.205156 
L 285.000469 32.205156 
L 285.000469 23.105156 
L 259.000469 23.105156 
z
" style="fill:#1f77b4;"/>
    </g>
    <g id="text_12">
     <!-- P0 -->
     <defs>
      <path d="M 7.71875 0 
L 7.71875 71.578125 
L 34.71875 71.578125 
Q 41.84375 71.578125 45.609375 70.90625 
Q 50.875 70.015625 54.4375 67.546875 
Q 58.015625 65.09375 60.1875 60.640625 
Q 62.359375 56.203125 62.359375 50.875 
Q 62.359375 41.75 56.546875 35.421875 
Q 50.734375 29.109375 35.546875 29.109375 
L 17.1875 29.109375 
L 17.1875 0 
z
M 17.1875 37.546875 
L 35.6875 37.546875 
Q 44.875 37.546875 48.734375 40.96875 
Q 52.59375 44.390625 52.59375 50.59375 
Q 52.59375 55.078125 50.3125 58.265625 
Q 48.046875 61.46875 44.34375 62.5 
Q 41.9375 63.140625 35.5 63.140625 
L 17.1875 63.140625 
z
" id="ArialMT-50"/>
     </defs>
     <g style="fill:#262626;" transform="translate(295.400469 32.205156)scale(0.13 -0.13)">
      <use xlink:href="#ArialMT-50"/>
      <use x="66.699219" xlink:href="#ArialMT-30"/>
     </g>
    </g>
    <g id="patch_406">
     <path d="M 259.000469 50.594063 
L 285.000469 50.594063 
L 285.000469 41.494063 
L 259.000469 41.494063 
z
" style="fill:#ff7f0e;"/>
    </g>
    <g id="text_13">
     <!-- P10 -->
     <g style="fill:#262626;" transform="translate(295.400469 50.594063)scale(0.13 -0.13)">
      <use xlink:href="#ArialMT-50"/>
      <use x="66.699219" xlink:href="#ArialMT-31"/>
      <use x="122.314453" xlink:href="#ArialMT-30"/>
     </g>
    </g>
    <g id="patch_407">
     <path d="M 259.000469 68.982969 
L 285.000469 68.982969 
L 285.000469 59.882969 
L 259.000469 59.882969 
z
" style="fill:#2ca02c;"/>
    </g>
    <g id="text_14">
     <!-- P20 -->
     <g style="fill:#262626;" transform="translate(295.400469 68.982969)scale(0.13 -0.13)">
      <use xlink:href="#ArialMT-50"/>
      <use x="66.699219" xlink:href="#ArialMT-32"/>
      <use x="122.314453" xlink:href="#ArialMT-30"/>
     </g>
    </g>
    <g id="patch_408">
     <path d="M 259.000469 87.371875 
L 285.000469 87.371875 
L 285.000469 78.271875 
L 259.000469 78.271875 
z
" style="fill:#d62728;"/>
    </g>
    <g id="text_15">
     <!-- P30 -->
     <g style="fill:#262626;" transform="translate(295.400469 87.371875)scale(0.13 -0.13)">
      <use xlink:href="#ArialMT-50"/>
      <use x="66.699219" xlink:href="#ArialMT-33"/>
      <use x="122.314453" xlink:href="#ArialMT-30"/>
     </g>
    </g>
   </g>
  </g>
 </g>
 <defs>
  <clipPath id="pf01e76b4cd">
   <rect height="135.9" width="251.1" x="66.575312" y="11.2"/>
  </clipPath>
 </defs>
</svg>
