<?xml version="1.0" encoding="utf-8" standalone="no"?>
<!DOCTYPE svg PUBLIC "-//W3C//DTD SVG 1.1//EN"
  "http://www.w3.org/Graphics/SVG/1.1/DTD/svg11.dtd">
<!-- Created with matplotlib (http://matplotlib.org/) -->
<svg height="128pt" version="1.1" viewBox="0 0 445 128" width="445pt" xmlns="http://www.w3.org/2000/svg" xmlns:xlink="http://www.w3.org/1999/xlink">
 <defs>
  <style type="text/css">
*{stroke-linecap:butt;stroke-linejoin:round;}
  </style>
 </defs>
 <g id="figure_1">
  <g id="patch_1">
   <path d="M 0 128.48655 
L 445.36145 128.48655 
L 445.36145 0 
L 0 0 
z
" style="fill:none;"/>
  </g>
  <g id="axes_1">
   <g id="patch_2">
    <path d="M 32.03445 99.8496 
L 162.35445 99.8496 
L 162.35445 10.2 
L 32.03445 10.2 
z
" style="fill:none;"/>
   </g>
   <g id="matplotlib.axis_1">
    <g id="xtick_1">
     <g id="text_1">
      <!-- 10 -->
      <defs>
       <path d="M 37.25 0 
L 28.46875 0 
L 28.46875 56 
Q 25.296875 52.984375 20.140625 49.953125 
Q 14.984375 46.921875 10.890625 45.40625 
L 10.890625 53.90625 
Q 18.265625 57.375 23.78125 62.296875 
Q 29.296875 67.234375 31.59375 71.875 
L 37.25 71.875 
z
" id="ArialMT-31"/>
       <path d="M 4.15625 35.296875 
Q 4.15625 48 6.765625 55.734375 
Q 9.375 63.484375 14.515625 67.671875 
Q 19.671875 71.875 27.484375 71.875 
Q 33.25 71.875 37.59375 69.546875 
Q 41.9375 67.234375 44.765625 62.859375 
Q 47.609375 58.5 49.21875 52.21875 
Q 50.828125 45.953125 50.828125 35.296875 
Q 50.828125 22.703125 48.234375 14.96875 
Q 45.65625 7.234375 40.5 3 
Q 35.359375 -1.21875 27.484375 -1.21875 
Q 17.140625 -1.21875 11.234375 6.203125 
Q 4.15625 15.140625 4.15625 35.296875 
M 13.1875 35.296875 
Q 13.1875 17.671875 17.3125 11.828125 
Q 21.4375 6 27.484375 6 
Q 33.546875 6 37.671875 11.859375 
Q 41.796875 17.71875 41.796875 35.296875 
Q 41.796875 52.984375 37.671875 58.78125 
Q 33.546875 64.59375 27.390625 64.59375 
Q 21.34375 64.59375 17.71875 59.46875 
Q 13.1875 52.9375 13.1875 35.296875 
" id="ArialMT-30"/>
      </defs>
      <g transform="translate(51.003285 108.7211)scale(0.096 -0.096)">
       <use xlink:href="#ArialMT-31"/>
       <use x="55.615234" xlink:href="#ArialMT-30"/>
      </g>
     </g>
    </g>
    <g id="xtick_2">
     <g id="text_2">
      <!-- 20 -->
      <defs>
       <path d="M 50.34375 8.453125 
L 50.34375 0 
L 3.03125 0 
Q 2.9375 3.171875 4.046875 6.109375 
Q 5.859375 10.9375 9.828125 15.625 
Q 13.8125 20.3125 21.34375 26.46875 
Q 33.015625 36.03125 37.109375 41.625 
Q 41.21875 47.21875 41.21875 52.203125 
Q 41.21875 57.421875 37.46875 61 
Q 33.734375 64.59375 27.734375 64.59375 
Q 21.390625 64.59375 17.578125 60.78125 
Q 13.765625 56.984375 13.71875 50.25 
L 4.6875 51.171875 
Q 5.609375 61.28125 11.65625 66.578125 
Q 17.71875 71.875 27.9375 71.875 
Q 38.234375 71.875 44.234375 66.15625 
Q 50.25 60.453125 50.25 52 
Q 50.25 47.703125 48.484375 43.546875 
Q 46.734375 39.40625 42.65625 34.8125 
Q 38.578125 30.21875 29.109375 22.21875 
Q 21.1875 15.578125 18.9375 13.203125 
Q 16.703125 10.84375 15.234375 8.453125 
z
" id="ArialMT-32"/>
      </defs>
      <g transform="translate(91.85595 108.7211)scale(0.096 -0.096)">
       <use xlink:href="#ArialMT-32"/>
       <use x="55.615234" xlink:href="#ArialMT-30"/>
      </g>
     </g>
    </g>
    <g id="xtick_3">
     <g id="text_3">
      <!-- 30 -->
      <defs>
       <path d="M 4.203125 18.890625 
L 12.984375 20.0625 
Q 14.5 12.59375 18.140625 9.296875 
Q 21.78125 6 27 6 
Q 33.203125 6 37.46875 10.296875 
Q 41.75 14.59375 41.75 20.953125 
Q 41.75 27 37.796875 30.921875 
Q 33.84375 34.859375 27.734375 34.859375 
Q 25.25 34.859375 21.53125 33.890625 
L 22.515625 41.609375 
Q 23.390625 41.5 23.921875 41.5 
Q 29.546875 41.5 34.03125 44.421875 
Q 38.53125 47.359375 38.53125 53.46875 
Q 38.53125 58.296875 35.25 61.46875 
Q 31.984375 64.65625 26.8125 64.65625 
Q 21.6875 64.65625 18.265625 61.421875 
Q 14.84375 58.203125 13.875 51.765625 
L 5.078125 53.328125 
Q 6.6875 62.15625 12.390625 67.015625 
Q 18.109375 71.875 26.609375 71.875 
Q 32.46875 71.875 37.390625 69.359375 
Q 42.328125 66.84375 44.9375 62.5 
Q 47.5625 58.15625 47.5625 53.265625 
Q 47.5625 48.640625 45.0625 44.828125 
Q 42.578125 41.015625 37.703125 38.765625 
Q 44.046875 37.3125 47.5625 32.6875 
Q 51.078125 28.078125 51.078125 21.140625 
Q 51.078125 11.765625 44.234375 5.25 
Q 37.40625 -1.265625 26.953125 -1.265625 
Q 17.53125 -1.265625 11.296875 4.34375 
Q 5.078125 9.96875 4.203125 18.890625 
" id="ArialMT-33"/>
      </defs>
      <g transform="translate(132.708615 108.7211)scale(0.096 -0.096)">
       <use xlink:href="#ArialMT-33"/>
       <use x="55.615234" xlink:href="#ArialMT-30"/>
      </g>
     </g>
    </g>
    <g id="text_4">
     <!-- passage -->
     <defs>
      <path d="M 6.59375 -19.875 
L 6.59375 51.859375 
L 14.59375 51.859375 
L 14.59375 45.125 
Q 17.4375 49.078125 21 51.046875 
Q 24.5625 53.03125 29.640625 53.03125 
Q 36.28125 53.03125 41.359375 49.609375 
Q 46.4375 46.1875 49.015625 39.953125 
Q 51.609375 33.734375 51.609375 26.3125 
Q 51.609375 18.359375 48.75 11.984375 
Q 45.90625 5.609375 40.453125 2.21875 
Q 35.015625 -1.171875 29 -1.171875 
Q 24.609375 -1.171875 21.109375 0.6875 
Q 17.625 2.546875 15.375 5.375 
L 15.375 -19.875 
z
M 14.546875 25.640625 
Q 14.546875 15.625 18.59375 10.84375 
Q 22.65625 6.0625 28.421875 6.0625 
Q 34.28125 6.0625 38.453125 11.015625 
Q 42.625 15.96875 42.625 26.375 
Q 42.625 36.28125 38.546875 41.203125 
Q 34.46875 46.140625 28.8125 46.140625 
Q 23.1875 46.140625 18.859375 40.890625 
Q 14.546875 35.640625 14.546875 25.640625 
" id="ArialMT-70"/>
      <path d="M 40.4375 6.390625 
Q 35.546875 2.25 31.03125 0.53125 
Q 26.515625 -1.171875 21.34375 -1.171875 
Q 12.796875 -1.171875 8.203125 3 
Q 3.609375 7.171875 3.609375 13.671875 
Q 3.609375 17.484375 5.34375 20.625 
Q 7.078125 23.78125 9.890625 25.6875 
Q 12.703125 27.59375 16.21875 28.5625 
Q 18.796875 29.25 24.03125 29.890625 
Q 34.671875 31.15625 39.703125 32.90625 
Q 39.75 34.71875 39.75 35.203125 
Q 39.75 40.578125 37.25 42.78125 
Q 33.890625 45.75 27.25 45.75 
Q 21.046875 45.75 18.09375 43.578125 
Q 15.140625 41.40625 13.71875 35.890625 
L 5.125 37.0625 
Q 6.296875 42.578125 8.984375 45.96875 
Q 11.671875 49.359375 16.75 51.1875 
Q 21.828125 53.03125 28.515625 53.03125 
Q 35.15625 53.03125 39.296875 51.46875 
Q 43.453125 49.90625 45.40625 47.53125 
Q 47.359375 45.171875 48.140625 41.546875 
Q 48.578125 39.3125 48.578125 33.453125 
L 48.578125 21.734375 
Q 48.578125 9.46875 49.140625 6.21875 
Q 49.703125 2.984375 51.375 0 
L 42.1875 0 
Q 40.828125 2.734375 40.4375 6.390625 
M 39.703125 26.03125 
Q 34.90625 24.078125 25.34375 22.703125 
Q 19.921875 21.921875 17.671875 20.9375 
Q 15.4375 19.96875 14.203125 18.09375 
Q 12.984375 16.21875 12.984375 13.921875 
Q 12.984375 10.40625 15.640625 8.0625 
Q 18.3125 5.71875 23.4375 5.71875 
Q 28.515625 5.71875 32.46875 7.9375 
Q 36.421875 10.15625 38.28125 14.015625 
Q 39.703125 17 39.703125 22.796875 
z
" id="ArialMT-61"/>
      <path d="M 3.078125 15.484375 
L 11.765625 16.84375 
Q 12.5 11.625 15.84375 8.84375 
Q 19.1875 6.0625 25.203125 6.0625 
Q 31.25 6.0625 34.171875 8.515625 
Q 37.109375 10.984375 37.109375 14.3125 
Q 37.109375 17.28125 34.515625 19 
Q 32.71875 20.171875 25.53125 21.96875 
Q 15.875 24.421875 12.140625 26.203125 
Q 8.40625 27.984375 6.46875 31.125 
Q 4.546875 34.28125 4.546875 38.09375 
Q 4.546875 41.546875 6.125 44.5 
Q 7.71875 47.46875 10.453125 49.421875 
Q 12.5 50.921875 16.03125 51.96875 
Q 19.578125 53.03125 23.640625 53.03125 
Q 29.734375 53.03125 34.34375 51.265625 
Q 38.96875 49.515625 41.15625 46.5 
Q 43.359375 43.5 44.1875 38.484375 
L 35.59375 37.3125 
Q 35.015625 41.3125 32.203125 43.546875 
Q 29.390625 45.796875 24.265625 45.796875 
Q 18.21875 45.796875 15.625 43.796875 
Q 13.03125 41.796875 13.03125 39.109375 
Q 13.03125 37.40625 14.109375 36.03125 
Q 15.1875 34.625 17.484375 33.6875 
Q 18.796875 33.203125 25.25 31.453125 
Q 34.578125 28.953125 38.25 27.359375 
Q 41.9375 25.78125 44.03125 22.75 
Q 46.140625 19.734375 46.140625 15.234375 
Q 46.140625 10.84375 43.578125 6.953125 
Q 41.015625 3.078125 36.171875 0.953125 
Q 31.34375 -1.171875 25.25 -1.171875 
Q 15.140625 -1.171875 9.84375 3.03125 
Q 4.546875 7.234375 3.078125 15.484375 
" id="ArialMT-73"/>
      <path d="M 4.984375 -4.296875 
L 13.53125 -5.5625 
Q 14.0625 -9.515625 16.5 -11.328125 
Q 19.78125 -13.765625 25.4375 -13.765625 
Q 31.546875 -13.765625 34.859375 -11.328125 
Q 38.1875 -8.890625 39.359375 -4.5 
Q 40.046875 -1.8125 39.984375 6.78125 
Q 34.234375 0 25.640625 0 
Q 14.9375 0 9.078125 7.71875 
Q 3.21875 15.4375 3.21875 26.21875 
Q 3.21875 33.640625 5.90625 39.90625 
Q 8.59375 46.1875 13.6875 49.609375 
Q 18.796875 53.03125 25.6875 53.03125 
Q 34.859375 53.03125 40.828125 45.609375 
L 40.828125 51.859375 
L 48.921875 51.859375 
L 48.921875 7.03125 
Q 48.921875 -5.078125 46.453125 -10.125 
Q 44 -15.1875 38.640625 -18.109375 
Q 33.296875 -21.046875 25.484375 -21.046875 
Q 16.21875 -21.046875 10.5 -16.875 
Q 4.78125 -12.703125 4.984375 -4.296875 
M 12.25 26.859375 
Q 12.25 16.65625 16.296875 11.96875 
Q 20.359375 7.28125 26.46875 7.28125 
Q 32.515625 7.28125 36.609375 11.9375 
Q 40.71875 16.609375 40.71875 26.5625 
Q 40.71875 36.078125 36.5 40.90625 
Q 32.28125 45.75 26.3125 45.75 
Q 20.453125 45.75 16.34375 40.984375 
Q 12.25 36.234375 12.25 26.859375 
" id="ArialMT-67"/>
      <path d="M 42.09375 16.703125 
L 51.171875 15.578125 
Q 49.03125 7.625 43.21875 3.21875 
Q 37.40625 -1.171875 28.375 -1.171875 
Q 17 -1.171875 10.328125 5.828125 
Q 3.65625 12.84375 3.65625 25.484375 
Q 3.65625 38.578125 10.390625 45.796875 
Q 17.140625 53.03125 27.875 53.03125 
Q 38.28125 53.03125 44.875 45.953125 
Q 51.46875 38.875 51.46875 26.03125 
Q 51.46875 25.25 51.421875 23.6875 
L 12.75 23.6875 
Q 13.234375 15.140625 17.578125 10.59375 
Q 21.921875 6.0625 28.421875 6.0625 
Q 33.25 6.0625 36.671875 8.59375 
Q 40.09375 11.140625 42.09375 16.703125 
M 13.234375 30.90625 
L 42.1875 30.90625 
Q 41.609375 37.453125 38.875 40.71875 
Q 34.671875 45.796875 27.984375 45.796875 
Q 21.921875 45.796875 17.796875 41.75 
Q 13.671875 37.703125 13.234375 30.90625 
" id="ArialMT-65"/>
     </defs>
     <g transform="translate(77.233575 119.064)scale(0.1056 -0.1056)">
      <use xlink:href="#ArialMT-70"/>
      <use x="55.615234" xlink:href="#ArialMT-61"/>
      <use x="111.230469" xlink:href="#ArialMT-73"/>
      <use x="161.230469" xlink:href="#ArialMT-73"/>
      <use x="211.230469" xlink:href="#ArialMT-61"/>
      <use x="266.845703" xlink:href="#ArialMT-67"/>
      <use x="322.460938" xlink:href="#ArialMT-65"/>
     </g>
    </g>
   </g>
   <g id="matplotlib.axis_2">
    <g id="ytick_1">
     <g id="line2d_1">
      <defs>
       <path d="M 0 0 
L -2.5 0 
" id="m4af143038f" style="stroke:#000000;stroke-width:0.8;"/>
      </defs>
      <g>
       <use style="stroke:#000000;stroke-width:0.8;" x="32.03445" xlink:href="#m4af143038f" y="99.8496"/>
      </g>
     </g>
     <g id="text_5">
      <!-- 0 -->
      <g transform="translate(23.19595 103.28535)scale(0.096 -0.096)">
       <use xlink:href="#ArialMT-30"/>
      </g>
     </g>
    </g>
    <g id="ytick_2">
     <g id="line2d_2">
      <g>
       <use style="stroke:#000000;stroke-width:0.8;" x="32.03445" xlink:href="#m4af143038f" y="80.276954"/>
      </g>
     </g>
     <g id="text_6">
      <!-- 20 -->
      <g transform="translate(17.85745 83.712704)scale(0.096 -0.096)">
       <use xlink:href="#ArialMT-32"/>
       <use x="55.615234" xlink:href="#ArialMT-30"/>
      </g>
     </g>
    </g>
    <g id="ytick_3">
     <g id="line2d_3">
      <g>
       <use style="stroke:#000000;stroke-width:0.8;" x="32.03445" xlink:href="#m4af143038f" y="60.704307"/>
      </g>
     </g>
     <g id="text_7">
      <!-- 40 -->
      <defs>
       <path d="M 32.328125 0 
L 32.328125 17.140625 
L 1.265625 17.140625 
L 1.265625 25.203125 
L 33.9375 71.578125 
L 41.109375 71.578125 
L 41.109375 25.203125 
L 50.78125 25.203125 
L 50.78125 17.140625 
L 41.109375 17.140625 
L 41.109375 0 
z
M 32.328125 25.203125 
L 32.328125 57.46875 
L 9.90625 25.203125 
z
" id="ArialMT-34"/>
      </defs>
      <g transform="translate(17.85745 64.140057)scale(0.096 -0.096)">
       <use xlink:href="#ArialMT-34"/>
       <use x="55.615234" xlink:href="#ArialMT-30"/>
      </g>
     </g>
    </g>
    <g id="ytick_4">
     <g id="line2d_4">
      <g>
       <use style="stroke:#000000;stroke-width:0.8;" x="32.03445" xlink:href="#m4af143038f" y="41.131661"/>
      </g>
     </g>
     <g id="text_8">
      <!-- 60 -->
      <defs>
       <path d="M 49.75 54.046875 
L 41.015625 53.375 
Q 39.84375 58.546875 37.703125 60.890625 
Q 34.125 64.65625 28.90625 64.65625 
Q 24.703125 64.65625 21.53125 62.3125 
Q 17.390625 59.28125 14.984375 53.46875 
Q 12.59375 47.65625 12.5 36.921875 
Q 15.671875 41.75 20.265625 44.09375 
Q 24.859375 46.4375 29.890625 46.4375 
Q 38.671875 46.4375 44.84375 39.96875 
Q 51.03125 33.5 51.03125 23.25 
Q 51.03125 16.5 48.125 10.71875 
Q 45.21875 4.9375 40.140625 1.859375 
Q 35.0625 -1.21875 28.609375 -1.21875 
Q 17.625 -1.21875 10.6875 6.859375 
Q 3.765625 14.9375 3.765625 33.5 
Q 3.765625 54.25 11.421875 63.671875 
Q 18.109375 71.875 29.4375 71.875 
Q 37.890625 71.875 43.28125 67.140625 
Q 48.6875 62.40625 49.75 54.046875 
M 13.875 23.1875 
Q 13.875 18.65625 15.796875 14.5 
Q 17.71875 10.359375 21.1875 8.171875 
Q 24.65625 6 28.46875 6 
Q 34.03125 6 38.03125 10.484375 
Q 42.046875 14.984375 42.046875 22.703125 
Q 42.046875 30.125 38.078125 34.390625 
Q 34.125 38.671875 28.125 38.671875 
Q 22.171875 38.671875 18.015625 34.390625 
Q 13.875 30.125 13.875 23.1875 
" id="ArialMT-36"/>
      </defs>
      <g transform="translate(17.85745 44.567411)scale(0.096 -0.096)">
       <use xlink:href="#ArialMT-36"/>
       <use x="55.615234" xlink:href="#ArialMT-30"/>
      </g>
     </g>
    </g>
    <g id="ytick_5">
     <g id="line2d_5">
      <g>
       <use style="stroke:#000000;stroke-width:0.8;" x="32.03445" xlink:href="#m4af143038f" y="21.559014"/>
      </g>
     </g>
     <g id="text_9">
      <!-- 80 -->
      <defs>
       <path d="M 17.671875 38.8125 
Q 12.203125 40.828125 9.5625 44.53125 
Q 6.9375 48.25 6.9375 53.421875 
Q 6.9375 61.234375 12.546875 66.546875 
Q 18.171875 71.875 27.484375 71.875 
Q 36.859375 71.875 42.578125 66.421875 
Q 48.296875 60.984375 48.296875 53.171875 
Q 48.296875 48.1875 45.671875 44.5 
Q 43.0625 40.828125 37.75 38.8125 
Q 44.34375 36.671875 47.78125 31.875 
Q 51.21875 27.09375 51.21875 20.453125 
Q 51.21875 11.28125 44.71875 5.03125 
Q 38.234375 -1.21875 27.640625 -1.21875 
Q 17.046875 -1.21875 10.546875 5.046875 
Q 4.046875 11.328125 4.046875 20.703125 
Q 4.046875 27.6875 7.59375 32.390625 
Q 11.140625 37.109375 17.671875 38.8125 
M 15.921875 53.71875 
Q 15.921875 48.640625 19.1875 45.40625 
Q 22.46875 42.1875 27.6875 42.1875 
Q 32.765625 42.1875 36.015625 45.375 
Q 39.265625 48.578125 39.265625 53.21875 
Q 39.265625 58.0625 35.90625 61.359375 
Q 32.5625 64.65625 27.59375 64.65625 
Q 22.5625 64.65625 19.234375 61.421875 
Q 15.921875 58.203125 15.921875 53.71875 
M 13.09375 20.65625 
Q 13.09375 16.890625 14.875 13.375 
Q 16.65625 9.859375 20.171875 7.921875 
Q 23.6875 6 27.734375 6 
Q 34.03125 6 38.125 10.046875 
Q 42.234375 14.109375 42.234375 20.359375 
Q 42.234375 26.703125 38.015625 30.859375 
Q 33.796875 35.015625 27.4375 35.015625 
Q 21.234375 35.015625 17.15625 30.90625 
Q 13.09375 26.8125 13.09375 20.65625 
" id="ArialMT-38"/>
      </defs>
      <g transform="translate(17.85745 24.994764)scale(0.096 -0.096)">
       <use xlink:href="#ArialMT-38"/>
       <use x="55.615234" xlink:href="#ArialMT-30"/>
      </g>
     </g>
    </g>
    <g id="text_10">
     <!-- % clones left -->
     <defs>
      <path d="M 5.8125 54.390625 
Q 5.8125 62.0625 9.671875 67.421875 
Q 13.53125 72.796875 20.84375 72.796875 
Q 27.59375 72.796875 32 67.984375 
Q 36.421875 63.1875 36.421875 53.859375 
Q 36.421875 44.78125 31.953125 39.875 
Q 27.484375 34.96875 20.953125 34.96875 
Q 14.453125 34.96875 10.125 39.796875 
Q 5.8125 44.625 5.8125 54.390625 
M 21.09375 66.75 
Q 17.828125 66.75 15.65625 63.90625 
Q 13.484375 61.078125 13.484375 53.515625 
Q 13.484375 46.625 15.671875 43.8125 
Q 17.875 41.015625 21.09375 41.015625 
Q 24.421875 41.015625 26.59375 43.84375 
Q 28.765625 46.6875 28.765625 54.203125 
Q 28.765625 61.140625 26.5625 63.9375 
Q 24.359375 66.75 21.09375 66.75 
M 21.140625 -2.640625 
L 60.296875 72.796875 
L 67.4375 72.796875 
L 28.421875 -2.640625 
z
M 52.09375 16.796875 
Q 52.09375 24.515625 55.953125 29.859375 
Q 59.8125 35.203125 67.1875 35.203125 
Q 73.921875 35.203125 78.34375 30.390625 
Q 82.765625 25.59375 82.765625 16.265625 
Q 82.765625 7.171875 78.296875 2.265625 
Q 73.828125 -2.640625 67.234375 -2.640625 
Q 60.75 -2.640625 56.421875 2.21875 
Q 52.09375 7.078125 52.09375 16.796875 
M 67.4375 29.15625 
Q 64.109375 29.15625 61.9375 26.3125 
Q 59.765625 23.484375 59.765625 15.921875 
Q 59.765625 9.078125 61.953125 6.25 
Q 64.15625 3.421875 67.390625 3.421875 
Q 70.75 3.421875 72.921875 6.25 
Q 75.09375 9.078125 75.09375 16.609375 
Q 75.09375 23.53125 72.890625 26.34375 
Q 70.703125 29.15625 67.4375 29.15625 
" id="ArialMT-25"/>
      <path id="ArialMT-20"/>
      <path d="M 40.4375 19 
L 49.078125 17.875 
Q 47.65625 8.9375 41.8125 3.875 
Q 35.984375 -1.171875 27.484375 -1.171875 
Q 16.84375 -1.171875 10.375 5.78125 
Q 3.90625 12.75 3.90625 25.734375 
Q 3.90625 34.125 6.6875 40.421875 
Q 9.46875 46.734375 15.15625 49.875 
Q 20.84375 53.03125 27.546875 53.03125 
Q 35.984375 53.03125 41.359375 48.75 
Q 46.734375 44.484375 48.25 36.625 
L 39.703125 35.296875 
Q 38.484375 40.53125 35.375 43.15625 
Q 32.28125 45.796875 27.875 45.796875 
Q 21.234375 45.796875 17.078125 41.03125 
Q 12.9375 36.28125 12.9375 25.984375 
Q 12.9375 15.53125 16.9375 10.796875 
Q 20.953125 6.0625 27.390625 6.0625 
Q 32.5625 6.0625 36.03125 9.234375 
Q 39.5 12.40625 40.4375 19 
" id="ArialMT-63"/>
      <path d="M 6.390625 0 
L 6.390625 71.578125 
L 15.1875 71.578125 
L 15.1875 0 
z
" id="ArialMT-6c"/>
      <path d="M 3.328125 25.921875 
Q 3.328125 40.328125 11.328125 47.265625 
Q 18.015625 53.03125 27.640625 53.03125 
Q 38.328125 53.03125 45.109375 46.015625 
Q 51.90625 39.015625 51.90625 26.65625 
Q 51.90625 16.65625 48.90625 10.90625 
Q 45.90625 5.171875 40.15625 2 
Q 34.421875 -1.171875 27.640625 -1.171875 
Q 16.75 -1.171875 10.03125 5.8125 
Q 3.328125 12.796875 3.328125 25.921875 
M 12.359375 25.921875 
Q 12.359375 15.96875 16.703125 11.015625 
Q 21.046875 6.0625 27.640625 6.0625 
Q 34.1875 6.0625 38.53125 11.03125 
Q 42.875 16.015625 42.875 26.21875 
Q 42.875 35.84375 38.5 40.796875 
Q 34.125 45.75 27.640625 45.75 
Q 21.046875 45.75 16.703125 40.8125 
Q 12.359375 35.890625 12.359375 25.921875 
" id="ArialMT-6f"/>
      <path d="M 6.59375 0 
L 6.59375 51.859375 
L 14.5 51.859375 
L 14.5 44.484375 
Q 20.21875 53.03125 31 53.03125 
Q 35.6875 53.03125 39.625 51.34375 
Q 43.5625 49.65625 45.515625 46.921875 
Q 47.46875 44.1875 48.25 40.4375 
Q 48.734375 37.984375 48.734375 31.890625 
L 48.734375 0 
L 39.9375 0 
L 39.9375 31.546875 
Q 39.9375 36.921875 38.90625 39.578125 
Q 37.890625 42.234375 35.28125 43.8125 
Q 32.671875 45.40625 29.15625 45.40625 
Q 23.53125 45.40625 19.453125 41.84375 
Q 15.375 38.28125 15.375 28.328125 
L 15.375 0 
z
" id="ArialMT-6e"/>
      <path d="M 8.6875 0 
L 8.6875 45.015625 
L 0.921875 45.015625 
L 0.921875 51.859375 
L 8.6875 51.859375 
L 8.6875 57.375 
Q 8.6875 62.59375 9.625 65.140625 
Q 10.890625 68.5625 14.078125 70.671875 
Q 17.28125 72.796875 23.046875 72.796875 
Q 26.765625 72.796875 31.25 71.921875 
L 29.9375 64.265625 
Q 27.203125 64.75 24.75 64.75 
Q 20.75 64.75 19.09375 63.03125 
Q 17.4375 61.328125 17.4375 56.640625 
L 17.4375 51.859375 
L 27.546875 51.859375 
L 27.546875 45.015625 
L 17.4375 45.015625 
L 17.4375 0 
z
" id="ArialMT-66"/>
      <path d="M 25.78125 7.859375 
L 27.046875 0.09375 
Q 23.34375 -0.6875 20.40625 -0.6875 
Q 15.625 -0.6875 12.984375 0.828125 
Q 10.359375 2.34375 9.28125 4.8125 
Q 8.203125 7.28125 8.203125 15.1875 
L 8.203125 45.015625 
L 1.765625 45.015625 
L 1.765625 51.859375 
L 8.203125 51.859375 
L 8.203125 64.703125 
L 16.9375 69.96875 
L 16.9375 51.859375 
L 25.78125 51.859375 
L 25.78125 45.015625 
L 16.9375 45.015625 
L 16.9375 14.703125 
Q 16.9375 10.9375 17.40625 9.859375 
Q 17.875 8.796875 18.921875 8.15625 
Q 19.96875 7.515625 21.921875 7.515625 
Q 23.390625 7.515625 25.78125 7.859375 
" id="ArialMT-74"/>
     </defs>
     <g transform="translate(14.75865 84.958275)rotate(-90)scale(0.1056 -0.1056)">
      <use xlink:href="#ArialMT-25"/>
      <use x="88.916016" xlink:href="#ArialMT-20"/>
      <use x="116.699219" xlink:href="#ArialMT-63"/>
      <use x="166.699219" xlink:href="#ArialMT-6c"/>
      <use x="188.916016" xlink:href="#ArialMT-6f"/>
      <use x="244.53125" xlink:href="#ArialMT-6e"/>
      <use x="300.146484" xlink:href="#ArialMT-65"/>
      <use x="355.761719" xlink:href="#ArialMT-73"/>
      <use x="405.761719" xlink:href="#ArialMT-20"/>
      <use x="433.544922" xlink:href="#ArialMT-6c"/>
      <use x="455.761719" xlink:href="#ArialMT-65"/>
      <use x="511.376953" xlink:href="#ArialMT-66"/>
      <use x="539.160156" xlink:href="#ArialMT-74"/>
     </g>
    </g>
   </g>
   <g id="patch_3">
    <path clip-path="url(#pf12bc39d8a)" d="M 37.958086 99.8496 
L 42.554011 99.8496 
L 42.554011 23.2427 
L 37.958086 23.2427 
z
" style="fill:#e41a1c;"/>
   </g>
   <g id="patch_4">
    <path clip-path="url(#pf12bc39d8a)" d="M 78.810751 99.8496 
L 83.406676 99.8496 
L 83.406676 43.690996 
L 78.810751 43.690996 
z
" style="fill:#e41a1c;"/>
   </g>
   <g id="patch_5">
    <path clip-path="url(#pf12bc39d8a)" d="M 119.663416 99.8496 
L 124.25934 99.8496 
L 124.25934 61.654713 
L 119.663416 61.654713 
z
" style="fill:#e41a1c;"/>
   </g>
   <g id="patch_6">
    <path clip-path="url(#pf12bc39d8a)" d="M 42.554011 99.8496 
L 47.149936 99.8496 
L 47.149936 92.399708 
L 42.554011 92.399708 
z
" style="fill:#377eb8;"/>
   </g>
   <g id="patch_7">
    <path clip-path="url(#pf12bc39d8a)" d="M 83.406676 99.8496 
L 88.0026 99.8496 
L 88.0026 95.134776 
L 83.406676 95.134776 
z
" style="fill:#377eb8;"/>
   </g>
   <g id="patch_8">
    <path clip-path="url(#pf12bc39d8a)" d="M 124.25934 99.8496 
L 128.855265 99.8496 
L 128.855265 96.400343 
L 124.25934 96.400343 
z
" style="fill:#377eb8;"/>
   </g>
   <g id="patch_9">
    <path clip-path="url(#pf12bc39d8a)" d="M 47.149936 99.8496 
L 51.745861 99.8496 
L 51.745861 94.09832 
L 47.149936 94.09832 
z
" style="fill:#4daf4a;"/>
   </g>
   <g id="patch_10">
    <path clip-path="url(#pf12bc39d8a)" d="M 88.0026 99.8496 
L 92.598525 99.8496 
L 92.598525 96.244245 
L 88.0026 96.244245 
z
" style="fill:#4daf4a;"/>
   </g>
   <g id="patch_11">
    <path clip-path="url(#pf12bc39d8a)" d="M 128.855265 99.8496 
L 133.45119 99.8496 
L 133.45119 97.185028 
L 128.855265 97.185028 
z
" style="fill:#4daf4a;"/>
   </g>
   <g id="patch_12">
    <path clip-path="url(#pf12bc39d8a)" d="M 51.745861 99.8496 
L 56.341785 99.8496 
L 56.341785 95.008051 
L 51.745861 95.008051 
z
" style="fill:#984ea3;"/>
   </g>
   <g id="patch_13">
    <path clip-path="url(#pf12bc39d8a)" d="M 92.598525 99.8496 
L 97.19445 99.8496 
L 97.19445 96.93074 
L 92.598525 96.93074 
z
" style="fill:#984ea3;"/>
   </g>
   <g id="patch_14">
    <path clip-path="url(#pf12bc39d8a)" d="M 133.45119 99.8496 
L 138.047115 99.8496 
L 138.047115 97.754029 
L 133.45119 97.754029 
z
" style="fill:#984ea3;"/>
   </g>
   <g id="patch_15">
    <path clip-path="url(#pf12bc39d8a)" d="M 56.341785 99.8496 
L 60.93771 99.8496 
L 60.93771 95.066798 
L 56.341785 95.066798 
z
" style="fill:#ff7f00;"/>
   </g>
   <g id="patch_16">
    <path clip-path="url(#pf12bc39d8a)" d="M 97.19445 99.8496 
L 101.790375 99.8496 
L 101.790375 97.219436 
L 97.19445 97.219436 
z
" style="fill:#ff7f00;"/>
   </g>
   <g id="patch_17">
    <path clip-path="url(#pf12bc39d8a)" d="M 138.047115 99.8496 
L 142.643039 99.8496 
L 142.643039 97.985658 
L 138.047115 97.985658 
z
" style="fill:#ff7f00;"/>
   </g>
   <g id="patch_18">
    <path clip-path="url(#pf12bc39d8a)" d="M 60.93771 99.8496 
L 65.533635 99.8496 
L 65.533635 96.653792 
L 60.93771 96.653792 
z
" style="fill:#ffff33;"/>
   </g>
   <g id="patch_19">
    <path clip-path="url(#pf12bc39d8a)" d="M 101.790375 99.8496 
L 106.3863 99.8496 
L 106.3863 98.205538 
L 101.790375 98.205538 
z
" style="fill:#ffff33;"/>
   </g>
   <g id="patch_20">
    <path clip-path="url(#pf12bc39d8a)" d="M 142.643039 99.8496 
L 147.238964 99.8496 
L 147.238964 98.726703 
L 142.643039 98.726703 
z
" style="fill:#ffff33;"/>
   </g>
   <g id="patch_21">
    <path clip-path="url(#pf12bc39d8a)" d="M 65.533635 99.8496 
L 70.12956 99.8496 
L 70.12956 97.184189 
L 65.533635 97.184189 
z
" style="fill:#a65628;"/>
   </g>
   <g id="patch_22">
    <path clip-path="url(#pf12bc39d8a)" d="M 106.3863 99.8496 
L 110.982224 99.8496 
L 110.982224 98.456469 
L 106.3863 98.456469 
z
" style="fill:#a65628;"/>
   </g>
   <g id="patch_23">
    <path clip-path="url(#pf12bc39d8a)" d="M 147.238964 99.8496 
L 151.834889 99.8496 
L 151.834889 98.910496 
L 147.238964 98.910496 
z
" style="fill:#a65628;"/>
   </g>
   <g id="patch_24">
    <path clip-path="url(#pf12bc39d8a)" d="M 70.12956 99.8496 
L 74.725484 99.8496 
L 74.725484 98.164415 
L 70.12956 98.164415 
z
" style="fill:#f781bf;"/>
   </g>
   <g id="patch_25">
    <path clip-path="url(#pf12bc39d8a)" d="M 110.982224 99.8496 
L 115.578149 99.8496 
L 115.578149 99.078343 
L 110.982224 99.078343 
z
" style="fill:#f781bf;"/>
   </g>
   <g id="patch_26">
    <path clip-path="url(#pf12bc39d8a)" d="M 151.834889 99.8496 
L 156.430814 99.8496 
L 156.430814 99.342702 
L 151.834889 99.342702 
z
" style="fill:#f781bf;"/>
   </g>
   <g id="LineCollection_1">
    <path clip-path="url(#pf12bc39d8a)" d="M 40.256049 32.016372 
L 40.256049 14.469029 
" style="fill:none;stroke:#000000;stroke-width:0.5;"/>
    <path clip-path="url(#pf12bc39d8a)" d="M 81.108713 59.686406 
L 81.108713 27.695585 
" style="fill:none;stroke:#000000;stroke-width:0.5;"/>
    <path clip-path="url(#pf12bc39d8a)" d="M 121.961378 69.358216 
L 121.961378 53.95121 
" style="fill:none;stroke:#000000;stroke-width:0.5;"/>
   </g>
   <g id="LineCollection_2">
    <path clip-path="url(#pf12bc39d8a)" d="M 44.851974 92.490791 
L 44.851974 92.308625 
" style="fill:none;stroke:#000000;stroke-width:0.5;"/>
    <path clip-path="url(#pf12bc39d8a)" d="M 85.704638 95.240696 
L 85.704638 95.028856 
" style="fill:none;stroke:#000000;stroke-width:0.5;"/>
    <path clip-path="url(#pf12bc39d8a)" d="M 126.557303 96.503128 
L 126.557303 96.297558 
" style="fill:none;stroke:#000000;stroke-width:0.5;"/>
   </g>
   <g id="LineCollection_3">
    <path clip-path="url(#pf12bc39d8a)" d="M 49.447898 94.209801 
L 49.447898 93.986839 
" style="fill:none;stroke:#000000;stroke-width:0.5;"/>
    <path clip-path="url(#pf12bc39d8a)" d="M 90.300563 96.348706 
L 90.300563 96.139784 
" style="fill:none;stroke:#000000;stroke-width:0.5;"/>
    <path clip-path="url(#pf12bc39d8a)" d="M 131.153227 97.248604 
L 131.153227 97.121451 
" style="fill:none;stroke:#000000;stroke-width:0.5;"/>
   </g>
   <g id="LineCollection_4">
    <path clip-path="url(#pf12bc39d8a)" d="M 54.043823 95.133934 
L 54.043823 94.882169 
" style="fill:none;stroke:#000000;stroke-width:0.5;"/>
    <path clip-path="url(#pf12bc39d8a)" d="M 94.896488 97.012375 
L 94.896488 96.849104 
" style="fill:none;stroke:#000000;stroke-width:0.5;"/>
    <path clip-path="url(#pf12bc39d8a)" d="M 135.749152 97.8221 
L 135.749152 97.685959 
" style="fill:none;stroke:#000000;stroke-width:0.5;"/>
   </g>
   <g id="LineCollection_5">
    <path clip-path="url(#pf12bc39d8a)" d="M 58.639748 95.174814 
L 58.639748 94.958782 
" style="fill:none;stroke:#000000;stroke-width:0.5;"/>
    <path clip-path="url(#pf12bc39d8a)" d="M 99.492412 97.289227 
L 99.492412 97.149646 
" style="fill:none;stroke:#000000;stroke-width:0.5;"/>
    <path clip-path="url(#pf12bc39d8a)" d="M 140.345077 98.04167 
L 140.345077 97.929646 
" style="fill:none;stroke:#000000;stroke-width:0.5;"/>
   </g>
   <g id="LineCollection_6">
    <path clip-path="url(#pf12bc39d8a)" d="M 63.235673 96.765045 
L 63.235673 96.542539 
" style="fill:none;stroke:#000000;stroke-width:0.5;"/>
    <path clip-path="url(#pf12bc39d8a)" d="M 104.088337 98.24823 
L 104.088337 98.162846 
" style="fill:none;stroke:#000000;stroke-width:0.5;"/>
    <path clip-path="url(#pf12bc39d8a)" d="M 144.941002 98.754622 
L 144.941002 98.698785 
" style="fill:none;stroke:#000000;stroke-width:0.5;"/>
   </g>
   <g id="LineCollection_7">
    <path clip-path="url(#pf12bc39d8a)" d="M 67.831597 97.268317 
L 67.831597 97.10006 
" style="fill:none;stroke:#000000;stroke-width:0.5;"/>
    <path clip-path="url(#pf12bc39d8a)" d="M 108.684262 98.517758 
L 108.684262 98.39518 
" style="fill:none;stroke:#000000;stroke-width:0.5;"/>
    <path clip-path="url(#pf12bc39d8a)" d="M 149.536926 98.955681 
L 149.536926 98.86531 
" style="fill:none;stroke:#000000;stroke-width:0.5;"/>
   </g>
   <g id="LineCollection_8">
    <path clip-path="url(#pf12bc39d8a)" d="M 72.427522 98.217758 
L 72.427522 98.111073 
" style="fill:none;stroke:#000000;stroke-width:0.5;"/>
    <path clip-path="url(#pf12bc39d8a)" d="M 113.280187 99.129384 
L 113.280187 99.027302 
" style="fill:none;stroke:#000000;stroke-width:0.5;"/>
    <path clip-path="url(#pf12bc39d8a)" d="M 154.132851 99.3693 
L 154.132851 99.316104 
" style="fill:none;stroke:#000000;stroke-width:0.5;"/>
   </g>
   <g id="line2d_6">
    <defs>
     <path d="M 1.5 0 
L -1.5 -0 
" id="m28448791ea" style="stroke:#000000;stroke-width:0.5;"/>
    </defs>
    <g clip-path="url(#pf12bc39d8a)">
     <use style="stroke:#000000;stroke-width:0.5;" x="40.256049" xlink:href="#m28448791ea" y="32.016372"/>
     <use style="stroke:#000000;stroke-width:0.5;" x="81.108713" xlink:href="#m28448791ea" y="59.686406"/>
     <use style="stroke:#000000;stroke-width:0.5;" x="121.961378" xlink:href="#m28448791ea" y="69.358216"/>
    </g>
   </g>
   <g id="line2d_7">
    <g clip-path="url(#pf12bc39d8a)">
     <use style="stroke:#000000;stroke-width:0.5;" x="40.256049" xlink:href="#m28448791ea" y="14.469029"/>
     <use style="stroke:#000000;stroke-width:0.5;" x="81.108713" xlink:href="#m28448791ea" y="27.695585"/>
     <use style="stroke:#000000;stroke-width:0.5;" x="121.961378" xlink:href="#m28448791ea" y="53.95121"/>
    </g>
   </g>
   <g id="line2d_8">
    <g clip-path="url(#pf12bc39d8a)">
     <use style="stroke:#000000;stroke-width:0.5;" x="44.851974" xlink:href="#m28448791ea" y="92.490791"/>
     <use style="stroke:#000000;stroke-width:0.5;" x="85.704638" xlink:href="#m28448791ea" y="95.240696"/>
     <use style="stroke:#000000;stroke-width:0.5;" x="126.557303" xlink:href="#m28448791ea" y="96.503128"/>
    </g>
   </g>
   <g id="line2d_9">
    <g clip-path="url(#pf12bc39d8a)">
     <use style="stroke:#000000;stroke-width:0.5;" x="44.851974" xlink:href="#m28448791ea" y="92.308625"/>
     <use style="stroke:#000000;stroke-width:0.5;" x="85.704638" xlink:href="#m28448791ea" y="95.028856"/>
     <use style="stroke:#000000;stroke-width:0.5;" x="126.557303" xlink:href="#m28448791ea" y="96.297558"/>
    </g>
   </g>
   <g id="line2d_10">
    <g clip-path="url(#pf12bc39d8a)">
     <use style="stroke:#000000;stroke-width:0.5;" x="49.447898" xlink:href="#m28448791ea" y="94.209801"/>
     <use style="stroke:#000000;stroke-width:0.5;" x="90.300563" xlink:href="#m28448791ea" y="96.348706"/>
     <use style="stroke:#000000;stroke-width:0.5;" x="131.153227" xlink:href="#m28448791ea" y="97.248604"/>
    </g>
   </g>
   <g id="line2d_11">
    <g clip-path="url(#pf12bc39d8a)">
     <use style="stroke:#000000;stroke-width:0.5;" x="49.447898" xlink:href="#m28448791ea" y="93.986839"/>
     <use style="stroke:#000000;stroke-width:0.5;" x="90.300563" xlink:href="#m28448791ea" y="96.139784"/>
     <use style="stroke:#000000;stroke-width:0.5;" x="131.153227" xlink:href="#m28448791ea" y="97.121451"/>
    </g>
   </g>
   <g id="line2d_12">
    <g clip-path="url(#pf12bc39d8a)">
     <use style="stroke:#000000;stroke-width:0.5;" x="54.043823" xlink:href="#m28448791ea" y="95.133934"/>
     <use style="stroke:#000000;stroke-width:0.5;" x="94.896488" xlink:href="#m28448791ea" y="97.012375"/>
     <use style="stroke:#000000;stroke-width:0.5;" x="135.749152" xlink:href="#m28448791ea" y="97.8221"/>
    </g>
   </g>
   <g id="line2d_13">
    <g clip-path="url(#pf12bc39d8a)">
     <use style="stroke:#000000;stroke-width:0.5;" x="54.043823" xlink:href="#m28448791ea" y="94.882169"/>
     <use style="stroke:#000000;stroke-width:0.5;" x="94.896488" xlink:href="#m28448791ea" y="96.849104"/>
     <use style="stroke:#000000;stroke-width:0.5;" x="135.749152" xlink:href="#m28448791ea" y="97.685959"/>
    </g>
   </g>
   <g id="line2d_14">
    <g clip-path="url(#pf12bc39d8a)">
     <use style="stroke:#000000;stroke-width:0.5;" x="58.639748" xlink:href="#m28448791ea" y="95.174814"/>
     <use style="stroke:#000000;stroke-width:0.5;" x="99.492412" xlink:href="#m28448791ea" y="97.289227"/>
     <use style="stroke:#000000;stroke-width:0.5;" x="140.345077" xlink:href="#m28448791ea" y="98.04167"/>
    </g>
   </g>
   <g id="line2d_15">
    <g clip-path="url(#pf12bc39d8a)">
     <use style="stroke:#000000;stroke-width:0.5;" x="58.639748" xlink:href="#m28448791ea" y="94.958782"/>
     <use style="stroke:#000000;stroke-width:0.5;" x="99.492412" xlink:href="#m28448791ea" y="97.149646"/>
     <use style="stroke:#000000;stroke-width:0.5;" x="140.345077" xlink:href="#m28448791ea" y="97.929646"/>
    </g>
   </g>
   <g id="line2d_16">
    <g clip-path="url(#pf12bc39d8a)">
     <use style="stroke:#000000;stroke-width:0.5;" x="63.235673" xlink:href="#m28448791ea" y="96.765045"/>
     <use style="stroke:#000000;stroke-width:0.5;" x="104.088337" xlink:href="#m28448791ea" y="98.24823"/>
     <use style="stroke:#000000;stroke-width:0.5;" x="144.941002" xlink:href="#m28448791ea" y="98.754622"/>
    </g>
   </g>
   <g id="line2d_17">
    <g clip-path="url(#pf12bc39d8a)">
     <use style="stroke:#000000;stroke-width:0.5;" x="63.235673" xlink:href="#m28448791ea" y="96.542539"/>
     <use style="stroke:#000000;stroke-width:0.5;" x="104.088337" xlink:href="#m28448791ea" y="98.162846"/>
     <use style="stroke:#000000;stroke-width:0.5;" x="144.941002" xlink:href="#m28448791ea" y="98.698785"/>
    </g>
   </g>
   <g id="line2d_18">
    <g clip-path="url(#pf12bc39d8a)">
     <use style="stroke:#000000;stroke-width:0.5;" x="67.831597" xlink:href="#m28448791ea" y="97.268317"/>
     <use style="stroke:#000000;stroke-width:0.5;" x="108.684262" xlink:href="#m28448791ea" y="98.517758"/>
     <use style="stroke:#000000;stroke-width:0.5;" x="149.536926" xlink:href="#m28448791ea" y="98.955681"/>
    </g>
   </g>
   <g id="line2d_19">
    <g clip-path="url(#pf12bc39d8a)">
     <use style="stroke:#000000;stroke-width:0.5;" x="67.831597" xlink:href="#m28448791ea" y="97.10006"/>
     <use style="stroke:#000000;stroke-width:0.5;" x="108.684262" xlink:href="#m28448791ea" y="98.39518"/>
     <use style="stroke:#000000;stroke-width:0.5;" x="149.536926" xlink:href="#m28448791ea" y="98.86531"/>
    </g>
   </g>
   <g id="line2d_20">
    <g clip-path="url(#pf12bc39d8a)">
     <use style="stroke:#000000;stroke-width:0.5;" x="72.427522" xlink:href="#m28448791ea" y="98.217758"/>
     <use style="stroke:#000000;stroke-width:0.5;" x="113.280187" xlink:href="#m28448791ea" y="99.129384"/>
     <use style="stroke:#000000;stroke-width:0.5;" x="154.132851" xlink:href="#m28448791ea" y="99.3693"/>
    </g>
   </g>
   <g id="line2d_21">
    <g clip-path="url(#pf12bc39d8a)">
     <use style="stroke:#000000;stroke-width:0.5;" x="72.427522" xlink:href="#m28448791ea" y="98.111073"/>
     <use style="stroke:#000000;stroke-width:0.5;" x="113.280187" xlink:href="#m28448791ea" y="99.027302"/>
     <use style="stroke:#000000;stroke-width:0.5;" x="154.132851" xlink:href="#m28448791ea" y="99.316104"/>
    </g>
   </g>
   <g id="patch_27">
    <path d="M 32.03445 99.8496 
L 32.03445 21.559014 
" style="fill:none;stroke:#000000;stroke-linecap:square;stroke-linejoin:miter;stroke-width:0.8;"/>
   </g>
  </g>
  <g id="axes_2">
   <g id="patch_28">
    <path d="M 201.23445 99.8496 
L 331.55445 99.8496 
L 331.55445 10.2 
L 201.23445 10.2 
z
" style="fill:none;"/>
   </g>
   <g id="matplotlib.axis_3">
    <g id="xtick_4">
     <g id="text_11">
      <!-- 10 -->
      <g transform="translate(220.203285 108.7211)scale(0.096 -0.096)">
       <use xlink:href="#ArialMT-31"/>
       <use x="55.615234" xlink:href="#ArialMT-30"/>
      </g>
     </g>
    </g>
    <g id="xtick_5">
     <g id="text_12">
      <!-- 20 -->
      <g transform="translate(261.05595 108.7211)scale(0.096 -0.096)">
       <use xlink:href="#ArialMT-32"/>
       <use x="55.615234" xlink:href="#ArialMT-30"/>
      </g>
     </g>
    </g>
    <g id="xtick_6">
     <g id="text_13">
      <!-- 30 -->
      <g transform="translate(301.908615 108.7211)scale(0.096 -0.096)">
       <use xlink:href="#ArialMT-33"/>
       <use x="55.615234" xlink:href="#ArialMT-30"/>
      </g>
     </g>
    </g>
    <g id="text_14">
     <!-- passage -->
     <g transform="translate(246.433575 119.064)scale(0.1056 -0.1056)">
      <use xlink:href="#ArialMT-70"/>
      <use x="55.615234" xlink:href="#ArialMT-61"/>
      <use x="111.230469" xlink:href="#ArialMT-73"/>
      <use x="161.230469" xlink:href="#ArialMT-73"/>
      <use x="211.230469" xlink:href="#ArialMT-61"/>
      <use x="266.845703" xlink:href="#ArialMT-67"/>
      <use x="322.460938" xlink:href="#ArialMT-65"/>
     </g>
    </g>
   </g>
   <g id="matplotlib.axis_4">
    <g id="ytick_6">
     <g id="line2d_22">
      <g>
       <use style="stroke:#000000;stroke-width:0.8;" x="201.23445" xlink:href="#m4af143038f" y="99.8496"/>
      </g>
     </g>
     <g id="text_15">
      <!-- 0.0 -->
      <defs>
       <path d="M 9.078125 0 
L 9.078125 10.015625 
L 19.09375 10.015625 
L 19.09375 0 
z
" id="ArialMT-2e"/>
      </defs>
      <g transform="translate(184.39045 103.28535)scale(0.096 -0.096)">
       <use xlink:href="#ArialMT-30"/>
       <use x="55.615234" xlink:href="#ArialMT-2e"/>
       <use x="83.398438" xlink:href="#ArialMT-30"/>
      </g>
     </g>
    </g>
    <g id="ytick_7">
     <g id="line2d_23">
      <g>
       <use style="stroke:#000000;stroke-width:0.8;" x="201.23445" xlink:href="#m4af143038f" y="78.866951"/>
      </g>
     </g>
     <g id="text_16">
      <!-- 0.2 -->
      <g transform="translate(184.39045 82.302701)scale(0.096 -0.096)">
       <use xlink:href="#ArialMT-30"/>
       <use x="55.615234" xlink:href="#ArialMT-2e"/>
       <use x="83.398438" xlink:href="#ArialMT-32"/>
      </g>
     </g>
    </g>
    <g id="ytick_8">
     <g id="line2d_24">
      <g>
       <use style="stroke:#000000;stroke-width:0.8;" x="201.23445" xlink:href="#m4af143038f" y="57.884303"/>
      </g>
     </g>
     <g id="text_17">
      <!-- 0.4 -->
      <g transform="translate(184.39045 61.320053)scale(0.096 -0.096)">
       <use xlink:href="#ArialMT-30"/>
       <use x="55.615234" xlink:href="#ArialMT-2e"/>
       <use x="83.398438" xlink:href="#ArialMT-34"/>
      </g>
     </g>
    </g>
    <g id="ytick_9">
     <g id="line2d_25">
      <g>
       <use style="stroke:#000000;stroke-width:0.8;" x="201.23445" xlink:href="#m4af143038f" y="36.901654"/>
      </g>
     </g>
     <g id="text_18">
      <!-- 0.6 -->
      <g transform="translate(184.39045 40.337404)scale(0.096 -0.096)">
       <use xlink:href="#ArialMT-30"/>
       <use x="55.615234" xlink:href="#ArialMT-2e"/>
       <use x="83.398438" xlink:href="#ArialMT-36"/>
      </g>
     </g>
    </g>
    <g id="ytick_10">
     <g id="line2d_26">
      <g>
       <use style="stroke:#000000;stroke-width:0.8;" x="201.23445" xlink:href="#m4af143038f" y="15.919005"/>
      </g>
     </g>
     <g id="text_19">
      <!-- 0.8 -->
      <g transform="translate(184.39045 19.354755)scale(0.096 -0.096)">
       <use xlink:href="#ArialMT-30"/>
       <use x="55.615234" xlink:href="#ArialMT-2e"/>
       <use x="83.398438" xlink:href="#ArialMT-38"/>
      </g>
     </g>
    </g>
    <g id="text_20">
     <!-- Gini coefficient -->
     <defs>
      <path d="M 41.21875 28.078125 
L 41.21875 36.46875 
L 71.53125 36.53125 
L 71.53125 9.96875 
Q 64.546875 4.390625 57.125 1.578125 
Q 49.703125 -1.21875 41.890625 -1.21875 
Q 31.34375 -1.21875 22.71875 3.296875 
Q 14.109375 7.8125 9.71875 16.359375 
Q 5.328125 24.90625 5.328125 35.453125 
Q 5.328125 45.90625 9.6875 54.953125 
Q 14.0625 64.015625 22.265625 68.40625 
Q 30.46875 72.796875 41.15625 72.796875 
Q 48.921875 72.796875 55.1875 70.28125 
Q 61.46875 67.78125 65.03125 63.28125 
Q 68.609375 58.796875 70.453125 51.5625 
L 61.921875 49.21875 
Q 60.296875 54.6875 57.90625 57.8125 
Q 55.515625 60.9375 51.0625 62.8125 
Q 46.625 64.703125 41.21875 64.703125 
Q 34.71875 64.703125 29.984375 62.71875 
Q 25.25 60.75 22.34375 57.515625 
Q 19.4375 54.296875 17.828125 50.4375 
Q 15.09375 43.796875 15.09375 36.03125 
Q 15.09375 26.46875 18.390625 20.015625 
Q 21.6875 13.578125 27.984375 10.453125 
Q 34.28125 7.328125 41.359375 7.328125 
Q 47.515625 7.328125 53.375 9.6875 
Q 59.234375 12.0625 62.25 14.75 
L 62.25 28.078125 
z
" id="ArialMT-47"/>
      <path d="M 6.640625 61.46875 
L 6.640625 71.578125 
L 15.4375 71.578125 
L 15.4375 61.46875 
z
M 6.640625 0 
L 6.640625 51.859375 
L 15.4375 51.859375 
L 15.4375 0 
z
" id="ArialMT-69"/>
     </defs>
     <g transform="translate(181.29165 89.6517)rotate(-90)scale(0.1056 -0.1056)">
      <use xlink:href="#ArialMT-47"/>
      <use x="77.783203" xlink:href="#ArialMT-69"/>
      <use x="100" xlink:href="#ArialMT-6e"/>
      <use x="155.615234" xlink:href="#ArialMT-69"/>
      <use x="177.832031" xlink:href="#ArialMT-20"/>
      <use x="205.615234" xlink:href="#ArialMT-63"/>
      <use x="255.615234" xlink:href="#ArialMT-6f"/>
      <use x="311.230469" xlink:href="#ArialMT-65"/>
      <use x="366.845703" xlink:href="#ArialMT-66"/>
      <use x="394.613281" xlink:href="#ArialMT-66"/>
      <use x="422.396484" xlink:href="#ArialMT-69"/>
      <use x="444.613281" xlink:href="#ArialMT-63"/>
      <use x="494.613281" xlink:href="#ArialMT-69"/>
      <use x="516.830078" xlink:href="#ArialMT-65"/>
      <use x="572.445312" xlink:href="#ArialMT-6e"/>
      <use x="628.060547" xlink:href="#ArialMT-74"/>
     </g>
    </g>
   </g>
   <g id="patch_29">
    <path clip-path="url(#pd42732062f)" d="M 207.158086 99.8496 
L 211.754011 99.8496 
L 211.754011 39.735159 
L 207.158086 39.735159 
z
" style="fill:#e41a1c;"/>
   </g>
   <g id="patch_30">
    <path clip-path="url(#pd42732062f)" d="M 248.010751 99.8496 
L 252.606676 99.8496 
L 252.606676 28.499472 
L 248.010751 28.499472 
z
" style="fill:#e41a1c;"/>
   </g>
   <g id="patch_31">
    <path clip-path="url(#pd42732062f)" d="M 288.863416 99.8496 
L 293.45934 99.8496 
L 293.45934 16.193477 
L 288.863416 16.193477 
z
" style="fill:#e41a1c;"/>
   </g>
   <g id="patch_32">
    <path clip-path="url(#pd42732062f)" d="M 211.754011 99.8496 
L 216.349936 99.8496 
L 216.349936 48.594053 
L 211.754011 48.594053 
z
" style="fill:#377eb8;"/>
   </g>
   <g id="patch_33">
    <path clip-path="url(#pd42732062f)" d="M 252.606676 99.8496 
L 257.2026 99.8496 
L 257.2026 48.646311 
L 252.606676 48.646311 
z
" style="fill:#377eb8;"/>
   </g>
   <g id="patch_34">
    <path clip-path="url(#pd42732062f)" d="M 293.45934 99.8496 
L 298.055265 99.8496 
L 298.055265 48.494142 
L 293.45934 48.494142 
z
" style="fill:#377eb8;"/>
   </g>
   <g id="patch_35">
    <path clip-path="url(#pd42732062f)" d="M 216.349936 99.8496 
L 220.945861 99.8496 
L 220.945861 47.591947 
L 216.349936 47.591947 
z
" style="fill:#4daf4a;"/>
   </g>
   <g id="patch_36">
    <path clip-path="url(#pd42732062f)" d="M 257.2026 99.8496 
L 261.798525 99.8496 
L 261.798525 47.932145 
L 257.2026 47.932145 
z
" style="fill:#4daf4a;"/>
   </g>
   <g id="patch_37">
    <path clip-path="url(#pd42732062f)" d="M 298.055265 99.8496 
L 302.65119 99.8496 
L 302.65119 47.955131 
L 298.055265 47.955131 
z
" style="fill:#4daf4a;"/>
   </g>
   <g id="patch_38">
    <path clip-path="url(#pd42732062f)" d="M 220.945861 99.8496 
L 225.541785 99.8496 
L 225.541785 47.434716 
L 220.945861 47.434716 
z
" style="fill:#984ea3;"/>
   </g>
   <g id="patch_39">
    <path clip-path="url(#pd42732062f)" d="M 261.798525 99.8496 
L 266.39445 99.8496 
L 266.39445 48.275499 
L 261.798525 48.275499 
z
" style="fill:#984ea3;"/>
   </g>
   <g id="patch_40">
    <path clip-path="url(#pd42732062f)" d="M 302.65119 99.8496 
L 307.247115 99.8496 
L 307.247115 48.857855 
L 302.65119 48.857855 
z
" style="fill:#984ea3;"/>
   </g>
   <g id="patch_41">
    <path clip-path="url(#pd42732062f)" d="M 225.541785 99.8496 
L 230.13771 99.8496 
L 230.13771 45.892089 
L 225.541785 45.892089 
z
" style="fill:#ff7f00;"/>
   </g>
   <g id="patch_42">
    <path clip-path="url(#pd42732062f)" d="M 266.39445 99.8496 
L 270.990375 99.8496 
L 270.990375 48.878799 
L 266.39445 48.878799 
z
" style="fill:#ff7f00;"/>
   </g>
   <g id="patch_43">
    <path clip-path="url(#pd42732062f)" d="M 307.247115 99.8496 
L 311.843039 99.8496 
L 311.843039 48.164486 
L 307.247115 48.164486 
z
" style="fill:#ff7f00;"/>
   </g>
   <g id="patch_44">
    <path clip-path="url(#pd42732062f)" d="M 230.13771 99.8496 
L 234.733635 99.8496 
L 234.733635 45.033421 
L 230.13771 45.033421 
z
" style="fill:#ffff33;"/>
   </g>
   <g id="patch_45">
    <path clip-path="url(#pd42732062f)" d="M 270.990375 99.8496 
L 275.5863 99.8496 
L 275.5863 47.665936 
L 270.990375 47.665936 
z
" style="fill:#ffff33;"/>
   </g>
   <g id="patch_46">
    <path clip-path="url(#pd42732062f)" d="M 311.843039 99.8496 
L 316.438964 99.8496 
L 316.438964 48.085591 
L 311.843039 48.085591 
z
" style="fill:#ffff33;"/>
   </g>
   <g id="patch_47">
    <path clip-path="url(#pd42732062f)" d="M 234.733635 99.8496 
L 239.32956 99.8496 
L 239.32956 43.87865 
L 234.733635 43.87865 
z
" style="fill:#a65628;"/>
   </g>
   <g id="patch_48">
    <path clip-path="url(#pd42732062f)" d="M 275.5863 99.8496 
L 280.182224 99.8496 
L 280.182224 45.300177 
L 275.5863 45.300177 
z
" style="fill:#a65628;"/>
   </g>
   <g id="patch_49">
    <path clip-path="url(#pd42732062f)" d="M 316.438964 99.8496 
L 321.034889 99.8496 
L 321.034889 46.299635 
L 316.438964 46.299635 
z
" style="fill:#a65628;"/>
   </g>
   <g id="patch_50">
    <path clip-path="url(#pd42732062f)" d="M 239.32956 99.8496 
L 243.925484 99.8496 
L 243.925484 41.103862 
L 239.32956 41.103862 
z
" style="fill:#f781bf;"/>
   </g>
   <g id="patch_51">
    <path clip-path="url(#pd42732062f)" d="M 280.182224 99.8496 
L 284.778149 99.8496 
L 284.778149 48.151032 
L 280.182224 48.151032 
z
" style="fill:#f781bf;"/>
   </g>
   <g id="patch_52">
    <path clip-path="url(#pd42732062f)" d="M 321.034889 99.8496 
L 325.630814 99.8496 
L 325.630814 49.495062 
L 321.034889 49.495062 
z
" style="fill:#f781bf;"/>
   </g>
   <g id="LineCollection_9">
    <path clip-path="url(#pd42732062f)" d="M 209.456049 42.96875 
L 209.456049 36.501568 
" style="fill:none;stroke:#000000;stroke-width:0.5;"/>
    <path clip-path="url(#pd42732062f)" d="M 250.308713 33.676582 
L 250.308713 23.322362 
" style="fill:none;stroke:#000000;stroke-width:0.5;"/>
    <path clip-path="url(#pd42732062f)" d="M 291.161378 17.917926 
L 291.161378 14.469029 
" style="fill:none;stroke:#000000;stroke-width:0.5;"/>
   </g>
   <g id="LineCollection_10">
    <path clip-path="url(#pd42732062f)" d="M 214.051974 49.73691 
L 214.051974 47.451195 
" style="fill:none;stroke:#000000;stroke-width:0.5;"/>
    <path clip-path="url(#pd42732062f)" d="M 254.904638 50.054921 
L 254.904638 47.237701 
" style="fill:none;stroke:#000000;stroke-width:0.5;"/>
    <path clip-path="url(#pd42732062f)" d="M 295.757303 50.442369 
L 295.757303 46.545915 
" style="fill:none;stroke:#000000;stroke-width:0.5;"/>
   </g>
   <g id="LineCollection_11">
    <path clip-path="url(#pd42732062f)" d="M 218.647898 49.252813 
L 218.647898 45.931081 
" style="fill:none;stroke:#000000;stroke-width:0.5;"/>
    <path clip-path="url(#pd42732062f)" d="M 259.500563 49.162065 
L 259.500563 46.702224 
" style="fill:none;stroke:#000000;stroke-width:0.5;"/>
    <path clip-path="url(#pd42732062f)" d="M 300.353227 49.172488 
L 300.353227 46.737774 
" style="fill:none;stroke:#000000;stroke-width:0.5;"/>
   </g>
   <g id="LineCollection_12">
    <path clip-path="url(#pd42732062f)" d="M 223.243823 48.727035 
L 223.243823 46.142397 
" style="fill:none;stroke:#000000;stroke-width:0.5;"/>
    <path clip-path="url(#pd42732062f)" d="M 264.096488 49.373433 
L 264.096488 47.177566 
" style="fill:none;stroke:#000000;stroke-width:0.5;"/>
    <path clip-path="url(#pd42732062f)" d="M 304.949152 50.540067 
L 304.949152 47.175642 
" style="fill:none;stroke:#000000;stroke-width:0.5;"/>
   </g>
   <g id="LineCollection_13">
    <path clip-path="url(#pd42732062f)" d="M 227.839748 47.342511 
L 227.839748 44.441667 
" style="fill:none;stroke:#000000;stroke-width:0.5;"/>
    <path clip-path="url(#pd42732062f)" d="M 268.692412 50.762855 
L 268.692412 46.994742 
" style="fill:none;stroke:#000000;stroke-width:0.5;"/>
    <path clip-path="url(#pd42732062f)" d="M 309.545077 50.27662 
L 309.545077 46.052353 
" style="fill:none;stroke:#000000;stroke-width:0.5;"/>
   </g>
   <g id="LineCollection_14">
    <path clip-path="url(#pd42732062f)" d="M 232.435673 46.336999 
L 232.435673 43.729844 
" style="fill:none;stroke:#000000;stroke-width:0.5;"/>
    <path clip-path="url(#pd42732062f)" d="M 273.288337 50.319417 
L 273.288337 45.012455 
" style="fill:none;stroke:#000000;stroke-width:0.5;"/>
    <path clip-path="url(#pd42732062f)" d="M 314.141002 51.072532 
L 314.141002 45.098651 
" style="fill:none;stroke:#000000;stroke-width:0.5;"/>
   </g>
   <g id="LineCollection_15">
    <path clip-path="url(#pd42732062f)" d="M 237.031597 45.835701 
L 237.031597 41.921599 
" style="fill:none;stroke:#000000;stroke-width:0.5;"/>
    <path clip-path="url(#pd42732062f)" d="M 277.884262 47.683763 
L 277.884262 42.91659 
" style="fill:none;stroke:#000000;stroke-width:0.5;"/>
    <path clip-path="url(#pd42732062f)" d="M 318.736926 49.21934 
L 318.736926 43.379931 
" style="fill:none;stroke:#000000;stroke-width:0.5;"/>
   </g>
   <g id="LineCollection_16">
    <path clip-path="url(#pd42732062f)" d="M 241.627522 42.818163 
L 241.627522 39.38956 
" style="fill:none;stroke:#000000;stroke-width:0.5;"/>
    <path clip-path="url(#pd42732062f)" d="M 282.480187 50.831896 
L 282.480187 45.470168 
" style="fill:none;stroke:#000000;stroke-width:0.5;"/>
    <path clip-path="url(#pd42732062f)" d="M 323.332851 54.062049 
L 323.332851 44.928075 
" style="fill:none;stroke:#000000;stroke-width:0.5;"/>
   </g>
   <g id="line2d_27">
    <g clip-path="url(#pd42732062f)">
     <use style="stroke:#000000;stroke-width:0.5;" x="209.456049" xlink:href="#m28448791ea" y="42.96875"/>
     <use style="stroke:#000000;stroke-width:0.5;" x="250.308713" xlink:href="#m28448791ea" y="33.676582"/>
     <use style="stroke:#000000;stroke-width:0.5;" x="291.161378" xlink:href="#m28448791ea" y="17.917926"/>
    </g>
   </g>
   <g id="line2d_28">
    <g clip-path="url(#pd42732062f)">
     <use style="stroke:#000000;stroke-width:0.5;" x="209.456049" xlink:href="#m28448791ea" y="36.501568"/>
     <use style="stroke:#000000;stroke-width:0.5;" x="250.308713" xlink:href="#m28448791ea" y="23.322362"/>
     <use style="stroke:#000000;stroke-width:0.5;" x="291.161378" xlink:href="#m28448791ea" y="14.469029"/>
    </g>
   </g>
   <g id="line2d_29">
    <g clip-path="url(#pd42732062f)">
     <use style="stroke:#000000;stroke-width:0.5;" x="214.051974" xlink:href="#m28448791ea" y="49.73691"/>
     <use style="stroke:#000000;stroke-width:0.5;" x="254.904638" xlink:href="#m28448791ea" y="50.054921"/>
     <use style="stroke:#000000;stroke-width:0.5;" x="295.757303" xlink:href="#m28448791ea" y="50.442369"/>
    </g>
   </g>
   <g id="line2d_30">
    <g clip-path="url(#pd42732062f)">
     <use style="stroke:#000000;stroke-width:0.5;" x="214.051974" xlink:href="#m28448791ea" y="47.451195"/>
     <use style="stroke:#000000;stroke-width:0.5;" x="254.904638" xlink:href="#m28448791ea" y="47.237701"/>
     <use style="stroke:#000000;stroke-width:0.5;" x="295.757303" xlink:href="#m28448791ea" y="46.545915"/>
    </g>
   </g>
   <g id="line2d_31">
    <g clip-path="url(#pd42732062f)">
     <use style="stroke:#000000;stroke-width:0.5;" x="218.647898" xlink:href="#m28448791ea" y="49.252813"/>
     <use style="stroke:#000000;stroke-width:0.5;" x="259.500563" xlink:href="#m28448791ea" y="49.162065"/>
     <use style="stroke:#000000;stroke-width:0.5;" x="300.353227" xlink:href="#m28448791ea" y="49.172488"/>
    </g>
   </g>
   <g id="line2d_32">
    <g clip-path="url(#pd42732062f)">
     <use style="stroke:#000000;stroke-width:0.5;" x="218.647898" xlink:href="#m28448791ea" y="45.931081"/>
     <use style="stroke:#000000;stroke-width:0.5;" x="259.500563" xlink:href="#m28448791ea" y="46.702224"/>
     <use style="stroke:#000000;stroke-width:0.5;" x="300.353227" xlink:href="#m28448791ea" y="46.737774"/>
    </g>
   </g>
   <g id="line2d_33">
    <g clip-path="url(#pd42732062f)">
     <use style="stroke:#000000;stroke-width:0.5;" x="223.243823" xlink:href="#m28448791ea" y="48.727035"/>
     <use style="stroke:#000000;stroke-width:0.5;" x="264.096488" xlink:href="#m28448791ea" y="49.373433"/>
     <use style="stroke:#000000;stroke-width:0.5;" x="304.949152" xlink:href="#m28448791ea" y="50.540067"/>
    </g>
   </g>
   <g id="line2d_34">
    <g clip-path="url(#pd42732062f)">
     <use style="stroke:#000000;stroke-width:0.5;" x="223.243823" xlink:href="#m28448791ea" y="46.142397"/>
     <use style="stroke:#000000;stroke-width:0.5;" x="264.096488" xlink:href="#m28448791ea" y="47.177566"/>
     <use style="stroke:#000000;stroke-width:0.5;" x="304.949152" xlink:href="#m28448791ea" y="47.175642"/>
    </g>
   </g>
   <g id="line2d_35">
    <g clip-path="url(#pd42732062f)">
     <use style="stroke:#000000;stroke-width:0.5;" x="227.839748" xlink:href="#m28448791ea" y="47.342511"/>
     <use style="stroke:#000000;stroke-width:0.5;" x="268.692412" xlink:href="#m28448791ea" y="50.762855"/>
     <use style="stroke:#000000;stroke-width:0.5;" x="309.545077" xlink:href="#m28448791ea" y="50.27662"/>
    </g>
   </g>
   <g id="line2d_36">
    <g clip-path="url(#pd42732062f)">
     <use style="stroke:#000000;stroke-width:0.5;" x="227.839748" xlink:href="#m28448791ea" y="44.441667"/>
     <use style="stroke:#000000;stroke-width:0.5;" x="268.692412" xlink:href="#m28448791ea" y="46.994742"/>
     <use style="stroke:#000000;stroke-width:0.5;" x="309.545077" xlink:href="#m28448791ea" y="46.052353"/>
    </g>
   </g>
   <g id="line2d_37">
    <g clip-path="url(#pd42732062f)">
     <use style="stroke:#000000;stroke-width:0.5;" x="232.435673" xlink:href="#m28448791ea" y="46.336999"/>
     <use style="stroke:#000000;stroke-width:0.5;" x="273.288337" xlink:href="#m28448791ea" y="50.319417"/>
     <use style="stroke:#000000;stroke-width:0.5;" x="314.141002" xlink:href="#m28448791ea" y="51.072532"/>
    </g>
   </g>
   <g id="line2d_38">
    <g clip-path="url(#pd42732062f)">
     <use style="stroke:#000000;stroke-width:0.5;" x="232.435673" xlink:href="#m28448791ea" y="43.729844"/>
     <use style="stroke:#000000;stroke-width:0.5;" x="273.288337" xlink:href="#m28448791ea" y="45.012455"/>
     <use style="stroke:#000000;stroke-width:0.5;" x="314.141002" xlink:href="#m28448791ea" y="45.098651"/>
    </g>
   </g>
   <g id="line2d_39">
    <g clip-path="url(#pd42732062f)">
     <use style="stroke:#000000;stroke-width:0.5;" x="237.031597" xlink:href="#m28448791ea" y="45.835701"/>
     <use style="stroke:#000000;stroke-width:0.5;" x="277.884262" xlink:href="#m28448791ea" y="47.683763"/>
     <use style="stroke:#000000;stroke-width:0.5;" x="318.736926" xlink:href="#m28448791ea" y="49.21934"/>
    </g>
   </g>
   <g id="line2d_40">
    <g clip-path="url(#pd42732062f)">
     <use style="stroke:#000000;stroke-width:0.5;" x="237.031597" xlink:href="#m28448791ea" y="41.921599"/>
     <use style="stroke:#000000;stroke-width:0.5;" x="277.884262" xlink:href="#m28448791ea" y="42.91659"/>
     <use style="stroke:#000000;stroke-width:0.5;" x="318.736926" xlink:href="#m28448791ea" y="43.379931"/>
    </g>
   </g>
   <g id="line2d_41">
    <g clip-path="url(#pd42732062f)">
     <use style="stroke:#000000;stroke-width:0.5;" x="241.627522" xlink:href="#m28448791ea" y="42.818163"/>
     <use style="stroke:#000000;stroke-width:0.5;" x="282.480187" xlink:href="#m28448791ea" y="50.831896"/>
     <use style="stroke:#000000;stroke-width:0.5;" x="323.332851" xlink:href="#m28448791ea" y="54.062049"/>
    </g>
   </g>
   <g id="line2d_42">
    <g clip-path="url(#pd42732062f)">
     <use style="stroke:#000000;stroke-width:0.5;" x="241.627522" xlink:href="#m28448791ea" y="39.38956"/>
     <use style="stroke:#000000;stroke-width:0.5;" x="282.480187" xlink:href="#m28448791ea" y="45.470168"/>
     <use style="stroke:#000000;stroke-width:0.5;" x="323.332851" xlink:href="#m28448791ea" y="44.928075"/>
    </g>
   </g>
   <g id="patch_53">
    <path d="M 201.23445 99.8496 
L 201.23445 15.919005 
" style="fill:none;stroke:#000000;stroke-linecap:square;stroke-linejoin:miter;stroke-width:0.8;"/>
   </g>
   <g id="legend_1">
    <g id="patch_54">
     <path d="M 344.61555 19.176978 
L 357.11055 19.176978 
L 357.11055 13.345978 
L 344.61555 13.345978 
z
" style="fill:#e41a1c;"/>
    </g>
    <g id="text_21">
     <!-- K562 -->
     <defs>
      <path d="M 7.328125 0 
L 7.328125 71.578125 
L 16.796875 71.578125 
L 16.796875 36.078125 
L 52.34375 71.578125 
L 65.1875 71.578125 
L 35.15625 42.578125 
L 66.5 0 
L 54 0 
L 28.515625 36.234375 
L 16.796875 24.8125 
L 16.796875 0 
z
" id="ArialMT-4b"/>
      <path d="M 4.15625 18.75 
L 13.375 19.53125 
Q 14.40625 12.796875 18.140625 9.390625 
Q 21.875 6 27.15625 6 
Q 33.5 6 37.890625 10.78125 
Q 42.28125 15.578125 42.28125 23.484375 
Q 42.28125 31 38.0625 35.34375 
Q 33.84375 39.703125 27 39.703125 
Q 22.75 39.703125 19.328125 37.765625 
Q 15.921875 35.84375 13.96875 32.765625 
L 5.71875 33.84375 
L 12.640625 70.609375 
L 48.25 70.609375 
L 48.25 62.203125 
L 19.671875 62.203125 
L 15.828125 42.96875 
Q 22.265625 47.46875 29.34375 47.46875 
Q 38.71875 47.46875 45.15625 40.96875 
Q 51.609375 34.46875 51.609375 24.265625 
Q 51.609375 14.546875 45.953125 7.46875 
Q 39.0625 -1.21875 27.15625 -1.21875 
Q 17.390625 -1.21875 11.203125 4.25 
Q 5.03125 9.71875 4.15625 18.75 
" id="ArialMT-35"/>
     </defs>
     <g transform="translate(359.60955 19.176978)scale(0.0833 -0.0833)">
      <use xlink:href="#ArialMT-4b"/>
      <use x="66.699219" xlink:href="#ArialMT-35"/>
      <use x="122.314453" xlink:href="#ArialMT-36"/>
      <use x="177.929688" xlink:href="#ArialMT-32"/>
     </g>
    </g>
    <g id="patch_55">
     <path d="M 344.61555 28.579465 
L 357.11055 28.579465 
L 357.11055 22.748465 
L 344.61555 22.748465 
z
" style="fill:#377eb8;"/>
    </g>
    <g id="text_22">
     <!-- M = 9  - $\mathregular{1/r_{DC}}$ = 16h -->
     <defs>
      <path d="M 7.421875 0 
L 7.421875 71.578125 
L 21.6875 71.578125 
L 38.625 20.90625 
Q 40.96875 13.8125 42.046875 10.296875 
Q 43.265625 14.203125 45.84375 21.78125 
L 62.984375 71.578125 
L 75.734375 71.578125 
L 75.734375 0 
L 66.609375 0 
L 66.609375 59.90625 
L 45.796875 0 
L 37.25 0 
L 16.546875 60.9375 
L 16.546875 0 
z
" id="ArialMT-4d"/>
      <path d="M 52.828125 42.09375 
L 5.5625 42.09375 
L 5.5625 50.296875 
L 52.828125 50.296875 
z
M 52.828125 20.359375 
L 5.5625 20.359375 
L 5.5625 28.5625 
L 52.828125 28.5625 
z
" id="ArialMT-3d"/>
      <path d="M 5.46875 16.546875 
L 13.921875 17.328125 
Q 14.984375 11.375 18.015625 8.6875 
Q 21.046875 6 25.78125 6 
Q 29.828125 6 32.875 7.859375 
Q 35.9375 9.71875 37.890625 12.8125 
Q 39.84375 15.921875 41.15625 21.1875 
Q 42.484375 26.46875 42.484375 31.9375 
Q 42.484375 32.515625 42.4375 33.6875 
Q 39.796875 29.5 35.234375 26.875 
Q 30.671875 24.265625 25.34375 24.265625 
Q 16.453125 24.265625 10.296875 30.703125 
Q 4.15625 37.15625 4.15625 47.703125 
Q 4.15625 58.59375 10.578125 65.234375 
Q 17 71.875 26.65625 71.875 
Q 33.640625 71.875 39.421875 68.109375 
Q 45.21875 64.359375 48.21875 57.390625 
Q 51.21875 50.4375 51.21875 37.25 
Q 51.21875 23.53125 48.234375 15.40625 
Q 45.265625 7.28125 39.375 3.03125 
Q 33.5 -1.21875 25.59375 -1.21875 
Q 17.1875 -1.21875 11.859375 3.4375 
Q 6.546875 8.109375 5.46875 16.546875 
M 41.453125 48.140625 
Q 41.453125 55.71875 37.421875 60.15625 
Q 33.40625 64.59375 27.734375 64.59375 
Q 21.875 64.59375 17.53125 59.8125 
Q 13.1875 55.03125 13.1875 47.40625 
Q 13.1875 40.578125 17.3125 36.296875 
Q 21.4375 32.03125 27.484375 32.03125 
Q 33.59375 32.03125 37.515625 36.296875 
Q 41.453125 40.578125 41.453125 48.140625 
" id="ArialMT-39"/>
      <path d="M 3.171875 21.484375 
L 3.171875 30.328125 
L 30.171875 30.328125 
L 30.171875 21.484375 
z
" id="ArialMT-2d"/>
      <path d="M 0 -1.21875 
L 20.75 72.796875 
L 27.78125 72.796875 
L 7.078125 -1.21875 
z
" id="ArialMT-2f"/>
      <path d="M 6.5 0 
L 6.5 51.859375 
L 14.40625 51.859375 
L 14.40625 44 
Q 17.4375 49.515625 20 51.265625 
Q 22.5625 53.03125 25.640625 53.03125 
Q 30.078125 53.03125 34.671875 50.203125 
L 31.640625 42.046875 
Q 28.421875 43.953125 25.203125 43.953125 
Q 22.3125 43.953125 20.015625 42.21875 
Q 17.71875 40.484375 16.75 37.40625 
Q 15.28125 32.71875 15.28125 27.15625 
L 15.28125 0 
z
" id="ArialMT-72"/>
      <path d="M 7.71875 0 
L 7.71875 71.578125 
L 32.375 71.578125 
Q 40.71875 71.578125 45.125 70.5625 
Q 51.265625 69.140625 55.609375 65.4375 
Q 61.28125 60.640625 64.078125 53.1875 
Q 66.890625 45.75 66.890625 36.1875 
Q 66.890625 28.03125 64.984375 21.734375 
Q 63.09375 15.4375 60.109375 11.296875 
Q 57.125 7.171875 53.578125 4.796875 
Q 50.046875 2.4375 45.046875 1.21875 
Q 40.046875 0 33.546875 0 
z
M 17.1875 8.453125 
L 32.46875 8.453125 
Q 39.546875 8.453125 43.578125 9.765625 
Q 47.609375 11.078125 50 13.484375 
Q 53.375 16.84375 55.25 22.53125 
Q 57.125 28.21875 57.125 36.328125 
Q 57.125 47.5625 53.4375 53.59375 
Q 49.75 59.625 44.484375 61.671875 
Q 40.671875 63.140625 32.234375 63.140625 
L 17.1875 63.140625 
z
" id="ArialMT-44"/>
      <path d="M 58.796875 25.09375 
L 68.265625 22.703125 
Q 65.28125 11.03125 57.546875 4.90625 
Q 49.8125 -1.21875 38.625 -1.21875 
Q 27.046875 -1.21875 19.796875 3.484375 
Q 12.546875 8.203125 8.765625 17.140625 
Q 4.984375 26.078125 4.984375 36.328125 
Q 4.984375 47.515625 9.25 55.828125 
Q 13.53125 64.15625 21.40625 68.46875 
Q 29.296875 72.796875 38.765625 72.796875 
Q 49.515625 72.796875 56.828125 67.328125 
Q 64.15625 61.859375 67.046875 51.953125 
L 57.71875 49.75 
Q 55.21875 57.5625 50.484375 61.125 
Q 45.75 64.703125 38.578125 64.703125 
Q 30.328125 64.703125 24.78125 60.734375 
Q 19.234375 56.78125 16.984375 50.109375 
Q 14.75 43.453125 14.75 36.375 
Q 14.75 27.25 17.40625 20.4375 
Q 20.0625 13.625 25.671875 10.25 
Q 31.296875 6.890625 37.84375 6.890625 
Q 45.796875 6.890625 51.3125 11.46875 
Q 56.84375 16.0625 58.796875 25.09375 
" id="ArialMT-43"/>
      <path d="M 6.59375 0 
L 6.59375 71.578125 
L 15.375 71.578125 
L 15.375 45.90625 
Q 21.53125 53.03125 30.90625 53.03125 
Q 36.671875 53.03125 40.921875 50.75 
Q 45.171875 48.484375 47 44.484375 
Q 48.828125 40.484375 48.828125 32.859375 
L 48.828125 0 
L 40.046875 0 
L 40.046875 32.859375 
Q 40.046875 39.453125 37.1875 42.453125 
Q 34.328125 45.453125 29.109375 45.453125 
Q 25.203125 45.453125 21.75 43.421875 
Q 18.3125 41.40625 16.84375 37.9375 
Q 15.375 34.46875 15.375 28.375 
L 15.375 0 
z
" id="ArialMT-68"/>
     </defs>
     <g transform="translate(359.60955 28.579465)scale(0.0833 -0.0833)">
      <use transform="translate(0 0.203125)" xlink:href="#ArialMT-4d"/>
      <use transform="translate(83.300781 0.203125)" xlink:href="#ArialMT-20"/>
      <use transform="translate(111.083984 0.203125)" xlink:href="#ArialMT-3d"/>
      <use transform="translate(169.482422 0.203125)" xlink:href="#ArialMT-20"/>
      <use transform="translate(197.265625 0.203125)" xlink:href="#ArialMT-39"/>
      <use transform="translate(252.880859 0.203125)" xlink:href="#ArialMT-20"/>
      <use transform="translate(280.664062 0.203125)" xlink:href="#ArialMT-20"/>
      <use transform="translate(308.447266 0.203125)" xlink:href="#ArialMT-2d"/>
      <use transform="translate(341.748047 0.203125)" xlink:href="#ArialMT-20"/>
      <use transform="translate(369.53125 0.203125)" xlink:href="#ArialMT-31"/>
      <use transform="translate(425.146484 0.203125)" xlink:href="#ArialMT-2f"/>
      <use transform="translate(452.929688 0.203125)" xlink:href="#ArialMT-72"/>
      <use transform="translate(487.972812 -29.665625)scale(0.7)" xlink:href="#ArialMT-44"/>
      <use transform="translate(538.52457 -29.665625)scale(0.7)" xlink:href="#ArialMT-43"/>
      <use transform="translate(594.054453 0.203125)" xlink:href="#ArialMT-20"/>
      <use transform="translate(621.837656 0.203125)" xlink:href="#ArialMT-3d"/>
      <use transform="translate(680.236094 0.203125)" xlink:href="#ArialMT-20"/>
      <use transform="translate(708.019297 0.203125)" xlink:href="#ArialMT-31"/>
      <use transform="translate(763.634531 0.203125)" xlink:href="#ArialMT-36"/>
      <use transform="translate(819.249766 0.203125)" xlink:href="#ArialMT-68"/>
     </g>
    </g>
    <g id="patch_56">
     <path d="M 344.61555 38.908665 
L 357.11055 38.908665 
L 357.11055 33.077665 
L 344.61555 33.077665 
z
" style="fill:#4daf4a;"/>
    </g>
    <g id="text_23">
     <!-- M = 10 - $\mathregular{1/r_{DC}}$ = 18h -->
     <g transform="translate(359.60955 38.908665)scale(0.0833 -0.0833)">
      <use transform="translate(0 0.203125)" xlink:href="#ArialMT-4d"/>
      <use transform="translate(83.300781 0.203125)" xlink:href="#ArialMT-20"/>
      <use transform="translate(111.083984 0.203125)" xlink:href="#ArialMT-3d"/>
      <use transform="translate(169.482422 0.203125)" xlink:href="#ArialMT-20"/>
      <use transform="translate(197.265625 0.203125)" xlink:href="#ArialMT-31"/>
      <use transform="translate(252.880859 0.203125)" xlink:href="#ArialMT-30"/>
      <use transform="translate(308.496094 0.203125)" xlink:href="#ArialMT-20"/>
      <use transform="translate(336.279297 0.203125)" xlink:href="#ArialMT-2d"/>
      <use transform="translate(369.580078 0.203125)" xlink:href="#ArialMT-20"/>
      <use transform="translate(397.363281 0.203125)" xlink:href="#ArialMT-31"/>
      <use transform="translate(452.978516 0.203125)" xlink:href="#ArialMT-2f"/>
      <use transform="translate(480.761719 0.203125)" xlink:href="#ArialMT-72"/>
      <use transform="translate(515.804844 -29.665625)scale(0.7)" xlink:href="#ArialMT-44"/>
      <use transform="translate(566.356602 -29.665625)scale(0.7)" xlink:href="#ArialMT-43"/>
      <use transform="translate(621.886484 0.203125)" xlink:href="#ArialMT-20"/>
      <use transform="translate(649.669688 0.203125)" xlink:href="#ArialMT-3d"/>
      <use transform="translate(708.068125 0.203125)" xlink:href="#ArialMT-20"/>
      <use transform="translate(735.851328 0.203125)" xlink:href="#ArialMT-31"/>
      <use transform="translate(791.466563 0.203125)" xlink:href="#ArialMT-38"/>
      <use transform="translate(847.081797 0.203125)" xlink:href="#ArialMT-68"/>
     </g>
    </g>
    <g id="patch_57">
     <path d="M 344.61555 49.237865 
L 357.11055 49.237865 
L 357.11055 43.406865 
L 344.61555 43.406865 
z
" style="fill:#984ea3;"/>
    </g>
    <g id="text_24">
     <!-- M = 11 - $\mathregular{1/r_{DC}}$ = 19h -->
     <g transform="translate(359.60955 49.237865)scale(0.0833 -0.0833)">
      <use transform="translate(0 0.203125)" xlink:href="#ArialMT-4d"/>
      <use transform="translate(83.300781 0.203125)" xlink:href="#ArialMT-20"/>
      <use transform="translate(111.083984 0.203125)" xlink:href="#ArialMT-3d"/>
      <use transform="translate(169.482422 0.203125)" xlink:href="#ArialMT-20"/>
      <use transform="translate(197.265625 0.203125)" xlink:href="#ArialMT-31"/>
      <use transform="translate(252.880859 0.203125)" xlink:href="#ArialMT-31"/>
      <use transform="translate(308.496094 0.203125)" xlink:href="#ArialMT-20"/>
      <use transform="translate(336.279297 0.203125)" xlink:href="#ArialMT-2d"/>
      <use transform="translate(369.580078 0.203125)" xlink:href="#ArialMT-20"/>
      <use transform="translate(397.363281 0.203125)" xlink:href="#ArialMT-31"/>
      <use transform="translate(452.978516 0.203125)" xlink:href="#ArialMT-2f"/>
      <use transform="translate(480.761719 0.203125)" xlink:href="#ArialMT-72"/>
      <use transform="translate(515.804844 -29.665625)scale(0.7)" xlink:href="#ArialMT-44"/>
      <use transform="translate(566.356602 -29.665625)scale(0.7)" xlink:href="#ArialMT-43"/>
      <use transform="translate(621.886484 0.203125)" xlink:href="#ArialMT-20"/>
      <use transform="translate(649.669688 0.203125)" xlink:href="#ArialMT-3d"/>
      <use transform="translate(708.068125 0.203125)" xlink:href="#ArialMT-20"/>
      <use transform="translate(735.851328 0.203125)" xlink:href="#ArialMT-31"/>
      <use transform="translate(791.466563 0.203125)" xlink:href="#ArialMT-39"/>
      <use transform="translate(847.081797 0.203125)" xlink:href="#ArialMT-68"/>
     </g>
    </g>
    <g id="patch_58">
     <path d="M 344.61555 59.567065 
L 357.11055 59.567065 
L 357.11055 53.736065 
L 344.61555 53.736065 
z
" style="fill:#ff7f00;"/>
    </g>
    <g id="text_25">
     <!-- M = 12 - $\mathregular{1/r_{DC}}$ = 21h -->
     <g transform="translate(359.60955 59.567065)scale(0.0833 -0.0833)">
      <use transform="translate(0 0.203125)" xlink:href="#ArialMT-4d"/>
      <use transform="translate(83.300781 0.203125)" xlink:href="#ArialMT-20"/>
      <use transform="translate(111.083984 0.203125)" xlink:href="#ArialMT-3d"/>
      <use transform="translate(169.482422 0.203125)" xlink:href="#ArialMT-20"/>
      <use transform="translate(197.265625 0.203125)" xlink:href="#ArialMT-31"/>
      <use transform="translate(252.880859 0.203125)" xlink:href="#ArialMT-32"/>
      <use transform="translate(308.496094 0.203125)" xlink:href="#ArialMT-20"/>
      <use transform="translate(336.279297 0.203125)" xlink:href="#ArialMT-2d"/>
      <use transform="translate(369.580078 0.203125)" xlink:href="#ArialMT-20"/>
      <use transform="translate(397.363281 0.203125)" xlink:href="#ArialMT-31"/>
      <use transform="translate(452.978516 0.203125)" xlink:href="#ArialMT-2f"/>
      <use transform="translate(480.761719 0.203125)" xlink:href="#ArialMT-72"/>
      <use transform="translate(515.804844 -29.665625)scale(0.7)" xlink:href="#ArialMT-44"/>
      <use transform="translate(566.356602 -29.665625)scale(0.7)" xlink:href="#ArialMT-43"/>
      <use transform="translate(621.886484 0.203125)" xlink:href="#ArialMT-20"/>
      <use transform="translate(649.669688 0.203125)" xlink:href="#ArialMT-3d"/>
      <use transform="translate(708.068125 0.203125)" xlink:href="#ArialMT-20"/>
      <use transform="translate(735.851328 0.203125)" xlink:href="#ArialMT-32"/>
      <use transform="translate(791.466563 0.203125)" xlink:href="#ArialMT-31"/>
      <use transform="translate(847.081797 0.203125)" xlink:href="#ArialMT-68"/>
     </g>
    </g>
    <g id="patch_59">
     <path d="M 344.61555 69.896265 
L 357.11055 69.896265 
L 357.11055 64.065265 
L 344.61555 64.065265 
z
" style="fill:#ffff33;"/>
    </g>
    <g id="text_26">
     <!-- M = 14 - $\mathregular{1/r_{DC}}$ = 22h -->
     <g transform="translate(359.60955 69.896265)scale(0.0833 -0.0833)">
      <use transform="translate(0 0.203125)" xlink:href="#ArialMT-4d"/>
      <use transform="translate(83.300781 0.203125)" xlink:href="#ArialMT-20"/>
      <use transform="translate(111.083984 0.203125)" xlink:href="#ArialMT-3d"/>
      <use transform="translate(169.482422 0.203125)" xlink:href="#ArialMT-20"/>
      <use transform="translate(197.265625 0.203125)" xlink:href="#ArialMT-31"/>
      <use transform="translate(252.880859 0.203125)" xlink:href="#ArialMT-34"/>
      <use transform="translate(308.496094 0.203125)" xlink:href="#ArialMT-20"/>
      <use transform="translate(336.279297 0.203125)" xlink:href="#ArialMT-2d"/>
      <use transform="translate(369.580078 0.203125)" xlink:href="#ArialMT-20"/>
      <use transform="translate(397.363281 0.203125)" xlink:href="#ArialMT-31"/>
      <use transform="translate(452.978516 0.203125)" xlink:href="#ArialMT-2f"/>
      <use transform="translate(480.761719 0.203125)" xlink:href="#ArialMT-72"/>
      <use transform="translate(515.804844 -29.665625)scale(0.7)" xlink:href="#ArialMT-44"/>
      <use transform="translate(566.356602 -29.665625)scale(0.7)" xlink:href="#ArialMT-43"/>
      <use transform="translate(621.886484 0.203125)" xlink:href="#ArialMT-20"/>
      <use transform="translate(649.669688 0.203125)" xlink:href="#ArialMT-3d"/>
      <use transform="translate(708.068125 0.203125)" xlink:href="#ArialMT-20"/>
      <use transform="translate(735.851328 0.203125)" xlink:href="#ArialMT-32"/>
      <use transform="translate(791.466563 0.203125)" xlink:href="#ArialMT-32"/>
      <use transform="translate(847.081797 0.203125)" xlink:href="#ArialMT-68"/>
     </g>
    </g>
    <g id="patch_60">
     <path d="M 344.61555 80.225465 
L 357.11055 80.225465 
L 357.11055 74.394465 
L 344.61555 74.394465 
z
" style="fill:#a65628;"/>
    </g>
    <g id="text_27">
     <!-- M = 15 - $\mathregular{1/r_{DC}}$ = 23h -->
     <g transform="translate(359.60955 80.225465)scale(0.0833 -0.0833)">
      <use transform="translate(0 0.203125)" xlink:href="#ArialMT-4d"/>
      <use transform="translate(83.300781 0.203125)" xlink:href="#ArialMT-20"/>
      <use transform="translate(111.083984 0.203125)" xlink:href="#ArialMT-3d"/>
      <use transform="translate(169.482422 0.203125)" xlink:href="#ArialMT-20"/>
      <use transform="translate(197.265625 0.203125)" xlink:href="#ArialMT-31"/>
      <use transform="translate(252.880859 0.203125)" xlink:href="#ArialMT-35"/>
      <use transform="translate(308.496094 0.203125)" xlink:href="#ArialMT-20"/>
      <use transform="translate(336.279297 0.203125)" xlink:href="#ArialMT-2d"/>
      <use transform="translate(369.580078 0.203125)" xlink:href="#ArialMT-20"/>
      <use transform="translate(397.363281 0.203125)" xlink:href="#ArialMT-31"/>
      <use transform="translate(452.978516 0.203125)" xlink:href="#ArialMT-2f"/>
      <use transform="translate(480.761719 0.203125)" xlink:href="#ArialMT-72"/>
      <use transform="translate(515.804844 -29.665625)scale(0.7)" xlink:href="#ArialMT-44"/>
      <use transform="translate(566.356602 -29.665625)scale(0.7)" xlink:href="#ArialMT-43"/>
      <use transform="translate(621.886484 0.203125)" xlink:href="#ArialMT-20"/>
      <use transform="translate(649.669688 0.203125)" xlink:href="#ArialMT-3d"/>
      <use transform="translate(708.068125 0.203125)" xlink:href="#ArialMT-20"/>
      <use transform="translate(735.851328 0.203125)" xlink:href="#ArialMT-32"/>
      <use transform="translate(791.466563 0.203125)" xlink:href="#ArialMT-33"/>
      <use transform="translate(847.081797 0.203125)" xlink:href="#ArialMT-68"/>
     </g>
    </g>
    <g id="patch_61">
     <path d="M 344.61555 90.554665 
L 357.11055 90.554665 
L 357.11055 84.723665 
L 344.61555 84.723665 
z
" style="fill:#f781bf;"/>
    </g>
    <g id="text_28">
     <!-- M = 18 - $\mathregular{1/r_{DC}}$ = 24h -->
     <g transform="translate(359.60955 90.554665)scale(0.0833 -0.0833)">
      <use transform="translate(0 0.203125)" xlink:href="#ArialMT-4d"/>
      <use transform="translate(83.300781 0.203125)" xlink:href="#ArialMT-20"/>
      <use transform="translate(111.083984 0.203125)" xlink:href="#ArialMT-3d"/>
      <use transform="translate(169.482422 0.203125)" xlink:href="#ArialMT-20"/>
      <use transform="translate(197.265625 0.203125)" xlink:href="#ArialMT-31"/>
      <use transform="translate(252.880859 0.203125)" xlink:href="#ArialMT-38"/>
      <use transform="translate(308.496094 0.203125)" xlink:href="#ArialMT-20"/>
      <use transform="translate(336.279297 0.203125)" xlink:href="#ArialMT-2d"/>
      <use transform="translate(369.580078 0.203125)" xlink:href="#ArialMT-20"/>
      <use transform="translate(397.363281 0.203125)" xlink:href="#ArialMT-31"/>
      <use transform="translate(452.978516 0.203125)" xlink:href="#ArialMT-2f"/>
      <use transform="translate(480.761719 0.203125)" xlink:href="#ArialMT-72"/>
      <use transform="translate(515.804844 -29.665625)scale(0.7)" xlink:href="#ArialMT-44"/>
      <use transform="translate(566.356602 -29.665625)scale(0.7)" xlink:href="#ArialMT-43"/>
      <use transform="translate(621.886484 0.203125)" xlink:href="#ArialMT-20"/>
      <use transform="translate(649.669688 0.203125)" xlink:href="#ArialMT-3d"/>
      <use transform="translate(708.068125 0.203125)" xlink:href="#ArialMT-20"/>
      <use transform="translate(735.851328 0.203125)" xlink:href="#ArialMT-32"/>
      <use transform="translate(791.466563 0.203125)" xlink:href="#ArialMT-34"/>
      <use transform="translate(847.081797 0.203125)" xlink:href="#ArialMT-68"/>
     </g>
    </g>
   </g>
  </g>
 </g>
 <defs>
  <clipPath id="pf12bc39d8a">
   <rect height="89.6496" width="130.32" x="32.03445" y="10.2"/>
  </clipPath>
  <clipPath id="pd42732062f">
   <rect height="89.6496" width="130.32" x="201.23445" y="10.2"/>
  </clipPath>
 </defs>
</svg>
