<?xml version="1.0" encoding="utf-8" standalone="no"?>
<!DOCTYPE svg PUBLIC "-//W3C//DTD SVG 1.1//EN"
  "http://www.w3.org/Graphics/SVG/1.1/DTD/svg11.dtd">
<!-- Created with matplotlib (http://matplotlib.org/) -->
<svg height="139pt" version="1.1" viewBox="0 0 432 139" width="432pt" xmlns="http://www.w3.org/2000/svg" xmlns:xlink="http://www.w3.org/1999/xlink">
 <defs>
  <style type="text/css">
*{stroke-linecap:butt;stroke-linejoin:round;}
  </style>
 </defs>
 <g id="figure_1">
  <g id="patch_1">
   <path d="M 0 139.79138 
L 432.897184 139.79138 
L 432.897184 -0 
L 0 -0 
z
" style="fill:none;"/>
  </g>
  <g id="axes_1">
   <g id="patch_2">
    <path d="M 34.9539 108.27988 
L 132.932584 108.27988 
L 132.932584 27.32228 
L 34.9539 27.32228 
z
" style="fill:none;"/>
   </g>
   <g id="matplotlib.axis_1">
    <g id="xtick_1">
     <g id="line2d_1">
      <defs>
       <path d="M 0 0 
L 0 2.5 
" id="m6d1d27e42d" style="stroke:#000000;stroke-width:0.8;"/>
      </defs>
      <g>
       <use style="stroke:#000000;stroke-width:0.8;" x="61.675359" xlink:href="#m6d1d27e42d" y="108.27988"/>
      </g>
     </g>
     <g id="text_1">
      <!-- ${10^{-4}}$ -->
      <defs>
       <path d="M 30.203125 0 
L 22.296875 0 
L 22.296875 57 
Q 20.09375 56 15.75 53.75 
Q 11.40625 51.5 10.796875 51.203125 
L 10.796875 58.5 
L 28.796875 67.703125 
L 30.203125 67.203125 
z
" id="STIXGeneral-Regular-1d7e3"/>
       <path d="M 47.703125 33 
Q 47.703125 23.796875 45.546875 16.34375 
Q 43.40625 8.90625 38.09375 3.75 
Q 32.796875 -1.40625 25 -1.40625 
Q 18.796875 -1.40625 14.25 1.6875 
Q 9.703125 4.796875 7.203125 10.046875 
Q 4.703125 15.296875 3.5 21.140625 
Q 2.296875 27 2.296875 33.59375 
Q 2.296875 42.90625 4.59375 50.34375 
Q 6.90625 57.796875 12.296875 62.6875 
Q 17.703125 67.59375 25.40625 67.59375 
Q 35.203125 67.59375 41.453125 57.9375 
Q 47.703125 48.296875 47.703125 33 
M 39.796875 33 
Q 39.796875 45.203125 35.75 52.84375 
Q 31.703125 60.5 25.203125 60.5 
Q 17.796875 60.5 14 52.75 
Q 10.203125 45 10.203125 33.40625 
Q 10.203125 28.203125 10.953125 23.546875 
Q 11.703125 18.90625 13.34375 14.75 
Q 15 10.59375 18 8.140625 
Q 21 5.703125 25 5.703125 
Q 30.09375 5.703125 33.546875 9.796875 
Q 37 13.90625 38.390625 19.84375 
Q 39.796875 25.796875 39.796875 33 
" id="STIXGeneral-Regular-1d7e2"/>
       <path d="M 62.09375 22 
L 6.40625 22 
L 6.40625 28.59375 
L 62.09375 28.59375 
z
" id="STIXGeneral-Regular-2212"/>
       <path d="M 48.90625 23.59375 
L 45.59375 16.5 
L 37.296875 16.5 
L 37.296875 0 
L 29.40625 0 
L 29.40625 16.5 
L 1.09375 16.5 
L 1.09375 23.296875 
L 32.296875 67.59375 
L 37.296875 67.59375 
L 37.296875 23.59375 
z
M 29.40625 23.59375 
L 29.40625 51 
L 10 23.59375 
z
" id="STIXGeneral-Regular-1d7e6"/>
      </defs>
      <g transform="translate(52.699359 119.65138)scale(0.096 -0.096)">
       <use transform="translate(0 0.446875)" xlink:href="#STIXGeneral-Regular-1d7e3"/>
       <use transform="translate(49.999985 0.446875)" xlink:href="#STIXGeneral-Regular-1d7e2"/>
       <use transform="translate(100.792665 36.684375)scale(0.7)" xlink:href="#STIXGeneral-Regular-2212"/>
       <use transform="translate(148.742654 36.684375)scale(0.7)" xlink:href="#STIXGeneral-Regular-1d7e6"/>
      </g>
     </g>
    </g>
    <g id="xtick_2">
     <g id="line2d_2">
      <g>
       <use style="stroke:#000000;stroke-width:0.8;" x="95.077184" xlink:href="#m6d1d27e42d" y="108.27988"/>
      </g>
     </g>
     <g id="text_2">
      <!-- ${10^{-2}}$ -->
      <defs>
       <path d="M 46.90625 7.09375 
L 44 0 
L 3.5 0 
L 3.5 2.09375 
L 21 23.5 
L 21 23.40625 
L 26.59375 30.203125 
Q 30.5 34.90625 32.09375 36.953125 
Q 33.703125 39 35.203125 41.953125 
Q 36.703125 44.90625 36.703125 47.5 
Q 36.703125 53.703125 33.34375 57.09375 
Q 30 60.5 24.203125 60.5 
Q 19.59375 60.5 15.75 56.703125 
Q 11.90625 52.90625 10.90625 45.90625 
L 3.703125 47.59375 
Q 5.296875 56.5 11.1875 62.046875 
Q 17.09375 67.59375 24.90625 67.59375 
Q 33.59375 67.59375 39.09375 62.1875 
Q 44.59375 56.796875 44.59375 49.09375 
Q 44.59375 43.5 42.5 39.453125 
Q 40.40625 35.40625 33.703125 27 
L 17.703125 7.09375 
z
" id="STIXGeneral-Regular-1d7e4"/>
      </defs>
      <g transform="translate(86.101184 119.65138)scale(0.096 -0.096)">
       <use transform="translate(0 0.446875)" xlink:href="#STIXGeneral-Regular-1d7e3"/>
       <use transform="translate(49.999985 0.446875)" xlink:href="#STIXGeneral-Regular-1d7e2"/>
       <use transform="translate(100.792665 36.684375)scale(0.7)" xlink:href="#STIXGeneral-Regular-2212"/>
       <use transform="translate(148.742654 36.684375)scale(0.7)" xlink:href="#STIXGeneral-Regular-1d7e4"/>
      </g>
     </g>
    </g>
    <g id="xtick_3">
     <g id="line2d_3">
      <g>
       <use style="stroke:#000000;stroke-width:0.8;" x="128.479008" xlink:href="#m6d1d27e42d" y="108.27988"/>
      </g>
     </g>
     <g id="text_3">
      <!-- ${10^{0}}$ -->
      <g transform="translate(121.807008 119.65138)scale(0.096 -0.096)">
       <use transform="translate(0 0.446875)" xlink:href="#STIXGeneral-Regular-1d7e3"/>
       <use transform="translate(49.999985 0.446875)" xlink:href="#STIXGeneral-Regular-1d7e2"/>
       <use transform="translate(100.792665 36.684375)scale(0.7)" xlink:href="#STIXGeneral-Regular-1d7e2"/>
      </g>
     </g>
    </g>
    <g id="xtick_4">
     <g id="line2d_4">
      <defs>
       <path d="M 0 0 
L 0 3 
" id="m27a03c5d9b" style="stroke:#000000;stroke-width:0.4;"/>
      </defs>
      <g>
       <use style="stroke:#000000;stroke-width:0.4;" x="36.241895" xlink:href="#m27a03c5d9b" y="108.27988"/>
      </g>
     </g>
    </g>
    <g id="xtick_5">
     <g id="line2d_5">
      <g>
       <use style="stroke:#000000;stroke-width:0.4;" x="38.328486" xlink:href="#m27a03c5d9b" y="108.27988"/>
      </g>
     </g>
    </g>
    <g id="xtick_6">
     <g id="line2d_6">
      <g>
       <use style="stroke:#000000;stroke-width:0.4;" x="39.946972" xlink:href="#m27a03c5d9b" y="108.27988"/>
      </g>
     </g>
    </g>
    <g id="xtick_7">
     <g id="line2d_7">
      <g>
       <use style="stroke:#000000;stroke-width:0.4;" x="41.269371" xlink:href="#m27a03c5d9b" y="108.27988"/>
      </g>
     </g>
    </g>
    <g id="xtick_8">
     <g id="line2d_8">
      <g>
       <use style="stroke:#000000;stroke-width:0.4;" x="42.387443" xlink:href="#m27a03c5d9b" y="108.27988"/>
      </g>
     </g>
    </g>
    <g id="xtick_9">
     <g id="line2d_9">
      <g>
       <use style="stroke:#000000;stroke-width:0.4;" x="43.355962" xlink:href="#m27a03c5d9b" y="108.27988"/>
      </g>
     </g>
    </g>
    <g id="xtick_10">
     <g id="line2d_10">
      <g>
       <use style="stroke:#000000;stroke-width:0.4;" x="44.210255" xlink:href="#m27a03c5d9b" y="108.27988"/>
      </g>
     </g>
    </g>
    <g id="xtick_11">
     <g id="line2d_11">
      <g>
       <use style="stroke:#000000;stroke-width:0.4;" x="66.702835" xlink:href="#m27a03c5d9b" y="108.27988"/>
      </g>
     </g>
    </g>
    <g id="xtick_12">
     <g id="line2d_12">
      <g>
       <use style="stroke:#000000;stroke-width:0.4;" x="69.64372" xlink:href="#m27a03c5d9b" y="108.27988"/>
      </g>
     </g>
    </g>
    <g id="xtick_13">
     <g id="line2d_13">
      <g>
       <use style="stroke:#000000;stroke-width:0.4;" x="71.73031" xlink:href="#m27a03c5d9b" y="108.27988"/>
      </g>
     </g>
    </g>
    <g id="xtick_14">
     <g id="line2d_14">
      <g>
       <use style="stroke:#000000;stroke-width:0.4;" x="73.348796" xlink:href="#m27a03c5d9b" y="108.27988"/>
      </g>
     </g>
    </g>
    <g id="xtick_15">
     <g id="line2d_15">
      <g>
       <use style="stroke:#000000;stroke-width:0.4;" x="74.671195" xlink:href="#m27a03c5d9b" y="108.27988"/>
      </g>
     </g>
    </g>
    <g id="xtick_16">
     <g id="line2d_16">
      <g>
       <use style="stroke:#000000;stroke-width:0.4;" x="75.789268" xlink:href="#m27a03c5d9b" y="108.27988"/>
      </g>
     </g>
    </g>
    <g id="xtick_17">
     <g id="line2d_17">
      <g>
       <use style="stroke:#000000;stroke-width:0.4;" x="76.757786" xlink:href="#m27a03c5d9b" y="108.27988"/>
      </g>
     </g>
    </g>
    <g id="xtick_18">
     <g id="line2d_18">
      <g>
       <use style="stroke:#000000;stroke-width:0.4;" x="77.61208" xlink:href="#m27a03c5d9b" y="108.27988"/>
      </g>
     </g>
    </g>
    <g id="xtick_19">
     <g id="line2d_19">
      <g>
       <use style="stroke:#000000;stroke-width:0.4;" x="100.104659" xlink:href="#m27a03c5d9b" y="108.27988"/>
      </g>
     </g>
    </g>
    <g id="xtick_20">
     <g id="line2d_20">
      <g>
       <use style="stroke:#000000;stroke-width:0.4;" x="103.045544" xlink:href="#m27a03c5d9b" y="108.27988"/>
      </g>
     </g>
    </g>
    <g id="xtick_21">
     <g id="line2d_21">
      <g>
       <use style="stroke:#000000;stroke-width:0.4;" x="105.132135" xlink:href="#m27a03c5d9b" y="108.27988"/>
      </g>
     </g>
    </g>
    <g id="xtick_22">
     <g id="line2d_22">
      <g>
       <use style="stroke:#000000;stroke-width:0.4;" x="106.75062" xlink:href="#m27a03c5d9b" y="108.27988"/>
      </g>
     </g>
    </g>
    <g id="xtick_23">
     <g id="line2d_23">
      <g>
       <use style="stroke:#000000;stroke-width:0.4;" x="108.073019" xlink:href="#m27a03c5d9b" y="108.27988"/>
      </g>
     </g>
    </g>
    <g id="xtick_24">
     <g id="line2d_24">
      <g>
       <use style="stroke:#000000;stroke-width:0.4;" x="109.191092" xlink:href="#m27a03c5d9b" y="108.27988"/>
      </g>
     </g>
    </g>
    <g id="xtick_25">
     <g id="line2d_25">
      <g>
       <use style="stroke:#000000;stroke-width:0.4;" x="110.15961" xlink:href="#m27a03c5d9b" y="108.27988"/>
      </g>
     </g>
    </g>
    <g id="xtick_26">
     <g id="line2d_26">
      <g>
       <use style="stroke:#000000;stroke-width:0.4;" x="111.013904" xlink:href="#m27a03c5d9b" y="108.27988"/>
      </g>
     </g>
    </g>
    <g id="text_4">
     <!-- ${\tau}$ (days) -->
     <defs>
      <path d="M 48.59375 45.296875 
L 46.90625 38.203125 
L 31.796875 38.203125 
Q 30.59375 35 26 17.59375 
Q 24.796875 12.796875 24.796875 10.40625 
Q 24.796875 7.5 26.5 6.796875 
Q 28.203125 6.09375 33.09375 6.09375 
L 32.59375 4.40625 
L 28.90625 -1 
Q 26 -1 24.09375 -0.703125 
Q 22.203125 -0.40625 20.25 0.390625 
Q 18.296875 1.203125 17.296875 3.046875 
Q 16.296875 4.90625 16.296875 7.703125 
Q 16.296875 10.40625 17.09375 13.5 
Q 18.09375 17.703125 20.6875 26.953125 
Q 23.296875 36.203125 24 38.203125 
L 21.40625 38.203125 
Q 14.5 38.203125 9.90625 28.09375 
L 4.203125 30.5 
Q 8.296875 39.203125 13.296875 42.25 
Q 18.296875 45.296875 25.703125 45.296875 
z
" id="STIXNonUnicode-Italic-e1eb"/>
      <path id="ArialMT-20"/>
      <path d="M 23.390625 -21.046875 
Q 16.109375 -11.859375 11.078125 0.4375 
Q 6.0625 12.75 6.0625 25.921875 
Q 6.0625 37.546875 9.8125 48.1875 
Q 14.203125 60.546875 23.390625 72.796875 
L 29.6875 72.796875 
Q 23.78125 62.640625 21.875 58.296875 
Q 18.890625 51.5625 17.1875 44.234375 
Q 15.09375 35.109375 15.09375 25.875 
Q 15.09375 2.390625 29.6875 -21.046875 
z
" id="ArialMT-28"/>
      <path d="M 40.234375 0 
L 40.234375 6.546875 
Q 35.296875 -1.171875 25.734375 -1.171875 
Q 19.53125 -1.171875 14.328125 2.25 
Q 9.125 5.671875 6.265625 11.796875 
Q 3.421875 17.921875 3.421875 25.875 
Q 3.421875 33.640625 6 39.96875 
Q 8.59375 46.296875 13.765625 49.65625 
Q 18.953125 53.03125 25.34375 53.03125 
Q 30.03125 53.03125 33.6875 51.046875 
Q 37.359375 49.078125 39.65625 45.90625 
L 39.65625 71.578125 
L 48.390625 71.578125 
L 48.390625 0 
z
M 12.453125 25.875 
Q 12.453125 15.921875 16.640625 10.984375 
Q 20.84375 6.0625 26.5625 6.0625 
Q 32.328125 6.0625 36.34375 10.765625 
Q 40.375 15.484375 40.375 25.140625 
Q 40.375 35.796875 36.265625 40.765625 
Q 32.171875 45.75 26.171875 45.75 
Q 20.3125 45.75 16.375 40.96875 
Q 12.453125 36.1875 12.453125 25.875 
" id="ArialMT-64"/>
      <path d="M 40.4375 6.390625 
Q 35.546875 2.25 31.03125 0.53125 
Q 26.515625 -1.171875 21.34375 -1.171875 
Q 12.796875 -1.171875 8.203125 3 
Q 3.609375 7.171875 3.609375 13.671875 
Q 3.609375 17.484375 5.34375 20.625 
Q 7.078125 23.78125 9.890625 25.6875 
Q 12.703125 27.59375 16.21875 28.5625 
Q 18.796875 29.25 24.03125 29.890625 
Q 34.671875 31.15625 39.703125 32.90625 
Q 39.75 34.71875 39.75 35.203125 
Q 39.75 40.578125 37.25 42.78125 
Q 33.890625 45.75 27.25 45.75 
Q 21.046875 45.75 18.09375 43.578125 
Q 15.140625 41.40625 13.71875 35.890625 
L 5.125 37.0625 
Q 6.296875 42.578125 8.984375 45.96875 
Q 11.671875 49.359375 16.75 51.1875 
Q 21.828125 53.03125 28.515625 53.03125 
Q 35.15625 53.03125 39.296875 51.46875 
Q 43.453125 49.90625 45.40625 47.53125 
Q 47.359375 45.171875 48.140625 41.546875 
Q 48.578125 39.3125 48.578125 33.453125 
L 48.578125 21.734375 
Q 48.578125 9.46875 49.140625 6.21875 
Q 49.703125 2.984375 51.375 0 
L 42.1875 0 
Q 40.828125 2.734375 40.4375 6.390625 
M 39.703125 26.03125 
Q 34.90625 24.078125 25.34375 22.703125 
Q 19.921875 21.921875 17.671875 20.9375 
Q 15.4375 19.96875 14.203125 18.09375 
Q 12.984375 16.21875 12.984375 13.921875 
Q 12.984375 10.40625 15.640625 8.0625 
Q 18.3125 5.71875 23.4375 5.71875 
Q 28.515625 5.71875 32.46875 7.9375 
Q 36.421875 10.15625 38.28125 14.015625 
Q 39.703125 17 39.703125 22.796875 
z
" id="ArialMT-61"/>
      <path d="M 6.203125 -19.96875 
L 5.21875 -11.71875 
Q 8.109375 -12.5 10.25 -12.5 
Q 13.1875 -12.5 14.9375 -11.515625 
Q 16.703125 -10.546875 17.828125 -8.796875 
Q 18.65625 -7.46875 20.515625 -2.25 
Q 20.75 -1.515625 21.296875 -0.09375 
L 1.609375 51.859375 
L 11.078125 51.859375 
L 21.875 21.828125 
Q 23.96875 16.109375 25.640625 9.8125 
Q 27.15625 15.875 29.25 21.625 
L 40.328125 51.859375 
L 49.125 51.859375 
L 29.390625 -0.875 
Q 26.21875 -9.421875 24.46875 -12.640625 
Q 22.125 -17 19.09375 -19.015625 
Q 16.0625 -21.046875 11.859375 -21.046875 
Q 9.328125 -21.046875 6.203125 -19.96875 
" id="ArialMT-79"/>
      <path d="M 3.078125 15.484375 
L 11.765625 16.84375 
Q 12.5 11.625 15.84375 8.84375 
Q 19.1875 6.0625 25.203125 6.0625 
Q 31.25 6.0625 34.171875 8.515625 
Q 37.109375 10.984375 37.109375 14.3125 
Q 37.109375 17.28125 34.515625 19 
Q 32.71875 20.171875 25.53125 21.96875 
Q 15.875 24.421875 12.140625 26.203125 
Q 8.40625 27.984375 6.46875 31.125 
Q 4.546875 34.28125 4.546875 38.09375 
Q 4.546875 41.546875 6.125 44.5 
Q 7.71875 47.46875 10.453125 49.421875 
Q 12.5 50.921875 16.03125 51.96875 
Q 19.578125 53.03125 23.640625 53.03125 
Q 29.734375 53.03125 34.34375 51.265625 
Q 38.96875 49.515625 41.15625 46.5 
Q 43.359375 43.5 44.1875 38.484375 
L 35.59375 37.3125 
Q 35.015625 41.3125 32.203125 43.546875 
Q 29.390625 45.796875 24.265625 45.796875 
Q 18.21875 45.796875 15.625 43.796875 
Q 13.03125 41.796875 13.03125 39.109375 
Q 13.03125 37.40625 14.109375 36.03125 
Q 15.1875 34.625 17.484375 33.6875 
Q 18.796875 33.203125 25.25 31.453125 
Q 34.578125 28.953125 38.25 27.359375 
Q 41.9375 25.78125 44.03125 22.75 
Q 46.140625 19.734375 46.140625 15.234375 
Q 46.140625 10.84375 43.578125 6.953125 
Q 41.015625 3.078125 36.171875 0.953125 
Q 31.34375 -1.171875 25.25 -1.171875 
Q 15.140625 -1.171875 9.84375 3.03125 
Q 4.546875 7.234375 3.078125 15.484375 
" id="ArialMT-73"/>
      <path d="M 12.359375 -21.046875 
L 6.0625 -21.046875 
Q 20.65625 2.390625 20.65625 25.875 
Q 20.65625 35.0625 18.5625 44.09375 
Q 16.890625 51.421875 13.921875 58.15625 
Q 12.015625 62.546875 6.0625 72.796875 
L 12.359375 72.796875 
Q 21.53125 60.546875 25.921875 48.1875 
Q 29.6875 37.546875 29.6875 25.921875 
Q 29.6875 12.75 24.625 0.4375 
Q 19.578125 -11.859375 12.359375 -21.046875 
" id="ArialMT-29"/>
     </defs>
     <g transform="translate(65.304842 130.26818)scale(0.1056 -0.1056)">
      <use transform="translate(0 0.203125)" xlink:href="#STIXNonUnicode-Italic-e1eb"/>
      <use transform="translate(46.799988 0.203125)" xlink:href="#ArialMT-20"/>
      <use transform="translate(74.583191 0.203125)" xlink:href="#ArialMT-28"/>
      <use transform="translate(107.883972 0.203125)" xlink:href="#ArialMT-64"/>
      <use transform="translate(163.499207 0.203125)" xlink:href="#ArialMT-61"/>
      <use transform="translate(219.114441 0.203125)" xlink:href="#ArialMT-79"/>
      <use transform="translate(269.114441 0.203125)" xlink:href="#ArialMT-73"/>
      <use transform="translate(319.114441 0.203125)" xlink:href="#ArialMT-29"/>
     </g>
    </g>
   </g>
   <g id="matplotlib.axis_2">
    <g id="ytick_1">
     <g id="line2d_27">
      <defs>
       <path d="M 0 0 
L -2.5 0 
" id="ma7116c7913" style="stroke:#000000;stroke-width:0.8;"/>
      </defs>
      <g>
       <use style="stroke:#000000;stroke-width:0.8;" x="34.9539" xlink:href="#ma7116c7913" y="83.858754"/>
      </g>
     </g>
     <g id="text_5">
      <!-- ${10^{2}}$ -->
      <g transform="translate(18.1099 87.294504)scale(0.096 -0.096)">
       <use transform="translate(0 0.446875)" xlink:href="#STIXGeneral-Regular-1d7e3"/>
       <use transform="translate(49.999985 0.446875)" xlink:href="#STIXGeneral-Regular-1d7e2"/>
       <use transform="translate(100.792665 36.684375)scale(0.7)" xlink:href="#STIXGeneral-Regular-1d7e4"/>
      </g>
     </g>
    </g>
    <g id="ytick_2">
     <g id="line2d_28">
      <g>
       <use style="stroke:#000000;stroke-width:0.8;" x="34.9539" xlink:href="#ma7116c7913" y="56.194679"/>
      </g>
     </g>
     <g id="text_6">
      <!-- ${10^{3}}$ -->
      <defs>
       <path d="M 11.296875 49.203125 
L 4.203125 50.90625 
Q 6.40625 58.703125 11.5 63.140625 
Q 16.59375 67.59375 24.296875 67.59375 
Q 31.40625 67.59375 36.203125 63.09375 
Q 41 58.59375 41 51.90625 
Q 41 43 32.40625 37 
Q 38 35 41.046875 30.34375 
Q 44.09375 25.703125 44.09375 21 
Q 44.09375 11.296875 37.796875 5 
Q 31.40625 -1.40625 20.5 -1.40625 
Q 9.5 -1.40625 3.09375 5.59375 
L 7.796875 11.203125 
Q 12.90625 5.703125 20 5.703125 
Q 27.40625 5.703125 31.59375 9.296875 
Q 36.203125 13.203125 36.203125 19.09375 
Q 36.203125 24.296875 32.453125 27.796875 
Q 28.703125 31.296875 22.203125 32.203125 
L 15.796875 32.203125 
L 15.796875 34.296875 
L 20.59375 39.40625 
Q 25.09375 39.40625 29.09375 42.84375 
Q 33.09375 46.296875 33.09375 51.203125 
Q 33.09375 55.40625 30.4375 57.953125 
Q 27.796875 60.5 24 60.5 
Q 20 60.5 16.546875 57.640625 
Q 13.09375 54.796875 11.296875 49.203125 
" id="STIXGeneral-Regular-1d7e5"/>
      </defs>
      <g transform="translate(18.1099 59.630429)scale(0.096 -0.096)">
       <use transform="translate(0 0.446875)" xlink:href="#STIXGeneral-Regular-1d7e3"/>
       <use transform="translate(49.999985 0.446875)" xlink:href="#STIXGeneral-Regular-1d7e2"/>
       <use transform="translate(100.792665 36.684375)scale(0.7)" xlink:href="#STIXGeneral-Regular-1d7e5"/>
      </g>
     </g>
    </g>
    <g id="ytick_3">
     <g id="line2d_29">
      <g>
       <use style="stroke:#000000;stroke-width:0.8;" x="34.9539" xlink:href="#ma7116c7913" y="28.530604"/>
      </g>
     </g>
     <g id="text_7">
      <!-- ${10^{4}}$ -->
      <g transform="translate(18.1099 31.966354)scale(0.096 -0.096)">
       <use transform="translate(0 0.446875)" xlink:href="#STIXGeneral-Regular-1d7e3"/>
       <use transform="translate(49.999985 0.446875)" xlink:href="#STIXGeneral-Regular-1d7e2"/>
       <use transform="translate(100.792665 36.684375)scale(0.7)" xlink:href="#STIXGeneral-Regular-1d7e6"/>
      </g>
     </g>
    </g>
    <g id="ytick_4">
     <g id="line2d_30">
      <defs>
       <path d="M 0 0 
L -3 0 
" id="m471a90b2bc" style="stroke:#000000;stroke-width:0.4;"/>
      </defs>
      <g>
       <use style="stroke:#000000;stroke-width:0.4;" x="34.9539" xlink:href="#m471a90b2bc" y="103.195113"/>
      </g>
     </g>
    </g>
    <g id="ytick_5">
     <g id="line2d_31">
      <g>
       <use style="stroke:#000000;stroke-width:0.4;" x="34.9539" xlink:href="#m471a90b2bc" y="98.323711"/>
      </g>
     </g>
    </g>
    <g id="ytick_6">
     <g id="line2d_32">
      <g>
       <use style="stroke:#000000;stroke-width:0.4;" x="34.9539" xlink:href="#m471a90b2bc" y="94.867396"/>
      </g>
     </g>
    </g>
    <g id="ytick_7">
     <g id="line2d_33">
      <g>
       <use style="stroke:#000000;stroke-width:0.4;" x="34.9539" xlink:href="#m471a90b2bc" y="92.18647"/>
      </g>
     </g>
    </g>
    <g id="ytick_8">
     <g id="line2d_34">
      <g>
       <use style="stroke:#000000;stroke-width:0.4;" x="34.9539" xlink:href="#m471a90b2bc" y="89.995994"/>
      </g>
     </g>
    </g>
    <g id="ytick_9">
     <g id="line2d_35">
      <g>
       <use style="stroke:#000000;stroke-width:0.4;" x="34.9539" xlink:href="#m471a90b2bc" y="88.143973"/>
      </g>
     </g>
    </g>
    <g id="ytick_10">
     <g id="line2d_36">
      <g>
       <use style="stroke:#000000;stroke-width:0.4;" x="34.9539" xlink:href="#m471a90b2bc" y="86.53968"/>
      </g>
     </g>
    </g>
    <g id="ytick_11">
     <g id="line2d_37">
      <g>
       <use style="stroke:#000000;stroke-width:0.4;" x="34.9539" xlink:href="#m471a90b2bc" y="85.124593"/>
      </g>
     </g>
    </g>
    <g id="ytick_12">
     <g id="line2d_38">
      <g>
       <use style="stroke:#000000;stroke-width:0.4;" x="34.9539" xlink:href="#m471a90b2bc" y="75.531038"/>
      </g>
     </g>
    </g>
    <g id="ytick_13">
     <g id="line2d_39">
      <g>
       <use style="stroke:#000000;stroke-width:0.4;" x="34.9539" xlink:href="#m471a90b2bc" y="70.659636"/>
      </g>
     </g>
    </g>
    <g id="ytick_14">
     <g id="line2d_40">
      <g>
       <use style="stroke:#000000;stroke-width:0.4;" x="34.9539" xlink:href="#m471a90b2bc" y="67.203321"/>
      </g>
     </g>
    </g>
    <g id="ytick_15">
     <g id="line2d_41">
      <g>
       <use style="stroke:#000000;stroke-width:0.4;" x="34.9539" xlink:href="#m471a90b2bc" y="64.522395"/>
      </g>
     </g>
    </g>
    <g id="ytick_16">
     <g id="line2d_42">
      <g>
       <use style="stroke:#000000;stroke-width:0.4;" x="34.9539" xlink:href="#m471a90b2bc" y="62.331919"/>
      </g>
     </g>
    </g>
    <g id="ytick_17">
     <g id="line2d_43">
      <g>
       <use style="stroke:#000000;stroke-width:0.4;" x="34.9539" xlink:href="#m471a90b2bc" y="60.479898"/>
      </g>
     </g>
    </g>
    <g id="ytick_18">
     <g id="line2d_44">
      <g>
       <use style="stroke:#000000;stroke-width:0.4;" x="34.9539" xlink:href="#m471a90b2bc" y="58.875605"/>
      </g>
     </g>
    </g>
    <g id="ytick_19">
     <g id="line2d_45">
      <g>
       <use style="stroke:#000000;stroke-width:0.4;" x="34.9539" xlink:href="#m471a90b2bc" y="57.460518"/>
      </g>
     </g>
    </g>
    <g id="ytick_20">
     <g id="line2d_46">
      <g>
       <use style="stroke:#000000;stroke-width:0.4;" x="34.9539" xlink:href="#m471a90b2bc" y="47.866963"/>
      </g>
     </g>
    </g>
    <g id="ytick_21">
     <g id="line2d_47">
      <g>
       <use style="stroke:#000000;stroke-width:0.4;" x="34.9539" xlink:href="#m471a90b2bc" y="42.995561"/>
      </g>
     </g>
    </g>
    <g id="ytick_22">
     <g id="line2d_48">
      <g>
       <use style="stroke:#000000;stroke-width:0.4;" x="34.9539" xlink:href="#m471a90b2bc" y="39.539246"/>
      </g>
     </g>
    </g>
    <g id="ytick_23">
     <g id="line2d_49">
      <g>
       <use style="stroke:#000000;stroke-width:0.4;" x="34.9539" xlink:href="#m471a90b2bc" y="36.85832"/>
      </g>
     </g>
    </g>
    <g id="ytick_24">
     <g id="line2d_50">
      <g>
       <use style="stroke:#000000;stroke-width:0.4;" x="34.9539" xlink:href="#m471a90b2bc" y="34.667844"/>
      </g>
     </g>
    </g>
    <g id="ytick_25">
     <g id="line2d_51">
      <g>
       <use style="stroke:#000000;stroke-width:0.4;" x="34.9539" xlink:href="#m471a90b2bc" y="32.815823"/>
      </g>
     </g>
    </g>
    <g id="ytick_26">
     <g id="line2d_52">
      <g>
       <use style="stroke:#000000;stroke-width:0.4;" x="34.9539" xlink:href="#m471a90b2bc" y="31.21153"/>
      </g>
     </g>
    </g>
    <g id="ytick_27">
     <g id="line2d_53">
      <g>
       <use style="stroke:#000000;stroke-width:0.4;" x="34.9539" xlink:href="#m471a90b2bc" y="29.796443"/>
      </g>
     </g>
    </g>
    <g id="text_8">
     <!-- simulation time (s) -->
     <defs>
      <path d="M 6.640625 61.46875 
L 6.640625 71.578125 
L 15.4375 71.578125 
L 15.4375 61.46875 
z
M 6.640625 0 
L 6.640625 51.859375 
L 15.4375 51.859375 
L 15.4375 0 
z
" id="ArialMT-69"/>
      <path d="M 6.59375 0 
L 6.59375 51.859375 
L 14.453125 51.859375 
L 14.453125 44.578125 
Q 16.890625 48.390625 20.9375 50.703125 
Q 25 53.03125 30.171875 53.03125 
Q 35.9375 53.03125 39.625 50.640625 
Q 43.3125 48.25 44.828125 43.953125 
Q 50.984375 53.03125 60.84375 53.03125 
Q 68.5625 53.03125 72.703125 48.75 
Q 76.859375 44.484375 76.859375 35.59375 
L 76.859375 0 
L 68.109375 0 
L 68.109375 32.671875 
Q 68.109375 37.9375 67.25 40.25 
Q 66.40625 42.578125 64.15625 43.984375 
Q 61.921875 45.40625 58.890625 45.40625 
Q 53.421875 45.40625 49.796875 41.765625 
Q 46.1875 38.140625 46.1875 30.125 
L 46.1875 0 
L 37.40625 0 
L 37.40625 33.6875 
Q 37.40625 39.546875 35.25 42.46875 
Q 33.109375 45.40625 28.21875 45.40625 
Q 24.515625 45.40625 21.359375 43.453125 
Q 18.21875 41.5 16.796875 37.734375 
Q 15.375 33.984375 15.375 26.90625 
L 15.375 0 
z
" id="ArialMT-6d"/>
      <path d="M 40.578125 0 
L 40.578125 7.625 
Q 34.515625 -1.171875 24.125 -1.171875 
Q 19.53125 -1.171875 15.546875 0.578125 
Q 11.578125 2.34375 9.640625 5 
Q 7.71875 7.671875 6.9375 11.53125 
Q 6.390625 14.109375 6.390625 19.734375 
L 6.390625 51.859375 
L 15.1875 51.859375 
L 15.1875 23.09375 
Q 15.1875 16.21875 15.71875 13.8125 
Q 16.546875 10.359375 19.234375 8.375 
Q 21.921875 6.390625 25.875 6.390625 
Q 29.828125 6.390625 33.296875 8.421875 
Q 36.765625 10.453125 38.203125 13.9375 
Q 39.65625 17.4375 39.65625 24.078125 
L 39.65625 51.859375 
L 48.4375 51.859375 
L 48.4375 0 
z
" id="ArialMT-75"/>
      <path d="M 6.390625 0 
L 6.390625 71.578125 
L 15.1875 71.578125 
L 15.1875 0 
z
" id="ArialMT-6c"/>
      <path d="M 25.78125 7.859375 
L 27.046875 0.09375 
Q 23.34375 -0.6875 20.40625 -0.6875 
Q 15.625 -0.6875 12.984375 0.828125 
Q 10.359375 2.34375 9.28125 4.8125 
Q 8.203125 7.28125 8.203125 15.1875 
L 8.203125 45.015625 
L 1.765625 45.015625 
L 1.765625 51.859375 
L 8.203125 51.859375 
L 8.203125 64.703125 
L 16.9375 69.96875 
L 16.9375 51.859375 
L 25.78125 51.859375 
L 25.78125 45.015625 
L 16.9375 45.015625 
L 16.9375 14.703125 
Q 16.9375 10.9375 17.40625 9.859375 
Q 17.875 8.796875 18.921875 8.15625 
Q 19.96875 7.515625 21.921875 7.515625 
Q 23.390625 7.515625 25.78125 7.859375 
" id="ArialMT-74"/>
      <path d="M 3.328125 25.921875 
Q 3.328125 40.328125 11.328125 47.265625 
Q 18.015625 53.03125 27.640625 53.03125 
Q 38.328125 53.03125 45.109375 46.015625 
Q 51.90625 39.015625 51.90625 26.65625 
Q 51.90625 16.65625 48.90625 10.90625 
Q 45.90625 5.171875 40.15625 2 
Q 34.421875 -1.171875 27.640625 -1.171875 
Q 16.75 -1.171875 10.03125 5.8125 
Q 3.328125 12.796875 3.328125 25.921875 
M 12.359375 25.921875 
Q 12.359375 15.96875 16.703125 11.015625 
Q 21.046875 6.0625 27.640625 6.0625 
Q 34.1875 6.0625 38.53125 11.03125 
Q 42.875 16.015625 42.875 26.21875 
Q 42.875 35.84375 38.5 40.796875 
Q 34.125 45.75 27.640625 45.75 
Q 21.046875 45.75 16.703125 40.8125 
Q 12.359375 35.890625 12.359375 25.921875 
" id="ArialMT-6f"/>
      <path d="M 6.59375 0 
L 6.59375 51.859375 
L 14.5 51.859375 
L 14.5 44.484375 
Q 20.21875 53.03125 31 53.03125 
Q 35.6875 53.03125 39.625 51.34375 
Q 43.5625 49.65625 45.515625 46.921875 
Q 47.46875 44.1875 48.25 40.4375 
Q 48.734375 37.984375 48.734375 31.890625 
L 48.734375 0 
L 39.9375 0 
L 39.9375 31.546875 
Q 39.9375 36.921875 38.90625 39.578125 
Q 37.890625 42.234375 35.28125 43.8125 
Q 32.671875 45.40625 29.15625 45.40625 
Q 23.53125 45.40625 19.453125 41.84375 
Q 15.375 38.28125 15.375 28.328125 
L 15.375 0 
z
" id="ArialMT-6e"/>
      <path d="M 42.09375 16.703125 
L 51.171875 15.578125 
Q 49.03125 7.625 43.21875 3.21875 
Q 37.40625 -1.171875 28.375 -1.171875 
Q 17 -1.171875 10.328125 5.828125 
Q 3.65625 12.84375 3.65625 25.484375 
Q 3.65625 38.578125 10.390625 45.796875 
Q 17.140625 53.03125 27.875 53.03125 
Q 38.28125 53.03125 44.875 45.953125 
Q 51.46875 38.875 51.46875 26.03125 
Q 51.46875 25.25 51.421875 23.6875 
L 12.75 23.6875 
Q 13.234375 15.140625 17.578125 10.59375 
Q 21.921875 6.0625 28.421875 6.0625 
Q 33.25 6.0625 36.671875 8.59375 
Q 40.09375 11.140625 42.09375 16.703125 
M 13.234375 30.90625 
L 42.1875 30.90625 
Q 41.609375 37.453125 38.875 40.71875 
Q 34.671875 45.796875 27.984375 45.796875 
Q 21.921875 45.796875 17.796875 41.75 
Q 13.671875 37.703125 13.234375 30.90625 
" id="ArialMT-65"/>
     </defs>
     <g transform="translate(14.88735 110.634255)rotate(-90)scale(0.1056 -0.1056)">
      <use xlink:href="#ArialMT-73"/>
      <use x="50" xlink:href="#ArialMT-69"/>
      <use x="72.216797" xlink:href="#ArialMT-6d"/>
      <use x="155.517578" xlink:href="#ArialMT-75"/>
      <use x="211.132812" xlink:href="#ArialMT-6c"/>
      <use x="233.349609" xlink:href="#ArialMT-61"/>
      <use x="288.964844" xlink:href="#ArialMT-74"/>
      <use x="316.748047" xlink:href="#ArialMT-69"/>
      <use x="338.964844" xlink:href="#ArialMT-6f"/>
      <use x="394.580078" xlink:href="#ArialMT-6e"/>
      <use x="450.195312" xlink:href="#ArialMT-20"/>
      <use x="477.978516" xlink:href="#ArialMT-74"/>
      <use x="505.761719" xlink:href="#ArialMT-69"/>
      <use x="527.978516" xlink:href="#ArialMT-6d"/>
      <use x="611.279297" xlink:href="#ArialMT-65"/>
      <use x="666.894531" xlink:href="#ArialMT-20"/>
      <use x="694.677734" xlink:href="#ArialMT-28"/>
      <use x="727.978516" xlink:href="#ArialMT-73"/>
      <use x="777.978516" xlink:href="#ArialMT-29"/>
     </g>
    </g>
   </g>
   <g id="PolyCollection_1">
    <defs>
     <path d="M 39.407477 -108.008365 
L 39.407477 -108.20434 
L 44.974447 -100.855921 
L 50.541418 -93.289252 
L 56.108389 -86.084169 
L 61.675359 -76.750839 
L 67.24233 -68.762955 
L 72.809301 -60.559877 
L 78.376272 -53.418298 
L 83.943242 -46.956581 
L 89.510213 -43.260793 
L 95.077184 -40.021791 
L 100.644154 -38.099091 
L 106.211125 -37.052329 
L 111.778096 -36.27214 
L 117.345067 -36.167735 
L 122.912037 -36.110264 
L 128.479008 -35.997102 
L 128.479008 -35.312363 
L 128.479008 -35.312363 
L 122.912037 -35.191391 
L 117.345067 -35.264029 
L 111.778096 -35.55024 
L 106.211125 -35.611594 
L 100.644154 -36.677145 
L 95.077184 -38.687006 
L 89.510213 -42.00461 
L 83.943242 -45.574821 
L 78.376272 -51.695872 
L 72.809301 -59.104846 
L 67.24233 -67.498527 
L 61.675359 -75.510795 
L 56.108389 -84.691078 
L 50.541418 -92.614227 
L 44.974447 -100.378937 
L 39.407477 -108.008365 
z
" id="mc3eb8e0e13" style="stroke:#ff0000;stroke-opacity:0.2;stroke-width:0.24;"/>
    </defs>
    <g clip-path="url(#p7f12625aac)">
     <use style="fill:#ff0000;fill-opacity:0.2;stroke:#ff0000;stroke-opacity:0.2;stroke-width:0.24;" x="0" xlink:href="#mc3eb8e0e13" y="139.79138"/>
    </g>
   </g>
   <g id="line2d_54">
    <path clip-path="url(#p7f12625aac)" d="M 39.407477 31.684628 
L 44.974447 39.171584 
L 50.541418 46.8349 
L 56.108389 54.383576 
L 61.675359 63.644572 
L 67.24233 71.644013 
L 72.809301 79.937005 
L 78.376272 87.203455 
L 83.943242 93.505825 
L 89.510213 97.142268 
L 95.077184 100.418454 
L 100.644154 102.382238 
L 106.211125 103.437835 
L 111.778096 103.874769 
L 117.345067 104.067003 
L 122.912037 104.13177 
L 128.479008 104.13177 
" style="fill:none;stroke:#ff0000;stroke-linecap:round;stroke-width:1.25;"/>
    <defs>
     <path d="M 0 1.75 
C 0.464105 1.75 0.909265 1.565609 1.237437 1.237437 
C 1.565609 0.909265 1.75 0.464105 1.75 0 
C 1.75 -0.464105 1.565609 -0.909265 1.237437 -1.237437 
C 0.909265 -1.565609 0.464105 -1.75 0 -1.75 
C -0.464105 -1.75 -0.909265 -1.565609 -1.237437 -1.237437 
C -1.565609 -0.909265 -1.75 -0.464105 -1.75 0 
C -1.75 0.464105 -1.565609 0.909265 -1.237437 1.237437 
C -0.909265 1.565609 -0.464105 1.75 0 1.75 
z
" id="mea6713369f"/>
    </defs>
    <g clip-path="url(#p7f12625aac)">
     <use style="fill:#ff0000;" x="39.407477" xlink:href="#mea6713369f" y="31.684628"/>
     <use style="fill:#ff0000;" x="44.974447" xlink:href="#mea6713369f" y="39.171584"/>
     <use style="fill:#ff0000;" x="50.541418" xlink:href="#mea6713369f" y="46.8349"/>
     <use style="fill:#ff0000;" x="56.108389" xlink:href="#mea6713369f" y="54.383576"/>
     <use style="fill:#ff0000;" x="61.675359" xlink:href="#mea6713369f" y="63.644572"/>
     <use style="fill:#ff0000;" x="67.24233" xlink:href="#mea6713369f" y="71.644013"/>
     <use style="fill:#ff0000;" x="72.809301" xlink:href="#mea6713369f" y="79.937005"/>
     <use style="fill:#ff0000;" x="78.376272" xlink:href="#mea6713369f" y="87.203455"/>
     <use style="fill:#ff0000;" x="83.943242" xlink:href="#mea6713369f" y="93.505825"/>
     <use style="fill:#ff0000;" x="89.510213" xlink:href="#mea6713369f" y="97.142268"/>
     <use style="fill:#ff0000;" x="95.077184" xlink:href="#mea6713369f" y="100.418454"/>
     <use style="fill:#ff0000;" x="100.644154" xlink:href="#mea6713369f" y="102.382238"/>
     <use style="fill:#ff0000;" x="106.211125" xlink:href="#mea6713369f" y="103.437835"/>
     <use style="fill:#ff0000;" x="111.778096" xlink:href="#mea6713369f" y="103.874769"/>
     <use style="fill:#ff0000;" x="117.345067" xlink:href="#mea6713369f" y="104.067003"/>
     <use style="fill:#ff0000;" x="122.912037" xlink:href="#mea6713369f" y="104.13177"/>
     <use style="fill:#ff0000;" x="128.479008" xlink:href="#mea6713369f" y="104.13177"/>
    </g>
   </g>
   <g id="line2d_55">
    <path clip-path="url(#p7f12625aac)" d="M 73.348796 140.79138 
L 73.348796 31.002171 
" style="fill:none;stroke:#000000;stroke-dasharray:2.2,2.2;stroke-dashoffset:0;stroke-width:1.25;"/>
   </g>
   <g id="patch_3">
    <path d="M 34.9539 108.27988 
L 34.9539 27.32228 
" style="fill:none;stroke:#000000;stroke-linecap:square;stroke-linejoin:miter;stroke-width:0.8;"/>
   </g>
   <g id="patch_4">
    <path d="M 34.9539 108.27988 
L 132.932584 108.27988 
" style="fill:none;stroke:#000000;stroke-linecap:square;stroke-linejoin:miter;stroke-width:0.8;"/>
   </g>
   <g id="text_9">
    <!-- $\tau = 5 \cdot 10^{-4}$ -->
    <defs>
     <path d="M 63.703125 32 
L 4.796875 32 
L 4.796875 38.59375 
L 63.703125 38.59375 
z
M 63.703125 12 
L 4.796875 12 
L 4.796875 18.59375 
L 63.703125 18.59375 
z
" id="STIXGeneral-Regular-3d"/>
     <path d="M 45.796875 67.59375 
L 42.59375 60.5 
L 24.90625 60.5 
L 18.5 47.796875 
Q 29.90625 46.203125 37.25 39.75 
Q 44.59375 33.296875 44.59375 22.59375 
Q 44.59375 12.703125 37.84375 5.640625 
Q 31.09375 -1.40625 21 -1.40625 
Q 10 -1.40625 3.59375 5.59375 
L 8.296875 11.203125 
Q 13.40625 5.703125 20.5 5.703125 
Q 27.90625 5.703125 32.296875 10.75 
Q 36.703125 15.796875 36.703125 22.59375 
Q 36.703125 30 30.09375 35.203125 
Q 23.40625 40.703125 9.40625 40.703125 
L 8 42.40625 
L 19.59375 67.59375 
z
" id="STIXGeneral-Regular-1d7e7"/>
     <path d="M 16.796875 31.296875 
Q 20.296875 27.703125 20.296875 25.296875 
Q 20.296875 22.90625 18.546875 21.09375 
Q 16.796875 19.296875 14.390625 19.296875 
Q 12 19.296875 10.140625 21.140625 
Q 8.296875 23 8.296875 25.296875 
Q 8.296875 27.59375 10.140625 29.4375 
Q 12 31.296875 14.390625 31.296875 
Q 16.796875 31.296875 20.296875 27.703125 
" id="STIXGeneral-Regular-22c5"/>
    </defs>
    <g transform="translate(56.647884 28.530604)scale(0.08 -0.08)">
     <use transform="translate(0 0.446875)" xlink:href="#STIXNonUnicode-Italic-e1eb"/>
     <use transform="translate(61.919986 0.446875)" xlink:href="#STIXGeneral-Regular-3d"/>
     <use transform="translate(145.539969 0.446875)" xlink:href="#STIXGeneral-Regular-1d7e7"/>
     <use transform="translate(210.659952 0.446875)" xlink:href="#STIXGeneral-Regular-22c5"/>
     <use transform="translate(254.379941 0.446875)" xlink:href="#STIXGeneral-Regular-1d7e3"/>
     <use transform="translate(304.379926 0.446875)" xlink:href="#STIXGeneral-Regular-1d7e2"/>
     <use transform="translate(355.172606 36.684375)scale(0.7)" xlink:href="#STIXGeneral-Regular-2212"/>
     <use transform="translate(403.122595 36.684375)scale(0.7)" xlink:href="#STIXGeneral-Regular-1d7e6"/>
    </g>
   </g>
  </g>
  <g id="axes_2">
   <g id="patch_5">
    <path d="M 179.8362 108.27988 
L 277.814884 108.27988 
L 277.814884 27.32228 
L 179.8362 27.32228 
z
" style="fill:none;"/>
   </g>
   <g id="matplotlib.axis_3">
    <g id="xtick_27">
     <g id="line2d_56">
      <g>
       <use style="stroke:#000000;stroke-width:0.8;" x="206.557659" xlink:href="#m6d1d27e42d" y="108.27988"/>
      </g>
     </g>
     <g id="text_10">
      <!-- ${10^{-4}}$ -->
      <g transform="translate(197.581659 119.65138)scale(0.096 -0.096)">
       <use transform="translate(0 0.446875)" xlink:href="#STIXGeneral-Regular-1d7e3"/>
       <use transform="translate(49.999985 0.446875)" xlink:href="#STIXGeneral-Regular-1d7e2"/>
       <use transform="translate(100.792665 36.684375)scale(0.7)" xlink:href="#STIXGeneral-Regular-2212"/>
       <use transform="translate(148.742654 36.684375)scale(0.7)" xlink:href="#STIXGeneral-Regular-1d7e6"/>
      </g>
     </g>
    </g>
    <g id="xtick_28">
     <g id="line2d_57">
      <g>
       <use style="stroke:#000000;stroke-width:0.8;" x="239.959484" xlink:href="#m6d1d27e42d" y="108.27988"/>
      </g>
     </g>
     <g id="text_11">
      <!-- ${10^{-2}}$ -->
      <g transform="translate(230.983484 119.65138)scale(0.096 -0.096)">
       <use transform="translate(0 0.446875)" xlink:href="#STIXGeneral-Regular-1d7e3"/>
       <use transform="translate(49.999985 0.446875)" xlink:href="#STIXGeneral-Regular-1d7e2"/>
       <use transform="translate(100.792665 36.684375)scale(0.7)" xlink:href="#STIXGeneral-Regular-2212"/>
       <use transform="translate(148.742654 36.684375)scale(0.7)" xlink:href="#STIXGeneral-Regular-1d7e4"/>
      </g>
     </g>
    </g>
    <g id="xtick_29">
     <g id="line2d_58">
      <g>
       <use style="stroke:#000000;stroke-width:0.8;" x="273.361308" xlink:href="#m6d1d27e42d" y="108.27988"/>
      </g>
     </g>
     <g id="text_12">
      <!-- ${10^{0}}$ -->
      <g transform="translate(266.689308 119.65138)scale(0.096 -0.096)">
       <use transform="translate(0 0.446875)" xlink:href="#STIXGeneral-Regular-1d7e3"/>
       <use transform="translate(49.999985 0.446875)" xlink:href="#STIXGeneral-Regular-1d7e2"/>
       <use transform="translate(100.792665 36.684375)scale(0.7)" xlink:href="#STIXGeneral-Regular-1d7e2"/>
      </g>
     </g>
    </g>
    <g id="xtick_30">
     <g id="line2d_59">
      <g>
       <use style="stroke:#000000;stroke-width:0.4;" x="181.124195" xlink:href="#m27a03c5d9b" y="108.27988"/>
      </g>
     </g>
    </g>
    <g id="xtick_31">
     <g id="line2d_60">
      <g>
       <use style="stroke:#000000;stroke-width:0.4;" x="183.210786" xlink:href="#m27a03c5d9b" y="108.27988"/>
      </g>
     </g>
    </g>
    <g id="xtick_32">
     <g id="line2d_61">
      <g>
       <use style="stroke:#000000;stroke-width:0.4;" x="184.829272" xlink:href="#m27a03c5d9b" y="108.27988"/>
      </g>
     </g>
    </g>
    <g id="xtick_33">
     <g id="line2d_62">
      <g>
       <use style="stroke:#000000;stroke-width:0.4;" x="186.151671" xlink:href="#m27a03c5d9b" y="108.27988"/>
      </g>
     </g>
    </g>
    <g id="xtick_34">
     <g id="line2d_63">
      <g>
       <use style="stroke:#000000;stroke-width:0.4;" x="187.269743" xlink:href="#m27a03c5d9b" y="108.27988"/>
      </g>
     </g>
    </g>
    <g id="xtick_35">
     <g id="line2d_64">
      <g>
       <use style="stroke:#000000;stroke-width:0.4;" x="188.238262" xlink:href="#m27a03c5d9b" y="108.27988"/>
      </g>
     </g>
    </g>
    <g id="xtick_36">
     <g id="line2d_65">
      <g>
       <use style="stroke:#000000;stroke-width:0.4;" x="189.092555" xlink:href="#m27a03c5d9b" y="108.27988"/>
      </g>
     </g>
    </g>
    <g id="xtick_37">
     <g id="line2d_66">
      <g>
       <use style="stroke:#000000;stroke-width:0.4;" x="211.585135" xlink:href="#m27a03c5d9b" y="108.27988"/>
      </g>
     </g>
    </g>
    <g id="xtick_38">
     <g id="line2d_67">
      <g>
       <use style="stroke:#000000;stroke-width:0.4;" x="214.52602" xlink:href="#m27a03c5d9b" y="108.27988"/>
      </g>
     </g>
    </g>
    <g id="xtick_39">
     <g id="line2d_68">
      <g>
       <use style="stroke:#000000;stroke-width:0.4;" x="216.61261" xlink:href="#m27a03c5d9b" y="108.27988"/>
      </g>
     </g>
    </g>
    <g id="xtick_40">
     <g id="line2d_69">
      <g>
       <use style="stroke:#000000;stroke-width:0.4;" x="218.231096" xlink:href="#m27a03c5d9b" y="108.27988"/>
      </g>
     </g>
    </g>
    <g id="xtick_41">
     <g id="line2d_70">
      <g>
       <use style="stroke:#000000;stroke-width:0.4;" x="219.553495" xlink:href="#m27a03c5d9b" y="108.27988"/>
      </g>
     </g>
    </g>
    <g id="xtick_42">
     <g id="line2d_71">
      <g>
       <use style="stroke:#000000;stroke-width:0.4;" x="220.671568" xlink:href="#m27a03c5d9b" y="108.27988"/>
      </g>
     </g>
    </g>
    <g id="xtick_43">
     <g id="line2d_72">
      <g>
       <use style="stroke:#000000;stroke-width:0.4;" x="221.640086" xlink:href="#m27a03c5d9b" y="108.27988"/>
      </g>
     </g>
    </g>
    <g id="xtick_44">
     <g id="line2d_73">
      <g>
       <use style="stroke:#000000;stroke-width:0.4;" x="222.49438" xlink:href="#m27a03c5d9b" y="108.27988"/>
      </g>
     </g>
    </g>
    <g id="xtick_45">
     <g id="line2d_74">
      <g>
       <use style="stroke:#000000;stroke-width:0.4;" x="244.986959" xlink:href="#m27a03c5d9b" y="108.27988"/>
      </g>
     </g>
    </g>
    <g id="xtick_46">
     <g id="line2d_75">
      <g>
       <use style="stroke:#000000;stroke-width:0.4;" x="247.927844" xlink:href="#m27a03c5d9b" y="108.27988"/>
      </g>
     </g>
    </g>
    <g id="xtick_47">
     <g id="line2d_76">
      <g>
       <use style="stroke:#000000;stroke-width:0.4;" x="250.014435" xlink:href="#m27a03c5d9b" y="108.27988"/>
      </g>
     </g>
    </g>
    <g id="xtick_48">
     <g id="line2d_77">
      <g>
       <use style="stroke:#000000;stroke-width:0.4;" x="251.63292" xlink:href="#m27a03c5d9b" y="108.27988"/>
      </g>
     </g>
    </g>
    <g id="xtick_49">
     <g id="line2d_78">
      <g>
       <use style="stroke:#000000;stroke-width:0.4;" x="252.955319" xlink:href="#m27a03c5d9b" y="108.27988"/>
      </g>
     </g>
    </g>
    <g id="xtick_50">
     <g id="line2d_79">
      <g>
       <use style="stroke:#000000;stroke-width:0.4;" x="254.073392" xlink:href="#m27a03c5d9b" y="108.27988"/>
      </g>
     </g>
    </g>
    <g id="xtick_51">
     <g id="line2d_80">
      <g>
       <use style="stroke:#000000;stroke-width:0.4;" x="255.04191" xlink:href="#m27a03c5d9b" y="108.27988"/>
      </g>
     </g>
    </g>
    <g id="xtick_52">
     <g id="line2d_81">
      <g>
       <use style="stroke:#000000;stroke-width:0.4;" x="255.896204" xlink:href="#m27a03c5d9b" y="108.27988"/>
      </g>
     </g>
    </g>
    <g id="text_13">
     <!-- ${\tau}$ (days) -->
     <g transform="translate(210.187142 130.26818)scale(0.1056 -0.1056)">
      <use transform="translate(0 0.203125)" xlink:href="#STIXNonUnicode-Italic-e1eb"/>
      <use transform="translate(46.799988 0.203125)" xlink:href="#ArialMT-20"/>
      <use transform="translate(74.583191 0.203125)" xlink:href="#ArialMT-28"/>
      <use transform="translate(107.883972 0.203125)" xlink:href="#ArialMT-64"/>
      <use transform="translate(163.499207 0.203125)" xlink:href="#ArialMT-61"/>
      <use transform="translate(219.114441 0.203125)" xlink:href="#ArialMT-79"/>
      <use transform="translate(269.114441 0.203125)" xlink:href="#ArialMT-73"/>
      <use transform="translate(319.114441 0.203125)" xlink:href="#ArialMT-29"/>
     </g>
    </g>
   </g>
   <g id="matplotlib.axis_4">
    <g id="ytick_28">
     <g id="line2d_82">
      <g>
       <use style="stroke:#000000;stroke-width:0.8;" x="179.8362" xlink:href="#ma7116c7913" y="92.638769"/>
      </g>
     </g>
     <g id="text_14">
      <!-- 40 -->
      <defs>
       <path d="M 32.328125 0 
L 32.328125 17.140625 
L 1.265625 17.140625 
L 1.265625 25.203125 
L 33.9375 71.578125 
L 41.109375 71.578125 
L 41.109375 25.203125 
L 50.78125 25.203125 
L 50.78125 17.140625 
L 41.109375 17.140625 
L 41.109375 0 
z
M 32.328125 25.203125 
L 32.328125 57.46875 
L 9.90625 25.203125 
z
" id="ArialMT-34"/>
       <path d="M 4.15625 35.296875 
Q 4.15625 48 6.765625 55.734375 
Q 9.375 63.484375 14.515625 67.671875 
Q 19.671875 71.875 27.484375 71.875 
Q 33.25 71.875 37.59375 69.546875 
Q 41.9375 67.234375 44.765625 62.859375 
Q 47.609375 58.5 49.21875 52.21875 
Q 50.828125 45.953125 50.828125 35.296875 
Q 50.828125 22.703125 48.234375 14.96875 
Q 45.65625 7.234375 40.5 3 
Q 35.359375 -1.21875 27.484375 -1.21875 
Q 17.140625 -1.21875 11.234375 6.203125 
Q 4.15625 15.140625 4.15625 35.296875 
M 13.1875 35.296875 
Q 13.1875 17.671875 17.3125 11.828125 
Q 21.4375 6 27.484375 6 
Q 33.546875 6 37.671875 11.859375 
Q 41.796875 17.71875 41.796875 35.296875 
Q 41.796875 52.984375 37.671875 58.78125 
Q 33.546875 64.59375 27.390625 64.59375 
Q 21.34375 64.59375 17.71875 59.46875 
Q 13.1875 52.9375 13.1875 35.296875 
" id="ArialMT-30"/>
      </defs>
      <g transform="translate(165.6592 96.074519)scale(0.096 -0.096)">
       <use xlink:href="#ArialMT-34"/>
       <use x="55.615234" xlink:href="#ArialMT-30"/>
      </g>
     </g>
    </g>
    <g id="ytick_29">
     <g id="line2d_83">
      <g>
       <use style="stroke:#000000;stroke-width:0.8;" x="179.8362" xlink:href="#ma7116c7913" y="64.223258"/>
      </g>
     </g>
     <g id="text_15">
      <!-- 60 -->
      <defs>
       <path d="M 49.75 54.046875 
L 41.015625 53.375 
Q 39.84375 58.546875 37.703125 60.890625 
Q 34.125 64.65625 28.90625 64.65625 
Q 24.703125 64.65625 21.53125 62.3125 
Q 17.390625 59.28125 14.984375 53.46875 
Q 12.59375 47.65625 12.5 36.921875 
Q 15.671875 41.75 20.265625 44.09375 
Q 24.859375 46.4375 29.890625 46.4375 
Q 38.671875 46.4375 44.84375 39.96875 
Q 51.03125 33.5 51.03125 23.25 
Q 51.03125 16.5 48.125 10.71875 
Q 45.21875 4.9375 40.140625 1.859375 
Q 35.0625 -1.21875 28.609375 -1.21875 
Q 17.625 -1.21875 10.6875 6.859375 
Q 3.765625 14.9375 3.765625 33.5 
Q 3.765625 54.25 11.421875 63.671875 
Q 18.109375 71.875 29.4375 71.875 
Q 37.890625 71.875 43.28125 67.140625 
Q 48.6875 62.40625 49.75 54.046875 
M 13.875 23.1875 
Q 13.875 18.65625 15.796875 14.5 
Q 17.71875 10.359375 21.1875 8.171875 
Q 24.65625 6 28.46875 6 
Q 34.03125 6 38.03125 10.484375 
Q 42.046875 14.984375 42.046875 22.703125 
Q 42.046875 30.125 38.078125 34.390625 
Q 34.125 38.671875 28.125 38.671875 
Q 22.171875 38.671875 18.015625 34.390625 
Q 13.875 30.125 13.875 23.1875 
" id="ArialMT-36"/>
      </defs>
      <g transform="translate(165.6592 67.659008)scale(0.096 -0.096)">
       <use xlink:href="#ArialMT-36"/>
       <use x="55.615234" xlink:href="#ArialMT-30"/>
      </g>
     </g>
    </g>
    <g id="ytick_30">
     <g id="line2d_84">
      <g>
       <use style="stroke:#000000;stroke-width:0.8;" x="179.8362" xlink:href="#ma7116c7913" y="35.807747"/>
      </g>
     </g>
     <g id="text_16">
      <!-- 80 -->
      <defs>
       <path d="M 17.671875 38.8125 
Q 12.203125 40.828125 9.5625 44.53125 
Q 6.9375 48.25 6.9375 53.421875 
Q 6.9375 61.234375 12.546875 66.546875 
Q 18.171875 71.875 27.484375 71.875 
Q 36.859375 71.875 42.578125 66.421875 
Q 48.296875 60.984375 48.296875 53.171875 
Q 48.296875 48.1875 45.671875 44.5 
Q 43.0625 40.828125 37.75 38.8125 
Q 44.34375 36.671875 47.78125 31.875 
Q 51.21875 27.09375 51.21875 20.453125 
Q 51.21875 11.28125 44.71875 5.03125 
Q 38.234375 -1.21875 27.640625 -1.21875 
Q 17.046875 -1.21875 10.546875 5.046875 
Q 4.046875 11.328125 4.046875 20.703125 
Q 4.046875 27.6875 7.59375 32.390625 
Q 11.140625 37.109375 17.671875 38.8125 
M 15.921875 53.71875 
Q 15.921875 48.640625 19.1875 45.40625 
Q 22.46875 42.1875 27.6875 42.1875 
Q 32.765625 42.1875 36.015625 45.375 
Q 39.265625 48.578125 39.265625 53.21875 
Q 39.265625 58.0625 35.90625 61.359375 
Q 32.5625 64.65625 27.59375 64.65625 
Q 22.5625 64.65625 19.234375 61.421875 
Q 15.921875 58.203125 15.921875 53.71875 
M 13.09375 20.65625 
Q 13.09375 16.890625 14.875 13.375 
Q 16.65625 9.859375 20.171875 7.921875 
Q 23.6875 6 27.734375 6 
Q 34.03125 6 38.125 10.046875 
Q 42.234375 14.109375 42.234375 20.359375 
Q 42.234375 26.703125 38.015625 30.859375 
Q 33.796875 35.015625 27.4375 35.015625 
Q 21.234375 35.015625 17.15625 30.90625 
Q 13.09375 26.8125 13.09375 20.65625 
" id="ArialMT-38"/>
      </defs>
      <g transform="translate(165.6592 39.243497)scale(0.096 -0.096)">
       <use xlink:href="#ArialMT-38"/>
       <use x="55.615234" xlink:href="#ArialMT-30"/>
      </g>
     </g>
    </g>
    <g id="text_17">
     <!-- % clones left -->
     <defs>
      <path d="M 5.8125 54.390625 
Q 5.8125 62.0625 9.671875 67.421875 
Q 13.53125 72.796875 20.84375 72.796875 
Q 27.59375 72.796875 32 67.984375 
Q 36.421875 63.1875 36.421875 53.859375 
Q 36.421875 44.78125 31.953125 39.875 
Q 27.484375 34.96875 20.953125 34.96875 
Q 14.453125 34.96875 10.125 39.796875 
Q 5.8125 44.625 5.8125 54.390625 
M 21.09375 66.75 
Q 17.828125 66.75 15.65625 63.90625 
Q 13.484375 61.078125 13.484375 53.515625 
Q 13.484375 46.625 15.671875 43.8125 
Q 17.875 41.015625 21.09375 41.015625 
Q 24.421875 41.015625 26.59375 43.84375 
Q 28.765625 46.6875 28.765625 54.203125 
Q 28.765625 61.140625 26.5625 63.9375 
Q 24.359375 66.75 21.09375 66.75 
M 21.140625 -2.640625 
L 60.296875 72.796875 
L 67.4375 72.796875 
L 28.421875 -2.640625 
z
M 52.09375 16.796875 
Q 52.09375 24.515625 55.953125 29.859375 
Q 59.8125 35.203125 67.1875 35.203125 
Q 73.921875 35.203125 78.34375 30.390625 
Q 82.765625 25.59375 82.765625 16.265625 
Q 82.765625 7.171875 78.296875 2.265625 
Q 73.828125 -2.640625 67.234375 -2.640625 
Q 60.75 -2.640625 56.421875 2.21875 
Q 52.09375 7.078125 52.09375 16.796875 
M 67.4375 29.15625 
Q 64.109375 29.15625 61.9375 26.3125 
Q 59.765625 23.484375 59.765625 15.921875 
Q 59.765625 9.078125 61.953125 6.25 
Q 64.15625 3.421875 67.390625 3.421875 
Q 70.75 3.421875 72.921875 6.25 
Q 75.09375 9.078125 75.09375 16.609375 
Q 75.09375 23.53125 72.890625 26.34375 
Q 70.703125 29.15625 67.4375 29.15625 
" id="ArialMT-25"/>
      <path d="M 40.4375 19 
L 49.078125 17.875 
Q 47.65625 8.9375 41.8125 3.875 
Q 35.984375 -1.171875 27.484375 -1.171875 
Q 16.84375 -1.171875 10.375 5.78125 
Q 3.90625 12.75 3.90625 25.734375 
Q 3.90625 34.125 6.6875 40.421875 
Q 9.46875 46.734375 15.15625 49.875 
Q 20.84375 53.03125 27.546875 53.03125 
Q 35.984375 53.03125 41.359375 48.75 
Q 46.734375 44.484375 48.25 36.625 
L 39.703125 35.296875 
Q 38.484375 40.53125 35.375 43.15625 
Q 32.28125 45.796875 27.875 45.796875 
Q 21.234375 45.796875 17.078125 41.03125 
Q 12.9375 36.28125 12.9375 25.984375 
Q 12.9375 15.53125 16.9375 10.796875 
Q 20.953125 6.0625 27.390625 6.0625 
Q 32.5625 6.0625 36.03125 9.234375 
Q 39.5 12.40625 40.4375 19 
" id="ArialMT-63"/>
      <path d="M 8.6875 0 
L 8.6875 45.015625 
L 0.921875 45.015625 
L 0.921875 51.859375 
L 8.6875 51.859375 
L 8.6875 57.375 
Q 8.6875 62.59375 9.625 65.140625 
Q 10.890625 68.5625 14.078125 70.671875 
Q 17.28125 72.796875 23.046875 72.796875 
Q 26.765625 72.796875 31.25 71.921875 
L 29.9375 64.265625 
Q 27.203125 64.75 24.75 64.75 
Q 20.75 64.75 19.09375 63.03125 
Q 17.4375 61.328125 17.4375 56.640625 
L 17.4375 51.859375 
L 27.546875 51.859375 
L 27.546875 45.015625 
L 17.4375 45.015625 
L 17.4375 0 
z
" id="ArialMT-66"/>
     </defs>
     <g transform="translate(162.5604 97.734555)rotate(-90)scale(0.1056 -0.1056)">
      <use xlink:href="#ArialMT-25"/>
      <use x="88.916016" xlink:href="#ArialMT-20"/>
      <use x="116.699219" xlink:href="#ArialMT-63"/>
      <use x="166.699219" xlink:href="#ArialMT-6c"/>
      <use x="188.916016" xlink:href="#ArialMT-6f"/>
      <use x="244.53125" xlink:href="#ArialMT-6e"/>
      <use x="300.146484" xlink:href="#ArialMT-65"/>
      <use x="355.761719" xlink:href="#ArialMT-73"/>
      <use x="405.761719" xlink:href="#ArialMT-20"/>
      <use x="433.544922" xlink:href="#ArialMT-6c"/>
      <use x="455.761719" xlink:href="#ArialMT-65"/>
      <use x="511.376953" xlink:href="#ArialMT-66"/>
      <use x="539.160156" xlink:href="#ArialMT-74"/>
     </g>
    </g>
   </g>
   <g id="PolyCollection_2">
    <defs>
     <path d="M 184.289777 -99.434248 
L 184.289777 -99.911623 
L 189.856747 -100.437077 
L 195.423718 -100.402381 
L 200.990689 -99.988731 
L 206.557659 -99.947529 
L 212.12463 -100.4363 
L 217.691601 -100.491124 
L 223.258572 -100.294951 
L 228.825542 -100.195606 
L 234.392513 -100.509229 
L 239.959484 -100.404285 
L 245.526454 -100.314534 
L 251.093425 -100.465566 
L 256.660396 -100.919967 
L 262.227367 -101.827297 
L 267.794337 -102.730282 
L 273.361308 -93.515869 
L 273.361308 -92.439793 
L 273.361308 -92.439793 
L 267.794337 -102.005788 
L 262.227367 -100.839931 
L 256.660396 -100.394838 
L 251.093425 -99.721001 
L 245.526454 -99.755066 
L 239.959484 -99.567844 
L 234.392513 -99.716327 
L 228.825542 -99.29891 
L 223.258572 -99.562649 
L 217.691601 -99.751489 
L 212.12463 -99.55776 
L 206.557659 -99.447078 
L 200.990689 -99.510659 
L 195.423718 -99.645289 
L 189.856747 -99.761674 
L 184.289777 -99.434248 
z
" id="me996ed1d73" style="stroke:#ff0000;stroke-opacity:0.2;stroke-width:0.24;"/>
    </defs>
    <g clip-path="url(#p1139a9bec1)">
     <use style="fill:#ff0000;fill-opacity:0.2;stroke:#ff0000;stroke-opacity:0.2;stroke-width:0.24;" x="0" xlink:href="#me996ed1d73" y="139.79138"/>
    </g>
   </g>
   <g id="PolyCollection_3">
    <defs>
     <path d="M 184.289777 -75.200196 
L 184.289777 -75.91899 
L 189.856747 -76.581695 
L 195.423718 -76.593714 
L 200.990689 -75.967725 
L 206.557659 -76.075112 
L 212.12463 -76.183432 
L 217.691601 -76.333442 
L 223.258572 -76.269859 
L 228.825542 -76.120939 
L 234.392513 -76.290212 
L 239.959484 -76.345657 
L 245.526454 -76.217077 
L 251.093425 -76.837911 
L 256.660396 -77.54218 
L 262.227367 -78.863916 
L 267.794337 -80.129311 
L 273.361308 -59.916195 
L 273.361308 -59.263869 
L 273.361308 -59.263869 
L 267.794337 -79.267681 
L 262.227367 -77.52363 
L 256.660396 -76.683925 
L 251.093425 -75.770159 
L 245.526454 -75.58685 
L 239.959484 -75.270636 
L 234.392513 -75.66967 
L 228.825542 -74.969006 
L 223.258572 -75.312318 
L 217.691601 -75.421748 
L 212.12463 -75.354884 
L 206.557659 -75.346237 
L 200.990689 -75.273301 
L 195.423718 -75.212649 
L 189.856747 -75.43667 
L 184.289777 -75.200196 
z
" id="m86b7057985" style="stroke:#008000;stroke-opacity:0.2;stroke-width:0.24;"/>
    </defs>
    <g clip-path="url(#p1139a9bec1)">
     <use style="fill:#008000;fill-opacity:0.2;stroke:#008000;stroke-opacity:0.2;stroke-width:0.24;" x="0" xlink:href="#m86b7057985" y="139.79138"/>
    </g>
   </g>
   <g id="PolyCollection_4">
    <defs>
     <path d="M 184.289777 -59.680858 
L 184.289777 -60.488546 
L 189.856747 -60.955949 
L 195.423718 -60.839487 
L 200.990689 -60.21055 
L 206.557659 -60.693179 
L 212.12463 -60.473451 
L 217.691601 -60.736046 
L 223.258572 -60.600984 
L 228.825542 -60.749375 
L 234.392513 -60.572555 
L 239.959484 -60.670553 
L 245.526454 -60.90617 
L 251.093425 -61.392026 
L 256.660396 -61.757914 
L 262.227367 -63.439332 
L 267.794337 -65.00053 
L 273.361308 -39.390751 
L 273.361308 -38.536746 
L 273.361308 -38.536746 
L 267.794337 -64.182593 
L 262.227367 -62.400504 
L 256.660396 -61.128521 
L 251.093425 -60.232148 
L 245.526454 -60.206276 
L 239.959484 -59.930165 
L 234.392513 -59.908759 
L 228.825542 -59.748997 
L 223.258572 -59.663455 
L 217.691601 -59.981639 
L 212.12463 -59.744689 
L 206.557659 -59.88317 
L 200.990689 -59.746853 
L 195.423718 -59.554103 
L 189.856747 -59.825092 
L 184.289777 -59.680858 
z
" id="mcf5a8034ee" style="stroke:#bfbf00;stroke-opacity:0.2;stroke-width:0.24;"/>
    </defs>
    <g clip-path="url(#p1139a9bec1)">
     <use style="fill:#bfbf00;fill-opacity:0.2;stroke:#bfbf00;stroke-opacity:0.2;stroke-width:0.24;" x="0" xlink:href="#mcf5a8034ee" y="139.79138"/>
    </g>
   </g>
   <g id="line2d_85">
    <path clip-path="url(#p1139a9bec1)" d="M 184.289777 40.118444 
L 189.856747 39.692004 
L 195.423718 39.767545 
L 200.990689 40.041685 
L 206.557659 40.094076 
L 212.12463 39.79435 
L 217.691601 39.670073 
L 223.258572 39.86258 
L 228.825542 40.044122 
L 234.392513 39.678602 
L 239.959484 39.805316 
L 245.526454 39.75658 
L 251.093425 39.698096 
L 256.660396 39.133978 
L 262.227367 38.457766 
L 267.794337 37.423345 
L 273.361308 46.813549 
" style="fill:none;stroke:#ff0000;stroke-linecap:round;stroke-width:1.25;"/>
    <g clip-path="url(#p1139a9bec1)">
     <use style="fill:#ff0000;" x="184.289777" xlink:href="#mea6713369f" y="40.118444"/>
     <use style="fill:#ff0000;" x="189.856747" xlink:href="#mea6713369f" y="39.692004"/>
     <use style="fill:#ff0000;" x="195.423718" xlink:href="#mea6713369f" y="39.767545"/>
     <use style="fill:#ff0000;" x="200.990689" xlink:href="#mea6713369f" y="40.041685"/>
     <use style="fill:#ff0000;" x="206.557659" xlink:href="#mea6713369f" y="40.094076"/>
     <use style="fill:#ff0000;" x="212.12463" xlink:href="#mea6713369f" y="39.79435"/>
     <use style="fill:#ff0000;" x="217.691601" xlink:href="#mea6713369f" y="39.670073"/>
     <use style="fill:#ff0000;" x="223.258572" xlink:href="#mea6713369f" y="39.86258"/>
     <use style="fill:#ff0000;" x="228.825542" xlink:href="#mea6713369f" y="40.044122"/>
     <use style="fill:#ff0000;" x="234.392513" xlink:href="#mea6713369f" y="39.678602"/>
     <use style="fill:#ff0000;" x="239.959484" xlink:href="#mea6713369f" y="39.805316"/>
     <use style="fill:#ff0000;" x="245.526454" xlink:href="#mea6713369f" y="39.75658"/>
     <use style="fill:#ff0000;" x="251.093425" xlink:href="#mea6713369f" y="39.698096"/>
     <use style="fill:#ff0000;" x="256.660396" xlink:href="#mea6713369f" y="39.133978"/>
     <use style="fill:#ff0000;" x="262.227367" xlink:href="#mea6713369f" y="38.457766"/>
     <use style="fill:#ff0000;" x="267.794337" xlink:href="#mea6713369f" y="37.423345"/>
     <use style="fill:#ff0000;" x="273.361308" xlink:href="#mea6713369f" y="46.813549"/>
    </g>
   </g>
   <g id="line2d_86">
    <path clip-path="url(#p1139a9bec1)" d="M 218.231096 47.866112 
L 218.231096 36.546573 
" style="fill:none;stroke:#000000;stroke-dasharray:2.2,2.2;stroke-dashoffset:0;stroke-width:1.25;"/>
   </g>
   <g id="line2d_87">
    <path clip-path="url(#p1139a9bec1)" d="M 184.289777 64.231787 
L 189.856747 63.782198 
L 195.423718 63.888198 
L 200.990689 64.170867 
L 206.557659 64.080705 
L 212.12463 64.022222 
L 217.691601 63.913785 
L 223.258572 64.000291 
L 228.825542 64.246408 
L 234.392513 63.811439 
L 239.959484 63.983233 
L 245.526454 63.889417 
L 251.093425 63.487345 
L 256.660396 62.678328 
L 262.227367 61.597607 
L 267.794337 60.092884 
L 273.361308 80.201348 
" style="fill:none;stroke:#008000;stroke-linecap:round;stroke-width:1.25;"/>
    <defs>
     <path d="M -1.75 1.75 
L 1.75 1.75 
L 1.75 -1.75 
L -1.75 -1.75 
z
" id="md7a78b3cbf"/>
    </defs>
    <g clip-path="url(#p1139a9bec1)">
     <use style="fill:#008000;" x="184.289777" xlink:href="#md7a78b3cbf" y="64.231787"/>
     <use style="fill:#008000;" x="189.856747" xlink:href="#md7a78b3cbf" y="63.782198"/>
     <use style="fill:#008000;" x="195.423718" xlink:href="#md7a78b3cbf" y="63.888198"/>
     <use style="fill:#008000;" x="200.990689" xlink:href="#md7a78b3cbf" y="64.170867"/>
     <use style="fill:#008000;" x="206.557659" xlink:href="#md7a78b3cbf" y="64.080705"/>
     <use style="fill:#008000;" x="212.12463" xlink:href="#md7a78b3cbf" y="64.022222"/>
     <use style="fill:#008000;" x="217.691601" xlink:href="#md7a78b3cbf" y="63.913785"/>
     <use style="fill:#008000;" x="223.258572" xlink:href="#md7a78b3cbf" y="64.000291"/>
     <use style="fill:#008000;" x="228.825542" xlink:href="#md7a78b3cbf" y="64.246408"/>
     <use style="fill:#008000;" x="234.392513" xlink:href="#md7a78b3cbf" y="63.811439"/>
     <use style="fill:#008000;" x="239.959484" xlink:href="#md7a78b3cbf" y="63.983233"/>
     <use style="fill:#008000;" x="245.526454" xlink:href="#md7a78b3cbf" y="63.889417"/>
     <use style="fill:#008000;" x="251.093425" xlink:href="#md7a78b3cbf" y="63.487345"/>
     <use style="fill:#008000;" x="256.660396" xlink:href="#md7a78b3cbf" y="62.678328"/>
     <use style="fill:#008000;" x="262.227367" xlink:href="#md7a78b3cbf" y="61.597607"/>
     <use style="fill:#008000;" x="267.794337" xlink:href="#md7a78b3cbf" y="60.092884"/>
     <use style="fill:#008000;" x="273.361308" xlink:href="#md7a78b3cbf" y="80.201348"/>
    </g>
   </g>
   <g id="line2d_88">
    <path clip-path="url(#p1139a9bec1)" d="M 218.231096 82.726558 
L 218.231096 34.347526 
" style="fill:none;stroke:#000000;stroke-dasharray:2.2,2.2;stroke-dashoffset:0;stroke-width:1.25;"/>
   </g>
   <g id="line2d_89">
    <path clip-path="url(#p1139a9bec1)" d="M 184.289777 79.706678 
L 189.856747 79.40086 
L 195.423718 79.594585 
L 200.990689 79.812679 
L 206.557659 79.503205 
L 212.12463 79.68231 
L 217.691601 79.432538 
L 223.258572 79.65916 
L 228.825542 79.542194 
L 234.392513 79.550723 
L 239.959484 79.491021 
L 245.526454 79.235157 
L 251.093425 78.979293 
L 256.660396 78.348162 
L 262.227367 76.871462 
L 267.794337 75.199818 
L 273.361308 100.827632 
" style="fill:none;stroke:#bfbf00;stroke-linecap:round;stroke-width:1.25;"/>
    <defs>
     <path d="M -0 1.75 
L 1.75 -1.75 
L -1.75 -1.75 
z
" id="m75e4707cdd"/>
    </defs>
    <g clip-path="url(#p1139a9bec1)">
     <use style="fill:#bfbf00;" x="184.289777" xlink:href="#m75e4707cdd" y="79.706678"/>
     <use style="fill:#bfbf00;" x="189.856747" xlink:href="#m75e4707cdd" y="79.40086"/>
     <use style="fill:#bfbf00;" x="195.423718" xlink:href="#m75e4707cdd" y="79.594585"/>
     <use style="fill:#bfbf00;" x="200.990689" xlink:href="#m75e4707cdd" y="79.812679"/>
     <use style="fill:#bfbf00;" x="206.557659" xlink:href="#m75e4707cdd" y="79.503205"/>
     <use style="fill:#bfbf00;" x="212.12463" xlink:href="#m75e4707cdd" y="79.68231"/>
     <use style="fill:#bfbf00;" x="217.691601" xlink:href="#m75e4707cdd" y="79.432538"/>
     <use style="fill:#bfbf00;" x="223.258572" xlink:href="#m75e4707cdd" y="79.65916"/>
     <use style="fill:#bfbf00;" x="228.825542" xlink:href="#m75e4707cdd" y="79.542194"/>
     <use style="fill:#bfbf00;" x="234.392513" xlink:href="#m75e4707cdd" y="79.550723"/>
     <use style="fill:#bfbf00;" x="239.959484" xlink:href="#m75e4707cdd" y="79.491021"/>
     <use style="fill:#bfbf00;" x="245.526454" xlink:href="#m75e4707cdd" y="79.235157"/>
     <use style="fill:#bfbf00;" x="251.093425" xlink:href="#m75e4707cdd" y="78.979293"/>
     <use style="fill:#bfbf00;" x="256.660396" xlink:href="#m75e4707cdd" y="78.348162"/>
     <use style="fill:#bfbf00;" x="262.227367" xlink:href="#m75e4707cdd" y="76.871462"/>
     <use style="fill:#bfbf00;" x="267.794337" xlink:href="#m75e4707cdd" y="75.199818"/>
     <use style="fill:#bfbf00;" x="273.361308" xlink:href="#m75e4707cdd" y="100.827632"/>
    </g>
   </g>
   <g id="line2d_90">
    <path clip-path="url(#p1139a9bec1)" d="M 218.231096 104.599989 
L 218.231096 31.002171 
" style="fill:none;stroke:#000000;stroke-dasharray:2.2,2.2;stroke-dashoffset:0;stroke-width:1.25;"/>
   </g>
   <g id="patch_6">
    <path d="M 179.8362 108.27988 
L 179.8362 27.32228 
" style="fill:none;stroke:#000000;stroke-linecap:square;stroke-linejoin:miter;stroke-width:0.8;"/>
   </g>
   <g id="patch_7">
    <path d="M 179.8362 108.27988 
L 277.814884 108.27988 
" style="fill:none;stroke:#000000;stroke-linecap:square;stroke-linejoin:miter;stroke-width:0.8;"/>
   </g>
   <g id="legend_1">
    <g id="line2d_91">
     <path d="M 177.535332 13.578958 
L 190.030332 13.578958 
" style="fill:none;stroke:#ff0000;stroke-linecap:round;stroke-width:1.25;"/>
    </g>
    <g id="line2d_92">
     <g>
      <use style="fill:#ff0000;" x="183.782832" xlink:href="#mea6713369f" y="13.578958"/>
     </g>
    </g>
    <g id="text_18">
     <!-- P10 -->
     <defs>
      <path d="M 7.71875 0 
L 7.71875 71.578125 
L 34.71875 71.578125 
Q 41.84375 71.578125 45.609375 70.90625 
Q 50.875 70.015625 54.4375 67.546875 
Q 58.015625 65.09375 60.1875 60.640625 
Q 62.359375 56.203125 62.359375 50.875 
Q 62.359375 41.75 56.546875 35.421875 
Q 50.734375 29.109375 35.546875 29.109375 
L 17.1875 29.109375 
L 17.1875 0 
z
M 17.1875 37.546875 
L 35.6875 37.546875 
Q 44.875 37.546875 48.734375 40.96875 
Q 52.59375 44.390625 52.59375 50.59375 
Q 52.59375 55.078125 50.3125 58.265625 
Q 48.046875 61.46875 44.34375 62.5 
Q 41.9375 63.140625 35.5 63.140625 
L 17.1875 63.140625 
z
" id="ArialMT-50"/>
      <path d="M 37.25 0 
L 28.46875 0 
L 28.46875 56 
Q 25.296875 52.984375 20.140625 49.953125 
Q 14.984375 46.921875 10.890625 45.40625 
L 10.890625 53.90625 
Q 18.265625 57.375 23.78125 62.296875 
Q 29.296875 67.234375 31.59375 71.875 
L 37.25 71.875 
z
" id="ArialMT-31"/>
     </defs>
     <g transform="translate(192.529332 16.494458)scale(0.0833 -0.0833)">
      <use xlink:href="#ArialMT-50"/>
      <use x="66.699219" xlink:href="#ArialMT-31"/>
      <use x="122.314453" xlink:href="#ArialMT-30"/>
     </g>
    </g>
    <g id="line2d_93">
     <path d="M 211.515224 13.578958 
L 224.010224 13.578958 
" style="fill:none;stroke:#008000;stroke-linecap:round;stroke-width:1.25;"/>
    </g>
    <g id="line2d_94">
     <g>
      <use style="fill:#008000;" x="217.762724" xlink:href="#md7a78b3cbf" y="13.578958"/>
     </g>
    </g>
    <g id="text_19">
     <!-- P20 -->
     <defs>
      <path d="M 50.34375 8.453125 
L 50.34375 0 
L 3.03125 0 
Q 2.9375 3.171875 4.046875 6.109375 
Q 5.859375 10.9375 9.828125 15.625 
Q 13.8125 20.3125 21.34375 26.46875 
Q 33.015625 36.03125 37.109375 41.625 
Q 41.21875 47.21875 41.21875 52.203125 
Q 41.21875 57.421875 37.46875 61 
Q 33.734375 64.59375 27.734375 64.59375 
Q 21.390625 64.59375 17.578125 60.78125 
Q 13.765625 56.984375 13.71875 50.25 
L 4.6875 51.171875 
Q 5.609375 61.28125 11.65625 66.578125 
Q 17.71875 71.875 27.9375 71.875 
Q 38.234375 71.875 44.234375 66.15625 
Q 50.25 60.453125 50.25 52 
Q 50.25 47.703125 48.484375 43.546875 
Q 46.734375 39.40625 42.65625 34.8125 
Q 38.578125 30.21875 29.109375 22.21875 
Q 21.1875 15.578125 18.9375 13.203125 
Q 16.703125 10.84375 15.234375 8.453125 
z
" id="ArialMT-32"/>
     </defs>
     <g transform="translate(226.509224 16.494458)scale(0.0833 -0.0833)">
      <use xlink:href="#ArialMT-50"/>
      <use x="66.699219" xlink:href="#ArialMT-32"/>
      <use x="122.314453" xlink:href="#ArialMT-30"/>
     </g>
    </g>
    <g id="line2d_95">
     <path d="M 245.495116 13.578958 
L 257.990116 13.578958 
" style="fill:none;stroke:#bfbf00;stroke-linecap:round;stroke-width:1.25;"/>
    </g>
    <g id="line2d_96">
     <g>
      <use style="fill:#bfbf00;" x="251.742616" xlink:href="#m75e4707cdd" y="13.578958"/>
     </g>
    </g>
    <g id="text_20">
     <!-- P30 -->
     <defs>
      <path d="M 4.203125 18.890625 
L 12.984375 20.0625 
Q 14.5 12.59375 18.140625 9.296875 
Q 21.78125 6 27 6 
Q 33.203125 6 37.46875 10.296875 
Q 41.75 14.59375 41.75 20.953125 
Q 41.75 27 37.796875 30.921875 
Q 33.84375 34.859375 27.734375 34.859375 
Q 25.25 34.859375 21.53125 33.890625 
L 22.515625 41.609375 
Q 23.390625 41.5 23.921875 41.5 
Q 29.546875 41.5 34.03125 44.421875 
Q 38.53125 47.359375 38.53125 53.46875 
Q 38.53125 58.296875 35.25 61.46875 
Q 31.984375 64.65625 26.8125 64.65625 
Q 21.6875 64.65625 18.265625 61.421875 
Q 14.84375 58.203125 13.875 51.765625 
L 5.078125 53.328125 
Q 6.6875 62.15625 12.390625 67.015625 
Q 18.109375 71.875 26.609375 71.875 
Q 32.46875 71.875 37.390625 69.359375 
Q 42.328125 66.84375 44.9375 62.5 
Q 47.5625 58.15625 47.5625 53.265625 
Q 47.5625 48.640625 45.0625 44.828125 
Q 42.578125 41.015625 37.703125 38.765625 
Q 44.046875 37.3125 47.5625 32.6875 
Q 51.078125 28.078125 51.078125 21.140625 
Q 51.078125 11.765625 44.234375 5.25 
Q 37.40625 -1.265625 26.953125 -1.265625 
Q 17.53125 -1.265625 11.296875 4.34375 
Q 5.078125 9.96875 4.203125 18.890625 
" id="ArialMT-33"/>
     </defs>
     <g transform="translate(260.489116 16.494458)scale(0.0833 -0.0833)">
      <use xlink:href="#ArialMT-50"/>
      <use x="66.699219" xlink:href="#ArialMT-33"/>
      <use x="122.314453" xlink:href="#ArialMT-30"/>
     </g>
    </g>
   </g>
  </g>
  <g id="axes_3">
   <g id="patch_8">
    <path d="M 324.7185 108.27988 
L 422.697184 108.27988 
L 422.697184 27.32228 
L 324.7185 27.32228 
z
" style="fill:none;"/>
   </g>
   <g id="matplotlib.axis_5">
    <g id="xtick_53">
     <g id="line2d_97">
      <g>
       <use style="stroke:#000000;stroke-width:0.8;" x="351.439959" xlink:href="#m6d1d27e42d" y="108.27988"/>
      </g>
     </g>
     <g id="text_21">
      <!-- ${10^{-4}}$ -->
      <g transform="translate(342.463959 119.65138)scale(0.096 -0.096)">
       <use transform="translate(0 0.446875)" xlink:href="#STIXGeneral-Regular-1d7e3"/>
       <use transform="translate(49.999985 0.446875)" xlink:href="#STIXGeneral-Regular-1d7e2"/>
       <use transform="translate(100.792665 36.684375)scale(0.7)" xlink:href="#STIXGeneral-Regular-2212"/>
       <use transform="translate(148.742654 36.684375)scale(0.7)" xlink:href="#STIXGeneral-Regular-1d7e6"/>
      </g>
     </g>
    </g>
    <g id="xtick_54">
     <g id="line2d_98">
      <g>
       <use style="stroke:#000000;stroke-width:0.8;" x="384.841784" xlink:href="#m6d1d27e42d" y="108.27988"/>
      </g>
     </g>
     <g id="text_22">
      <!-- ${10^{-2}}$ -->
      <g transform="translate(375.865784 119.65138)scale(0.096 -0.096)">
       <use transform="translate(0 0.446875)" xlink:href="#STIXGeneral-Regular-1d7e3"/>
       <use transform="translate(49.999985 0.446875)" xlink:href="#STIXGeneral-Regular-1d7e2"/>
       <use transform="translate(100.792665 36.684375)scale(0.7)" xlink:href="#STIXGeneral-Regular-2212"/>
       <use transform="translate(148.742654 36.684375)scale(0.7)" xlink:href="#STIXGeneral-Regular-1d7e4"/>
      </g>
     </g>
    </g>
    <g id="xtick_55">
     <g id="line2d_99">
      <g>
       <use style="stroke:#000000;stroke-width:0.8;" x="418.243608" xlink:href="#m6d1d27e42d" y="108.27988"/>
      </g>
     </g>
     <g id="text_23">
      <!-- ${10^{0}}$ -->
      <g transform="translate(411.571608 119.65138)scale(0.096 -0.096)">
       <use transform="translate(0 0.446875)" xlink:href="#STIXGeneral-Regular-1d7e3"/>
       <use transform="translate(49.999985 0.446875)" xlink:href="#STIXGeneral-Regular-1d7e2"/>
       <use transform="translate(100.792665 36.684375)scale(0.7)" xlink:href="#STIXGeneral-Regular-1d7e2"/>
      </g>
     </g>
    </g>
    <g id="xtick_56">
     <g id="line2d_100">
      <g>
       <use style="stroke:#000000;stroke-width:0.4;" x="326.006495" xlink:href="#m27a03c5d9b" y="108.27988"/>
      </g>
     </g>
    </g>
    <g id="xtick_57">
     <g id="line2d_101">
      <g>
       <use style="stroke:#000000;stroke-width:0.4;" x="328.093086" xlink:href="#m27a03c5d9b" y="108.27988"/>
      </g>
     </g>
    </g>
    <g id="xtick_58">
     <g id="line2d_102">
      <g>
       <use style="stroke:#000000;stroke-width:0.4;" x="329.711572" xlink:href="#m27a03c5d9b" y="108.27988"/>
      </g>
     </g>
    </g>
    <g id="xtick_59">
     <g id="line2d_103">
      <g>
       <use style="stroke:#000000;stroke-width:0.4;" x="331.033971" xlink:href="#m27a03c5d9b" y="108.27988"/>
      </g>
     </g>
    </g>
    <g id="xtick_60">
     <g id="line2d_104">
      <g>
       <use style="stroke:#000000;stroke-width:0.4;" x="332.152043" xlink:href="#m27a03c5d9b" y="108.27988"/>
      </g>
     </g>
    </g>
    <g id="xtick_61">
     <g id="line2d_105">
      <g>
       <use style="stroke:#000000;stroke-width:0.4;" x="333.120562" xlink:href="#m27a03c5d9b" y="108.27988"/>
      </g>
     </g>
    </g>
    <g id="xtick_62">
     <g id="line2d_106">
      <g>
       <use style="stroke:#000000;stroke-width:0.4;" x="333.974855" xlink:href="#m27a03c5d9b" y="108.27988"/>
      </g>
     </g>
    </g>
    <g id="xtick_63">
     <g id="line2d_107">
      <g>
       <use style="stroke:#000000;stroke-width:0.4;" x="356.467435" xlink:href="#m27a03c5d9b" y="108.27988"/>
      </g>
     </g>
    </g>
    <g id="xtick_64">
     <g id="line2d_108">
      <g>
       <use style="stroke:#000000;stroke-width:0.4;" x="359.40832" xlink:href="#m27a03c5d9b" y="108.27988"/>
      </g>
     </g>
    </g>
    <g id="xtick_65">
     <g id="line2d_109">
      <g>
       <use style="stroke:#000000;stroke-width:0.4;" x="361.49491" xlink:href="#m27a03c5d9b" y="108.27988"/>
      </g>
     </g>
    </g>
    <g id="xtick_66">
     <g id="line2d_110">
      <g>
       <use style="stroke:#000000;stroke-width:0.4;" x="363.113396" xlink:href="#m27a03c5d9b" y="108.27988"/>
      </g>
     </g>
    </g>
    <g id="xtick_67">
     <g id="line2d_111">
      <g>
       <use style="stroke:#000000;stroke-width:0.4;" x="364.435795" xlink:href="#m27a03c5d9b" y="108.27988"/>
      </g>
     </g>
    </g>
    <g id="xtick_68">
     <g id="line2d_112">
      <g>
       <use style="stroke:#000000;stroke-width:0.4;" x="365.553868" xlink:href="#m27a03c5d9b" y="108.27988"/>
      </g>
     </g>
    </g>
    <g id="xtick_69">
     <g id="line2d_113">
      <g>
       <use style="stroke:#000000;stroke-width:0.4;" x="366.522386" xlink:href="#m27a03c5d9b" y="108.27988"/>
      </g>
     </g>
    </g>
    <g id="xtick_70">
     <g id="line2d_114">
      <g>
       <use style="stroke:#000000;stroke-width:0.4;" x="367.37668" xlink:href="#m27a03c5d9b" y="108.27988"/>
      </g>
     </g>
    </g>
    <g id="xtick_71">
     <g id="line2d_115">
      <g>
       <use style="stroke:#000000;stroke-width:0.4;" x="389.869259" xlink:href="#m27a03c5d9b" y="108.27988"/>
      </g>
     </g>
    </g>
    <g id="xtick_72">
     <g id="line2d_116">
      <g>
       <use style="stroke:#000000;stroke-width:0.4;" x="392.810144" xlink:href="#m27a03c5d9b" y="108.27988"/>
      </g>
     </g>
    </g>
    <g id="xtick_73">
     <g id="line2d_117">
      <g>
       <use style="stroke:#000000;stroke-width:0.4;" x="394.896735" xlink:href="#m27a03c5d9b" y="108.27988"/>
      </g>
     </g>
    </g>
    <g id="xtick_74">
     <g id="line2d_118">
      <g>
       <use style="stroke:#000000;stroke-width:0.4;" x="396.51522" xlink:href="#m27a03c5d9b" y="108.27988"/>
      </g>
     </g>
    </g>
    <g id="xtick_75">
     <g id="line2d_119">
      <g>
       <use style="stroke:#000000;stroke-width:0.4;" x="397.837619" xlink:href="#m27a03c5d9b" y="108.27988"/>
      </g>
     </g>
    </g>
    <g id="xtick_76">
     <g id="line2d_120">
      <g>
       <use style="stroke:#000000;stroke-width:0.4;" x="398.955692" xlink:href="#m27a03c5d9b" y="108.27988"/>
      </g>
     </g>
    </g>
    <g id="xtick_77">
     <g id="line2d_121">
      <g>
       <use style="stroke:#000000;stroke-width:0.4;" x="399.92421" xlink:href="#m27a03c5d9b" y="108.27988"/>
      </g>
     </g>
    </g>
    <g id="xtick_78">
     <g id="line2d_122">
      <g>
       <use style="stroke:#000000;stroke-width:0.4;" x="400.778504" xlink:href="#m27a03c5d9b" y="108.27988"/>
      </g>
     </g>
    </g>
    <g id="text_24">
     <!-- ${\tau}$ (days) -->
     <g transform="translate(355.069442 130.26818)scale(0.1056 -0.1056)">
      <use transform="translate(0 0.203125)" xlink:href="#STIXNonUnicode-Italic-e1eb"/>
      <use transform="translate(46.799988 0.203125)" xlink:href="#ArialMT-20"/>
      <use transform="translate(74.583191 0.203125)" xlink:href="#ArialMT-28"/>
      <use transform="translate(107.883972 0.203125)" xlink:href="#ArialMT-64"/>
      <use transform="translate(163.499207 0.203125)" xlink:href="#ArialMT-61"/>
      <use transform="translate(219.114441 0.203125)" xlink:href="#ArialMT-79"/>
      <use transform="translate(269.114441 0.203125)" xlink:href="#ArialMT-73"/>
      <use transform="translate(319.114441 0.203125)" xlink:href="#ArialMT-29"/>
     </g>
    </g>
   </g>
   <g id="matplotlib.axis_6">
    <g id="ytick_31">
     <g id="line2d_123">
      <g>
       <use style="stroke:#000000;stroke-width:0.8;" x="324.7185" xlink:href="#ma7116c7913" y="108.27988"/>
      </g>
     </g>
     <g id="text_25">
      <!-- 0.45 -->
      <defs>
       <path d="M 9.078125 0 
L 9.078125 10.015625 
L 19.09375 10.015625 
L 19.09375 0 
z
" id="ArialMT-2e"/>
       <path d="M 4.15625 18.75 
L 13.375 19.53125 
Q 14.40625 12.796875 18.140625 9.390625 
Q 21.875 6 27.15625 6 
Q 33.5 6 37.890625 10.78125 
Q 42.28125 15.578125 42.28125 23.484375 
Q 42.28125 31 38.0625 35.34375 
Q 33.84375 39.703125 27 39.703125 
Q 22.75 39.703125 19.328125 37.765625 
Q 15.921875 35.84375 13.96875 32.765625 
L 5.71875 33.84375 
L 12.640625 70.609375 
L 48.25 70.609375 
L 48.25 62.203125 
L 19.671875 62.203125 
L 15.828125 42.96875 
Q 22.265625 47.46875 29.34375 47.46875 
Q 38.71875 47.46875 45.15625 40.96875 
Q 51.609375 34.46875 51.609375 24.265625 
Q 51.609375 14.546875 45.953125 7.46875 
Q 39.0625 -1.21875 27.15625 -1.21875 
Q 17.390625 -1.21875 11.203125 4.25 
Q 5.03125 9.71875 4.15625 18.75 
" id="ArialMT-35"/>
      </defs>
      <g transform="translate(302.536 111.71563)scale(0.096 -0.096)">
       <use xlink:href="#ArialMT-30"/>
       <use x="55.615234" xlink:href="#ArialMT-2e"/>
       <use x="83.398438" xlink:href="#ArialMT-34"/>
       <use x="139.013672" xlink:href="#ArialMT-35"/>
      </g>
     </g>
    </g>
    <g id="ytick_32">
     <g id="line2d_124">
      <g>
       <use style="stroke:#000000;stroke-width:0.8;" x="324.7185" xlink:href="#ma7116c7913" y="81.294013"/>
      </g>
     </g>
     <g id="text_26">
      <!-- 0.50 -->
      <g transform="translate(302.536 84.729763)scale(0.096 -0.096)">
       <use xlink:href="#ArialMT-30"/>
       <use x="55.615234" xlink:href="#ArialMT-2e"/>
       <use x="83.398438" xlink:href="#ArialMT-35"/>
       <use x="139.013672" xlink:href="#ArialMT-30"/>
      </g>
     </g>
    </g>
    <g id="ytick_33">
     <g id="line2d_125">
      <g>
       <use style="stroke:#000000;stroke-width:0.8;" x="324.7185" xlink:href="#ma7116c7913" y="54.308147"/>
      </g>
     </g>
     <g id="text_27">
      <!-- 0.55 -->
      <g transform="translate(302.536 57.743897)scale(0.096 -0.096)">
       <use xlink:href="#ArialMT-30"/>
       <use x="55.615234" xlink:href="#ArialMT-2e"/>
       <use x="83.398438" xlink:href="#ArialMT-35"/>
       <use x="139.013672" xlink:href="#ArialMT-35"/>
      </g>
     </g>
    </g>
    <g id="ytick_34">
     <g id="line2d_126">
      <g>
       <use style="stroke:#000000;stroke-width:0.8;" x="324.7185" xlink:href="#ma7116c7913" y="27.32228"/>
      </g>
     </g>
     <g id="text_28">
      <!-- 0.60 -->
      <g transform="translate(302.536 30.75803)scale(0.096 -0.096)">
       <use xlink:href="#ArialMT-30"/>
       <use x="55.615234" xlink:href="#ArialMT-2e"/>
       <use x="83.398438" xlink:href="#ArialMT-36"/>
       <use x="139.013672" xlink:href="#ArialMT-30"/>
      </g>
     </g>
    </g>
    <g id="text_29">
     <!-- gini coefficient -->
     <defs>
      <path d="M 4.984375 -4.296875 
L 13.53125 -5.5625 
Q 14.0625 -9.515625 16.5 -11.328125 
Q 19.78125 -13.765625 25.4375 -13.765625 
Q 31.546875 -13.765625 34.859375 -11.328125 
Q 38.1875 -8.890625 39.359375 -4.5 
Q 40.046875 -1.8125 39.984375 6.78125 
Q 34.234375 0 25.640625 0 
Q 14.9375 0 9.078125 7.71875 
Q 3.21875 15.4375 3.21875 26.21875 
Q 3.21875 33.640625 5.90625 39.90625 
Q 8.59375 46.1875 13.6875 49.609375 
Q 18.796875 53.03125 25.6875 53.03125 
Q 34.859375 53.03125 40.828125 45.609375 
L 40.828125 51.859375 
L 48.921875 51.859375 
L 48.921875 7.03125 
Q 48.921875 -5.078125 46.453125 -10.125 
Q 44 -15.1875 38.640625 -18.109375 
Q 33.296875 -21.046875 25.484375 -21.046875 
Q 16.21875 -21.046875 10.5 -16.875 
Q 4.78125 -12.703125 4.984375 -4.296875 
M 12.25 26.859375 
Q 12.25 16.65625 16.296875 11.96875 
Q 20.359375 7.28125 26.46875 7.28125 
Q 32.515625 7.28125 36.609375 11.9375 
Q 40.71875 16.609375 40.71875 26.5625 
Q 40.71875 36.078125 36.5 40.90625 
Q 32.28125 45.75 26.3125 45.75 
Q 20.453125 45.75 16.34375 40.984375 
Q 12.25 36.234375 12.25 26.859375 
" id="ArialMT-67"/>
     </defs>
     <g transform="translate(299.31345 101.257305)rotate(-90)scale(0.1056 -0.1056)">
      <use xlink:href="#ArialMT-67"/>
      <use x="55.615234" xlink:href="#ArialMT-69"/>
      <use x="77.832031" xlink:href="#ArialMT-6e"/>
      <use x="133.447266" xlink:href="#ArialMT-69"/>
      <use x="155.664062" xlink:href="#ArialMT-20"/>
      <use x="183.447266" xlink:href="#ArialMT-63"/>
      <use x="233.447266" xlink:href="#ArialMT-6f"/>
      <use x="289.0625" xlink:href="#ArialMT-65"/>
      <use x="344.677734" xlink:href="#ArialMT-66"/>
      <use x="372.445312" xlink:href="#ArialMT-66"/>
      <use x="400.228516" xlink:href="#ArialMT-69"/>
      <use x="422.445312" xlink:href="#ArialMT-63"/>
      <use x="472.445312" xlink:href="#ArialMT-69"/>
      <use x="494.662109" xlink:href="#ArialMT-65"/>
      <use x="550.277344" xlink:href="#ArialMT-6e"/>
      <use x="605.892578" xlink:href="#ArialMT-74"/>
     </g>
    </g>
   </g>
   <g id="PolyCollection_5">
    <defs>
     <path d="M 329.172077 -42.114841 
L 329.172077 -44.285561 
L 334.739047 -45.429996 
L 340.306018 -46.006014 
L 345.872989 -44.236247 
L 351.439959 -44.759804 
L 357.00693 -46.923522 
L 362.573901 -45.45274 
L 368.140872 -44.273986 
L 373.707842 -44.664537 
L 379.274813 -44.531433 
L 384.841784 -45.168104 
L 390.408754 -44.093558 
L 395.975725 -45.087436 
L 401.542696 -44.551184 
L 407.109667 -42.009589 
L 412.676637 -40.679603 
L 418.243608 -83.145046 
L 418.243608 -79.878896 
L 418.243608 -79.878896 
L 412.676637 -37.610901 
L 407.109667 -39.126226 
L 401.542696 -41.664941 
L 395.975725 -40.808719 
L 390.408754 -41.231653 
L 384.841784 -42.483076 
L 379.274813 -42.620536 
L 373.707842 -42.451881 
L 368.140872 -41.848643 
L 362.573901 -42.972654 
L 357.00693 -42.062463 
L 351.439959 -42.1722 
L 345.872989 -42.804067 
L 340.306018 -42.12103 
L 334.739047 -41.809323 
L 329.172077 -42.114841 
z
" id="ma6698073d0" style="stroke:#ff0000;stroke-opacity:0.2;stroke-width:0.24;"/>
    </defs>
    <g clip-path="url(#p646cedd2e3)">
     <use style="fill:#ff0000;fill-opacity:0.2;stroke:#ff0000;stroke-opacity:0.2;stroke-width:0.24;" x="0" xlink:href="#ma6698073d0" y="139.79138"/>
    </g>
   </g>
   <g id="PolyCollection_6">
    <defs>
     <path d="M 329.172077 -46.412262 
L 329.172077 -50.055937 
L 334.739047 -50.607203 
L 340.306018 -49.898683 
L 345.872989 -49.962023 
L 351.439959 -48.855698 
L 357.00693 -50.607345 
L 362.573901 -49.154829 
L 368.140872 -50.38532 
L 373.707842 -49.530138 
L 379.274813 -50.665081 
L 384.841784 -49.054402 
L 390.408754 -48.310151 
L 395.975725 -48.709054 
L 401.542696 -48.997435 
L 407.109667 -48.57522 
L 412.676637 -45.424944 
L 418.243608 -108.032723 
L 418.243608 -102.958265 
L 418.243608 -102.958265 
L 412.676637 -42.058456 
L 407.109667 -43.794832 
L 401.542696 -46.697957 
L 395.975725 -46.504771 
L 390.408754 -44.470996 
L 384.841784 -46.683756 
L 379.274813 -45.886898 
L 373.707842 -46.198346 
L 368.140872 -46.442141 
L 362.573901 -46.149447 
L 357.00693 -47.865062 
L 351.439959 -46.228809 
L 345.872989 -47.081434 
L 340.306018 -46.447086 
L 334.739047 -47.151898 
L 329.172077 -46.412262 
z
" id="m7b0e34e0d2" style="stroke:#008000;stroke-opacity:0.2;stroke-width:0.24;"/>
    </defs>
    <g clip-path="url(#p646cedd2e3)">
     <use style="fill:#008000;fill-opacity:0.2;stroke:#008000;stroke-opacity:0.2;stroke-width:0.24;" x="0" xlink:href="#m7b0e34e0d2" y="139.79138"/>
    </g>
   </g>
   <g id="PolyCollection_7">
    <defs>
     <path d="M 329.172077 -46.834035 
L 329.172077 -51.497421 
L 334.739047 -53.12277 
L 340.306018 -53.148047 
L 345.872989 -53.487847 
L 351.439959 -51.505005 
L 357.00693 -52.358348 
L 362.573901 -51.727134 
L 368.140872 -51.38934 
L 373.707842 -51.792588 
L 379.274813 -52.521144 
L 384.841784 -51.77072 
L 390.408754 -51.35588 
L 395.975725 -50.845841 
L 401.542696 -50.948716 
L 407.109667 -51.36375 
L 412.676637 -46.696274 
L 418.243608 -124.600331 
L 418.243608 -118.972421 
L 418.243608 -118.972421 
L 412.676637 -45.460895 
L 407.109667 -48.232873 
L 401.542696 -46.818366 
L 395.975725 -48.95073 
L 390.408754 -48.078667 
L 384.841784 -47.866982 
L 379.274813 -48.61698 
L 373.707842 -47.899354 
L 368.140872 -48.545427 
L 362.573901 -48.855547 
L 357.00693 -47.995448 
L 351.439959 -48.77917 
L 345.872989 -47.903263 
L 340.306018 -48.368172 
L 334.739047 -48.98365 
L 329.172077 -46.834035 
z
" id="m217fade860" style="stroke:#bfbf00;stroke-opacity:0.2;stroke-width:0.24;"/>
    </defs>
    <g clip-path="url(#p646cedd2e3)">
     <use style="fill:#bfbf00;fill-opacity:0.2;stroke:#bfbf00;stroke-opacity:0.2;stroke-width:0.24;" x="0" xlink:href="#m217fade860" y="139.79138"/>
    </g>
   </g>
   <g id="line2d_127">
    <path clip-path="url(#p646cedd2e3)" d="M 329.172077 96.591179 
L 334.739047 96.17172 
L 340.306018 95.727858 
L 345.872989 96.271223 
L 351.439959 96.325378 
L 357.00693 95.298388 
L 362.573901 95.578683 
L 368.140872 96.730065 
L 373.707842 96.233171 
L 379.274813 96.215395 
L 384.841784 95.96579 
L 390.408754 97.128775 
L 395.975725 96.843303 
L 401.542696 96.683317 
L 407.109667 99.223472 
L 412.676637 100.646128 
L 418.243608 58.279409 
" style="fill:none;stroke:#ff0000;stroke-linecap:round;stroke-width:1.25;"/>
    <g clip-path="url(#p646cedd2e3)">
     <use style="fill:#ff0000;" x="329.172077" xlink:href="#mea6713369f" y="96.591179"/>
     <use style="fill:#ff0000;" x="334.739047" xlink:href="#mea6713369f" y="96.17172"/>
     <use style="fill:#ff0000;" x="340.306018" xlink:href="#mea6713369f" y="95.727858"/>
     <use style="fill:#ff0000;" x="345.872989" xlink:href="#mea6713369f" y="96.271223"/>
     <use style="fill:#ff0000;" x="351.439959" xlink:href="#mea6713369f" y="96.325378"/>
     <use style="fill:#ff0000;" x="357.00693" xlink:href="#mea6713369f" y="95.298388"/>
     <use style="fill:#ff0000;" x="362.573901" xlink:href="#mea6713369f" y="95.578683"/>
     <use style="fill:#ff0000;" x="368.140872" xlink:href="#mea6713369f" y="96.730065"/>
     <use style="fill:#ff0000;" x="373.707842" xlink:href="#mea6713369f" y="96.233171"/>
     <use style="fill:#ff0000;" x="379.274813" xlink:href="#mea6713369f" y="96.215395"/>
     <use style="fill:#ff0000;" x="384.841784" xlink:href="#mea6713369f" y="95.96579"/>
     <use style="fill:#ff0000;" x="390.408754" xlink:href="#mea6713369f" y="97.128775"/>
     <use style="fill:#ff0000;" x="395.975725" xlink:href="#mea6713369f" y="96.843303"/>
     <use style="fill:#ff0000;" x="401.542696" xlink:href="#mea6713369f" y="96.683317"/>
     <use style="fill:#ff0000;" x="407.109667" xlink:href="#mea6713369f" y="99.223472"/>
     <use style="fill:#ff0000;" x="412.676637" xlink:href="#mea6713369f" y="100.646128"/>
     <use style="fill:#ff0000;" x="418.243608" xlink:href="#mea6713369f" y="58.279409"/>
    </g>
   </g>
   <g id="line2d_128">
    <path clip-path="url(#p646cedd2e3)" d="M 363.113396 108.27988 
L 363.113396 27.32228 
" style="fill:none;stroke:#000000;stroke-dasharray:2.2,2.2;stroke-dashoffset:0;stroke-width:1.25;"/>
   </g>
   <g id="line2d_129">
    <path clip-path="url(#p646cedd2e3)" d="M 329.172077 91.557281 
L 334.739047 90.911829 
L 340.306018 91.618496 
L 345.872989 91.269651 
L 351.439959 92.249126 
L 357.00693 90.555176 
L 362.573901 92.139242 
L 368.140872 91.377649 
L 373.707842 91.927138 
L 379.274813 91.515391 
L 384.841784 91.922301 
L 390.408754 93.400806 
L 395.975725 92.184468 
L 401.542696 91.943684 
L 407.109667 93.606354 
L 412.676637 96.04968 
L 418.243608 34.295886 
" style="fill:none;stroke:#008000;stroke-linecap:round;stroke-width:1.25;"/>
    <g clip-path="url(#p646cedd2e3)">
     <use style="fill:#008000;" x="329.172077" xlink:href="#md7a78b3cbf" y="91.557281"/>
     <use style="fill:#008000;" x="334.739047" xlink:href="#md7a78b3cbf" y="90.911829"/>
     <use style="fill:#008000;" x="340.306018" xlink:href="#md7a78b3cbf" y="91.618496"/>
     <use style="fill:#008000;" x="345.872989" xlink:href="#md7a78b3cbf" y="91.269651"/>
     <use style="fill:#008000;" x="351.439959" xlink:href="#md7a78b3cbf" y="92.249126"/>
     <use style="fill:#008000;" x="357.00693" xlink:href="#md7a78b3cbf" y="90.555176"/>
     <use style="fill:#008000;" x="362.573901" xlink:href="#md7a78b3cbf" y="92.139242"/>
     <use style="fill:#008000;" x="368.140872" xlink:href="#md7a78b3cbf" y="91.377649"/>
     <use style="fill:#008000;" x="373.707842" xlink:href="#md7a78b3cbf" y="91.927138"/>
     <use style="fill:#008000;" x="379.274813" xlink:href="#md7a78b3cbf" y="91.515391"/>
     <use style="fill:#008000;" x="384.841784" xlink:href="#md7a78b3cbf" y="91.922301"/>
     <use style="fill:#008000;" x="390.408754" xlink:href="#md7a78b3cbf" y="93.400806"/>
     <use style="fill:#008000;" x="395.975725" xlink:href="#md7a78b3cbf" y="92.184468"/>
     <use style="fill:#008000;" x="401.542696" xlink:href="#md7a78b3cbf" y="91.943684"/>
     <use style="fill:#008000;" x="407.109667" xlink:href="#md7a78b3cbf" y="93.606354"/>
     <use style="fill:#008000;" x="412.676637" xlink:href="#md7a78b3cbf" y="96.04968"/>
     <use style="fill:#008000;" x="418.243608" xlink:href="#md7a78b3cbf" y="34.295886"/>
    </g>
   </g>
   <g id="line2d_130">
    <path clip-path="url(#p646cedd2e3)" d="M 363.113396 108.27988 
L 363.113396 27.32228 
" style="fill:none;stroke:#000000;stroke-dasharray:2.2,2.2;stroke-dashoffset:0;stroke-width:1.25;"/>
   </g>
   <g id="line2d_131">
    <path clip-path="url(#p646cedd2e3)" d="M 329.172077 90.625652 
L 334.739047 88.73817 
L 340.306018 89.03327 
L 345.872989 89.095825 
L 351.439959 89.649292 
L 357.00693 89.614482 
L 362.573901 89.500039 
L 368.140872 89.823996 
L 373.707842 89.945409 
L 379.274813 89.222318 
L 384.841784 89.972529 
L 390.408754 90.074106 
L 395.975725 89.893094 
L 401.542696 90.907839 
L 407.109667 89.993069 
L 412.676637 93.712795 
L 418.243608 18.005004 
" style="fill:none;stroke:#bfbf00;stroke-linecap:round;stroke-width:1.25;"/>
    <g clip-path="url(#p646cedd2e3)">
     <use style="fill:#bfbf00;" x="329.172077" xlink:href="#m75e4707cdd" y="90.625652"/>
     <use style="fill:#bfbf00;" x="334.739047" xlink:href="#m75e4707cdd" y="88.73817"/>
     <use style="fill:#bfbf00;" x="340.306018" xlink:href="#m75e4707cdd" y="89.03327"/>
     <use style="fill:#bfbf00;" x="345.872989" xlink:href="#m75e4707cdd" y="89.095825"/>
     <use style="fill:#bfbf00;" x="351.439959" xlink:href="#m75e4707cdd" y="89.649292"/>
     <use style="fill:#bfbf00;" x="357.00693" xlink:href="#m75e4707cdd" y="89.614482"/>
     <use style="fill:#bfbf00;" x="362.573901" xlink:href="#m75e4707cdd" y="89.500039"/>
     <use style="fill:#bfbf00;" x="368.140872" xlink:href="#m75e4707cdd" y="89.823996"/>
     <use style="fill:#bfbf00;" x="373.707842" xlink:href="#m75e4707cdd" y="89.945409"/>
     <use style="fill:#bfbf00;" x="379.274813" xlink:href="#m75e4707cdd" y="89.222318"/>
     <use style="fill:#bfbf00;" x="384.841784" xlink:href="#m75e4707cdd" y="89.972529"/>
     <use style="fill:#bfbf00;" x="390.408754" xlink:href="#m75e4707cdd" y="90.074106"/>
     <use style="fill:#bfbf00;" x="395.975725" xlink:href="#m75e4707cdd" y="89.893094"/>
     <use style="fill:#bfbf00;" x="401.542696" xlink:href="#m75e4707cdd" y="90.907839"/>
     <use style="fill:#bfbf00;" x="407.109667" xlink:href="#m75e4707cdd" y="89.993069"/>
     <use style="fill:#bfbf00;" x="412.676637" xlink:href="#m75e4707cdd" y="93.712795"/>
     <use style="fill:#bfbf00;" x="418.243608" xlink:href="#m75e4707cdd" y="18.005004"/>
    </g>
   </g>
   <g id="line2d_132">
    <path clip-path="url(#p646cedd2e3)" d="M 363.113396 108.27988 
L 363.113396 27.32228 
" style="fill:none;stroke:#000000;stroke-dasharray:2.2,2.2;stroke-dashoffset:0;stroke-width:1.25;"/>
   </g>
   <g id="patch_9">
    <path d="M 324.7185 108.27988 
L 324.7185 27.32228 
" style="fill:none;stroke:#000000;stroke-linecap:square;stroke-linejoin:miter;stroke-width:0.8;"/>
   </g>
   <g id="patch_10">
    <path d="M 324.7185 108.27988 
L 422.697184 108.27988 
" style="fill:none;stroke:#000000;stroke-linecap:square;stroke-linejoin:miter;stroke-width:0.8;"/>
   </g>
   <g id="legend_2">
    <g id="line2d_133">
     <path d="M 322.417632 13.578958 
L 334.912632 13.578958 
" style="fill:none;stroke:#ff0000;stroke-linecap:round;stroke-width:1.25;"/>
    </g>
    <g id="line2d_134">
     <g>
      <use style="fill:#ff0000;" x="328.665132" xlink:href="#mea6713369f" y="13.578958"/>
     </g>
    </g>
    <g id="text_30">
     <!-- P10 -->
     <g transform="translate(337.411632 16.494458)scale(0.0833 -0.0833)">
      <use xlink:href="#ArialMT-50"/>
      <use x="66.699219" xlink:href="#ArialMT-31"/>
      <use x="122.314453" xlink:href="#ArialMT-30"/>
     </g>
    </g>
    <g id="line2d_135">
     <path d="M 356.397524 13.578958 
L 368.892524 13.578958 
" style="fill:none;stroke:#008000;stroke-linecap:round;stroke-width:1.25;"/>
    </g>
    <g id="line2d_136">
     <g>
      <use style="fill:#008000;" x="362.645024" xlink:href="#md7a78b3cbf" y="13.578958"/>
     </g>
    </g>
    <g id="text_31">
     <!-- P20 -->
     <g transform="translate(371.391524 16.494458)scale(0.0833 -0.0833)">
      <use xlink:href="#ArialMT-50"/>
      <use x="66.699219" xlink:href="#ArialMT-32"/>
      <use x="122.314453" xlink:href="#ArialMT-30"/>
     </g>
    </g>
    <g id="line2d_137">
     <path d="M 390.377416 13.578958 
L 402.872416 13.578958 
" style="fill:none;stroke:#bfbf00;stroke-linecap:round;stroke-width:1.25;"/>
    </g>
    <g id="line2d_138">
     <g>
      <use style="fill:#bfbf00;" x="396.624916" xlink:href="#m75e4707cdd" y="13.578958"/>
     </g>
    </g>
    <g id="text_32">
     <!-- P30 -->
     <g transform="translate(405.371416 16.494458)scale(0.0833 -0.0833)">
      <use xlink:href="#ArialMT-50"/>
      <use x="66.699219" xlink:href="#ArialMT-33"/>
      <use x="122.314453" xlink:href="#ArialMT-30"/>
     </g>
    </g>
   </g>
  </g>
 </g>
 <defs>
  <clipPath id="p7f12625aac">
   <rect height="80.9576" width="97.978684" x="34.9539" y="27.32228"/>
  </clipPath>
  <clipPath id="p1139a9bec1">
   <rect height="80.9576" width="97.978684" x="179.8362" y="27.32228"/>
  </clipPath>
  <clipPath id="p646cedd2e3">
   <rect height="80.9576" width="97.978684" x="324.7185" y="27.32228"/>
  </clipPath>
 </defs>
</svg>
