<?xml version="1.0" encoding="utf-8" standalone="no"?>
<!DOCTYPE svg PUBLIC "-//W3C//DTD SVG 1.1//EN"
  "http://www.w3.org/Graphics/SVG/1.1/DTD/svg11.dtd">
<!-- Created with matplotlib (http://matplotlib.org/) -->
<svg height="195pt" version="1.1" viewBox="0 0 437 195" width="437pt" xmlns="http://www.w3.org/2000/svg" xmlns:xlink="http://www.w3.org/1999/xlink">
 <defs>
  <style type="text/css">
*{stroke-linecap:butt;stroke-linejoin:round;}
  </style>
 </defs>
 <g id="figure_1">
  <g id="patch_1">
   <path d="M 0 195.4071 
L 437.109553 195.4071 
L 437.109553 0 
L 0 0 
z
" style="fill:none;"/>
  </g>
  <g id="axes_1">
   <g id="patch_2">
    <path d="M 34.70145 68.32295 
L 137.040634 68.32295 
L 137.040634 10.63575 
L 34.70145 10.63575 
z
" style="fill:none;"/>
   </g>
   <g id="matplotlib.axis_1">
    <g id="xtick_1">
     <g id="line2d_1">
      <defs>
       <path d="M 0 0 
L 0 2.5 
" id="m09c29a37c8" style="stroke:#000000;stroke-width:0.8;"/>
      </defs>
      <g>
       <use style="stroke:#000000;stroke-width:0.8;" x="39.353231" xlink:href="#m09c29a37c8" y="68.32295"/>
      </g>
     </g>
     <g id="text_1">
      <!-- 0.0 -->
      <defs>
       <path d="M 4.15625 35.296875 
Q 4.15625 48 6.765625 55.734375 
Q 9.375 63.484375 14.515625 67.671875 
Q 19.671875 71.875 27.484375 71.875 
Q 33.25 71.875 37.59375 69.546875 
Q 41.9375 67.234375 44.765625 62.859375 
Q 47.609375 58.5 49.21875 52.21875 
Q 50.828125 45.953125 50.828125 35.296875 
Q 50.828125 22.703125 48.234375 14.96875 
Q 45.65625 7.234375 40.5 3 
Q 35.359375 -1.21875 27.484375 -1.21875 
Q 17.140625 -1.21875 11.234375 6.203125 
Q 4.15625 15.140625 4.15625 35.296875 
M 13.1875 35.296875 
Q 13.1875 17.671875 17.3125 11.828125 
Q 21.4375 6 27.484375 6 
Q 33.546875 6 37.671875 11.859375 
Q 41.796875 17.71875 41.796875 35.296875 
Q 41.796875 52.984375 37.671875 58.78125 
Q 33.546875 64.59375 27.390625 64.59375 
Q 21.34375 64.59375 17.71875 59.46875 
Q 13.1875 52.9375 13.1875 35.296875 
" id="ArialMT-30"/>
       <path d="M 9.078125 0 
L 9.078125 10.015625 
L 19.09375 10.015625 
L 19.09375 0 
z
" id="ArialMT-2e"/>
      </defs>
      <g transform="translate(32.681231 79.69445)scale(0.096 -0.096)">
       <use xlink:href="#ArialMT-30"/>
       <use x="55.615234" xlink:href="#ArialMT-2e"/>
       <use x="83.398438" xlink:href="#ArialMT-30"/>
      </g>
     </g>
    </g>
    <g id="xtick_2">
     <g id="line2d_2">
      <g>
       <use style="stroke:#000000;stroke-width:0.8;" x="85.871042" xlink:href="#m09c29a37c8" y="68.32295"/>
      </g>
     </g>
     <g id="text_2">
      <!-- 0.1 -->
      <defs>
       <path d="M 37.25 0 
L 28.46875 0 
L 28.46875 56 
Q 25.296875 52.984375 20.140625 49.953125 
Q 14.984375 46.921875 10.890625 45.40625 
L 10.890625 53.90625 
Q 18.265625 57.375 23.78125 62.296875 
Q 29.296875 67.234375 31.59375 71.875 
L 37.25 71.875 
z
" id="ArialMT-31"/>
      </defs>
      <g transform="translate(79.199042 79.69445)scale(0.096 -0.096)">
       <use xlink:href="#ArialMT-30"/>
       <use x="55.615234" xlink:href="#ArialMT-2e"/>
       <use x="83.398438" xlink:href="#ArialMT-31"/>
      </g>
     </g>
    </g>
    <g id="xtick_3">
     <g id="line2d_3">
      <g>
       <use style="stroke:#000000;stroke-width:0.8;" x="132.388853" xlink:href="#m09c29a37c8" y="68.32295"/>
      </g>
     </g>
     <g id="text_3">
      <!-- 0.2 -->
      <defs>
       <path d="M 50.34375 8.453125 
L 50.34375 0 
L 3.03125 0 
Q 2.9375 3.171875 4.046875 6.109375 
Q 5.859375 10.9375 9.828125 15.625 
Q 13.8125 20.3125 21.34375 26.46875 
Q 33.015625 36.03125 37.109375 41.625 
Q 41.21875 47.21875 41.21875 52.203125 
Q 41.21875 57.421875 37.46875 61 
Q 33.734375 64.59375 27.734375 64.59375 
Q 21.390625 64.59375 17.578125 60.78125 
Q 13.765625 56.984375 13.71875 50.25 
L 4.6875 51.171875 
Q 5.609375 61.28125 11.65625 66.578125 
Q 17.71875 71.875 27.9375 71.875 
Q 38.234375 71.875 44.234375 66.15625 
Q 50.25 60.453125 50.25 52 
Q 50.25 47.703125 48.484375 43.546875 
Q 46.734375 39.40625 42.65625 34.8125 
Q 38.578125 30.21875 29.109375 22.21875 
Q 21.1875 15.578125 18.9375 13.203125 
Q 16.703125 10.84375 15.234375 8.453125 
z
" id="ArialMT-32"/>
      </defs>
      <g transform="translate(125.716853 79.69445)scale(0.096 -0.096)">
       <use xlink:href="#ArialMT-30"/>
       <use x="55.615234" xlink:href="#ArialMT-2e"/>
       <use x="83.398438" xlink:href="#ArialMT-32"/>
      </g>
     </g>
    </g>
    <g id="text_4">
     <!-- $\sigma _r$ -->
     <defs>
      <path d="M 62.5 45.296875 
L 60.796875 38.203125 
L 43.5 38.203125 
Q 49.203125 33.203125 49.203125 25.59375 
Q 49.203125 21.5 47.34375 17 
Q 45.5 12.5 42.140625 8.390625 
Q 38.796875 4.296875 33.390625 1.640625 
Q 28 -1 21.59375 -1 
Q 13.703125 -1 9.09375 3.546875 
Q 4.5 8.09375 4.5 15.59375 
Q 4.5 21.203125 7.046875 27.09375 
Q 9.59375 33 13.296875 36.703125 
Q 17.59375 41 23 43.140625 
Q 28.40625 45.296875 33 45.296875 
z
M 41.09375 23.703125 
Q 41.09375 28.796875 37.9375 32.5 
Q 34.796875 36.203125 30.59375 38.203125 
Q 23 38.203125 17.890625 31.953125 
Q 12.796875 25.703125 12.796875 17.703125 
Q 12.796875 12.40625 15.640625 9.25 
Q 18.5 6.09375 23.5 6.09375 
Q 31.296875 6.09375 36.1875 11.6875 
Q 41.09375 17.296875 41.09375 23.703125 
" id="STIXNonUnicode-Italic-e1ea"/>
      <path d="M 43.90625 44.703125 
L 42.09375 37.703125 
L 40.09375 37.703125 
Q 39.796875 38.40625 38.59375 38.796875 
Q 37.40625 39.203125 36.59375 39.203125 
Q 32.296875 39.203125 27.890625 35 
Q 23.5 30.796875 20 23.40625 
L 14.203125 0 
L 6.296875 0 
L 17.203125 44 
L 24.796875 46.40625 
L 25.59375 45.90625 
L 24.203125 39.5 
Q 30.59375 46.296875 38.59375 46.296875 
Q 42.296875 46.296875 43.90625 44.703125 
" id="STIXGeneral-Italic-1d633"/>
     </defs>
     <g transform="translate(81.224642 90.1611)scale(0.1056 -0.1056)">
      <use transform="translate(0 0.703125)" xlink:href="#STIXNonUnicode-Italic-e1ea"/>
      <use transform="translate(61.492692 -12.885937)scale(0.7)" xlink:href="#STIXGeneral-Italic-1d633"/>
     </g>
    </g>
   </g>
   <g id="matplotlib.axis_2">
    <g id="ytick_1">
     <g id="line2d_4">
      <defs>
       <path d="M 0 0 
L -2.5 0 
" id="mf2a53761f6" style="stroke:#000000;stroke-width:0.8;"/>
      </defs>
      <g>
       <use style="stroke:#000000;stroke-width:0.8;" x="34.70145" xlink:href="#mf2a53761f6" y="68.32295"/>
      </g>
     </g>
     <g id="text_5">
      <!-- 0 -->
      <g transform="translate(25.86295 71.7587)scale(0.096 -0.096)">
       <use xlink:href="#ArialMT-30"/>
      </g>
     </g>
    </g>
    <g id="ytick_2">
     <g id="line2d_5">
      <g>
       <use style="stroke:#000000;stroke-width:0.8;" x="34.70145" xlink:href="#mf2a53761f6" y="53.90115"/>
      </g>
     </g>
     <g id="text_6">
      <!-- 20 -->
      <g transform="translate(20.52445 57.3369)scale(0.096 -0.096)">
       <use xlink:href="#ArialMT-32"/>
       <use x="55.615234" xlink:href="#ArialMT-30"/>
      </g>
     </g>
    </g>
    <g id="ytick_3">
     <g id="line2d_6">
      <g>
       <use style="stroke:#000000;stroke-width:0.8;" x="34.70145" xlink:href="#mf2a53761f6" y="39.47935"/>
      </g>
     </g>
     <g id="text_7">
      <!-- 40 -->
      <defs>
       <path d="M 32.328125 0 
L 32.328125 17.140625 
L 1.265625 17.140625 
L 1.265625 25.203125 
L 33.9375 71.578125 
L 41.109375 71.578125 
L 41.109375 25.203125 
L 50.78125 25.203125 
L 50.78125 17.140625 
L 41.109375 17.140625 
L 41.109375 0 
z
M 32.328125 25.203125 
L 32.328125 57.46875 
L 9.90625 25.203125 
z
" id="ArialMT-34"/>
      </defs>
      <g transform="translate(20.52445 42.9151)scale(0.096 -0.096)">
       <use xlink:href="#ArialMT-34"/>
       <use x="55.615234" xlink:href="#ArialMT-30"/>
      </g>
     </g>
    </g>
    <g id="ytick_4">
     <g id="line2d_7">
      <g>
       <use style="stroke:#000000;stroke-width:0.8;" x="34.70145" xlink:href="#mf2a53761f6" y="25.05755"/>
      </g>
     </g>
     <g id="text_8">
      <!-- 60 -->
      <defs>
       <path d="M 49.75 54.046875 
L 41.015625 53.375 
Q 39.84375 58.546875 37.703125 60.890625 
Q 34.125 64.65625 28.90625 64.65625 
Q 24.703125 64.65625 21.53125 62.3125 
Q 17.390625 59.28125 14.984375 53.46875 
Q 12.59375 47.65625 12.5 36.921875 
Q 15.671875 41.75 20.265625 44.09375 
Q 24.859375 46.4375 29.890625 46.4375 
Q 38.671875 46.4375 44.84375 39.96875 
Q 51.03125 33.5 51.03125 23.25 
Q 51.03125 16.5 48.125 10.71875 
Q 45.21875 4.9375 40.140625 1.859375 
Q 35.0625 -1.21875 28.609375 -1.21875 
Q 17.625 -1.21875 10.6875 6.859375 
Q 3.765625 14.9375 3.765625 33.5 
Q 3.765625 54.25 11.421875 63.671875 
Q 18.109375 71.875 29.4375 71.875 
Q 37.890625 71.875 43.28125 67.140625 
Q 48.6875 62.40625 49.75 54.046875 
M 13.875 23.1875 
Q 13.875 18.65625 15.796875 14.5 
Q 17.71875 10.359375 21.1875 8.171875 
Q 24.65625 6 28.46875 6 
Q 34.03125 6 38.03125 10.484375 
Q 42.046875 14.984375 42.046875 22.703125 
Q 42.046875 30.125 38.078125 34.390625 
Q 34.125 38.671875 28.125 38.671875 
Q 22.171875 38.671875 18.015625 34.390625 
Q 13.875 30.125 13.875 23.1875 
" id="ArialMT-36"/>
      </defs>
      <g transform="translate(20.52445 28.4933)scale(0.096 -0.096)">
       <use xlink:href="#ArialMT-36"/>
       <use x="55.615234" xlink:href="#ArialMT-30"/>
      </g>
     </g>
    </g>
    <g id="ytick_5">
     <g id="line2d_8">
      <g>
       <use style="stroke:#000000;stroke-width:0.8;" x="34.70145" xlink:href="#mf2a53761f6" y="10.63575"/>
      </g>
     </g>
     <g id="text_9">
      <!-- 80 -->
      <defs>
       <path d="M 17.671875 38.8125 
Q 12.203125 40.828125 9.5625 44.53125 
Q 6.9375 48.25 6.9375 53.421875 
Q 6.9375 61.234375 12.546875 66.546875 
Q 18.171875 71.875 27.484375 71.875 
Q 36.859375 71.875 42.578125 66.421875 
Q 48.296875 60.984375 48.296875 53.171875 
Q 48.296875 48.1875 45.671875 44.5 
Q 43.0625 40.828125 37.75 38.8125 
Q 44.34375 36.671875 47.78125 31.875 
Q 51.21875 27.09375 51.21875 20.453125 
Q 51.21875 11.28125 44.71875 5.03125 
Q 38.234375 -1.21875 27.640625 -1.21875 
Q 17.046875 -1.21875 10.546875 5.046875 
Q 4.046875 11.328125 4.046875 20.703125 
Q 4.046875 27.6875 7.59375 32.390625 
Q 11.140625 37.109375 17.671875 38.8125 
M 15.921875 53.71875 
Q 15.921875 48.640625 19.1875 45.40625 
Q 22.46875 42.1875 27.6875 42.1875 
Q 32.765625 42.1875 36.015625 45.375 
Q 39.265625 48.578125 39.265625 53.21875 
Q 39.265625 58.0625 35.90625 61.359375 
Q 32.5625 64.65625 27.59375 64.65625 
Q 22.5625 64.65625 19.234375 61.421875 
Q 15.921875 58.203125 15.921875 53.71875 
M 13.09375 20.65625 
Q 13.09375 16.890625 14.875 13.375 
Q 16.65625 9.859375 20.171875 7.921875 
Q 23.6875 6 27.734375 6 
Q 34.03125 6 38.125 10.046875 
Q 42.234375 14.109375 42.234375 20.359375 
Q 42.234375 26.703125 38.015625 30.859375 
Q 33.796875 35.015625 27.4375 35.015625 
Q 21.234375 35.015625 17.15625 30.90625 
Q 13.09375 26.8125 13.09375 20.65625 
" id="ArialMT-38"/>
      </defs>
      <g transform="translate(20.52445 14.0715)scale(0.096 -0.096)">
       <use xlink:href="#ArialMT-38"/>
       <use x="55.615234" xlink:href="#ArialMT-30"/>
      </g>
     </g>
    </g>
    <g id="text_10">
     <!-- % clones left -->
     <defs>
      <path d="M 5.8125 54.390625 
Q 5.8125 62.0625 9.671875 67.421875 
Q 13.53125 72.796875 20.84375 72.796875 
Q 27.59375 72.796875 32 67.984375 
Q 36.421875 63.1875 36.421875 53.859375 
Q 36.421875 44.78125 31.953125 39.875 
Q 27.484375 34.96875 20.953125 34.96875 
Q 14.453125 34.96875 10.125 39.796875 
Q 5.8125 44.625 5.8125 54.390625 
M 21.09375 66.75 
Q 17.828125 66.75 15.65625 63.90625 
Q 13.484375 61.078125 13.484375 53.515625 
Q 13.484375 46.625 15.671875 43.8125 
Q 17.875 41.015625 21.09375 41.015625 
Q 24.421875 41.015625 26.59375 43.84375 
Q 28.765625 46.6875 28.765625 54.203125 
Q 28.765625 61.140625 26.5625 63.9375 
Q 24.359375 66.75 21.09375 66.75 
M 21.140625 -2.640625 
L 60.296875 72.796875 
L 67.4375 72.796875 
L 28.421875 -2.640625 
z
M 52.09375 16.796875 
Q 52.09375 24.515625 55.953125 29.859375 
Q 59.8125 35.203125 67.1875 35.203125 
Q 73.921875 35.203125 78.34375 30.390625 
Q 82.765625 25.59375 82.765625 16.265625 
Q 82.765625 7.171875 78.296875 2.265625 
Q 73.828125 -2.640625 67.234375 -2.640625 
Q 60.75 -2.640625 56.421875 2.21875 
Q 52.09375 7.078125 52.09375 16.796875 
M 67.4375 29.15625 
Q 64.109375 29.15625 61.9375 26.3125 
Q 59.765625 23.484375 59.765625 15.921875 
Q 59.765625 9.078125 61.953125 6.25 
Q 64.15625 3.421875 67.390625 3.421875 
Q 70.75 3.421875 72.921875 6.25 
Q 75.09375 9.078125 75.09375 16.609375 
Q 75.09375 23.53125 72.890625 26.34375 
Q 70.703125 29.15625 67.4375 29.15625 
" id="ArialMT-25"/>
      <path id="ArialMT-20"/>
      <path d="M 40.4375 19 
L 49.078125 17.875 
Q 47.65625 8.9375 41.8125 3.875 
Q 35.984375 -1.171875 27.484375 -1.171875 
Q 16.84375 -1.171875 10.375 5.78125 
Q 3.90625 12.75 3.90625 25.734375 
Q 3.90625 34.125 6.6875 40.421875 
Q 9.46875 46.734375 15.15625 49.875 
Q 20.84375 53.03125 27.546875 53.03125 
Q 35.984375 53.03125 41.359375 48.75 
Q 46.734375 44.484375 48.25 36.625 
L 39.703125 35.296875 
Q 38.484375 40.53125 35.375 43.15625 
Q 32.28125 45.796875 27.875 45.796875 
Q 21.234375 45.796875 17.078125 41.03125 
Q 12.9375 36.28125 12.9375 25.984375 
Q 12.9375 15.53125 16.9375 10.796875 
Q 20.953125 6.0625 27.390625 6.0625 
Q 32.5625 6.0625 36.03125 9.234375 
Q 39.5 12.40625 40.4375 19 
" id="ArialMT-63"/>
      <path d="M 6.390625 0 
L 6.390625 71.578125 
L 15.1875 71.578125 
L 15.1875 0 
z
" id="ArialMT-6c"/>
      <path d="M 3.328125 25.921875 
Q 3.328125 40.328125 11.328125 47.265625 
Q 18.015625 53.03125 27.640625 53.03125 
Q 38.328125 53.03125 45.109375 46.015625 
Q 51.90625 39.015625 51.90625 26.65625 
Q 51.90625 16.65625 48.90625 10.90625 
Q 45.90625 5.171875 40.15625 2 
Q 34.421875 -1.171875 27.640625 -1.171875 
Q 16.75 -1.171875 10.03125 5.8125 
Q 3.328125 12.796875 3.328125 25.921875 
M 12.359375 25.921875 
Q 12.359375 15.96875 16.703125 11.015625 
Q 21.046875 6.0625 27.640625 6.0625 
Q 34.1875 6.0625 38.53125 11.03125 
Q 42.875 16.015625 42.875 26.21875 
Q 42.875 35.84375 38.5 40.796875 
Q 34.125 45.75 27.640625 45.75 
Q 21.046875 45.75 16.703125 40.8125 
Q 12.359375 35.890625 12.359375 25.921875 
" id="ArialMT-6f"/>
      <path d="M 6.59375 0 
L 6.59375 51.859375 
L 14.5 51.859375 
L 14.5 44.484375 
Q 20.21875 53.03125 31 53.03125 
Q 35.6875 53.03125 39.625 51.34375 
Q 43.5625 49.65625 45.515625 46.921875 
Q 47.46875 44.1875 48.25 40.4375 
Q 48.734375 37.984375 48.734375 31.890625 
L 48.734375 0 
L 39.9375 0 
L 39.9375 31.546875 
Q 39.9375 36.921875 38.90625 39.578125 
Q 37.890625 42.234375 35.28125 43.8125 
Q 32.671875 45.40625 29.15625 45.40625 
Q 23.53125 45.40625 19.453125 41.84375 
Q 15.375 38.28125 15.375 28.328125 
L 15.375 0 
z
" id="ArialMT-6e"/>
      <path d="M 42.09375 16.703125 
L 51.171875 15.578125 
Q 49.03125 7.625 43.21875 3.21875 
Q 37.40625 -1.171875 28.375 -1.171875 
Q 17 -1.171875 10.328125 5.828125 
Q 3.65625 12.84375 3.65625 25.484375 
Q 3.65625 38.578125 10.390625 45.796875 
Q 17.140625 53.03125 27.875 53.03125 
Q 38.28125 53.03125 44.875 45.953125 
Q 51.46875 38.875 51.46875 26.03125 
Q 51.46875 25.25 51.421875 23.6875 
L 12.75 23.6875 
Q 13.234375 15.140625 17.578125 10.59375 
Q 21.921875 6.0625 28.421875 6.0625 
Q 33.25 6.0625 36.671875 8.59375 
Q 40.09375 11.140625 42.09375 16.703125 
M 13.234375 30.90625 
L 42.1875 30.90625 
Q 41.609375 37.453125 38.875 40.71875 
Q 34.671875 45.796875 27.984375 45.796875 
Q 21.921875 45.796875 17.796875 41.75 
Q 13.671875 37.703125 13.234375 30.90625 
" id="ArialMT-65"/>
      <path d="M 3.078125 15.484375 
L 11.765625 16.84375 
Q 12.5 11.625 15.84375 8.84375 
Q 19.1875 6.0625 25.203125 6.0625 
Q 31.25 6.0625 34.171875 8.515625 
Q 37.109375 10.984375 37.109375 14.3125 
Q 37.109375 17.28125 34.515625 19 
Q 32.71875 20.171875 25.53125 21.96875 
Q 15.875 24.421875 12.140625 26.203125 
Q 8.40625 27.984375 6.46875 31.125 
Q 4.546875 34.28125 4.546875 38.09375 
Q 4.546875 41.546875 6.125 44.5 
Q 7.71875 47.46875 10.453125 49.421875 
Q 12.5 50.921875 16.03125 51.96875 
Q 19.578125 53.03125 23.640625 53.03125 
Q 29.734375 53.03125 34.34375 51.265625 
Q 38.96875 49.515625 41.15625 46.5 
Q 43.359375 43.5 44.1875 38.484375 
L 35.59375 37.3125 
Q 35.015625 41.3125 32.203125 43.546875 
Q 29.390625 45.796875 24.265625 45.796875 
Q 18.21875 45.796875 15.625 43.796875 
Q 13.03125 41.796875 13.03125 39.109375 
Q 13.03125 37.40625 14.109375 36.03125 
Q 15.1875 34.625 17.484375 33.6875 
Q 18.796875 33.203125 25.25 31.453125 
Q 34.578125 28.953125 38.25 27.359375 
Q 41.9375 25.78125 44.03125 22.75 
Q 46.140625 19.734375 46.140625 15.234375 
Q 46.140625 10.84375 43.578125 6.953125 
Q 41.015625 3.078125 36.171875 0.953125 
Q 31.34375 -1.171875 25.25 -1.171875 
Q 15.140625 -1.171875 9.84375 3.03125 
Q 4.546875 7.234375 3.078125 15.484375 
" id="ArialMT-73"/>
      <path d="M 8.6875 0 
L 8.6875 45.015625 
L 0.921875 45.015625 
L 0.921875 51.859375 
L 8.6875 51.859375 
L 8.6875 57.375 
Q 8.6875 62.59375 9.625 65.140625 
Q 10.890625 68.5625 14.078125 70.671875 
Q 17.28125 72.796875 23.046875 72.796875 
Q 26.765625 72.796875 31.25 71.921875 
L 29.9375 64.265625 
Q 27.203125 64.75 24.75 64.75 
Q 20.75 64.75 19.09375 63.03125 
Q 17.4375 61.328125 17.4375 56.640625 
L 17.4375 51.859375 
L 27.546875 51.859375 
L 27.546875 45.015625 
L 17.4375 45.015625 
L 17.4375 0 
z
" id="ArialMT-66"/>
      <path d="M 25.78125 7.859375 
L 27.046875 0.09375 
Q 23.34375 -0.6875 20.40625 -0.6875 
Q 15.625 -0.6875 12.984375 0.828125 
Q 10.359375 2.34375 9.28125 4.8125 
Q 8.203125 7.28125 8.203125 15.1875 
L 8.203125 45.015625 
L 1.765625 45.015625 
L 1.765625 51.859375 
L 8.203125 51.859375 
L 8.203125 64.703125 
L 16.9375 69.96875 
L 16.9375 51.859375 
L 25.78125 51.859375 
L 25.78125 45.015625 
L 16.9375 45.015625 
L 16.9375 14.703125 
Q 16.9375 10.9375 17.40625 9.859375 
Q 17.875 8.796875 18.921875 8.15625 
Q 19.96875 7.515625 21.921875 7.515625 
Q 23.390625 7.515625 25.78125 7.859375 
" id="ArialMT-74"/>
     </defs>
     <g transform="translate(17.42565 69.412825)rotate(-90)scale(0.1056 -0.1056)">
      <use xlink:href="#ArialMT-25"/>
      <use x="88.916016" xlink:href="#ArialMT-20"/>
      <use x="116.699219" xlink:href="#ArialMT-63"/>
      <use x="166.699219" xlink:href="#ArialMT-6c"/>
      <use x="188.916016" xlink:href="#ArialMT-6f"/>
      <use x="244.53125" xlink:href="#ArialMT-6e"/>
      <use x="300.146484" xlink:href="#ArialMT-65"/>
      <use x="355.761719" xlink:href="#ArialMT-73"/>
      <use x="405.761719" xlink:href="#ArialMT-20"/>
      <use x="433.544922" xlink:href="#ArialMT-6c"/>
      <use x="455.761719" xlink:href="#ArialMT-65"/>
      <use x="511.376953" xlink:href="#ArialMT-66"/>
      <use x="539.160156" xlink:href="#ArialMT-74"/>
     </g>
    </g>
   </g>
   <g id="PolyCollection_1">
    <defs>
     <path d="M 39.353231 -182.459209 
L 39.353231 -182.904496 
L 48.656793 -181.827455 
L 57.960356 -178.480804 
L 67.263918 -173.147548 
L 76.56748 -166.210749 
L 85.871042 -158.73054 
L 95.174604 -151.788623 
L 104.478167 -146.015825 
L 113.781729 -141.586175 
L 123.085291 -138.054803 
L 132.388853 -135.484001 
L 132.388853 -135.250632 
L 132.388853 -135.250632 
L 123.085291 -137.651586 
L 113.781729 -140.980493 
L 104.478167 -145.634808 
L 95.174604 -151.438037 
L 85.871042 -158.105372 
L 76.56748 -165.523114 
L 67.263918 -172.753344 
L 57.960356 -178.187276 
L 48.656793 -181.430056 
L 39.353231 -182.459209 
z
" id="mfa9b51d820" style="stroke:#ff0000;stroke-opacity:0.2;stroke-width:0.24;"/>
    </defs>
    <g clip-path="url(#p5e495a39b8)">
     <use style="fill:#ff0000;fill-opacity:0.2;stroke:#ff0000;stroke-opacity:0.2;stroke-width:0.24;" x="0" xlink:href="#mfa9b51d820" y="195.4071"/>
    </g>
   </g>
   <g id="PolyCollection_2">
    <defs>
     <path d="M 39.353231 -182.411908 
L 39.353231 -182.898616 
L 48.656793 -181.960237 
L 57.960356 -178.802987 
L 67.263918 -173.610981 
L 76.56748 -167.734454 
L 85.871042 -161.712434 
L 95.174604 -156.335235 
L 104.478167 -151.918003 
L 113.781729 -148.250565 
L 123.085291 -145.269584 
L 132.388853 -142.876966 
L 132.388853 -142.410563 
L 132.388853 -142.410563 
L 123.085291 -144.81037 
L 113.781729 -147.95009 
L 104.478167 -151.516433 
L 95.174604 -156.06691 
L 85.871042 -161.382695 
L 76.56748 -167.211262 
L 67.263918 -173.281788 
L 57.960356 -178.325166 
L 48.656793 -181.522364 
L 39.353231 -182.411908 
z
" id="m1920d6acd8" style="stroke:#008000;stroke-opacity:0.2;stroke-width:0.24;"/>
    </defs>
    <g clip-path="url(#p5e495a39b8)">
     <use style="fill:#008000;fill-opacity:0.2;stroke:#008000;stroke-opacity:0.2;stroke-width:0.24;" x="0" xlink:href="#m1920d6acd8" y="195.4071"/>
    </g>
   </g>
   <g id="line2d_9">
    <path clip-path="url(#p5e495a39b8)" d="M 39.353231 12.725248 
L 48.656793 13.778344 
L 57.960356 17.07306 
L 67.263918 22.456654 
L 76.56748 29.540168 
L 85.871042 36.989144 
L 95.174604 43.79377 
L 104.478167 49.581783 
L 113.781729 54.123766 
L 123.085291 57.553906 
L 132.388853 60.039783 
" style="fill:none;stroke:#ff0000;stroke-linecap:round;stroke-width:1.25;"/>
    <defs>
     <path d="M 0 2 
C 0.530406 2 1.03916 1.789267 1.414214 1.414214 
C 1.789267 1.03916 2 0.530406 2 0 
C 2 -0.530406 1.789267 -1.03916 1.414214 -1.414214 
C 1.03916 -1.789267 0.530406 -2 0 -2 
C -0.530406 -2 -1.03916 -1.789267 -1.414214 -1.414214 
C -1.789267 -1.03916 -2 -0.530406 -2 0 
C -2 0.530406 -1.789267 1.03916 -1.414214 1.414214 
C -1.03916 1.789267 -0.530406 2 0 2 
z
" id="mba9bf1f269"/>
    </defs>
    <g clip-path="url(#p5e495a39b8)">
     <use style="fill:#ff0000;" x="39.353231" xlink:href="#mba9bf1f269" y="12.725248"/>
     <use style="fill:#ff0000;" x="48.656793" xlink:href="#mba9bf1f269" y="13.778344"/>
     <use style="fill:#ff0000;" x="57.960356" xlink:href="#mba9bf1f269" y="17.07306"/>
     <use style="fill:#ff0000;" x="67.263918" xlink:href="#mba9bf1f269" y="22.456654"/>
     <use style="fill:#ff0000;" x="76.56748" xlink:href="#mba9bf1f269" y="29.540168"/>
     <use style="fill:#ff0000;" x="85.871042" xlink:href="#mba9bf1f269" y="36.989144"/>
     <use style="fill:#ff0000;" x="95.174604" xlink:href="#mba9bf1f269" y="43.79377"/>
     <use style="fill:#ff0000;" x="104.478167" xlink:href="#mba9bf1f269" y="49.581783"/>
     <use style="fill:#ff0000;" x="113.781729" xlink:href="#mba9bf1f269" y="54.123766"/>
     <use style="fill:#ff0000;" x="123.085291" xlink:href="#mba9bf1f269" y="57.553906"/>
     <use style="fill:#ff0000;" x="132.388853" xlink:href="#mba9bf1f269" y="60.039783"/>
    </g>
   </g>
   <g id="line2d_10">
    <path clip-path="url(#p5e495a39b8)" d="M 39.353231 12.751838 
L 48.656793 13.6658 
L 57.960356 16.843023 
L 67.263918 21.960715 
L 76.56748 27.934242 
L 85.871042 33.859535 
L 95.174604 39.206027 
L 104.478167 43.689882 
L 113.781729 47.306772 
L 123.085291 50.367123 
L 132.388853 52.763335 
" style="fill:none;stroke:#008000;stroke-linecap:round;stroke-width:1.25;"/>
    <defs>
     <path d="M -2 2 
L 2 2 
L 2 -2 
L -2 -2 
z
" id="mabc926f9cc"/>
    </defs>
    <g clip-path="url(#p5e495a39b8)">
     <use style="fill:#008000;" x="39.353231" xlink:href="#mabc926f9cc" y="12.751838"/>
     <use style="fill:#008000;" x="48.656793" xlink:href="#mabc926f9cc" y="13.6658"/>
     <use style="fill:#008000;" x="57.960356" xlink:href="#mabc926f9cc" y="16.843023"/>
     <use style="fill:#008000;" x="67.263918" xlink:href="#mabc926f9cc" y="21.960715"/>
     <use style="fill:#008000;" x="76.56748" xlink:href="#mabc926f9cc" y="27.934242"/>
     <use style="fill:#008000;" x="85.871042" xlink:href="#mabc926f9cc" y="33.859535"/>
     <use style="fill:#008000;" x="95.174604" xlink:href="#mabc926f9cc" y="39.206027"/>
     <use style="fill:#008000;" x="104.478167" xlink:href="#mabc926f9cc" y="43.689882"/>
     <use style="fill:#008000;" x="113.781729" xlink:href="#mabc926f9cc" y="47.306772"/>
     <use style="fill:#008000;" x="123.085291" xlink:href="#mabc926f9cc" y="50.367123"/>
     <use style="fill:#008000;" x="132.388853" xlink:href="#mabc926f9cc" y="52.763335"/>
    </g>
   </g>
   <g id="patch_3">
    <path d="M 34.70145 68.32295 
L 34.70145 10.63575 
" style="fill:none;stroke:#000000;stroke-linecap:square;stroke-linejoin:miter;stroke-width:0.8;"/>
   </g>
   <g id="patch_4">
    <path d="M 39.353231 68.32295 
L 132.388853 68.32295 
" style="fill:none;stroke:#000000;stroke-linecap:square;stroke-linejoin:miter;stroke-width:0.8;"/>
   </g>
   <g id="legend_1">
    <g id="line2d_11">
     <path d="M 88.208345 15.410988 
L 100.703345 15.410988 
" style="fill:none;stroke:#ff0000;stroke-linecap:round;stroke-width:1.25;"/>
    </g>
    <g id="line2d_12">
     <defs>
      <path d="M 0 1.8 
C 0.477366 1.8 0.935244 1.610341 1.272792 1.272792 
C 1.610341 0.935244 1.8 0.477366 1.8 0 
C 1.8 -0.477366 1.610341 -0.935244 1.272792 -1.272792 
C 0.935244 -1.610341 0.477366 -1.8 0 -1.8 
C -0.477366 -1.8 -0.935244 -1.610341 -1.272792 -1.272792 
C -1.610341 -0.935244 -1.8 -0.477366 -1.8 0 
C -1.8 0.477366 -1.610341 0.935244 -1.272792 1.272792 
C -0.935244 1.610341 -0.477366 1.8 0 1.8 
z
" id="ma162b57a26"/>
     </defs>
     <g>
      <use style="fill:#ff0000;" x="94.455845" xlink:href="#ma162b57a26" y="15.410988"/>
     </g>
    </g>
    <g id="text_11">
     <!-- lognormal -->
     <defs>
      <path d="M 4.984375 -4.296875 
L 13.53125 -5.5625 
Q 14.0625 -9.515625 16.5 -11.328125 
Q 19.78125 -13.765625 25.4375 -13.765625 
Q 31.546875 -13.765625 34.859375 -11.328125 
Q 38.1875 -8.890625 39.359375 -4.5 
Q 40.046875 -1.8125 39.984375 6.78125 
Q 34.234375 0 25.640625 0 
Q 14.9375 0 9.078125 7.71875 
Q 3.21875 15.4375 3.21875 26.21875 
Q 3.21875 33.640625 5.90625 39.90625 
Q 8.59375 46.1875 13.6875 49.609375 
Q 18.796875 53.03125 25.6875 53.03125 
Q 34.859375 53.03125 40.828125 45.609375 
L 40.828125 51.859375 
L 48.921875 51.859375 
L 48.921875 7.03125 
Q 48.921875 -5.078125 46.453125 -10.125 
Q 44 -15.1875 38.640625 -18.109375 
Q 33.296875 -21.046875 25.484375 -21.046875 
Q 16.21875 -21.046875 10.5 -16.875 
Q 4.78125 -12.703125 4.984375 -4.296875 
M 12.25 26.859375 
Q 12.25 16.65625 16.296875 11.96875 
Q 20.359375 7.28125 26.46875 7.28125 
Q 32.515625 7.28125 36.609375 11.9375 
Q 40.71875 16.609375 40.71875 26.5625 
Q 40.71875 36.078125 36.5 40.90625 
Q 32.28125 45.75 26.3125 45.75 
Q 20.453125 45.75 16.34375 40.984375 
Q 12.25 36.234375 12.25 26.859375 
" id="ArialMT-67"/>
      <path d="M 6.5 0 
L 6.5 51.859375 
L 14.40625 51.859375 
L 14.40625 44 
Q 17.4375 49.515625 20 51.265625 
Q 22.5625 53.03125 25.640625 53.03125 
Q 30.078125 53.03125 34.671875 50.203125 
L 31.640625 42.046875 
Q 28.421875 43.953125 25.203125 43.953125 
Q 22.3125 43.953125 20.015625 42.21875 
Q 17.71875 40.484375 16.75 37.40625 
Q 15.28125 32.71875 15.28125 27.15625 
L 15.28125 0 
z
" id="ArialMT-72"/>
      <path d="M 6.59375 0 
L 6.59375 51.859375 
L 14.453125 51.859375 
L 14.453125 44.578125 
Q 16.890625 48.390625 20.9375 50.703125 
Q 25 53.03125 30.171875 53.03125 
Q 35.9375 53.03125 39.625 50.640625 
Q 43.3125 48.25 44.828125 43.953125 
Q 50.984375 53.03125 60.84375 53.03125 
Q 68.5625 53.03125 72.703125 48.75 
Q 76.859375 44.484375 76.859375 35.59375 
L 76.859375 0 
L 68.109375 0 
L 68.109375 32.671875 
Q 68.109375 37.9375 67.25 40.25 
Q 66.40625 42.578125 64.15625 43.984375 
Q 61.921875 45.40625 58.890625 45.40625 
Q 53.421875 45.40625 49.796875 41.765625 
Q 46.1875 38.140625 46.1875 30.125 
L 46.1875 0 
L 37.40625 0 
L 37.40625 33.6875 
Q 37.40625 39.546875 35.25 42.46875 
Q 33.109375 45.40625 28.21875 45.40625 
Q 24.515625 45.40625 21.359375 43.453125 
Q 18.21875 41.5 16.796875 37.734375 
Q 15.375 33.984375 15.375 26.90625 
L 15.375 0 
z
" id="ArialMT-6d"/>
      <path d="M 40.4375 6.390625 
Q 35.546875 2.25 31.03125 0.53125 
Q 26.515625 -1.171875 21.34375 -1.171875 
Q 12.796875 -1.171875 8.203125 3 
Q 3.609375 7.171875 3.609375 13.671875 
Q 3.609375 17.484375 5.34375 20.625 
Q 7.078125 23.78125 9.890625 25.6875 
Q 12.703125 27.59375 16.21875 28.5625 
Q 18.796875 29.25 24.03125 29.890625 
Q 34.671875 31.15625 39.703125 32.90625 
Q 39.75 34.71875 39.75 35.203125 
Q 39.75 40.578125 37.25 42.78125 
Q 33.890625 45.75 27.25 45.75 
Q 21.046875 45.75 18.09375 43.578125 
Q 15.140625 41.40625 13.71875 35.890625 
L 5.125 37.0625 
Q 6.296875 42.578125 8.984375 45.96875 
Q 11.671875 49.359375 16.75 51.1875 
Q 21.828125 53.03125 28.515625 53.03125 
Q 35.15625 53.03125 39.296875 51.46875 
Q 43.453125 49.90625 45.40625 47.53125 
Q 47.359375 45.171875 48.140625 41.546875 
Q 48.578125 39.3125 48.578125 33.453125 
L 48.578125 21.734375 
Q 48.578125 9.46875 49.140625 6.21875 
Q 49.703125 2.984375 51.375 0 
L 42.1875 0 
Q 40.828125 2.734375 40.4375 6.390625 
M 39.703125 26.03125 
Q 34.90625 24.078125 25.34375 22.703125 
Q 19.921875 21.921875 17.671875 20.9375 
Q 15.4375 19.96875 14.203125 18.09375 
Q 12.984375 16.21875 12.984375 13.921875 
Q 12.984375 10.40625 15.640625 8.0625 
Q 18.3125 5.71875 23.4375 5.71875 
Q 28.515625 5.71875 32.46875 7.9375 
Q 36.421875 10.15625 38.28125 14.015625 
Q 39.703125 17 39.703125 22.796875 
z
" id="ArialMT-61"/>
     </defs>
     <g transform="translate(103.202345 18.326488)scale(0.0833 -0.0833)">
      <use xlink:href="#ArialMT-6c"/>
      <use x="22.216797" xlink:href="#ArialMT-6f"/>
      <use x="77.832031" xlink:href="#ArialMT-67"/>
      <use x="133.447266" xlink:href="#ArialMT-6e"/>
      <use x="189.0625" xlink:href="#ArialMT-6f"/>
      <use x="244.677734" xlink:href="#ArialMT-72"/>
      <use x="277.978516" xlink:href="#ArialMT-6d"/>
      <use x="361.279297" xlink:href="#ArialMT-61"/>
      <use x="416.894531" xlink:href="#ArialMT-6c"/>
     </g>
    </g>
    <g id="line2d_13">
     <path d="M 88.208345 24.79265 
L 100.703345 24.79265 
" style="fill:none;stroke:#008000;stroke-linecap:round;stroke-width:1.25;"/>
    </g>
    <g id="line2d_14">
     <defs>
      <path d="M -1.8 1.8 
L 1.8 1.8 
L 1.8 -1.8 
L -1.8 -1.8 
z
" id="mbd30024c91"/>
     </defs>
     <g>
      <use style="fill:#008000;" x="94.455845" xlink:href="#mbd30024c91" y="24.79265"/>
     </g>
    </g>
    <g id="text_12">
     <!-- normal -->
     <g transform="translate(103.202345 27.70815)scale(0.0833 -0.0833)">
      <use xlink:href="#ArialMT-6e"/>
      <use x="55.615234" xlink:href="#ArialMT-6f"/>
      <use x="111.230469" xlink:href="#ArialMT-72"/>
      <use x="144.53125" xlink:href="#ArialMT-6d"/>
      <use x="227.832031" xlink:href="#ArialMT-61"/>
      <use x="283.447266" xlink:href="#ArialMT-6c"/>
     </g>
    </g>
   </g>
  </g>
  <g id="axes_2">
   <g id="patch_5">
    <path d="M 34.70145 164.27015 
L 137.040634 164.27015 
L 137.040634 106.58295 
L 34.70145 106.58295 
z
" style="fill:none;"/>
   </g>
   <g id="matplotlib.axis_3">
    <g id="xtick_4">
     <g id="line2d_15">
      <g>
       <use style="stroke:#000000;stroke-width:0.8;" x="39.353231" xlink:href="#m09c29a37c8" y="164.27015"/>
      </g>
     </g>
     <g id="text_13">
      <!-- 0.0 -->
      <g transform="translate(32.681231 175.64165)scale(0.096 -0.096)">
       <use xlink:href="#ArialMT-30"/>
       <use x="55.615234" xlink:href="#ArialMT-2e"/>
       <use x="83.398438" xlink:href="#ArialMT-30"/>
      </g>
     </g>
    </g>
    <g id="xtick_5">
     <g id="line2d_16">
      <g>
       <use style="stroke:#000000;stroke-width:0.8;" x="85.871042" xlink:href="#m09c29a37c8" y="164.27015"/>
      </g>
     </g>
     <g id="text_14">
      <!-- 0.1 -->
      <g transform="translate(79.199042 175.64165)scale(0.096 -0.096)">
       <use xlink:href="#ArialMT-30"/>
       <use x="55.615234" xlink:href="#ArialMT-2e"/>
       <use x="83.398438" xlink:href="#ArialMT-31"/>
      </g>
     </g>
    </g>
    <g id="xtick_6">
     <g id="line2d_17">
      <g>
       <use style="stroke:#000000;stroke-width:0.8;" x="132.388853" xlink:href="#m09c29a37c8" y="164.27015"/>
      </g>
     </g>
     <g id="text_15">
      <!-- 0.2 -->
      <g transform="translate(125.716853 175.64165)scale(0.096 -0.096)">
       <use xlink:href="#ArialMT-30"/>
       <use x="55.615234" xlink:href="#ArialMT-2e"/>
       <use x="83.398438" xlink:href="#ArialMT-32"/>
      </g>
     </g>
    </g>
    <g id="text_16">
     <!-- $\sigma _r$ -->
     <g transform="translate(81.224642 186.1083)scale(0.1056 -0.1056)">
      <use transform="translate(0 0.703125)" xlink:href="#STIXNonUnicode-Italic-e1ea"/>
      <use transform="translate(61.492692 -12.885937)scale(0.7)" xlink:href="#STIXGeneral-Italic-1d633"/>
     </g>
    </g>
   </g>
   <g id="matplotlib.axis_4">
    <g id="ytick_6">
     <g id="line2d_18">
      <g>
       <use style="stroke:#000000;stroke-width:0.8;" x="34.70145" xlink:href="#mf2a53761f6" y="164.27015"/>
      </g>
     </g>
     <g id="text_17">
      <!-- 0.4 -->
      <g transform="translate(17.85745 167.7059)scale(0.096 -0.096)">
       <use xlink:href="#ArialMT-30"/>
       <use x="55.615234" xlink:href="#ArialMT-2e"/>
       <use x="83.398438" xlink:href="#ArialMT-34"/>
      </g>
     </g>
    </g>
    <g id="ytick_7">
     <g id="line2d_19">
      <g>
       <use style="stroke:#000000;stroke-width:0.8;" x="34.70145" xlink:href="#mf2a53761f6" y="154.655617"/>
      </g>
     </g>
     <g id="text_18">
      <!-- 0.5 -->
      <defs>
       <path d="M 4.15625 18.75 
L 13.375 19.53125 
Q 14.40625 12.796875 18.140625 9.390625 
Q 21.875 6 27.15625 6 
Q 33.5 6 37.890625 10.78125 
Q 42.28125 15.578125 42.28125 23.484375 
Q 42.28125 31 38.0625 35.34375 
Q 33.84375 39.703125 27 39.703125 
Q 22.75 39.703125 19.328125 37.765625 
Q 15.921875 35.84375 13.96875 32.765625 
L 5.71875 33.84375 
L 12.640625 70.609375 
L 48.25 70.609375 
L 48.25 62.203125 
L 19.671875 62.203125 
L 15.828125 42.96875 
Q 22.265625 47.46875 29.34375 47.46875 
Q 38.71875 47.46875 45.15625 40.96875 
Q 51.609375 34.46875 51.609375 24.265625 
Q 51.609375 14.546875 45.953125 7.46875 
Q 39.0625 -1.21875 27.15625 -1.21875 
Q 17.390625 -1.21875 11.203125 4.25 
Q 5.03125 9.71875 4.15625 18.75 
" id="ArialMT-35"/>
      </defs>
      <g transform="translate(17.85745 158.091367)scale(0.096 -0.096)">
       <use xlink:href="#ArialMT-30"/>
       <use x="55.615234" xlink:href="#ArialMT-2e"/>
       <use x="83.398438" xlink:href="#ArialMT-35"/>
      </g>
     </g>
    </g>
    <g id="ytick_8">
     <g id="line2d_20">
      <g>
       <use style="stroke:#000000;stroke-width:0.8;" x="34.70145" xlink:href="#mf2a53761f6" y="145.041083"/>
      </g>
     </g>
     <g id="text_19">
      <!-- 0.6 -->
      <g transform="translate(17.85745 148.476833)scale(0.096 -0.096)">
       <use xlink:href="#ArialMT-30"/>
       <use x="55.615234" xlink:href="#ArialMT-2e"/>
       <use x="83.398438" xlink:href="#ArialMT-36"/>
      </g>
     </g>
    </g>
    <g id="ytick_9">
     <g id="line2d_21">
      <g>
       <use style="stroke:#000000;stroke-width:0.8;" x="34.70145" xlink:href="#mf2a53761f6" y="135.42655"/>
      </g>
     </g>
     <g id="text_20">
      <!-- 0.7 -->
      <defs>
       <path d="M 4.734375 62.203125 
L 4.734375 70.65625 
L 51.078125 70.65625 
L 51.078125 63.8125 
Q 44.234375 56.546875 37.515625 44.484375 
Q 30.8125 32.421875 27.15625 19.671875 
Q 24.515625 10.6875 23.78125 0 
L 14.75 0 
Q 14.890625 8.453125 18.0625 20.40625 
Q 21.234375 32.375 27.171875 43.484375 
Q 33.109375 54.59375 39.796875 62.203125 
z
" id="ArialMT-37"/>
      </defs>
      <g transform="translate(17.85745 138.8623)scale(0.096 -0.096)">
       <use xlink:href="#ArialMT-30"/>
       <use x="55.615234" xlink:href="#ArialMT-2e"/>
       <use x="83.398438" xlink:href="#ArialMT-37"/>
      </g>
     </g>
    </g>
    <g id="ytick_10">
     <g id="line2d_22">
      <g>
       <use style="stroke:#000000;stroke-width:0.8;" x="34.70145" xlink:href="#mf2a53761f6" y="125.812017"/>
      </g>
     </g>
     <g id="text_21">
      <!-- 0.8 -->
      <g transform="translate(17.85745 129.247767)scale(0.096 -0.096)">
       <use xlink:href="#ArialMT-30"/>
       <use x="55.615234" xlink:href="#ArialMT-2e"/>
       <use x="83.398438" xlink:href="#ArialMT-38"/>
      </g>
     </g>
    </g>
    <g id="ytick_11">
     <g id="line2d_23">
      <g>
       <use style="stroke:#000000;stroke-width:0.8;" x="34.70145" xlink:href="#mf2a53761f6" y="116.197483"/>
      </g>
     </g>
     <g id="text_22">
      <!-- 0.9 -->
      <defs>
       <path d="M 5.46875 16.546875 
L 13.921875 17.328125 
Q 14.984375 11.375 18.015625 8.6875 
Q 21.046875 6 25.78125 6 
Q 29.828125 6 32.875 7.859375 
Q 35.9375 9.71875 37.890625 12.8125 
Q 39.84375 15.921875 41.15625 21.1875 
Q 42.484375 26.46875 42.484375 31.9375 
Q 42.484375 32.515625 42.4375 33.6875 
Q 39.796875 29.5 35.234375 26.875 
Q 30.671875 24.265625 25.34375 24.265625 
Q 16.453125 24.265625 10.296875 30.703125 
Q 4.15625 37.15625 4.15625 47.703125 
Q 4.15625 58.59375 10.578125 65.234375 
Q 17 71.875 26.65625 71.875 
Q 33.640625 71.875 39.421875 68.109375 
Q 45.21875 64.359375 48.21875 57.390625 
Q 51.21875 50.4375 51.21875 37.25 
Q 51.21875 23.53125 48.234375 15.40625 
Q 45.265625 7.28125 39.375 3.03125 
Q 33.5 -1.21875 25.59375 -1.21875 
Q 17.1875 -1.21875 11.859375 3.4375 
Q 6.546875 8.109375 5.46875 16.546875 
M 41.453125 48.140625 
Q 41.453125 55.71875 37.421875 60.15625 
Q 33.40625 64.59375 27.734375 64.59375 
Q 21.875 64.59375 17.53125 59.8125 
Q 13.1875 55.03125 13.1875 47.40625 
Q 13.1875 40.578125 17.3125 36.296875 
Q 21.4375 32.03125 27.484375 32.03125 
Q 33.59375 32.03125 37.515625 36.296875 
Q 41.453125 40.578125 41.453125 48.140625 
" id="ArialMT-39"/>
      </defs>
      <g transform="translate(17.85745 119.633233)scale(0.096 -0.096)">
       <use xlink:href="#ArialMT-30"/>
       <use x="55.615234" xlink:href="#ArialMT-2e"/>
       <use x="83.398438" xlink:href="#ArialMT-39"/>
      </g>
     </g>
    </g>
    <g id="ytick_12">
     <g id="line2d_24">
      <g>
       <use style="stroke:#000000;stroke-width:0.8;" x="34.70145" xlink:href="#mf2a53761f6" y="106.58295"/>
      </g>
     </g>
     <g id="text_23">
      <!-- 1.0 -->
      <g transform="translate(17.85745 110.0187)scale(0.096 -0.096)">
       <use xlink:href="#ArialMT-31"/>
       <use x="55.615234" xlink:href="#ArialMT-2e"/>
       <use x="83.398438" xlink:href="#ArialMT-30"/>
      </g>
     </g>
    </g>
    <g id="text_24">
     <!-- Gini coefficient -->
     <defs>
      <path d="M 41.21875 28.078125 
L 41.21875 36.46875 
L 71.53125 36.53125 
L 71.53125 9.96875 
Q 64.546875 4.390625 57.125 1.578125 
Q 49.703125 -1.21875 41.890625 -1.21875 
Q 31.34375 -1.21875 22.71875 3.296875 
Q 14.109375 7.8125 9.71875 16.359375 
Q 5.328125 24.90625 5.328125 35.453125 
Q 5.328125 45.90625 9.6875 54.953125 
Q 14.0625 64.015625 22.265625 68.40625 
Q 30.46875 72.796875 41.15625 72.796875 
Q 48.921875 72.796875 55.1875 70.28125 
Q 61.46875 67.78125 65.03125 63.28125 
Q 68.609375 58.796875 70.453125 51.5625 
L 61.921875 49.21875 
Q 60.296875 54.6875 57.90625 57.8125 
Q 55.515625 60.9375 51.0625 62.8125 
Q 46.625 64.703125 41.21875 64.703125 
Q 34.71875 64.703125 29.984375 62.71875 
Q 25.25 60.75 22.34375 57.515625 
Q 19.4375 54.296875 17.828125 50.4375 
Q 15.09375 43.796875 15.09375 36.03125 
Q 15.09375 26.46875 18.390625 20.015625 
Q 21.6875 13.578125 27.984375 10.453125 
Q 34.28125 7.328125 41.359375 7.328125 
Q 47.515625 7.328125 53.375 9.6875 
Q 59.234375 12.0625 62.25 14.75 
L 62.25 28.078125 
z
" id="ArialMT-47"/>
      <path d="M 6.640625 61.46875 
L 6.640625 71.578125 
L 15.4375 71.578125 
L 15.4375 61.46875 
z
M 6.640625 0 
L 6.640625 51.859375 
L 15.4375 51.859375 
L 15.4375 0 
z
" id="ArialMT-69"/>
     </defs>
     <g transform="translate(14.75865 170.05345)rotate(-90)scale(0.1056 -0.1056)">
      <use xlink:href="#ArialMT-47"/>
      <use x="77.783203" xlink:href="#ArialMT-69"/>
      <use x="100" xlink:href="#ArialMT-6e"/>
      <use x="155.615234" xlink:href="#ArialMT-69"/>
      <use x="177.832031" xlink:href="#ArialMT-20"/>
      <use x="205.615234" xlink:href="#ArialMT-63"/>
      <use x="255.615234" xlink:href="#ArialMT-6f"/>
      <use x="311.230469" xlink:href="#ArialMT-65"/>
      <use x="366.845703" xlink:href="#ArialMT-66"/>
      <use x="394.613281" xlink:href="#ArialMT-66"/>
      <use x="422.396484" xlink:href="#ArialMT-69"/>
      <use x="444.613281" xlink:href="#ArialMT-63"/>
      <use x="494.613281" xlink:href="#ArialMT-69"/>
      <use x="516.830078" xlink:href="#ArialMT-65"/>
      <use x="572.445312" xlink:href="#ArialMT-6e"/>
      <use x="628.060547" xlink:href="#ArialMT-74"/>
     </g>
    </g>
   </g>
   <g id="PolyCollection_3">
    <defs>
     <path d="M 39.353231 -37.896026 
L 39.353231 -38.406606 
L 48.656793 -43.252305 
L 57.960356 -53.630243 
L 67.263918 -63.888149 
L 76.56748 -72.347416 
L 85.871042 -77.842604 
L 95.174604 -81.20427 
L 104.478167 -83.231603 
L 113.781729 -84.429085 
L 123.085291 -85.081696 
L 132.388853 -85.385352 
L 132.388853 -85.200817 
L 132.388853 -85.200817 
L 123.085291 -84.849246 
L 113.781729 -84.061704 
L 104.478167 -82.934579 
L 95.174604 -80.853022 
L 85.871042 -77.417205 
L 76.56748 -71.649836 
L 67.263918 -63.339389 
L 57.960356 -52.98203 
L 48.656793 -42.717773 
L 39.353231 -37.896026 
z
" id="m44660f20e8" style="stroke:#ff0000;stroke-opacity:0.2;stroke-width:0.24;"/>
    </defs>
    <g clip-path="url(#pee4ab99770)">
     <use style="fill:#ff0000;fill-opacity:0.2;stroke:#ff0000;stroke-opacity:0.2;stroke-width:0.24;" x="0" xlink:href="#m44660f20e8" y="195.4071"/>
    </g>
   </g>
   <g id="PolyCollection_4">
    <defs>
     <path d="M 39.353231 -37.799269 
L 39.353231 -38.284445 
L 48.656793 -43.21176 
L 57.960356 -52.743121 
L 67.263918 -61.819596 
L 76.56748 -68.74279 
L 85.871042 -73.687431 
L 95.174604 -76.890204 
L 104.478167 -79.082464 
L 113.781729 -80.648073 
L 123.085291 -81.574084 
L 132.388853 -82.413641 
L 132.388853 -82.218783 
L 132.388853 -82.218783 
L 123.085291 -81.267524 
L 113.781729 -80.288042 
L 104.478167 -78.806858 
L 95.174604 -76.595164 
L 85.871042 -73.144436 
L 76.56748 -68.299273 
L 67.263918 -61.202421 
L 57.960356 -52.268909 
L 48.656793 -42.536401 
L 39.353231 -37.799269 
z
" id="m19a2b7b769" style="stroke:#008000;stroke-opacity:0.2;stroke-width:0.24;"/>
    </defs>
    <g clip-path="url(#pee4ab99770)">
     <use style="fill:#008000;fill-opacity:0.2;stroke:#008000;stroke-opacity:0.2;stroke-width:0.24;" x="0" xlink:href="#m19a2b7b769" y="195.4071"/>
    </g>
   </g>
   <g id="line2d_25">
    <path clip-path="url(#pee4ab99770)" d="M 39.353231 157.255784 
L 48.656793 152.422061 
L 57.960356 142.100964 
L 67.263918 131.793331 
L 76.56748 123.408474 
L 85.871042 117.777195 
L 95.174604 114.378454 
L 104.478167 112.324009 
L 113.781729 111.161706 
L 123.085291 110.441629 
L 132.388853 110.114016 
" style="fill:none;stroke:#ff0000;stroke-linecap:round;stroke-width:1.25;"/>
    <g clip-path="url(#pee4ab99770)">
     <use style="fill:#ff0000;" x="39.353231" xlink:href="#mba9bf1f269" y="157.255784"/>
     <use style="fill:#ff0000;" x="48.656793" xlink:href="#mba9bf1f269" y="152.422061"/>
     <use style="fill:#ff0000;" x="57.960356" xlink:href="#mba9bf1f269" y="142.100964"/>
     <use style="fill:#ff0000;" x="67.263918" xlink:href="#mba9bf1f269" y="131.793331"/>
     <use style="fill:#ff0000;" x="76.56748" xlink:href="#mba9bf1f269" y="123.408474"/>
     <use style="fill:#ff0000;" x="85.871042" xlink:href="#mba9bf1f269" y="117.777195"/>
     <use style="fill:#ff0000;" x="95.174604" xlink:href="#mba9bf1f269" y="114.378454"/>
     <use style="fill:#ff0000;" x="104.478167" xlink:href="#mba9bf1f269" y="112.324009"/>
     <use style="fill:#ff0000;" x="113.781729" xlink:href="#mba9bf1f269" y="111.161706"/>
     <use style="fill:#ff0000;" x="123.085291" xlink:href="#mba9bf1f269" y="110.441629"/>
     <use style="fill:#ff0000;" x="132.388853" xlink:href="#mba9bf1f269" y="110.114016"/>
    </g>
   </g>
   <g id="line2d_26">
    <path clip-path="url(#pee4ab99770)" d="M 39.353231 157.365243 
L 48.656793 152.533019 
L 57.960356 142.901085 
L 67.263918 133.896092 
L 76.56748 126.886069 
L 85.871042 121.991167 
L 95.174604 118.664416 
L 104.478167 116.462439 
L 113.781729 114.939043 
L 123.085291 113.986296 
L 132.388853 113.090888 
" style="fill:none;stroke:#008000;stroke-linecap:round;stroke-width:1.25;"/>
    <g clip-path="url(#pee4ab99770)">
     <use style="fill:#008000;" x="39.353231" xlink:href="#mabc926f9cc" y="157.365243"/>
     <use style="fill:#008000;" x="48.656793" xlink:href="#mabc926f9cc" y="152.533019"/>
     <use style="fill:#008000;" x="57.960356" xlink:href="#mabc926f9cc" y="142.901085"/>
     <use style="fill:#008000;" x="67.263918" xlink:href="#mabc926f9cc" y="133.896092"/>
     <use style="fill:#008000;" x="76.56748" xlink:href="#mabc926f9cc" y="126.886069"/>
     <use style="fill:#008000;" x="85.871042" xlink:href="#mabc926f9cc" y="121.991167"/>
     <use style="fill:#008000;" x="95.174604" xlink:href="#mabc926f9cc" y="118.664416"/>
     <use style="fill:#008000;" x="104.478167" xlink:href="#mabc926f9cc" y="116.462439"/>
     <use style="fill:#008000;" x="113.781729" xlink:href="#mabc926f9cc" y="114.939043"/>
     <use style="fill:#008000;" x="123.085291" xlink:href="#mabc926f9cc" y="113.986296"/>
     <use style="fill:#008000;" x="132.388853" xlink:href="#mabc926f9cc" y="113.090888"/>
    </g>
   </g>
   <g id="patch_6">
    <path d="M 34.70145 164.27015 
L 34.70145 106.58295 
" style="fill:none;stroke:#000000;stroke-linecap:square;stroke-linejoin:miter;stroke-width:0.8;"/>
   </g>
   <g id="patch_7">
    <path d="M 39.353231 164.27015 
L 132.388853 164.27015 
" style="fill:none;stroke:#000000;stroke-linecap:square;stroke-linejoin:miter;stroke-width:0.8;"/>
   </g>
   <g id="legend_2">
    <g id="line2d_27">
     <path d="M 88.208345 148.58912 
L 100.703345 148.58912 
" style="fill:none;stroke:#ff0000;stroke-linecap:round;stroke-width:1.25;"/>
    </g>
    <g id="line2d_28">
     <g>
      <use style="fill:#ff0000;" x="94.455845" xlink:href="#ma162b57a26" y="148.58912"/>
     </g>
    </g>
    <g id="text_25">
     <!-- lognormal -->
     <g transform="translate(103.202345 151.50462)scale(0.0833 -0.0833)">
      <use xlink:href="#ArialMT-6c"/>
      <use x="22.216797" xlink:href="#ArialMT-6f"/>
      <use x="77.832031" xlink:href="#ArialMT-67"/>
      <use x="133.447266" xlink:href="#ArialMT-6e"/>
      <use x="189.0625" xlink:href="#ArialMT-6f"/>
      <use x="244.677734" xlink:href="#ArialMT-72"/>
      <use x="277.978516" xlink:href="#ArialMT-6d"/>
      <use x="361.279297" xlink:href="#ArialMT-61"/>
      <use x="416.894531" xlink:href="#ArialMT-6c"/>
     </g>
    </g>
    <g id="line2d_29">
     <path d="M 88.208345 157.970782 
L 100.703345 157.970782 
" style="fill:none;stroke:#008000;stroke-linecap:round;stroke-width:1.25;"/>
    </g>
    <g id="line2d_30">
     <g>
      <use style="fill:#008000;" x="94.455845" xlink:href="#mbd30024c91" y="157.970782"/>
     </g>
    </g>
    <g id="text_26">
     <!-- normal -->
     <g transform="translate(103.202345 160.886282)scale(0.0833 -0.0833)">
      <use xlink:href="#ArialMT-6e"/>
      <use x="55.615234" xlink:href="#ArialMT-6f"/>
      <use x="111.230469" xlink:href="#ArialMT-72"/>
      <use x="144.53125" xlink:href="#ArialMT-6d"/>
      <use x="227.832031" xlink:href="#ArialMT-61"/>
      <use x="283.447266" xlink:href="#ArialMT-6c"/>
     </g>
    </g>
   </g>
  </g>
  <g id="axes_3">
   <g id="patch_8">
    <path d="M 178.10145 68.32295 
L 280.440634 68.32295 
L 280.440634 10.63575 
L 178.10145 10.63575 
z
" style="fill:none;"/>
   </g>
   <g id="matplotlib.axis_5">
    <g id="xtick_7">
     <g id="line2d_31">
      <g>
       <use style="stroke:#000000;stroke-width:0.8;" x="182.753231" xlink:href="#m09c29a37c8" y="68.32295"/>
      </g>
     </g>
     <g id="text_27">
      <!-- 0.0 -->
      <g transform="translate(176.081231 79.69445)scale(0.096 -0.096)">
       <use xlink:href="#ArialMT-30"/>
       <use x="55.615234" xlink:href="#ArialMT-2e"/>
       <use x="83.398438" xlink:href="#ArialMT-30"/>
      </g>
     </g>
    </g>
    <g id="xtick_8">
     <g id="line2d_32">
      <g>
       <use style="stroke:#000000;stroke-width:0.8;" x="229.271042" xlink:href="#m09c29a37c8" y="68.32295"/>
      </g>
     </g>
     <g id="text_28">
      <!-- 0.1 -->
      <g transform="translate(222.599042 79.69445)scale(0.096 -0.096)">
       <use xlink:href="#ArialMT-30"/>
       <use x="55.615234" xlink:href="#ArialMT-2e"/>
       <use x="83.398438" xlink:href="#ArialMT-31"/>
      </g>
     </g>
    </g>
    <g id="xtick_9">
     <g id="line2d_33">
      <g>
       <use style="stroke:#000000;stroke-width:0.8;" x="275.788853" xlink:href="#m09c29a37c8" y="68.32295"/>
      </g>
     </g>
     <g id="text_29">
      <!-- 0.2 -->
      <g transform="translate(269.116853 79.69445)scale(0.096 -0.096)">
       <use xlink:href="#ArialMT-30"/>
       <use x="55.615234" xlink:href="#ArialMT-2e"/>
       <use x="83.398438" xlink:href="#ArialMT-32"/>
      </g>
     </g>
    </g>
    <g id="text_30">
     <!-- $\sigma _r$ -->
     <g transform="translate(224.624642 90.1611)scale(0.1056 -0.1056)">
      <use transform="translate(0 0.703125)" xlink:href="#STIXNonUnicode-Italic-e1ea"/>
      <use transform="translate(61.492692 -12.885937)scale(0.7)" xlink:href="#STIXGeneral-Italic-1d633"/>
     </g>
    </g>
   </g>
   <g id="matplotlib.axis_6">
    <g id="ytick_13">
     <g id="line2d_34">
      <g>
       <use style="stroke:#000000;stroke-width:0.8;" x="178.10145" xlink:href="#mf2a53761f6" y="66.770671"/>
      </g>
     </g>
     <g id="text_31">
      <!-- 0 -->
      <g transform="translate(169.26295 70.206421)scale(0.096 -0.096)">
       <use xlink:href="#ArialMT-30"/>
      </g>
     </g>
    </g>
    <g id="ytick_14">
     <g id="line2d_35">
      <g>
       <use style="stroke:#000000;stroke-width:0.8;" x="178.10145" xlink:href="#mf2a53761f6" y="44.626105"/>
      </g>
     </g>
     <g id="text_32">
      <!-- 25 -->
      <g transform="translate(163.92445 48.061855)scale(0.096 -0.096)">
       <use xlink:href="#ArialMT-32"/>
       <use x="55.615234" xlink:href="#ArialMT-35"/>
      </g>
     </g>
    </g>
    <g id="ytick_15">
     <g id="line2d_36">
      <g>
       <use style="stroke:#000000;stroke-width:0.8;" x="178.10145" xlink:href="#mf2a53761f6" y="22.481539"/>
      </g>
     </g>
     <g id="text_33">
      <!-- 50 -->
      <g transform="translate(163.92445 25.917289)scale(0.096 -0.096)">
       <use xlink:href="#ArialMT-35"/>
       <use x="55.615234" xlink:href="#ArialMT-30"/>
      </g>
     </g>
    </g>
    <g id="text_34">
     <!-- % clones left -->
     <g transform="translate(160.82565 69.412825)rotate(-90)scale(0.1056 -0.1056)">
      <use xlink:href="#ArialMT-25"/>
      <use x="88.916016" xlink:href="#ArialMT-20"/>
      <use x="116.699219" xlink:href="#ArialMT-63"/>
      <use x="166.699219" xlink:href="#ArialMT-6c"/>
      <use x="188.916016" xlink:href="#ArialMT-6f"/>
      <use x="244.53125" xlink:href="#ArialMT-6e"/>
      <use x="300.146484" xlink:href="#ArialMT-65"/>
      <use x="355.761719" xlink:href="#ArialMT-73"/>
      <use x="405.761719" xlink:href="#ArialMT-20"/>
      <use x="433.544922" xlink:href="#ArialMT-6c"/>
      <use x="455.761719" xlink:href="#ArialMT-65"/>
      <use x="511.376953" xlink:href="#ArialMT-66"/>
      <use x="539.160156" xlink:href="#ArialMT-74"/>
     </g>
    </g>
   </g>
   <g id="PolyCollection_5">
    <defs>
     <path d="M 182.753231 -181.599766 
L 182.753231 -182.111335 
L 192.056793 -176.427498 
L 201.360356 -162.951805 
L 210.663918 -149.791468 
L 219.96748 -140.993186 
L 229.271042 -135.842972 
L 238.574604 -133.142257 
L 247.878167 -131.599579 
L 257.181729 -130.759305 
L 266.485291 -130.189097 
L 275.788853 -129.802859 
L 275.788853 -129.706295 
L 275.788853 -129.706295 
L 266.485291 -130.064476 
L 257.181729 -130.606339 
L 247.878167 -131.387075 
L 238.574604 -132.990707 
L 229.271042 -135.43256 
L 219.96748 -140.249964 
L 210.663918 -149.164297 
L 201.360356 -162.525026 
L 192.056793 -175.916781 
L 182.753231 -181.599766 
z
" id="m5d474371ba" style="stroke:#ff0000;stroke-opacity:0.2;stroke-width:0.24;"/>
    </defs>
    <g clip-path="url(#p38529ceb2b)">
     <use style="fill:#ff0000;fill-opacity:0.2;stroke:#ff0000;stroke-opacity:0.2;stroke-width:0.24;" x="0" xlink:href="#m5d474371ba" y="195.4071"/>
    </g>
   </g>
   <g id="PolyCollection_6">
    <defs>
     <path d="M 182.753231 -181.704704 
L 182.753231 -182.149205 
L 192.056793 -176.831002 
L 201.360356 -164.237531 
L 210.663918 -152.491981 
L 219.96748 -144.494685 
L 229.271042 -139.453924 
L 238.574604 -136.400004 
L 247.878167 -134.46634 
L 257.181729 -133.291812 
L 266.485291 -132.48223 
L 275.788853 -131.80365 
L 275.788853 -131.629656 
L 275.788853 -131.629656 
L 266.485291 -132.268241 
L 257.181729 -133.07967 
L 247.878167 -134.25386 
L 238.574604 -136.174463 
L 229.271042 -138.993857 
L 219.96748 -143.934387 
L 210.663918 -151.914754 
L 201.360356 -163.361653 
L 192.056793 -176.082985 
L 182.753231 -181.704704 
z
" id="m705e3542b4" style="stroke:#008000;stroke-opacity:0.2;stroke-width:0.24;"/>
    </defs>
    <g clip-path="url(#p38529ceb2b)">
     <use style="fill:#008000;fill-opacity:0.2;stroke:#008000;stroke-opacity:0.2;stroke-width:0.24;" x="0" xlink:href="#m705e3542b4" y="195.4071"/>
    </g>
   </g>
   <g id="line2d_37">
    <path clip-path="url(#p38529ceb2b)" d="M 182.753231 13.551549 
L 192.056793 19.23496 
L 201.360356 32.668685 
L 210.663918 45.929218 
L 219.96748 54.785525 
L 229.271042 59.769334 
L 238.574604 62.340618 
L 247.878167 63.913773 
L 257.181729 64.724278 
L 266.485291 65.280313 
L 275.788853 65.652523 
" style="fill:none;stroke:#ff0000;stroke-linecap:round;stroke-width:1.25;"/>
    <g clip-path="url(#p38529ceb2b)">
     <use style="fill:#ff0000;" x="182.753231" xlink:href="#mba9bf1f269" y="13.551549"/>
     <use style="fill:#ff0000;" x="192.056793" xlink:href="#mba9bf1f269" y="19.23496"/>
     <use style="fill:#ff0000;" x="201.360356" xlink:href="#mba9bf1f269" y="32.668685"/>
     <use style="fill:#ff0000;" x="210.663918" xlink:href="#mba9bf1f269" y="45.929218"/>
     <use style="fill:#ff0000;" x="219.96748" xlink:href="#mba9bf1f269" y="54.785525"/>
     <use style="fill:#ff0000;" x="229.271042" xlink:href="#mba9bf1f269" y="59.769334"/>
     <use style="fill:#ff0000;" x="238.574604" xlink:href="#mba9bf1f269" y="62.340618"/>
     <use style="fill:#ff0000;" x="247.878167" xlink:href="#mba9bf1f269" y="63.913773"/>
     <use style="fill:#ff0000;" x="257.181729" xlink:href="#mba9bf1f269" y="64.724278"/>
     <use style="fill:#ff0000;" x="266.485291" xlink:href="#mba9bf1f269" y="65.280313"/>
     <use style="fill:#ff0000;" x="275.788853" xlink:href="#mba9bf1f269" y="65.652523"/>
    </g>
   </g>
   <g id="line2d_38">
    <path clip-path="url(#p38529ceb2b)" d="M 182.753231 13.480146 
L 192.056793 18.950106 
L 201.360356 31.607508 
L 210.663918 43.203733 
L 219.96748 51.192564 
L 229.271042 56.183209 
L 238.574604 59.119866 
L 247.878167 61.047 
L 257.181729 62.221359 
L 266.485291 63.031864 
L 275.788853 63.690447 
" style="fill:none;stroke:#008000;stroke-linecap:round;stroke-width:1.25;"/>
    <g clip-path="url(#p38529ceb2b)">
     <use style="fill:#008000;" x="182.753231" xlink:href="#mabc926f9cc" y="13.480146"/>
     <use style="fill:#008000;" x="192.056793" xlink:href="#mabc926f9cc" y="18.950106"/>
     <use style="fill:#008000;" x="201.360356" xlink:href="#mabc926f9cc" y="31.607508"/>
     <use style="fill:#008000;" x="210.663918" xlink:href="#mabc926f9cc" y="43.203733"/>
     <use style="fill:#008000;" x="219.96748" xlink:href="#mabc926f9cc" y="51.192564"/>
     <use style="fill:#008000;" x="229.271042" xlink:href="#mabc926f9cc" y="56.183209"/>
     <use style="fill:#008000;" x="238.574604" xlink:href="#mabc926f9cc" y="59.119866"/>
     <use style="fill:#008000;" x="247.878167" xlink:href="#mabc926f9cc" y="61.047"/>
     <use style="fill:#008000;" x="257.181729" xlink:href="#mabc926f9cc" y="62.221359"/>
     <use style="fill:#008000;" x="266.485291" xlink:href="#mabc926f9cc" y="63.031864"/>
     <use style="fill:#008000;" x="275.788853" xlink:href="#mabc926f9cc" y="63.690447"/>
    </g>
   </g>
   <g id="patch_9">
    <path d="M 178.10145 66.770671 
L 178.10145 22.481539 
" style="fill:none;stroke:#000000;stroke-linecap:square;stroke-linejoin:miter;stroke-width:0.8;"/>
   </g>
   <g id="patch_10">
    <path d="M 182.753231 68.32295 
L 275.788853 68.32295 
" style="fill:none;stroke:#000000;stroke-linecap:square;stroke-linejoin:miter;stroke-width:0.8;"/>
   </g>
   <g id="legend_3">
    <g id="line2d_39">
     <path d="M 231.608345 15.410988 
L 244.103345 15.410988 
" style="fill:none;stroke:#ff0000;stroke-linecap:round;stroke-width:1.25;"/>
    </g>
    <g id="line2d_40">
     <g>
      <use style="fill:#ff0000;" x="237.855845" xlink:href="#ma162b57a26" y="15.410988"/>
     </g>
    </g>
    <g id="text_35">
     <!-- lognormal -->
     <g transform="translate(246.602345 18.326488)scale(0.0833 -0.0833)">
      <use xlink:href="#ArialMT-6c"/>
      <use x="22.216797" xlink:href="#ArialMT-6f"/>
      <use x="77.832031" xlink:href="#ArialMT-67"/>
      <use x="133.447266" xlink:href="#ArialMT-6e"/>
      <use x="189.0625" xlink:href="#ArialMT-6f"/>
      <use x="244.677734" xlink:href="#ArialMT-72"/>
      <use x="277.978516" xlink:href="#ArialMT-6d"/>
      <use x="361.279297" xlink:href="#ArialMT-61"/>
      <use x="416.894531" xlink:href="#ArialMT-6c"/>
     </g>
    </g>
    <g id="line2d_41">
     <path d="M 231.608345 24.79265 
L 244.103345 24.79265 
" style="fill:none;stroke:#008000;stroke-linecap:round;stroke-width:1.25;"/>
    </g>
    <g id="line2d_42">
     <g>
      <use style="fill:#008000;" x="237.855845" xlink:href="#mbd30024c91" y="24.79265"/>
     </g>
    </g>
    <g id="text_36">
     <!-- normal -->
     <g transform="translate(246.602345 27.70815)scale(0.0833 -0.0833)">
      <use xlink:href="#ArialMT-6e"/>
      <use x="55.615234" xlink:href="#ArialMT-6f"/>
      <use x="111.230469" xlink:href="#ArialMT-72"/>
      <use x="144.53125" xlink:href="#ArialMT-6d"/>
      <use x="227.832031" xlink:href="#ArialMT-61"/>
      <use x="283.447266" xlink:href="#ArialMT-6c"/>
     </g>
    </g>
   </g>
  </g>
  <g id="axes_4">
   <g id="patch_11">
    <path d="M 178.10145 164.27015 
L 280.440634 164.27015 
L 280.440634 106.58295 
L 178.10145 106.58295 
z
" style="fill:none;"/>
   </g>
   <g id="matplotlib.axis_7">
    <g id="xtick_10">
     <g id="line2d_43">
      <g>
       <use style="stroke:#000000;stroke-width:0.8;" x="182.753231" xlink:href="#m09c29a37c8" y="164.27015"/>
      </g>
     </g>
     <g id="text_37">
      <!-- 0.0 -->
      <g transform="translate(176.081231 175.64165)scale(0.096 -0.096)">
       <use xlink:href="#ArialMT-30"/>
       <use x="55.615234" xlink:href="#ArialMT-2e"/>
       <use x="83.398438" xlink:href="#ArialMT-30"/>
      </g>
     </g>
    </g>
    <g id="xtick_11">
     <g id="line2d_44">
      <g>
       <use style="stroke:#000000;stroke-width:0.8;" x="229.271042" xlink:href="#m09c29a37c8" y="164.27015"/>
      </g>
     </g>
     <g id="text_38">
      <!-- 0.1 -->
      <g transform="translate(222.599042 175.64165)scale(0.096 -0.096)">
       <use xlink:href="#ArialMT-30"/>
       <use x="55.615234" xlink:href="#ArialMT-2e"/>
       <use x="83.398438" xlink:href="#ArialMT-31"/>
      </g>
     </g>
    </g>
    <g id="xtick_12">
     <g id="line2d_45">
      <g>
       <use style="stroke:#000000;stroke-width:0.8;" x="275.788853" xlink:href="#m09c29a37c8" y="164.27015"/>
      </g>
     </g>
     <g id="text_39">
      <!-- 0.2 -->
      <g transform="translate(269.116853 175.64165)scale(0.096 -0.096)">
       <use xlink:href="#ArialMT-30"/>
       <use x="55.615234" xlink:href="#ArialMT-2e"/>
       <use x="83.398438" xlink:href="#ArialMT-32"/>
      </g>
     </g>
    </g>
    <g id="text_40">
     <!-- $\sigma _r$ -->
     <g transform="translate(224.624642 186.1083)scale(0.1056 -0.1056)">
      <use transform="translate(0 0.703125)" xlink:href="#STIXNonUnicode-Italic-e1ea"/>
      <use transform="translate(61.492692 -12.885937)scale(0.7)" xlink:href="#STIXGeneral-Italic-1d633"/>
     </g>
    </g>
   </g>
   <g id="matplotlib.axis_8">
    <g id="ytick_16">
     <g id="line2d_46">
      <g>
       <use style="stroke:#000000;stroke-width:0.8;" x="178.10145" xlink:href="#mf2a53761f6" y="164.27015"/>
      </g>
     </g>
     <g id="text_41">
      <!-- 0.4 -->
      <g transform="translate(161.25745 167.7059)scale(0.096 -0.096)">
       <use xlink:href="#ArialMT-30"/>
       <use x="55.615234" xlink:href="#ArialMT-2e"/>
       <use x="83.398438" xlink:href="#ArialMT-34"/>
      </g>
     </g>
    </g>
    <g id="ytick_17">
     <g id="line2d_47">
      <g>
       <use style="stroke:#000000;stroke-width:0.8;" x="178.10145" xlink:href="#mf2a53761f6" y="154.655617"/>
      </g>
     </g>
     <g id="text_42">
      <!-- 0.5 -->
      <g transform="translate(161.25745 158.091367)scale(0.096 -0.096)">
       <use xlink:href="#ArialMT-30"/>
       <use x="55.615234" xlink:href="#ArialMT-2e"/>
       <use x="83.398438" xlink:href="#ArialMT-35"/>
      </g>
     </g>
    </g>
    <g id="ytick_18">
     <g id="line2d_48">
      <g>
       <use style="stroke:#000000;stroke-width:0.8;" x="178.10145" xlink:href="#mf2a53761f6" y="145.041083"/>
      </g>
     </g>
     <g id="text_43">
      <!-- 0.6 -->
      <g transform="translate(161.25745 148.476833)scale(0.096 -0.096)">
       <use xlink:href="#ArialMT-30"/>
       <use x="55.615234" xlink:href="#ArialMT-2e"/>
       <use x="83.398438" xlink:href="#ArialMT-36"/>
      </g>
     </g>
    </g>
    <g id="ytick_19">
     <g id="line2d_49">
      <g>
       <use style="stroke:#000000;stroke-width:0.8;" x="178.10145" xlink:href="#mf2a53761f6" y="135.42655"/>
      </g>
     </g>
     <g id="text_44">
      <!-- 0.7 -->
      <g transform="translate(161.25745 138.8623)scale(0.096 -0.096)">
       <use xlink:href="#ArialMT-30"/>
       <use x="55.615234" xlink:href="#ArialMT-2e"/>
       <use x="83.398438" xlink:href="#ArialMT-37"/>
      </g>
     </g>
    </g>
    <g id="ytick_20">
     <g id="line2d_50">
      <g>
       <use style="stroke:#000000;stroke-width:0.8;" x="178.10145" xlink:href="#mf2a53761f6" y="125.812017"/>
      </g>
     </g>
     <g id="text_45">
      <!-- 0.8 -->
      <g transform="translate(161.25745 129.247767)scale(0.096 -0.096)">
       <use xlink:href="#ArialMT-30"/>
       <use x="55.615234" xlink:href="#ArialMT-2e"/>
       <use x="83.398438" xlink:href="#ArialMT-38"/>
      </g>
     </g>
    </g>
    <g id="ytick_21">
     <g id="line2d_51">
      <g>
       <use style="stroke:#000000;stroke-width:0.8;" x="178.10145" xlink:href="#mf2a53761f6" y="116.197483"/>
      </g>
     </g>
     <g id="text_46">
      <!-- 0.9 -->
      <g transform="translate(161.25745 119.633233)scale(0.096 -0.096)">
       <use xlink:href="#ArialMT-30"/>
       <use x="55.615234" xlink:href="#ArialMT-2e"/>
       <use x="83.398438" xlink:href="#ArialMT-39"/>
      </g>
     </g>
    </g>
    <g id="ytick_22">
     <g id="line2d_52">
      <g>
       <use style="stroke:#000000;stroke-width:0.8;" x="178.10145" xlink:href="#mf2a53761f6" y="106.58295"/>
      </g>
     </g>
     <g id="text_47">
      <!-- 1.0 -->
      <g transform="translate(161.25745 110.0187)scale(0.096 -0.096)">
       <use xlink:href="#ArialMT-31"/>
       <use x="55.615234" xlink:href="#ArialMT-2e"/>
       <use x="83.398438" xlink:href="#ArialMT-30"/>
      </g>
     </g>
    </g>
    <g id="text_48">
     <!-- Gini coefficient -->
     <g transform="translate(158.15865 170.05345)rotate(-90)scale(0.1056 -0.1056)">
      <use xlink:href="#ArialMT-47"/>
      <use x="77.783203" xlink:href="#ArialMT-69"/>
      <use x="100" xlink:href="#ArialMT-6e"/>
      <use x="155.615234" xlink:href="#ArialMT-69"/>
      <use x="177.832031" xlink:href="#ArialMT-20"/>
      <use x="205.615234" xlink:href="#ArialMT-63"/>
      <use x="255.615234" xlink:href="#ArialMT-6f"/>
      <use x="311.230469" xlink:href="#ArialMT-65"/>
      <use x="366.845703" xlink:href="#ArialMT-66"/>
      <use x="394.613281" xlink:href="#ArialMT-66"/>
      <use x="422.396484" xlink:href="#ArialMT-69"/>
      <use x="444.613281" xlink:href="#ArialMT-63"/>
      <use x="494.613281" xlink:href="#ArialMT-69"/>
      <use x="516.830078" xlink:href="#ArialMT-65"/>
      <use x="572.445312" xlink:href="#ArialMT-6e"/>
      <use x="628.060547" xlink:href="#ArialMT-74"/>
     </g>
    </g>
   </g>
   <g id="PolyCollection_7">
    <defs>
     <path d="M 182.753231 -38.568274 
L 182.753231 -39.269755 
L 192.056793 -51.499339 
L 201.360356 -69.056301 
L 210.663918 -78.442852 
L 219.96748 -82.312701 
L 229.271042 -83.620977 
L 238.574604 -83.912804 
L 247.878167 -83.921263 
L 257.181729 -83.678813 
L 266.485291 -83.641232 
L 275.788853 -83.55996 
L 275.788853 -82.548518 
L 275.788853 -82.548518 
L 266.485291 -82.886709 
L 257.181729 -82.876198 
L 247.878167 -83.410127 
L 238.574604 -83.550389 
L 229.271042 -83.101016 
L 219.96748 -81.805577 
L 210.663918 -77.940291 
L 201.360356 -68.104387 
L 192.056793 -50.68017 
L 182.753231 -38.568274 
z
" id="m21b265466e" style="stroke:#ff0000;stroke-opacity:0.2;stroke-width:0.24;"/>
    </defs>
    <g clip-path="url(#pc64e8f1637)">
     <use style="fill:#ff0000;fill-opacity:0.2;stroke:#ff0000;stroke-opacity:0.2;stroke-width:0.24;" x="0" xlink:href="#m21b265466e" y="195.4071"/>
    </g>
   </g>
   <g id="PolyCollection_8">
    <defs>
     <path d="M 182.753231 -38.625817 
L 182.753231 -39.405918 
L 192.056793 -51.40389 
L 201.360356 -67.181839 
L 210.663918 -75.822483 
L 219.96748 -79.943358 
L 229.271042 -81.952324 
L 238.574604 -82.637194 
L 247.878167 -83.185702 
L 257.181729 -83.136307 
L 266.485291 -83.227751 
L 275.788853 -83.121238 
L 275.788853 -82.665128 
L 275.788853 -82.665128 
L 266.485291 -82.699872 
L 257.181729 -82.709862 
L 247.878167 -82.698341 
L 238.574604 -82.232325 
L 229.271042 -81.424293 
L 219.96748 -79.721238 
L 210.663918 -75.292592 
L 201.360356 -66.247202 
L 192.056793 -50.349206 
L 182.753231 -38.625817 
z
" id="m9b924725ca" style="stroke:#008000;stroke-opacity:0.2;stroke-width:0.24;"/>
    </defs>
    <g clip-path="url(#pc64e8f1637)">
     <use style="fill:#008000;fill-opacity:0.2;stroke:#008000;stroke-opacity:0.2;stroke-width:0.24;" x="0" xlink:href="#m9b924725ca" y="195.4071"/>
    </g>
   </g>
   <g id="line2d_53">
    <path clip-path="url(#pc64e8f1637)" d="M 182.753231 156.488085 
L 192.056793 144.317345 
L 201.360356 126.826756 
L 210.663918 117.215529 
L 219.96748 113.347961 
L 229.271042 112.046104 
L 238.574604 111.675504 
L 247.878167 111.741405 
L 257.181729 112.129595 
L 266.485291 112.143129 
L 275.788853 112.352861 
" style="fill:none;stroke:#ff0000;stroke-linecap:round;stroke-width:1.25;"/>
    <g clip-path="url(#pc64e8f1637)">
     <use style="fill:#ff0000;" x="182.753231" xlink:href="#mba9bf1f269" y="156.488085"/>
     <use style="fill:#ff0000;" x="192.056793" xlink:href="#mba9bf1f269" y="144.317345"/>
     <use style="fill:#ff0000;" x="201.360356" xlink:href="#mba9bf1f269" y="126.826756"/>
     <use style="fill:#ff0000;" x="210.663918" xlink:href="#mba9bf1f269" y="117.215529"/>
     <use style="fill:#ff0000;" x="219.96748" xlink:href="#mba9bf1f269" y="113.347961"/>
     <use style="fill:#ff0000;" x="229.271042" xlink:href="#mba9bf1f269" y="112.046104"/>
     <use style="fill:#ff0000;" x="238.574604" xlink:href="#mba9bf1f269" y="111.675504"/>
     <use style="fill:#ff0000;" x="247.878167" xlink:href="#mba9bf1f269" y="111.741405"/>
     <use style="fill:#ff0000;" x="257.181729" xlink:href="#mba9bf1f269" y="112.129595"/>
     <use style="fill:#ff0000;" x="266.485291" xlink:href="#mba9bf1f269" y="112.143129"/>
     <use style="fill:#ff0000;" x="275.788853" xlink:href="#mba9bf1f269" y="112.352861"/>
    </g>
   </g>
   <g id="line2d_54">
    <path clip-path="url(#pc64e8f1637)" d="M 182.753231 156.391232 
L 192.056793 144.530552 
L 201.360356 128.69258 
L 210.663918 119.849562 
L 219.96748 115.574802 
L 229.271042 113.718791 
L 238.574604 112.97234 
L 247.878167 112.465079 
L 257.181729 112.484015 
L 266.485291 112.443289 
L 275.788853 112.513917 
" style="fill:none;stroke:#008000;stroke-linecap:round;stroke-width:1.25;"/>
    <g clip-path="url(#pc64e8f1637)">
     <use style="fill:#008000;" x="182.753231" xlink:href="#mabc926f9cc" y="156.391232"/>
     <use style="fill:#008000;" x="192.056793" xlink:href="#mabc926f9cc" y="144.530552"/>
     <use style="fill:#008000;" x="201.360356" xlink:href="#mabc926f9cc" y="128.69258"/>
     <use style="fill:#008000;" x="210.663918" xlink:href="#mabc926f9cc" y="119.849562"/>
     <use style="fill:#008000;" x="219.96748" xlink:href="#mabc926f9cc" y="115.574802"/>
     <use style="fill:#008000;" x="229.271042" xlink:href="#mabc926f9cc" y="113.718791"/>
     <use style="fill:#008000;" x="238.574604" xlink:href="#mabc926f9cc" y="112.97234"/>
     <use style="fill:#008000;" x="247.878167" xlink:href="#mabc926f9cc" y="112.465079"/>
     <use style="fill:#008000;" x="257.181729" xlink:href="#mabc926f9cc" y="112.484015"/>
     <use style="fill:#008000;" x="266.485291" xlink:href="#mabc926f9cc" y="112.443289"/>
     <use style="fill:#008000;" x="275.788853" xlink:href="#mabc926f9cc" y="112.513917"/>
    </g>
   </g>
   <g id="patch_12">
    <path d="M 178.10145 164.27015 
L 178.10145 106.58295 
" style="fill:none;stroke:#000000;stroke-linecap:square;stroke-linejoin:miter;stroke-width:0.8;"/>
   </g>
   <g id="patch_13">
    <path d="M 182.753231 164.27015 
L 275.788853 164.27015 
" style="fill:none;stroke:#000000;stroke-linecap:square;stroke-linejoin:miter;stroke-width:0.8;"/>
   </g>
   <g id="legend_4">
    <g id="line2d_55">
     <path d="M 231.608345 148.58912 
L 244.103345 148.58912 
" style="fill:none;stroke:#ff0000;stroke-linecap:round;stroke-width:1.25;"/>
    </g>
    <g id="line2d_56">
     <g>
      <use style="fill:#ff0000;" x="237.855845" xlink:href="#ma162b57a26" y="148.58912"/>
     </g>
    </g>
    <g id="text_49">
     <!-- lognormal -->
     <g transform="translate(246.602345 151.50462)scale(0.0833 -0.0833)">
      <use xlink:href="#ArialMT-6c"/>
      <use x="22.216797" xlink:href="#ArialMT-6f"/>
      <use x="77.832031" xlink:href="#ArialMT-67"/>
      <use x="133.447266" xlink:href="#ArialMT-6e"/>
      <use x="189.0625" xlink:href="#ArialMT-6f"/>
      <use x="244.677734" xlink:href="#ArialMT-72"/>
      <use x="277.978516" xlink:href="#ArialMT-6d"/>
      <use x="361.279297" xlink:href="#ArialMT-61"/>
      <use x="416.894531" xlink:href="#ArialMT-6c"/>
     </g>
    </g>
    <g id="line2d_57">
     <path d="M 231.608345 157.970782 
L 244.103345 157.970782 
" style="fill:none;stroke:#008000;stroke-linecap:round;stroke-width:1.25;"/>
    </g>
    <g id="line2d_58">
     <g>
      <use style="fill:#008000;" x="237.855845" xlink:href="#mbd30024c91" y="157.970782"/>
     </g>
    </g>
    <g id="text_50">
     <!-- normal -->
     <g transform="translate(246.602345 160.886282)scale(0.0833 -0.0833)">
      <use xlink:href="#ArialMT-6e"/>
      <use x="55.615234" xlink:href="#ArialMT-6f"/>
      <use x="111.230469" xlink:href="#ArialMT-72"/>
      <use x="144.53125" xlink:href="#ArialMT-6d"/>
      <use x="227.832031" xlink:href="#ArialMT-61"/>
      <use x="283.447266" xlink:href="#ArialMT-6c"/>
     </g>
    </g>
   </g>
  </g>
  <g id="axes_5">
   <g id="patch_14">
    <path d="M 321.50145 68.32295 
L 423.840634 68.32295 
L 423.840634 10.63575 
L 321.50145 10.63575 
z
" style="fill:none;"/>
   </g>
   <g id="matplotlib.axis_9">
    <g id="xtick_13">
     <g id="line2d_59">
      <g>
       <use style="stroke:#000000;stroke-width:0.8;" x="326.153231" xlink:href="#m09c29a37c8" y="68.32295"/>
      </g>
     </g>
     <g id="text_51">
      <!-- 0.0 -->
      <g transform="translate(319.481231 79.69445)scale(0.096 -0.096)">
       <use xlink:href="#ArialMT-30"/>
       <use x="55.615234" xlink:href="#ArialMT-2e"/>
       <use x="83.398438" xlink:href="#ArialMT-30"/>
      </g>
     </g>
    </g>
    <g id="xtick_14">
     <g id="line2d_60">
      <g>
       <use style="stroke:#000000;stroke-width:0.8;" x="372.671042" xlink:href="#m09c29a37c8" y="68.32295"/>
      </g>
     </g>
     <g id="text_52">
      <!-- 0.1 -->
      <g transform="translate(365.999042 79.69445)scale(0.096 -0.096)">
       <use xlink:href="#ArialMT-30"/>
       <use x="55.615234" xlink:href="#ArialMT-2e"/>
       <use x="83.398438" xlink:href="#ArialMT-31"/>
      </g>
     </g>
    </g>
    <g id="xtick_15">
     <g id="line2d_61">
      <g>
       <use style="stroke:#000000;stroke-width:0.8;" x="419.188853" xlink:href="#m09c29a37c8" y="68.32295"/>
      </g>
     </g>
     <g id="text_53">
      <!-- 0.2 -->
      <g transform="translate(412.516853 79.69445)scale(0.096 -0.096)">
       <use xlink:href="#ArialMT-30"/>
       <use x="55.615234" xlink:href="#ArialMT-2e"/>
       <use x="83.398438" xlink:href="#ArialMT-32"/>
      </g>
     </g>
    </g>
    <g id="text_54">
     <!-- $\sigma _r$ -->
     <g transform="translate(368.024642 90.1611)scale(0.1056 -0.1056)">
      <use transform="translate(0 0.703125)" xlink:href="#STIXNonUnicode-Italic-e1ea"/>
      <use transform="translate(61.492692 -12.885937)scale(0.7)" xlink:href="#STIXGeneral-Italic-1d633"/>
     </g>
    </g>
   </g>
   <g id="matplotlib.axis_10">
    <g id="ytick_23">
     <g id="line2d_62">
      <g>
       <use style="stroke:#000000;stroke-width:0.8;" x="321.50145" xlink:href="#mf2a53761f6" y="68.32295"/>
      </g>
     </g>
     <g id="text_55">
      <!-- 0 -->
      <g transform="translate(312.66295 71.7587)scale(0.096 -0.096)">
       <use xlink:href="#ArialMT-30"/>
      </g>
     </g>
    </g>
    <g id="ytick_24">
     <g id="line2d_63">
      <g>
       <use style="stroke:#000000;stroke-width:0.8;" x="321.50145" xlink:href="#mf2a53761f6" y="56.78551"/>
      </g>
     </g>
     <g id="text_56">
      <!-- 10 -->
      <g transform="translate(307.32445 60.22126)scale(0.096 -0.096)">
       <use xlink:href="#ArialMT-31"/>
       <use x="55.615234" xlink:href="#ArialMT-30"/>
      </g>
     </g>
    </g>
    <g id="ytick_25">
     <g id="line2d_64">
      <g>
       <use style="stroke:#000000;stroke-width:0.8;" x="321.50145" xlink:href="#mf2a53761f6" y="45.24807"/>
      </g>
     </g>
     <g id="text_57">
      <!-- 20 -->
      <g transform="translate(307.32445 48.68382)scale(0.096 -0.096)">
       <use xlink:href="#ArialMT-32"/>
       <use x="55.615234" xlink:href="#ArialMT-30"/>
      </g>
     </g>
    </g>
    <g id="ytick_26">
     <g id="line2d_65">
      <g>
       <use style="stroke:#000000;stroke-width:0.8;" x="321.50145" xlink:href="#mf2a53761f6" y="33.71063"/>
      </g>
     </g>
     <g id="text_58">
      <!-- 30 -->
      <defs>
       <path d="M 4.203125 18.890625 
L 12.984375 20.0625 
Q 14.5 12.59375 18.140625 9.296875 
Q 21.78125 6 27 6 
Q 33.203125 6 37.46875 10.296875 
Q 41.75 14.59375 41.75 20.953125 
Q 41.75 27 37.796875 30.921875 
Q 33.84375 34.859375 27.734375 34.859375 
Q 25.25 34.859375 21.53125 33.890625 
L 22.515625 41.609375 
Q 23.390625 41.5 23.921875 41.5 
Q 29.546875 41.5 34.03125 44.421875 
Q 38.53125 47.359375 38.53125 53.46875 
Q 38.53125 58.296875 35.25 61.46875 
Q 31.984375 64.65625 26.8125 64.65625 
Q 21.6875 64.65625 18.265625 61.421875 
Q 14.84375 58.203125 13.875 51.765625 
L 5.078125 53.328125 
Q 6.6875 62.15625 12.390625 67.015625 
Q 18.109375 71.875 26.609375 71.875 
Q 32.46875 71.875 37.390625 69.359375 
Q 42.328125 66.84375 44.9375 62.5 
Q 47.5625 58.15625 47.5625 53.265625 
Q 47.5625 48.640625 45.0625 44.828125 
Q 42.578125 41.015625 37.703125 38.765625 
Q 44.046875 37.3125 47.5625 32.6875 
Q 51.078125 28.078125 51.078125 21.140625 
Q 51.078125 11.765625 44.234375 5.25 
Q 37.40625 -1.265625 26.953125 -1.265625 
Q 17.53125 -1.265625 11.296875 4.34375 
Q 5.078125 9.96875 4.203125 18.890625 
" id="ArialMT-33"/>
      </defs>
      <g transform="translate(307.32445 37.14638)scale(0.096 -0.096)">
       <use xlink:href="#ArialMT-33"/>
       <use x="55.615234" xlink:href="#ArialMT-30"/>
      </g>
     </g>
    </g>
    <g id="ytick_27">
     <g id="line2d_66">
      <g>
       <use style="stroke:#000000;stroke-width:0.8;" x="321.50145" xlink:href="#mf2a53761f6" y="22.17319"/>
      </g>
     </g>
     <g id="text_59">
      <!-- 40 -->
      <g transform="translate(307.32445 25.60894)scale(0.096 -0.096)">
       <use xlink:href="#ArialMT-34"/>
       <use x="55.615234" xlink:href="#ArialMT-30"/>
      </g>
     </g>
    </g>
    <g id="ytick_28">
     <g id="line2d_67">
      <g>
       <use style="stroke:#000000;stroke-width:0.8;" x="321.50145" xlink:href="#mf2a53761f6" y="10.63575"/>
      </g>
     </g>
     <g id="text_60">
      <!-- 50 -->
      <g transform="translate(307.32445 14.0715)scale(0.096 -0.096)">
       <use xlink:href="#ArialMT-35"/>
       <use x="55.615234" xlink:href="#ArialMT-30"/>
      </g>
     </g>
    </g>
    <g id="text_61">
     <!-- % clones left -->
     <g transform="translate(304.22565 69.412825)rotate(-90)scale(0.1056 -0.1056)">
      <use xlink:href="#ArialMT-25"/>
      <use x="88.916016" xlink:href="#ArialMT-20"/>
      <use x="116.699219" xlink:href="#ArialMT-63"/>
      <use x="166.699219" xlink:href="#ArialMT-6c"/>
      <use x="188.916016" xlink:href="#ArialMT-6f"/>
      <use x="244.53125" xlink:href="#ArialMT-6e"/>
      <use x="300.146484" xlink:href="#ArialMT-65"/>
      <use x="355.761719" xlink:href="#ArialMT-73"/>
      <use x="405.761719" xlink:href="#ArialMT-20"/>
      <use x="433.544922" xlink:href="#ArialMT-6c"/>
      <use x="455.761719" xlink:href="#ArialMT-65"/>
      <use x="511.376953" xlink:href="#ArialMT-66"/>
      <use x="539.160156" xlink:href="#ArialMT-74"/>
     </g>
    </g>
   </g>
   <g id="PolyCollection_9">
    <defs>
     <path d="M 326.153231 -183.477852 
L 326.153231 -184.145404 
L 335.456793 -170.925203 
L 344.760356 -149.332672 
L 354.063918 -137.114146 
L 363.36748 -132.078323 
L 372.671042 -129.925328 
L 381.974604 -128.89258 
L 391.278167 -128.288288 
L 400.581729 -127.9409 
L 409.885291 -127.760384 
L 419.188853 -127.620294 
L 419.188853 -127.582923 
L 419.188853 -127.582923 
L 409.885291 -127.686226 
L 400.581729 -127.836171 
L 391.278167 -128.187302 
L 381.974604 -128.710931 
L 372.671042 -129.682715 
L 363.36748 -131.641683 
L 354.063918 -136.55135 
L 344.760356 -148.490111 
L 335.456793 -170.265136 
L 326.153231 -183.477852 
z
" id="m8fec95595a" style="stroke:#ff0000;stroke-opacity:0.2;stroke-width:0.24;"/>
    </defs>
    <g clip-path="url(#p07047e30ef)">
     <use style="fill:#ff0000;fill-opacity:0.2;stroke:#ff0000;stroke-opacity:0.2;stroke-width:0.24;" x="0" xlink:href="#m8fec95595a" y="195.4071"/>
    </g>
   </g>
   <g id="PolyCollection_10">
    <defs>
     <path d="M 326.153231 -183.390098 
L 326.153231 -184.359802 
L 335.456793 -171.514107 
L 344.760356 -151.36193 
L 354.063918 -139.974165 
L 363.36748 -134.415498 
L 372.671042 -131.868095 
L 381.974604 -130.513394 
L 391.278167 -129.664651 
L 400.581729 -129.170687 
L 409.885291 -128.831076 
L 419.188853 -128.480591 
L 419.188853 -128.382845 
L 419.188853 -128.382845 
L 409.885291 -128.661621 
L 400.581729 -128.975017 
L 391.278167 -129.432859 
L 381.974604 -130.262146 
L 372.671042 -131.553111 
L 363.36748 -134.107075 
L 354.063918 -139.307187 
L 344.760356 -150.41847 
L 335.456793 -170.521183 
L 326.153231 -183.390098 
z
" id="m51ede1c361" style="stroke:#008000;stroke-opacity:0.2;stroke-width:0.24;"/>
    </defs>
    <g clip-path="url(#p07047e30ef)">
     <use style="fill:#008000;fill-opacity:0.2;stroke:#008000;stroke-opacity:0.2;stroke-width:0.24;" x="0" xlink:href="#m51ede1c361" y="195.4071"/>
    </g>
   </g>
   <g id="line2d_68">
    <path clip-path="url(#p07047e30ef)" d="M 326.153231 11.595472 
L 335.456793 24.81193 
L 344.760356 46.495708 
L 354.063918 58.574352 
L 363.36748 63.547097 
L 372.671042 65.603078 
L 381.974604 66.605345 
L 391.278167 67.169305 
L 400.581729 67.518565 
L 409.885291 67.683795 
L 419.188853 67.805492 
" style="fill:none;stroke:#ff0000;stroke-linecap:round;stroke-width:1.25;"/>
    <g clip-path="url(#p07047e30ef)">
     <use style="fill:#ff0000;" x="326.153231" xlink:href="#mba9bf1f269" y="11.595472"/>
     <use style="fill:#ff0000;" x="335.456793" xlink:href="#mba9bf1f269" y="24.81193"/>
     <use style="fill:#ff0000;" x="344.760356" xlink:href="#mba9bf1f269" y="46.495708"/>
     <use style="fill:#ff0000;" x="354.063918" xlink:href="#mba9bf1f269" y="58.574352"/>
     <use style="fill:#ff0000;" x="363.36748" xlink:href="#mba9bf1f269" y="63.547097"/>
     <use style="fill:#ff0000;" x="372.671042" xlink:href="#mba9bf1f269" y="65.603078"/>
     <use style="fill:#ff0000;" x="381.974604" xlink:href="#mba9bf1f269" y="66.605345"/>
     <use style="fill:#ff0000;" x="391.278167" xlink:href="#mba9bf1f269" y="67.169305"/>
     <use style="fill:#ff0000;" x="400.581729" xlink:href="#mba9bf1f269" y="67.518565"/>
     <use style="fill:#ff0000;" x="409.885291" xlink:href="#mba9bf1f269" y="67.683795"/>
     <use style="fill:#ff0000;" x="419.188853" xlink:href="#mba9bf1f269" y="67.805492"/>
    </g>
   </g>
   <g id="line2d_69">
    <path clip-path="url(#p07047e30ef)" d="M 326.153231 11.53215 
L 335.456793 24.389455 
L 344.760356 44.5169 
L 354.063918 55.766424 
L 363.36748 61.145813 
L 372.671042 63.696497 
L 381.974604 65.01933 
L 391.278167 65.858345 
L 400.581729 66.334248 
L 409.885291 66.660751 
L 419.188853 66.975382 
" style="fill:none;stroke:#008000;stroke-linecap:round;stroke-width:1.25;"/>
    <g clip-path="url(#p07047e30ef)">
     <use style="fill:#008000;" x="326.153231" xlink:href="#mabc926f9cc" y="11.53215"/>
     <use style="fill:#008000;" x="335.456793" xlink:href="#mabc926f9cc" y="24.389455"/>
     <use style="fill:#008000;" x="344.760356" xlink:href="#mabc926f9cc" y="44.5169"/>
     <use style="fill:#008000;" x="354.063918" xlink:href="#mabc926f9cc" y="55.766424"/>
     <use style="fill:#008000;" x="363.36748" xlink:href="#mabc926f9cc" y="61.145813"/>
     <use style="fill:#008000;" x="372.671042" xlink:href="#mabc926f9cc" y="63.696497"/>
     <use style="fill:#008000;" x="381.974604" xlink:href="#mabc926f9cc" y="65.01933"/>
     <use style="fill:#008000;" x="391.278167" xlink:href="#mabc926f9cc" y="65.858345"/>
     <use style="fill:#008000;" x="400.581729" xlink:href="#mabc926f9cc" y="66.334248"/>
     <use style="fill:#008000;" x="409.885291" xlink:href="#mabc926f9cc" y="66.660751"/>
     <use style="fill:#008000;" x="419.188853" xlink:href="#mabc926f9cc" y="66.975382"/>
    </g>
   </g>
   <g id="patch_15">
    <path d="M 321.50145 68.32295 
L 321.50145 10.63575 
" style="fill:none;stroke:#000000;stroke-linecap:square;stroke-linejoin:miter;stroke-width:0.8;"/>
   </g>
   <g id="patch_16">
    <path d="M 326.153231 68.32295 
L 419.188853 68.32295 
" style="fill:none;stroke:#000000;stroke-linecap:square;stroke-linejoin:miter;stroke-width:0.8;"/>
   </g>
   <g id="legend_5">
    <g id="line2d_70">
     <path d="M 375.008345 15.410988 
L 387.503345 15.410988 
" style="fill:none;stroke:#ff0000;stroke-linecap:round;stroke-width:1.25;"/>
    </g>
    <g id="line2d_71">
     <g>
      <use style="fill:#ff0000;" x="381.255845" xlink:href="#ma162b57a26" y="15.410988"/>
     </g>
    </g>
    <g id="text_62">
     <!-- lognormal -->
     <g transform="translate(390.002345 18.326488)scale(0.0833 -0.0833)">
      <use xlink:href="#ArialMT-6c"/>
      <use x="22.216797" xlink:href="#ArialMT-6f"/>
      <use x="77.832031" xlink:href="#ArialMT-67"/>
      <use x="133.447266" xlink:href="#ArialMT-6e"/>
      <use x="189.0625" xlink:href="#ArialMT-6f"/>
      <use x="244.677734" xlink:href="#ArialMT-72"/>
      <use x="277.978516" xlink:href="#ArialMT-6d"/>
      <use x="361.279297" xlink:href="#ArialMT-61"/>
      <use x="416.894531" xlink:href="#ArialMT-6c"/>
     </g>
    </g>
    <g id="line2d_72">
     <path d="M 375.008345 24.79265 
L 387.503345 24.79265 
" style="fill:none;stroke:#008000;stroke-linecap:round;stroke-width:1.25;"/>
    </g>
    <g id="line2d_73">
     <g>
      <use style="fill:#008000;" x="381.255845" xlink:href="#mbd30024c91" y="24.79265"/>
     </g>
    </g>
    <g id="text_63">
     <!-- normal -->
     <g transform="translate(390.002345 27.70815)scale(0.0833 -0.0833)">
      <use xlink:href="#ArialMT-6e"/>
      <use x="55.615234" xlink:href="#ArialMT-6f"/>
      <use x="111.230469" xlink:href="#ArialMT-72"/>
      <use x="144.53125" xlink:href="#ArialMT-6d"/>
      <use x="227.832031" xlink:href="#ArialMT-61"/>
      <use x="283.447266" xlink:href="#ArialMT-6c"/>
     </g>
    </g>
   </g>
  </g>
  <g id="axes_6">
   <g id="patch_17">
    <path d="M 321.50145 164.27015 
L 423.840634 164.27015 
L 423.840634 106.58295 
L 321.50145 106.58295 
z
" style="fill:none;"/>
   </g>
   <g id="matplotlib.axis_11">
    <g id="xtick_16">
     <g id="line2d_74">
      <g>
       <use style="stroke:#000000;stroke-width:0.8;" x="326.153231" xlink:href="#m09c29a37c8" y="164.27015"/>
      </g>
     </g>
     <g id="text_64">
      <!-- 0.0 -->
      <g transform="translate(319.481231 175.64165)scale(0.096 -0.096)">
       <use xlink:href="#ArialMT-30"/>
       <use x="55.615234" xlink:href="#ArialMT-2e"/>
       <use x="83.398438" xlink:href="#ArialMT-30"/>
      </g>
     </g>
    </g>
    <g id="xtick_17">
     <g id="line2d_75">
      <g>
       <use style="stroke:#000000;stroke-width:0.8;" x="372.671042" xlink:href="#m09c29a37c8" y="164.27015"/>
      </g>
     </g>
     <g id="text_65">
      <!-- 0.1 -->
      <g transform="translate(365.999042 175.64165)scale(0.096 -0.096)">
       <use xlink:href="#ArialMT-30"/>
       <use x="55.615234" xlink:href="#ArialMT-2e"/>
       <use x="83.398438" xlink:href="#ArialMT-31"/>
      </g>
     </g>
    </g>
    <g id="xtick_18">
     <g id="line2d_76">
      <g>
       <use style="stroke:#000000;stroke-width:0.8;" x="419.188853" xlink:href="#m09c29a37c8" y="164.27015"/>
      </g>
     </g>
     <g id="text_66">
      <!-- 0.2 -->
      <g transform="translate(412.516853 175.64165)scale(0.096 -0.096)">
       <use xlink:href="#ArialMT-30"/>
       <use x="55.615234" xlink:href="#ArialMT-2e"/>
       <use x="83.398438" xlink:href="#ArialMT-32"/>
      </g>
     </g>
    </g>
    <g id="text_67">
     <!-- $\sigma _r$ -->
     <g transform="translate(368.024642 186.1083)scale(0.1056 -0.1056)">
      <use transform="translate(0 0.703125)" xlink:href="#STIXNonUnicode-Italic-e1ea"/>
      <use transform="translate(61.492692 -12.885937)scale(0.7)" xlink:href="#STIXGeneral-Italic-1d633"/>
     </g>
    </g>
   </g>
   <g id="matplotlib.axis_12">
    <g id="ytick_29">
     <g id="line2d_77">
      <g>
       <use style="stroke:#000000;stroke-width:0.8;" x="321.50145" xlink:href="#mf2a53761f6" y="164.27015"/>
      </g>
     </g>
     <g id="text_68">
      <!-- 0.4 -->
      <g transform="translate(304.65745 167.7059)scale(0.096 -0.096)">
       <use xlink:href="#ArialMT-30"/>
       <use x="55.615234" xlink:href="#ArialMT-2e"/>
       <use x="83.398438" xlink:href="#ArialMT-34"/>
      </g>
     </g>
    </g>
    <g id="ytick_30">
     <g id="line2d_78">
      <g>
       <use style="stroke:#000000;stroke-width:0.8;" x="321.50145" xlink:href="#mf2a53761f6" y="154.655617"/>
      </g>
     </g>
     <g id="text_69">
      <!-- 0.5 -->
      <g transform="translate(304.65745 158.091367)scale(0.096 -0.096)">
       <use xlink:href="#ArialMT-30"/>
       <use x="55.615234" xlink:href="#ArialMT-2e"/>
       <use x="83.398438" xlink:href="#ArialMT-35"/>
      </g>
     </g>
    </g>
    <g id="ytick_31">
     <g id="line2d_79">
      <g>
       <use style="stroke:#000000;stroke-width:0.8;" x="321.50145" xlink:href="#mf2a53761f6" y="145.041083"/>
      </g>
     </g>
     <g id="text_70">
      <!-- 0.6 -->
      <g transform="translate(304.65745 148.476833)scale(0.096 -0.096)">
       <use xlink:href="#ArialMT-30"/>
       <use x="55.615234" xlink:href="#ArialMT-2e"/>
       <use x="83.398438" xlink:href="#ArialMT-36"/>
      </g>
     </g>
    </g>
    <g id="ytick_32">
     <g id="line2d_80">
      <g>
       <use style="stroke:#000000;stroke-width:0.8;" x="321.50145" xlink:href="#mf2a53761f6" y="135.42655"/>
      </g>
     </g>
     <g id="text_71">
      <!-- 0.7 -->
      <g transform="translate(304.65745 138.8623)scale(0.096 -0.096)">
       <use xlink:href="#ArialMT-30"/>
       <use x="55.615234" xlink:href="#ArialMT-2e"/>
       <use x="83.398438" xlink:href="#ArialMT-37"/>
      </g>
     </g>
    </g>
    <g id="ytick_33">
     <g id="line2d_81">
      <g>
       <use style="stroke:#000000;stroke-width:0.8;" x="321.50145" xlink:href="#mf2a53761f6" y="125.812017"/>
      </g>
     </g>
     <g id="text_72">
      <!-- 0.8 -->
      <g transform="translate(304.65745 129.247767)scale(0.096 -0.096)">
       <use xlink:href="#ArialMT-30"/>
       <use x="55.615234" xlink:href="#ArialMT-2e"/>
       <use x="83.398438" xlink:href="#ArialMT-38"/>
      </g>
     </g>
    </g>
    <g id="ytick_34">
     <g id="line2d_82">
      <g>
       <use style="stroke:#000000;stroke-width:0.8;" x="321.50145" xlink:href="#mf2a53761f6" y="116.197483"/>
      </g>
     </g>
     <g id="text_73">
      <!-- 0.9 -->
      <g transform="translate(304.65745 119.633233)scale(0.096 -0.096)">
       <use xlink:href="#ArialMT-30"/>
       <use x="55.615234" xlink:href="#ArialMT-2e"/>
       <use x="83.398438" xlink:href="#ArialMT-39"/>
      </g>
     </g>
    </g>
    <g id="ytick_35">
     <g id="line2d_83">
      <g>
       <use style="stroke:#000000;stroke-width:0.8;" x="321.50145" xlink:href="#mf2a53761f6" y="106.58295"/>
      </g>
     </g>
     <g id="text_74">
      <!-- 1.0 -->
      <g transform="translate(304.65745 110.0187)scale(0.096 -0.096)">
       <use xlink:href="#ArialMT-31"/>
       <use x="55.615234" xlink:href="#ArialMT-2e"/>
       <use x="83.398438" xlink:href="#ArialMT-30"/>
      </g>
     </g>
    </g>
    <g id="text_75">
     <!-- Gini coefficient -->
     <g transform="translate(301.55865 170.05345)rotate(-90)scale(0.1056 -0.1056)">
      <use xlink:href="#ArialMT-47"/>
      <use x="77.783203" xlink:href="#ArialMT-69"/>
      <use x="100" xlink:href="#ArialMT-6e"/>
      <use x="155.615234" xlink:href="#ArialMT-69"/>
      <use x="177.832031" xlink:href="#ArialMT-20"/>
      <use x="205.615234" xlink:href="#ArialMT-63"/>
      <use x="255.615234" xlink:href="#ArialMT-6f"/>
      <use x="311.230469" xlink:href="#ArialMT-65"/>
      <use x="366.845703" xlink:href="#ArialMT-66"/>
      <use x="394.613281" xlink:href="#ArialMT-66"/>
      <use x="422.396484" xlink:href="#ArialMT-69"/>
      <use x="444.613281" xlink:href="#ArialMT-63"/>
      <use x="494.613281" xlink:href="#ArialMT-69"/>
      <use x="516.830078" xlink:href="#ArialMT-65"/>
      <use x="572.445312" xlink:href="#ArialMT-6e"/>
      <use x="628.060547" xlink:href="#ArialMT-74"/>
     </g>
    </g>
   </g>
   <g id="PolyCollection_11">
    <defs>
     <path d="M 326.153231 -39.052574 
L 326.153231 -39.490499 
L 335.456793 -59.074202 
L 344.760356 -77.071561 
L 354.063918 -81.948725 
L 363.36748 -82.788559 
L 372.671042 -82.99529 
L 381.974604 -82.666638 
L 391.278167 -82.833819 
L 400.581729 -81.739699 
L 409.885291 -82.186607 
L 419.188853 -82.489158 
L 419.188853 -80.511803 
L 419.188853 -80.511803 
L 409.885291 -81.15216 
L 400.581729 -80.650182 
L 391.278167 -81.778603 
L 381.974604 -81.844514 
L 372.671042 -81.834371 
L 363.36748 -82.168194 
L 354.063918 -81.382508 
L 344.760356 -76.333201 
L 335.456793 -58.260307 
L 326.153231 -39.052574 
z
" id="mf16d17bcf0" style="stroke:#ff0000;stroke-opacity:0.2;stroke-width:0.24;"/>
    </defs>
    <g clip-path="url(#p63110bd82a)">
     <use style="fill:#ff0000;fill-opacity:0.2;stroke:#ff0000;stroke-opacity:0.2;stroke-width:0.24;" x="0" xlink:href="#mf16d17bcf0" y="195.4071"/>
    </g>
   </g>
   <g id="PolyCollection_12">
    <defs>
     <path d="M 326.153231 -39.154609 
L 326.153231 -39.72351 
L 335.456793 -58.640554 
L 344.760356 -75.305004 
L 354.063918 -80.466647 
L 363.36748 -82.294009 
L 372.671042 -82.623024 
L 381.974604 -82.176726 
L 391.278167 -82.647251 
L 400.581729 -82.232368 
L 409.885291 -82.168871 
L 419.188853 -81.956052 
L 419.188853 -80.651226 
L 419.188853 -80.651226 
L 409.885291 -81.063036 
L 400.581729 -81.082433 
L 391.278167 -81.420031 
L 381.974604 -81.509569 
L 372.671042 -81.799104 
L 363.36748 -81.524261 
L 354.063918 -79.99424 
L 344.760356 -74.325234 
L 335.456793 -57.633247 
L 326.153231 -39.154609 
z
" id="mf1bf0e8a4a" style="stroke:#008000;stroke-opacity:0.2;stroke-width:0.24;"/>
    </defs>
    <g clip-path="url(#p63110bd82a)">
     <use style="fill:#008000;fill-opacity:0.2;stroke:#008000;stroke-opacity:0.2;stroke-width:0.24;" x="0" xlink:href="#mf1bf0e8a4a" y="195.4071"/>
    </g>
   </g>
   <g id="line2d_84">
    <path clip-path="url(#p63110bd82a)" d="M 326.153231 156.135563 
L 335.456793 136.739845 
L 344.760356 118.704719 
L 354.063918 113.741483 
L 363.36748 112.928724 
L 372.671042 112.99227 
L 381.974604 113.151524 
L 391.278167 113.100889 
L 400.581729 114.21216 
L 409.885291 113.737717 
L 419.188853 113.906619 
" style="fill:none;stroke:#ff0000;stroke-linecap:round;stroke-width:1.25;"/>
    <g clip-path="url(#p63110bd82a)">
     <use style="fill:#ff0000;" x="326.153231" xlink:href="#mba9bf1f269" y="156.135563"/>
     <use style="fill:#ff0000;" x="335.456793" xlink:href="#mba9bf1f269" y="136.739845"/>
     <use style="fill:#ff0000;" x="344.760356" xlink:href="#mba9bf1f269" y="118.704719"/>
     <use style="fill:#ff0000;" x="354.063918" xlink:href="#mba9bf1f269" y="113.741483"/>
     <use style="fill:#ff0000;" x="363.36748" xlink:href="#mba9bf1f269" y="112.928724"/>
     <use style="fill:#ff0000;" x="372.671042" xlink:href="#mba9bf1f269" y="112.99227"/>
     <use style="fill:#ff0000;" x="381.974604" xlink:href="#mba9bf1f269" y="113.151524"/>
     <use style="fill:#ff0000;" x="391.278167" xlink:href="#mba9bf1f269" y="113.100889"/>
     <use style="fill:#ff0000;" x="400.581729" xlink:href="#mba9bf1f269" y="114.21216"/>
     <use style="fill:#ff0000;" x="409.885291" xlink:href="#mba9bf1f269" y="113.737717"/>
     <use style="fill:#ff0000;" x="419.188853" xlink:href="#mba9bf1f269" y="113.906619"/>
    </g>
   </g>
   <g id="line2d_85">
    <path clip-path="url(#p63110bd82a)" d="M 326.153231 155.96804 
L 335.456793 137.270199 
L 344.760356 120.591981 
L 354.063918 115.176657 
L 363.36748 113.497965 
L 372.671042 113.196036 
L 381.974604 113.563953 
L 391.278167 113.373459 
L 400.581729 113.7497 
L 409.885291 113.791146 
L 419.188853 114.103461 
" style="fill:none;stroke:#008000;stroke-linecap:round;stroke-width:1.25;"/>
    <g clip-path="url(#p63110bd82a)">
     <use style="fill:#008000;" x="326.153231" xlink:href="#mabc926f9cc" y="155.96804"/>
     <use style="fill:#008000;" x="335.456793" xlink:href="#mabc926f9cc" y="137.270199"/>
     <use style="fill:#008000;" x="344.760356" xlink:href="#mabc926f9cc" y="120.591981"/>
     <use style="fill:#008000;" x="354.063918" xlink:href="#mabc926f9cc" y="115.176657"/>
     <use style="fill:#008000;" x="363.36748" xlink:href="#mabc926f9cc" y="113.497965"/>
     <use style="fill:#008000;" x="372.671042" xlink:href="#mabc926f9cc" y="113.196036"/>
     <use style="fill:#008000;" x="381.974604" xlink:href="#mabc926f9cc" y="113.563953"/>
     <use style="fill:#008000;" x="391.278167" xlink:href="#mabc926f9cc" y="113.373459"/>
     <use style="fill:#008000;" x="400.581729" xlink:href="#mabc926f9cc" y="113.7497"/>
     <use style="fill:#008000;" x="409.885291" xlink:href="#mabc926f9cc" y="113.791146"/>
     <use style="fill:#008000;" x="419.188853" xlink:href="#mabc926f9cc" y="114.103461"/>
    </g>
   </g>
   <g id="patch_18">
    <path d="M 321.50145 164.27015 
L 321.50145 106.58295 
" style="fill:none;stroke:#000000;stroke-linecap:square;stroke-linejoin:miter;stroke-width:0.8;"/>
   </g>
   <g id="patch_19">
    <path d="M 326.153231 164.27015 
L 419.188853 164.27015 
" style="fill:none;stroke:#000000;stroke-linecap:square;stroke-linejoin:miter;stroke-width:0.8;"/>
   </g>
   <g id="legend_6">
    <g id="line2d_86">
     <path d="M 375.008345 148.58912 
L 387.503345 148.58912 
" style="fill:none;stroke:#ff0000;stroke-linecap:round;stroke-width:1.25;"/>
    </g>
    <g id="line2d_87">
     <g>
      <use style="fill:#ff0000;" x="381.255845" xlink:href="#ma162b57a26" y="148.58912"/>
     </g>
    </g>
    <g id="text_76">
     <!-- lognormal -->
     <g transform="translate(390.002345 151.50462)scale(0.0833 -0.0833)">
      <use xlink:href="#ArialMT-6c"/>
      <use x="22.216797" xlink:href="#ArialMT-6f"/>
      <use x="77.832031" xlink:href="#ArialMT-67"/>
      <use x="133.447266" xlink:href="#ArialMT-6e"/>
      <use x="189.0625" xlink:href="#ArialMT-6f"/>
      <use x="244.677734" xlink:href="#ArialMT-72"/>
      <use x="277.978516" xlink:href="#ArialMT-6d"/>
      <use x="361.279297" xlink:href="#ArialMT-61"/>
      <use x="416.894531" xlink:href="#ArialMT-6c"/>
     </g>
    </g>
    <g id="line2d_88">
     <path d="M 375.008345 157.970782 
L 387.503345 157.970782 
" style="fill:none;stroke:#008000;stroke-linecap:round;stroke-width:1.25;"/>
    </g>
    <g id="line2d_89">
     <g>
      <use style="fill:#008000;" x="381.255845" xlink:href="#mbd30024c91" y="157.970782"/>
     </g>
    </g>
    <g id="text_77">
     <!-- normal -->
     <g transform="translate(390.002345 160.886282)scale(0.0833 -0.0833)">
      <use xlink:href="#ArialMT-6e"/>
      <use x="55.615234" xlink:href="#ArialMT-6f"/>
      <use x="111.230469" xlink:href="#ArialMT-72"/>
      <use x="144.53125" xlink:href="#ArialMT-6d"/>
      <use x="227.832031" xlink:href="#ArialMT-61"/>
      <use x="283.447266" xlink:href="#ArialMT-6c"/>
     </g>
    </g>
   </g>
  </g>
 </g>
 <defs>
  <clipPath id="p5e495a39b8">
   <rect height="57.6872" width="102.339184" x="34.70145" y="10.63575"/>
  </clipPath>
  <clipPath id="pee4ab99770">
   <rect height="57.6872" width="102.339184" x="34.70145" y="106.58295"/>
  </clipPath>
  <clipPath id="p38529ceb2b">
   <rect height="57.6872" width="102.339184" x="178.10145" y="10.63575"/>
  </clipPath>
  <clipPath id="pc64e8f1637">
   <rect height="57.6872" width="102.339184" x="178.10145" y="106.58295"/>
  </clipPath>
  <clipPath id="p07047e30ef">
   <rect height="57.6872" width="102.339184" x="321.50145" y="10.63575"/>
  </clipPath>
  <clipPath id="p63110bd82a">
   <rect height="57.6872" width="102.339184" x="321.50145" y="106.58295"/>
  </clipPath>
 </defs>
</svg>
