<?xml version="1.0" encoding="UTF-8" standalone="no"?>
<!-- Created with matplotlib (http://matplotlib.org/) -->

<svg
   xmlns:dc="http://purl.org/dc/elements/1.1/"
   xmlns:cc="http://creativecommons.org/ns#"
   xmlns:rdf="http://www.w3.org/1999/02/22-rdf-syntax-ns#"
   xmlns:svg="http://www.w3.org/2000/svg"
   xmlns="http://www.w3.org/2000/svg"
   xmlns:xlink="http://www.w3.org/1999/xlink"
   xmlns:sodipodi="http://sodipodi.sourceforge.net/DTD/sodipodi-0.dtd"
   xmlns:inkscape="http://www.inkscape.org/namespaces/inkscape"
   height="136pt"
   version="1.1"
   viewBox="0 0 149 136"
   width="149pt"
   id="svg462"
   sodipodi:docname="weekes_model_pars_heatmap_YlOrRd_r.svg"
   inkscape:version="0.92.1 unknown">
  <metadata
     id="metadata466">
    <rdf:RDF>
      <cc:Work
         rdf:about="">
        <dc:format>image/svg+xml</dc:format>
        <dc:type
           rdf:resource="http://purl.org/dc/dcmitype/StillImage" />
      </cc:Work>
    </rdf:RDF>
  </metadata>
  <sodipodi:namedview
     pagecolor="#ffffff"
     bordercolor="#666666"
     borderopacity="1"
     objecttolerance="10"
     gridtolerance="10"
     guidetolerance="10"
     inkscape:pageopacity="0"
     inkscape:pageshadow="2"
     inkscape:window-width="1920"
     inkscape:window-height="1176"
     id="namedview464"
     showgrid="false"
     inkscape:zoom="7.3622294"
     inkscape:cx="138.97316"
     inkscape:cy="90.641117"
     inkscape:window-x="0"
     inkscape:window-y="24"
     inkscape:window-maximized="1"
     inkscape:current-layer="svg462" />
  <defs
     id="defs4">
    <style
       type="text/css"
       id="style2">
*{stroke-linecap:butt;stroke-linejoin:round;}
  </style>
  </defs>
  <g
     id="figure_1">
    <g
       id="patch_1">
      <path
         d="M 0 136.111729  L 149.69295 136.111729  L 149.69295 0  L 0 0  z "
         style="fill:none;"
         id="path6" />
    </g>
    <g
       id="axes_1">
      <g
         id="patch_2">
        <path
           d="M 32.03445 103.649829  L 137.15445 103.649829  L 137.15445 29.161219  L 32.03445 29.161219  z "
           style="fill:none;"
           id="path9" />
      </g>
      <g
         id="matplotlib.axis_1">
        <g
           id="xtick_1">
          <g
             id="line2d_1">
            <defs
               id="defs13">
              <path
                 d="M 0 0  L 0 2.5  "
                 id="m03fe61a8fc"
                 style="stroke:#000000;stroke-width:0.8;" />
            </defs>
            <g
               id="g17">
              <use
                 style="stroke:#000000;stroke-width:0.8;"
                 x="32.03445"
                 xlink:href="#m03fe61a8fc"
                 y="103.649829"
                 id="use15" />
            </g>
          </g>
          <g
             id="text_1">
            <!-- 10 -->
            <defs
               id="defs22">
              <path
                 d="M 37.25 0  L 28.46875 0  L 28.46875 56  Q 25.296875 52.984375 20.140625 49.953125  Q 14.984375 46.921875 10.890625 45.40625  L 10.890625 53.90625  Q 18.265625 57.375 23.78125 62.296875  Q 29.296875 67.234375 31.59375 71.875  L 37.25 71.875  z "
                 id="ArialMT-31" />
              <path
                 d="M 4.15625 35.296875  Q 4.15625 48 6.765625 55.734375  Q 9.375 63.484375 14.515625 67.671875  Q 19.671875 71.875 27.484375 71.875  Q 33.25 71.875 37.59375 69.546875  Q 41.9375 67.234375 44.765625 62.859375  Q 47.609375 58.5 49.21875 52.21875  Q 50.828125 45.953125 50.828125 35.296875  Q 50.828125 22.703125 48.234375 14.96875  Q 45.65625 7.234375 40.5 3  Q 35.359375 -1.21875 27.484375 -1.21875  Q 17.140625 -1.21875 11.234375 6.203125  Q 4.15625 15.140625 4.15625 35.296875  M 13.1875 35.296875  Q 13.1875 17.671875 17.3125 11.828125  Q 21.4375 6 27.484375 6  Q 33.546875 6 37.671875 11.859375  Q 41.796875 17.71875 41.796875 35.296875  Q 41.796875 52.984375 37.671875 58.78125  Q 33.546875 64.59375 27.390625 64.59375  Q 21.34375 64.59375 17.71875 59.46875  Q 13.1875 52.9375 13.1875 35.296875  "
                 id="ArialMT-30" />
            </defs>
            <g
               transform="translate(26.69595 115.021329)scale(0.096 -0.096)"
               id="g28">
              <use
                 xlink:href="#ArialMT-31"
                 id="use24" />
              <use
                 x="55.615234"
                 xlink:href="#ArialMT-30"
                 id="use26" />
            </g>
          </g>
        </g>
        <g
           id="xtick_2">
          <g
             id="line2d_2">
            <g
               id="g34">
              <use
                 style="stroke:#000000;stroke-width:0.8;"
                 x="53.05845"
                 xlink:href="#m03fe61a8fc"
                 y="103.649829"
                 id="use32" />
            </g>
          </g>
          <g
             id="text_2">
            <!-- 14 -->
            <defs
               id="defs38">
              <path
                 d="M 32.328125 0  L 32.328125 17.140625  L 1.265625 17.140625  L 1.265625 25.203125  L 33.9375 71.578125  L 41.109375 71.578125  L 41.109375 25.203125  L 50.78125 25.203125  L 50.78125 17.140625  L 41.109375 17.140625  L 41.109375 0  z M 32.328125 25.203125  L 32.328125 57.46875  L 9.90625 25.203125  z "
                 id="ArialMT-34" />
            </defs>
            <g
               transform="translate(47.71995 115.021329)scale(0.096 -0.096)"
               id="g44">
              <use
                 xlink:href="#ArialMT-31"
                 id="use40" />
              <use
                 x="55.615234"
                 xlink:href="#ArialMT-34"
                 id="use42" />
            </g>
          </g>
        </g>
        <g
           id="xtick_3">
          <g
             id="line2d_3">
            <g
               id="g50">
              <use
                 style="stroke:#000000;stroke-width:0.8;"
                 x="74.08245"
                 xlink:href="#m03fe61a8fc"
                 y="103.649829"
                 id="use48" />
            </g>
          </g>
          <g
             id="text_3">
            <!-- 18 -->
            <defs
               id="defs54">
              <path
                 d="M 17.671875 38.8125  Q 12.203125 40.828125 9.5625 44.53125  Q 6.9375 48.25 6.9375 53.421875  Q 6.9375 61.234375 12.546875 66.546875  Q 18.171875 71.875 27.484375 71.875  Q 36.859375 71.875 42.578125 66.421875  Q 48.296875 60.984375 48.296875 53.171875  Q 48.296875 48.1875 45.671875 44.5  Q 43.0625 40.828125 37.75 38.8125  Q 44.34375 36.671875 47.78125 31.875  Q 51.21875 27.09375 51.21875 20.453125  Q 51.21875 11.28125 44.71875 5.03125  Q 38.234375 -1.21875 27.640625 -1.21875  Q 17.046875 -1.21875 10.546875 5.046875  Q 4.046875 11.328125 4.046875 20.703125  Q 4.046875 27.6875 7.59375 32.390625  Q 11.140625 37.109375 17.671875 38.8125  M 15.921875 53.71875  Q 15.921875 48.640625 19.1875 45.40625  Q 22.46875 42.1875 27.6875 42.1875  Q 32.765625 42.1875 36.015625 45.375  Q 39.265625 48.578125 39.265625 53.21875  Q 39.265625 58.0625 35.90625 61.359375  Q 32.5625 64.65625 27.59375 64.65625  Q 22.5625 64.65625 19.234375 61.421875  Q 15.921875 58.203125 15.921875 53.71875  M 13.09375 20.65625  Q 13.09375 16.890625 14.875 13.375  Q 16.65625 9.859375 20.171875 7.921875  Q 23.6875 6 27.734375 6  Q 34.03125 6 38.125 10.046875  Q 42.234375 14.109375 42.234375 20.359375  Q 42.234375 26.703125 38.015625 30.859375  Q 33.796875 35.015625 27.4375 35.015625  Q 21.234375 35.015625 17.15625 30.90625  Q 13.09375 26.8125 13.09375 20.65625  "
                 id="ArialMT-38" />
            </defs>
            <g
               transform="translate(68.74395 115.021329)scale(0.096 -0.096)"
               id="g60">
              <use
                 xlink:href="#ArialMT-31"
                 id="use56" />
              <use
                 x="55.615234"
                 xlink:href="#ArialMT-38"
                 id="use58" />
            </g>
          </g>
        </g>
        <g
           id="xtick_4">
          <g
             id="line2d_4">
            <g
               id="g66">
              <use
                 style="stroke:#000000;stroke-width:0.8;"
                 x="95.10645"
                 xlink:href="#m03fe61a8fc"
                 y="103.649829"
                 id="use64" />
            </g>
          </g>
          <g
             id="text_4">
            <!-- 22 -->
            <defs
               id="defs70">
              <path
                 d="M 50.34375 8.453125  L 50.34375 0  L 3.03125 0  Q 2.9375 3.171875 4.046875 6.109375  Q 5.859375 10.9375 9.828125 15.625  Q 13.8125 20.3125 21.34375 26.46875  Q 33.015625 36.03125 37.109375 41.625  Q 41.21875 47.21875 41.21875 52.203125  Q 41.21875 57.421875 37.46875 61  Q 33.734375 64.59375 27.734375 64.59375  Q 21.390625 64.59375 17.578125 60.78125  Q 13.765625 56.984375 13.71875 50.25  L 4.6875 51.171875  Q 5.609375 61.28125 11.65625 66.578125  Q 17.71875 71.875 27.9375 71.875  Q 38.234375 71.875 44.234375 66.15625  Q 50.25 60.453125 50.25 52  Q 50.25 47.703125 48.484375 43.546875  Q 46.734375 39.40625 42.65625 34.8125  Q 38.578125 30.21875 29.109375 22.21875  Q 21.1875 15.578125 18.9375 13.203125  Q 16.703125 10.84375 15.234375 8.453125  z "
                 id="ArialMT-32" />
            </defs>
            <g
               transform="translate(89.76795 115.021329)scale(0.096 -0.096)"
               id="g76">
              <use
                 xlink:href="#ArialMT-32"
                 id="use72" />
              <use
                 x="55.615234"
                 xlink:href="#ArialMT-32"
                 id="use74" />
            </g>
          </g>
        </g>
        <g
           id="xtick_5">
          <g
             id="line2d_5">
            <g
               id="g82">
              <use
                 style="stroke:#000000;stroke-width:0.8;"
                 x="116.13045"
                 xlink:href="#m03fe61a8fc"
                 y="103.649829"
                 id="use80" />
            </g>
          </g>
          <g
             id="text_5">
            <!-- 26 -->
            <defs
               id="defs86">
              <path
                 d="M 49.75 54.046875  L 41.015625 53.375  Q 39.84375 58.546875 37.703125 60.890625  Q 34.125 64.65625 28.90625 64.65625  Q 24.703125 64.65625 21.53125 62.3125  Q 17.390625 59.28125 14.984375 53.46875  Q 12.59375 47.65625 12.5 36.921875  Q 15.671875 41.75 20.265625 44.09375  Q 24.859375 46.4375 29.890625 46.4375  Q 38.671875 46.4375 44.84375 39.96875  Q 51.03125 33.5 51.03125 23.25  Q 51.03125 16.5 48.125 10.71875  Q 45.21875 4.9375 40.140625 1.859375  Q 35.0625 -1.21875 28.609375 -1.21875  Q 17.625 -1.21875 10.6875 6.859375  Q 3.765625 14.9375 3.765625 33.5  Q 3.765625 54.25 11.421875 63.671875  Q 18.109375 71.875 29.4375 71.875  Q 37.890625 71.875 43.28125 67.140625  Q 48.6875 62.40625 49.75 54.046875  M 13.875 23.1875  Q 13.875 18.65625 15.796875 14.5  Q 17.71875 10.359375 21.1875 8.171875  Q 24.65625 6 28.46875 6  Q 34.03125 6 38.03125 10.484375  Q 42.046875 14.984375 42.046875 22.703125  Q 42.046875 30.125 38.078125 34.390625  Q 34.125 38.671875 28.125 38.671875  Q 22.171875 38.671875 18.015625 34.390625  Q 13.875 30.125 13.875 23.1875  "
                 id="ArialMT-36" />
            </defs>
            <g
               transform="translate(110.79195 115.021329)scale(0.096 -0.096)"
               id="g92">
              <use
                 xlink:href="#ArialMT-32"
                 id="use88" />
              <use
                 x="55.615234"
                 xlink:href="#ArialMT-36"
                 id="use90" />
            </g>
          </g>
        </g>
        <g
           id="xtick_6">
          <g
             id="line2d_6">
            <g
               id="g98">
              <use
                 style="stroke:#000000;stroke-width:0.8;"
                 x="137.15445"
                 xlink:href="#m03fe61a8fc"
                 y="103.649829"
                 id="use96" />
            </g>
          </g>
          <g
             id="text_6">
            <!-- 30 -->
            <defs
               id="defs102">
              <path
                 d="M 4.203125 18.890625  L 12.984375 20.0625  Q 14.5 12.59375 18.140625 9.296875  Q 21.78125 6 27 6  Q 33.203125 6 37.46875 10.296875  Q 41.75 14.59375 41.75 20.953125  Q 41.75 27 37.796875 30.921875  Q 33.84375 34.859375 27.734375 34.859375  Q 25.25 34.859375 21.53125 33.890625  L 22.515625 41.609375  Q 23.390625 41.5 23.921875 41.5  Q 29.546875 41.5 34.03125 44.421875  Q 38.53125 47.359375 38.53125 53.46875  Q 38.53125 58.296875 35.25 61.46875  Q 31.984375 64.65625 26.8125 64.65625  Q 21.6875 64.65625 18.265625 61.421875  Q 14.84375 58.203125 13.875 51.765625  L 5.078125 53.328125  Q 6.6875 62.15625 12.390625 67.015625  Q 18.109375 71.875 26.609375 71.875  Q 32.46875 71.875 37.390625 69.359375  Q 42.328125 66.84375 44.9375 62.5  Q 47.5625 58.15625 47.5625 53.265625  Q 47.5625 48.640625 45.0625 44.828125  Q 42.578125 41.015625 37.703125 38.765625  Q 44.046875 37.3125 47.5625 32.6875  Q 51.078125 28.078125 51.078125 21.140625  Q 51.078125 11.765625 44.234375 5.25  Q 37.40625 -1.265625 26.953125 -1.265625  Q 17.53125 -1.265625 11.296875 4.34375  Q 5.078125 9.96875 4.203125 18.890625  "
                 id="ArialMT-33" />
            </defs>
            <g
               transform="translate(131.81595 115.021329)scale(0.096 -0.096)"
               id="g108">
              <use
                 xlink:href="#ArialMT-33"
                 id="use104" />
              <use
                 x="55.615234"
                 xlink:href="#ArialMT-30"
                 id="use106" />
            </g>
          </g>
        </g>
        <g
           id="text_7">
          <!-- $\mathregular{1/r_{DC}}$ (hours) -->
          <defs
             id="defs123">
            <path
               d="M 0 -1.21875  L 20.75 72.796875  L 27.78125 72.796875  L 7.078125 -1.21875  z "
               id="ArialMT-2f" />
            <path
               d="M 6.5 0  L 6.5 51.859375  L 14.40625 51.859375  L 14.40625 44  Q 17.4375 49.515625 20 51.265625  Q 22.5625 53.03125 25.640625 53.03125  Q 30.078125 53.03125 34.671875 50.203125  L 31.640625 42.046875  Q 28.421875 43.953125 25.203125 43.953125  Q 22.3125 43.953125 20.015625 42.21875  Q 17.71875 40.484375 16.75 37.40625  Q 15.28125 32.71875 15.28125 27.15625  L 15.28125 0  z "
               id="ArialMT-72" />
            <path
               d="M 7.71875 0  L 7.71875 71.578125  L 32.375 71.578125  Q 40.71875 71.578125 45.125 70.5625  Q 51.265625 69.140625 55.609375 65.4375  Q 61.28125 60.640625 64.078125 53.1875  Q 66.890625 45.75 66.890625 36.1875  Q 66.890625 28.03125 64.984375 21.734375  Q 63.09375 15.4375 60.109375 11.296875  Q 57.125 7.171875 53.578125 4.796875  Q 50.046875 2.4375 45.046875 1.21875  Q 40.046875 0 33.546875 0  z M 17.1875 8.453125  L 32.46875 8.453125  Q 39.546875 8.453125 43.578125 9.765625  Q 47.609375 11.078125 50 13.484375  Q 53.375 16.84375 55.25 22.53125  Q 57.125 28.21875 57.125 36.328125  Q 57.125 47.5625 53.4375 53.59375  Q 49.75 59.625 44.484375 61.671875  Q 40.671875 63.140625 32.234375 63.140625  L 17.1875 63.140625  z "
               id="ArialMT-44" />
            <path
               d="M 58.796875 25.09375  L 68.265625 22.703125  Q 65.28125 11.03125 57.546875 4.90625  Q 49.8125 -1.21875 38.625 -1.21875  Q 27.046875 -1.21875 19.796875 3.484375  Q 12.546875 8.203125 8.765625 17.140625  Q 4.984375 26.078125 4.984375 36.328125  Q 4.984375 47.515625 9.25 55.828125  Q 13.53125 64.15625 21.40625 68.46875  Q 29.296875 72.796875 38.765625 72.796875  Q 49.515625 72.796875 56.828125 67.328125  Q 64.15625 61.859375 67.046875 51.953125  L 57.71875 49.75  Q 55.21875 57.5625 50.484375 61.125  Q 45.75 64.703125 38.578125 64.703125  Q 30.328125 64.703125 24.78125 60.734375  Q 19.234375 56.78125 16.984375 50.109375  Q 14.75 43.453125 14.75 36.375  Q 14.75 27.25 17.40625 20.4375  Q 20.0625 13.625 25.671875 10.25  Q 31.296875 6.890625 37.84375 6.890625  Q 45.796875 6.890625 51.3125 11.46875  Q 56.84375 16.0625 58.796875 25.09375  "
               id="ArialMT-43" />
            <path
               id="ArialMT-20" />
            <path
               d="M 23.390625 -21.046875  Q 16.109375 -11.859375 11.078125 0.4375  Q 6.0625 12.75 6.0625 25.921875  Q 6.0625 37.546875 9.8125 48.1875  Q 14.203125 60.546875 23.390625 72.796875  L 29.6875 72.796875  Q 23.78125 62.640625 21.875 58.296875  Q 18.890625 51.5625 17.1875 44.234375  Q 15.09375 35.109375 15.09375 25.875  Q 15.09375 2.390625 29.6875 -21.046875  z "
               id="ArialMT-28" />
            <path
               d="M 6.59375 0  L 6.59375 71.578125  L 15.375 71.578125  L 15.375 45.90625  Q 21.53125 53.03125 30.90625 53.03125  Q 36.671875 53.03125 40.921875 50.75  Q 45.171875 48.484375 47 44.484375  Q 48.828125 40.484375 48.828125 32.859375  L 48.828125 0  L 40.046875 0  L 40.046875 32.859375  Q 40.046875 39.453125 37.1875 42.453125  Q 34.328125 45.453125 29.109375 45.453125  Q 25.203125 45.453125 21.75 43.421875  Q 18.3125 41.40625 16.84375 37.9375  Q 15.375 34.46875 15.375 28.375  L 15.375 0  z "
               id="ArialMT-68" />
            <path
               d="M 3.328125 25.921875  Q 3.328125 40.328125 11.328125 47.265625  Q 18.015625 53.03125 27.640625 53.03125  Q 38.328125 53.03125 45.109375 46.015625  Q 51.90625 39.015625 51.90625 26.65625  Q 51.90625 16.65625 48.90625 10.90625  Q 45.90625 5.171875 40.15625 2  Q 34.421875 -1.171875 27.640625 -1.171875  Q 16.75 -1.171875 10.03125 5.8125  Q 3.328125 12.796875 3.328125 25.921875  M 12.359375 25.921875  Q 12.359375 15.96875 16.703125 11.015625  Q 21.046875 6.0625 27.640625 6.0625  Q 34.1875 6.0625 38.53125 11.03125  Q 42.875 16.015625 42.875 26.21875  Q 42.875 35.84375 38.5 40.796875  Q 34.125 45.75 27.640625 45.75  Q 21.046875 45.75 16.703125 40.8125  Q 12.359375 35.890625 12.359375 25.921875  "
               id="ArialMT-6f" />
            <path
               d="M 40.578125 0  L 40.578125 7.625  Q 34.515625 -1.171875 24.125 -1.171875  Q 19.53125 -1.171875 15.546875 0.578125  Q 11.578125 2.34375 9.640625 5  Q 7.71875 7.671875 6.9375 11.53125  Q 6.390625 14.109375 6.390625 19.734375  L 6.390625 51.859375  L 15.1875 51.859375  L 15.1875 23.09375  Q 15.1875 16.21875 15.71875 13.8125  Q 16.546875 10.359375 19.234375 8.375  Q 21.921875 6.390625 25.875 6.390625  Q 29.828125 6.390625 33.296875 8.421875  Q 36.765625 10.453125 38.203125 13.9375  Q 39.65625 17.4375 39.65625 24.078125  L 39.65625 51.859375  L 48.4375 51.859375  L 48.4375 0  z "
               id="ArialMT-75" />
            <path
               d="M 3.078125 15.484375  L 11.765625 16.84375  Q 12.5 11.625 15.84375 8.84375  Q 19.1875 6.0625 25.203125 6.0625  Q 31.25 6.0625 34.171875 8.515625  Q 37.109375 10.984375 37.109375 14.3125  Q 37.109375 17.28125 34.515625 19  Q 32.71875 20.171875 25.53125 21.96875  Q 15.875 24.421875 12.140625 26.203125  Q 8.40625 27.984375 6.46875 31.125  Q 4.546875 34.28125 4.546875 38.09375  Q 4.546875 41.546875 6.125 44.5  Q 7.71875 47.46875 10.453125 49.421875  Q 12.5 50.921875 16.03125 51.96875  Q 19.578125 53.03125 23.640625 53.03125  Q 29.734375 53.03125 34.34375 51.265625  Q 38.96875 49.515625 41.15625 46.5  Q 43.359375 43.5 44.1875 38.484375  L 35.59375 37.3125  Q 35.015625 41.3125 32.203125 43.546875  Q 29.390625 45.796875 24.265625 45.796875  Q 18.21875 45.796875 15.625 43.796875  Q 13.03125 41.796875 13.03125 39.109375  Q 13.03125 37.40625 14.109375 36.03125  Q 15.1875 34.625 17.484375 33.6875  Q 18.796875 33.203125 25.25 31.453125  Q 34.578125 28.953125 38.25 27.359375  Q 41.9375 25.78125 44.03125 22.75  Q 46.140625 19.734375 46.140625 15.234375  Q 46.140625 10.84375 43.578125 6.953125  Q 41.015625 3.078125 36.171875 0.953125  Q 31.34375 -1.171875 25.25 -1.171875  Q 15.140625 -1.171875 9.84375 3.03125  Q 4.546875 7.234375 3.078125 15.484375  "
               id="ArialMT-73" />
            <path
               d="M 12.359375 -21.046875  L 6.0625 -21.046875  Q 20.65625 2.390625 20.65625 25.875  Q 20.65625 35.0625 18.5625 44.09375  Q 16.890625 51.421875 13.921875 58.15625  Q 12.015625 62.546875 6.0625 72.796875  L 12.359375 72.796875  Q 21.53125 60.546875 25.921875 48.1875  Q 29.6875 37.546875 29.6875 25.921875  Q 29.6875 12.75 24.625 0.4375  Q 19.578125 -11.859375 12.359375 -21.046875  "
               id="ArialMT-29" />
          </defs>
          <g
             transform="translate(54.49845 125.638129)scale(0.1056 -0.1056)"
             id="g151">
            <use
               transform="translate(0 0.203125)"
               xlink:href="#ArialMT-31"
               id="use125" />
            <use
               transform="translate(55.615234 0.203125)"
               xlink:href="#ArialMT-2f"
               id="use127" />
            <use
               transform="translate(83.398438 0.203125)"
               xlink:href="#ArialMT-72"
               id="use129" />
            <use
               transform="translate(118.441563 -29.665625)scale(0.7)"
               xlink:href="#ArialMT-44"
               id="use131" />
            <use
               transform="translate(168.99332 -29.665625)scale(0.7)"
               xlink:href="#ArialMT-43"
               id="use133" />
            <use
               transform="translate(224.523203 0.203125)"
               xlink:href="#ArialMT-20"
               id="use135" />
            <use
               transform="translate(252.306406 0.203125)"
               xlink:href="#ArialMT-28"
               id="use137" />
            <use
               transform="translate(285.607188 0.203125)"
               xlink:href="#ArialMT-68"
               id="use139" />
            <use
               transform="translate(341.222422 0.203125)"
               xlink:href="#ArialMT-6f"
               id="use141" />
            <use
               transform="translate(396.837656 0.203125)"
               xlink:href="#ArialMT-75"
               id="use143" />
            <use
               transform="translate(452.452891 0.203125)"
               xlink:href="#ArialMT-72"
               id="use145" />
            <use
               transform="translate(485.753672 0.203125)"
               xlink:href="#ArialMT-73"
               id="use147" />
            <use
               transform="translate(535.753672 0.203125)"
               xlink:href="#ArialMT-29"
               id="use149" />
          </g>
        </g>
      </g>
      <g
         id="matplotlib.axis_2">
        <g
           id="ytick_1">
          <g
             id="line2d_7">
            <defs
               id="defs156">
              <path
                 d="M 0 0  L -2.5 0  "
                 id="m417b906fb6"
                 style="stroke:#000000;stroke-width:0.8;" />
            </defs>
            <g
               id="g160">
              <use
                 style="stroke:#000000;stroke-width:0.8;"
                 x="32.03445"
                 xlink:href="#m417b906fb6"
                 y="103.649829"
                 id="use158" />
            </g>
          </g>
          <g
             id="text_8">
            <!-- 6 -->
            <g
               transform="translate(23.19595 107.085579)scale(0.096 -0.096)"
               id="g165">
              <use
                 xlink:href="#ArialMT-36"
                 id="use163" />
            </g>
          </g>
        </g>
        <g
           id="ytick_2">
          <g
             id="line2d_8">
            <g
               id="g171">
              <use
                 style="stroke:#000000;stroke-width:0.8;"
                 x="32.03445"
                 xlink:href="#m417b906fb6"
                 y="87.687984"
                 id="use169" />
            </g>
          </g>
          <g
             id="text_9">
            <!-- 9 -->
            <defs
               id="defs175">
              <path
                 d="M 5.46875 16.546875  L 13.921875 17.328125  Q 14.984375 11.375 18.015625 8.6875  Q 21.046875 6 25.78125 6  Q 29.828125 6 32.875 7.859375  Q 35.9375 9.71875 37.890625 12.8125  Q 39.84375 15.921875 41.15625 21.1875  Q 42.484375 26.46875 42.484375 31.9375  Q 42.484375 32.515625 42.4375 33.6875  Q 39.796875 29.5 35.234375 26.875  Q 30.671875 24.265625 25.34375 24.265625  Q 16.453125 24.265625 10.296875 30.703125  Q 4.15625 37.15625 4.15625 47.703125  Q 4.15625 58.59375 10.578125 65.234375  Q 17 71.875 26.65625 71.875  Q 33.640625 71.875 39.421875 68.109375  Q 45.21875 64.359375 48.21875 57.390625  Q 51.21875 50.4375 51.21875 37.25  Q 51.21875 23.53125 48.234375 15.40625  Q 45.265625 7.28125 39.375 3.03125  Q 33.5 -1.21875 25.59375 -1.21875  Q 17.1875 -1.21875 11.859375 3.4375  Q 6.546875 8.109375 5.46875 16.546875  M 41.453125 48.140625  Q 41.453125 55.71875 37.421875 60.15625  Q 33.40625 64.59375 27.734375 64.59375  Q 21.875 64.59375 17.53125 59.8125  Q 13.1875 55.03125 13.1875 47.40625  Q 13.1875 40.578125 17.3125 36.296875  Q 21.4375 32.03125 27.484375 32.03125  Q 33.59375 32.03125 37.515625 36.296875  Q 41.453125 40.578125 41.453125 48.140625  "
                 id="ArialMT-39" />
            </defs>
            <g
               transform="translate(23.19595 91.123734)scale(0.096 -0.096)"
               id="g179">
              <use
                 xlink:href="#ArialMT-39"
                 id="use177" />
            </g>
          </g>
        </g>
        <g
           id="ytick_3">
          <g
             id="line2d_9">
            <g
               id="g185">
              <use
                 style="stroke:#000000;stroke-width:0.8;"
                 x="32.03445"
                 xlink:href="#m417b906fb6"
                 y="71.726139"
                 id="use183" />
            </g>
          </g>
          <g
             id="text_10">
            <!-- 12 -->
            <g
               transform="translate(17.85745 75.161889)scale(0.096 -0.096)"
               id="g192">
              <use
                 xlink:href="#ArialMT-31"
                 id="use188" />
              <use
                 x="55.615234"
                 xlink:href="#ArialMT-32"
                 id="use190" />
            </g>
          </g>
        </g>
        <g
           id="ytick_4">
          <g
             id="line2d_10">
            <g
               id="g198">
              <use
                 style="stroke:#000000;stroke-width:0.8;"
                 x="32.03445"
                 xlink:href="#m417b906fb6"
                 y="55.764294"
                 id="use196" />
            </g>
          </g>
          <g
             id="text_11">
            <!-- 15 -->
            <defs
               id="defs202">
              <path
                 d="M 4.15625 18.75  L 13.375 19.53125  Q 14.40625 12.796875 18.140625 9.390625  Q 21.875 6 27.15625 6  Q 33.5 6 37.890625 10.78125  Q 42.28125 15.578125 42.28125 23.484375  Q 42.28125 31 38.0625 35.34375  Q 33.84375 39.703125 27 39.703125  Q 22.75 39.703125 19.328125 37.765625  Q 15.921875 35.84375 13.96875 32.765625  L 5.71875 33.84375  L 12.640625 70.609375  L 48.25 70.609375  L 48.25 62.203125  L 19.671875 62.203125  L 15.828125 42.96875  Q 22.265625 47.46875 29.34375 47.46875  Q 38.71875 47.46875 45.15625 40.96875  Q 51.609375 34.46875 51.609375 24.265625  Q 51.609375 14.546875 45.953125 7.46875  Q 39.0625 -1.21875 27.15625 -1.21875  Q 17.390625 -1.21875 11.203125 4.25  Q 5.03125 9.71875 4.15625 18.75  "
                 id="ArialMT-35" />
            </defs>
            <g
               transform="translate(17.85745 59.200044)scale(0.096 -0.096)"
               id="g208">
              <use
                 xlink:href="#ArialMT-31"
                 id="use204" />
              <use
                 x="55.615234"
                 xlink:href="#ArialMT-35"
                 id="use206" />
            </g>
          </g>
        </g>
        <g
           id="ytick_5">
          <g
             id="line2d_11">
            <g
               id="g214">
              <use
                 style="stroke:#000000;stroke-width:0.8;"
                 x="32.03445"
                 xlink:href="#m417b906fb6"
                 y="39.802449"
                 id="use212" />
            </g>
          </g>
          <g
             id="text_12">
            <!-- 18 -->
            <g
               transform="translate(17.85745 43.238199)scale(0.096 -0.096)"
               id="g221">
              <use
                 xlink:href="#ArialMT-31"
                 id="use217" />
              <use
                 x="55.615234"
                 xlink:href="#ArialMT-38"
                 id="use219" />
            </g>
          </g>
        </g>
        <g
           id="text_13">
          <!-- M -->
          <defs
             id="defs226">
            <path
               d="M 7.421875 0  L 7.421875 71.578125  L 21.6875 71.578125  L 38.625 20.90625  Q 40.96875 13.8125 42.046875 10.296875  Q 43.265625 14.203125 45.84375 21.78125  L 62.984375 71.578125  L 75.734375 71.578125  L 75.734375 0  L 66.609375 0  L 66.609375 59.90625  L 45.796875 0  L 37.25 0  L 16.546875 60.9375  L 16.546875 0  z "
               id="ArialMT-4d" />
          </defs>
          <g
             transform="translate(14.75865 70.803599)rotate(-90)scale(0.1056 -0.1056)"
             id="g230">
            <use
               xlink:href="#ArialMT-4d"
               id="use228" />
          </g>
        </g>
      </g>
      <g
         id="PathCollection_1">
        <path
           clip-path="url(#p054b34a444)"
           d="M 53.05845 88.498354  L 58.31445 89.265609  L 63.57045 89.051816  L 68.82645 88.002834  L 70.239322 87.687984  L 74.08245 85.665241  L 79.33845 84.261229  L 83.833665 82.367369  L 84.59445 81.869424  L 89.85045 78.456063  L 91.931035 77.046754  L 95.10645 74.01358  L 97.45721 71.726139  L 100.36245 67.912808  L 101.503107 66.405524  L 104.612288 61.084909  L 105.61845 58.922058  L 107.091432 55.764294  L 109.123942 50.443679  L 110.825761 45.123064  L 110.87445 44.943669  L 112.278278 39.802449  L 113.533019 34.481834  L 114.629189 29.161219  L 110.87445 29.161219  L 105.61845 29.161219  L 100.456555 29.161219  L 100.36245 29.640743  L 99.417522 34.481834  L 98.221596 39.802449  L 96.82724 45.123064  L 95.176281 50.443679  L 95.10645 50.629794  L 93.183365 55.764294  L 90.716926 61.084909  L 89.85045 62.554416  L 87.562876 66.405524  L 84.59445 70.187392  L 83.363794 71.726139  L 79.33845 75.384998  L 77.440198 77.046754  L 74.08245 79.095122  L 68.82645 82.090183  L 68.30543 82.367369  L 63.57045 84.696332  L 58.31445 85.645241  L 53.05845 87.003265  L 49.731369 87.687984  z "
           style="fill:#e51e1d;"
           id="path234" />
      </g>
      <g
         id="PathCollection_2">
        <path
           clip-path="url(#p054b34a444)"
           d="M 37.29045 90.212438  L 42.54645 91.552907  L 47.80245 91.834127  L 53.05845 91.641746  L 58.31445 91.414407  L 63.57045 90.9055  L 68.82645 89.932884  L 74.08245 88.800039  L 78.68857 87.687984  L 79.33845 87.438608  L 84.59445 85.29278  L 89.85045 82.994442  L 91.225734 82.367369  L 95.10645 79.759121  L 99.016542 77.046754  L 100.36245 75.737623  L 104.428827 71.726139  L 105.61845 70.152758  L 108.44056 66.405524  L 110.87445 62.244752  L 111.554179 61.084909  L 114.055473 55.764294  L 116.11664 50.443679  L 116.13045 50.401109  L 117.853565 45.123064  L 119.338286 39.802449  L 120.624065 34.481834  L 121.38645 30.873933  L 121.750753 29.161219  L 121.38645 29.161219  L 116.13045 29.161219  L 114.629189 29.161219  L 113.533019 34.481834  L 112.278278 39.802449  L 110.87445 44.943669  L 110.825761 45.123064  L 109.123942 50.443679  L 107.091432 55.764294  L 105.61845 58.922058  L 104.612288 61.084909  L 101.503107 66.405524  L 100.36245 67.912808  L 97.45721 71.726139  L 95.10645 74.01358  L 91.931035 77.046754  L 89.85045 78.456063  L 84.59445 81.869424  L 83.833665 82.367369  L 79.33845 84.261229  L 74.08245 85.665241  L 70.239322 87.687984  L 68.82645 88.002834  L 63.57045 89.051816  L 58.31445 89.265609  L 53.05845 88.498354  L 49.731369 87.687984  L 53.05845 87.003265  L 58.31445 85.645241  L 63.57045 84.696332  L 68.30543 82.367369  L 68.82645 82.090183  L 74.08245 79.095122  L 77.440198 77.046754  L 79.33845 75.384998  L 83.363794 71.726139  L 84.59445 70.187392  L 87.562876 66.405524  L 89.85045 62.554416  L 90.716926 61.084909  L 93.183365 55.764294  L 95.10645 50.629794  L 95.176281 50.443679  L 96.82724 45.123064  L 98.221596 39.802449  L 99.417522 34.481834  L 100.36245 29.640743  L 100.456555 29.161219  L 100.36245 29.161219  L 95.10645 29.161219  L 93.40342 29.161219  L 92.389054 34.481834  L 91.217176 39.802449  L 89.85045 45.101762  L 89.844974 45.123064  L 88.211193 50.443679  L 86.223644 55.764294  L 84.59445 59.262048  L 83.740539 61.084909  L 80.529096 66.405524  L 79.33845 67.889938  L 76.184952 71.726139  L 74.08245 73.572976  L 69.938036 77.046754  L 68.82645 77.692155  L 63.57045 80.547746  L 59.860929 82.367369  L 58.31445 82.862931  L 53.05845 84.347266  L 47.80245 85.548466  L 42.54645 86.427167  L 37.29045 86.938792  L 32.03445 87.034889  L 32.03445 87.687984  L 32.03445 89.133461  z "
           style="fill:#fc6c33;"
           id="path237" />
      </g>
      <g
         id="PathCollection_3">
        <path
           clip-path="url(#p054b34a444)"
           d="M 37.29045 94.80803  L 42.54645 95.199179  L 47.80245 95.406475  L 53.05845 95.436901  L 58.31445 95.303454  L 63.57045 95.021204  L 68.82645 94.605312  L 74.08245 94.070104  L 79.33845 93.428721  L 82.382984 93.008599  L 84.59445 92.484054  L 89.85045 91.132456  L 95.10645 89.671834  L 100.36245 88.115987  L 101.752524 87.687984  L 105.61845 85.851394  L 110.87445 83.270422  L 112.672818 82.367369  L 116.13045 79.85871  L 119.958449 77.046754  L 121.38645 75.607088  L 125.227716 71.726139  L 126.64245 69.850341  L 129.249583 66.405524  L 131.89845 61.98346  L 132.440123 61.084909  L 135.048255 55.764294  L 137.15445 50.613792  L 137.15445 50.443679  L 137.15445 45.123064  L 137.15445 39.802449  L 137.15445 34.481834  L 137.15445 29.161219  L 131.89845 29.161219  L 126.64245 29.161219  L 121.750753 29.161219  L 121.38645 30.873933  L 120.624065 34.481834  L 119.338286 39.802449  L 117.853565 45.123064  L 116.13045 50.401109  L 116.11664 50.443679  L 114.055473 55.764294  L 111.554179 61.084909  L 110.87445 62.244752  L 108.44056 66.405524  L 105.61845 70.152758  L 104.428827 71.726139  L 100.36245 75.737623  L 99.016542 77.046754  L 95.10645 79.759121  L 91.225734 82.367369  L 89.85045 82.994442  L 84.59445 85.29278  L 79.33845 87.438608  L 78.68857 87.687984  L 74.08245 88.800039  L 68.82645 89.932884  L 63.57045 90.9055  L 58.31445 91.414407  L 53.05845 91.641746  L 47.80245 91.834127  L 42.54645 91.552907  L 37.29045 90.212438  L 32.03445 89.133461  L 32.03445 93.008599  L 32.03445 94.239407  z "
           style="fill:#fea245;"
           id="path240" />
        <path
           clip-path="url(#p054b34a444)"
           d="M 37.29045 86.938792  L 42.54645 86.427167  L 47.80245 85.548466  L 53.05845 84.347266  L 58.31445 82.862931  L 59.860929 82.367369  L 63.57045 80.547746  L 68.82645 77.692155  L 69.938036 77.046754  L 74.08245 73.572976  L 76.184952 71.726139  L 79.33845 67.889938  L 80.529096 66.405524  L 83.740539 61.084909  L 84.59445 59.262048  L 86.223644 55.764294  L 88.211193 50.443679  L 89.844974 45.123064  L 89.85045 45.101762  L 91.217176 39.802449  L 92.389054 34.481834  L 93.40342 29.161219  L 89.85045 29.161219  L 84.59445 29.161219  L 79.33845 29.161219  L 74.08245 29.161219  L 72.321095 29.161219  L 71.36059 34.481834  L 70.231952 39.802449  L 68.882864 45.123064  L 68.82645 45.305766  L 67.227828 50.443679  L 65.150303 55.764294  L 63.57045 58.909387  L 62.448889 61.084909  L 58.784433 66.405524  L 58.31445 66.905489  L 53.476716 71.726139  L 53.05845 72.019022  L 47.80245 75.366938  L 44.729911 77.046754  L 42.54645 77.841266  L 37.29045 79.375289  L 32.03445 80.403461  L 32.03445 82.367369  L 32.03445 87.034889  z "
           style="fill:#fea245;"
           id="path242" />
      </g>
      <g
         id="PathCollection_4">
        <path
           clip-path="url(#p054b34a444)"
           d="M 42.54645 98.65651  L 47.80245 98.958821  L 53.05845 99.180596  L 58.31445 99.313239  L 63.57045 99.35587  L 68.82645 99.311811  L 74.08245 99.186488  L 79.33845 98.986223  L 84.59445 98.717547  L 89.85045 98.386829  L 90.657676 98.329214  L 95.10645 97.718079  L 100.36245 96.918324  L 105.61845 96.047177  L 110.87445 95.112903  L 116.13045 94.122955  L 121.38645 93.084081  L 121.757871 93.008599  L 126.64245 91.389902  L 131.89845 89.600876  L 137.15445 87.771683  L 137.15445 87.687984  L 137.15445 82.367369  L 137.15445 77.046754  L 137.15445 71.726139  L 137.15445 66.405524  L 137.15445 61.084909  L 137.15445 55.764294  L 137.15445 50.613792  L 135.048255 55.764294  L 132.440123 61.084909  L 131.89845 61.98346  L 129.249583 66.405524  L 126.64245 69.850341  L 125.227716 71.726139  L 121.38645 75.607088  L 119.958449 77.046754  L 116.13045 79.85871  L 112.672818 82.367369  L 110.87445 83.270422  L 105.61845 85.851394  L 101.752524 87.687984  L 100.36245 88.115987  L 95.10645 89.671834  L 89.85045 91.132456  L 84.59445 92.484054  L 82.382984 93.008599  L 79.33845 93.428721  L 74.08245 94.070104  L 68.82645 94.605312  L 63.57045 95.021204  L 58.31445 95.303454  L 53.05845 95.436901  L 47.80245 95.406475  L 42.54645 95.199179  L 37.29045 94.80803  L 32.03445 94.239407  L 32.03445 97.14715  L 37.29045 98.242563  L 37.878614 98.329214  z "
           style="fill:#fec863;"
           id="path245" />
        <path
           clip-path="url(#p054b34a444)"
           d="M 37.29045 79.375289  L 42.54645 77.841266  L 44.729911 77.046754  L 47.80245 75.366938  L 53.05845 72.019022  L 53.476716 71.726139  L 58.31445 66.905489  L 58.784433 66.405524  L 62.448889 61.084909  L 63.57045 58.909387  L 65.150303 55.764294  L 67.227828 50.443679  L 68.82645 45.305766  L 68.882864 45.123064  L 70.231952 39.802449  L 71.36059 34.481834  L 72.321095 29.161219  L 68.82645 29.161219  L 63.57045 29.161219  L 58.31445 29.161219  L 53.05845 29.161219  L 47.80245 29.161219  L 42.54645 29.161219  L 37.29045 29.161219  L 36.809776 29.161219  L 35.660105 34.481834  L 34.2066 39.802449  L 32.328567 45.123064  L 32.03445 45.770431  L 32.03445 50.443679  L 32.03445 55.764294  L 32.03445 61.084909  L 32.03445 66.405524  L 32.03445 71.726139  L 32.03445 77.046754  L 32.03445 80.403461  z "
           style="fill:#fec863;"
           id="path247" />
      </g>
      <g
         id="PathCollection_5">
        <path
           clip-path="url(#p054b34a444)"
           d="M 37.29045 100.947926  L 42.54645 101.925775  L 47.80245 102.80491  L 53.05845 103.558629  L 53.904393 103.649829  L 58.31445 103.649829  L 63.57045 103.649829  L 68.82645 103.649829  L 74.08245 103.649829  L 79.33845 103.649829  L 84.59445 103.649829  L 89.85045 103.649829  L 95.10645 103.649829  L 100.36245 103.649829  L 105.61845 103.649829  L 110.87445 103.649829  L 116.13045 103.649829  L 121.38645 103.649829  L 121.519406 103.649829  L 126.64245 103.195631  L 131.89845 102.69225  L 137.15445 102.155166  L 137.15445 98.329214  L 137.15445 93.008599  L 137.15445 87.771683  L 131.89845 89.600876  L 126.64245 91.389902  L 121.757871 93.008599  L 121.38645 93.084081  L 116.13045 94.122955  L 110.87445 95.112903  L 105.61845 96.047177  L 100.36245 96.918324  L 95.10645 97.718079  L 90.657676 98.329214  L 89.85045 98.386829  L 84.59445 98.717547  L 79.33845 98.986223  L 74.08245 99.186488  L 68.82645 99.311811  L 63.57045 99.35587  L 58.31445 99.313239  L 53.05845 99.180596  L 47.80245 98.958821  L 42.54645 98.65651  L 37.878614 98.329214  L 37.29045 98.242563  L 32.03445 97.14715  L 32.03445 98.329214  L 32.03445 99.928471  z "
           style="fill:#fee289;"
           id="path250" />
        <path
           clip-path="url(#p054b34a444)"
           d="M 32.328567 45.123064  L 34.2066 39.802449  L 35.660105 34.481834  L 36.809776 29.161219  L 32.03445 29.161219  L 32.03445 34.481834  L 32.03445 39.802449  L 32.03445 45.123064  L 32.03445 45.770431  z "
           style="fill:#fee289;"
           id="path252" />
      </g>
      <g
         id="PathCollection_6">
        <path
           clip-path="url(#p054b34a444)"
           d="M 37.29045 103.649829  L 42.54645 103.649829  L 47.80245 103.649829  L 53.05845 103.649829  L 53.904393 103.649829  L 53.05845 103.558629  L 47.80245 102.80491  L 42.54645 101.925775  L 37.29045 100.947926  L 32.03445 99.928471  L 32.03445 103.649829  z "
           style="fill:#fff7b9;"
           id="path255" />
        <path
           clip-path="url(#p054b34a444)"
           d="M 126.64245 103.649829  L 131.89845 103.649829  L 137.15445 103.649829  L 137.15445 102.155166  L 131.89845 102.69225  L 126.64245 103.195631  L 121.519406 103.649829  z "
           style="fill:#fff7b9;"
           id="path257" />
      </g>
      <g
         id="LineCollection_1" />
      <g
         id="LineCollection_2">
        <path
           clip-path="url(#p054b34a444)"
           d="M 114.629189 29.161219  L 113.533019 34.481834  L 112.278278 39.802449  L 111.950783 41.001829  "
           style="fill:none;stroke:#000000;stroke-width:0.5;"
           id="path261" />
        <path
           clip-path="url(#p054b34a444)"
           d="M 109.631914 48.855541  L 109.123942 50.443679  L 107.091432 55.764294  L 105.61845 58.922058  L 104.612288 61.084909  L 101.503107 66.405524  L 100.36245 67.912808  L 97.45721 71.726139  L 95.10645 74.01358  L 91.931035 77.046754  L 89.85045 78.456063  L 84.59445 81.869424  L 83.833665 82.367369  L 79.33845 84.261229  L 74.08245 85.665241  L 70.239322 87.687984  L 68.82645 88.002834  L 63.57045 89.051816  L 58.31445 89.265609  L 53.05845 88.498354  L 49.731369 87.687984  L 53.05845 87.003265  L 58.31445 85.645241  L 63.57045 84.696332  L 68.30543 82.367369  L 68.82645 82.090183  L 74.08245 79.095122  L 77.440198 77.046754  L 79.33845 75.384998  L 83.363794 71.726139  L 84.59445 70.187392  L 87.562876 66.405524  L 89.85045 62.554416  L 90.716926 61.084909  L 93.183365 55.764294  L 95.10645 50.629794  L 95.176281 50.443679  L 96.82724 45.123064  L 98.221596 39.802449  L 99.417522 34.481834  L 100.36245 29.640743  L 100.456555 29.161219  "
           style="fill:none;stroke:#000000;stroke-width:0.5;"
           id="path263" />
      </g>
      <g
         id="LineCollection_3">
        <path
           clip-path="url(#p054b34a444)"
           d="M 32.03445 87.034889  L 37.29045 86.938792  L 42.54645 86.427167  L 47.80245 85.548466  L 53.05845 84.347266  L 58.31445 82.862931  L 59.860929 82.367369  L 63.57045 80.547746  L 68.82645 77.692155  L 69.938036 77.046754  L 74.08245 73.572976  L 76.184952 71.726139  L 79.33845 67.889938  L 80.529096 66.405524  L 82.599462 62.97541  "
           style="fill:none;stroke:#000000;stroke-width:0.5;"
           id="path266" />
        <path
           clip-path="url(#p054b34a444)"
           d="M 86.334399 55.467803  L 88.211193 50.443679  L 89.844974 45.123064  L 89.85045 45.101762  L 91.217176 39.802449  L 92.389054 34.481834  L 93.40342 29.161219  "
           style="fill:none;stroke:#000000;stroke-width:0.5;"
           id="path268" />
        <path
           clip-path="url(#p054b34a444)"
           d="M 121.750753 29.161219  L 121.38645 30.873933  L 120.624065 34.481834  L 120.295381 35.841942  "
           style="fill:none;stroke:#000000;stroke-width:0.5;"
           id="path270" />
        <path
           clip-path="url(#p054b34a444)"
           d="M 118.239371 43.740497  L 117.853565 45.123064  L 116.13045 50.401109  L 116.11664 50.443679  L 114.055473 55.764294  L 111.554179 61.084909  L 110.87445 62.244752  L 108.44056 66.405524  L 105.61845 70.152758  L 104.428827 71.726139  L 100.36245 75.737623  L 99.016542 77.046754  L 95.10645 79.759121  L 91.225734 82.367369  L 89.85045 82.994442  L 84.59445 85.29278  L 79.33845 87.438608  L 78.68857 87.687984  L 74.08245 88.800039  L 68.82645 89.932884  L 63.57045 90.9055  L 58.31445 91.414407  L 53.05845 91.641746  L 47.80245 91.834127  L 42.54645 91.552907  L 37.29045 90.212438  L 32.03445 89.133461  "
           style="fill:none;stroke:#000000;stroke-width:0.5;"
           id="path272" />
      </g>
      <g
         id="LineCollection_4">
        <path
           clip-path="url(#p054b34a444)"
           d="M 32.03445 80.403461  L 37.29045 79.375289  L 42.54645 77.841266  L 44.729911 77.046754  L 47.80245 75.366938  L 53.05845 72.019022  L 53.476716 71.726139  L 58.31445 66.905489  L 58.784433 66.405524  L 62.448889 61.084909  L 63.57045 58.909387  L 65.150303 55.764294  L 67.227828 50.443679  L 68.82645 45.305766  L 68.882864 45.123064  L 69.229465 43.756118  "
           style="fill:none;stroke:#000000;stroke-width:0.5;"
           id="path275" />
        <path
           clip-path="url(#p054b34a444)"
           d="M 71.075404 35.826258  L 71.36059 34.481834  L 72.321095 29.161219  "
           style="fill:none;stroke:#000000;stroke-width:0.5;"
           id="path277" />
        <path
           clip-path="url(#p054b34a444)"
           d="M 137.15445 50.613792  L 135.048255 55.764294  L 132.440123 61.084909  L 131.89845 61.98346  L 129.249583 66.405524  L 126.64245 69.850341  L 125.227716 71.726139  L 121.38645 75.607088  L 119.958449 77.046754  L 116.13045 79.85871  L 112.672818 82.367369  L 110.87445 83.270422  L 105.61845 85.851394  L 101.752524 87.687984  L 100.36245 88.115987  L 95.10645 89.671834  L 89.85045 91.132456  L 84.59445 92.484054  L 82.382984 93.008599  L 79.33845 93.428721  L 74.08245 94.070104  L 73.950158 94.083575  "
           style="fill:none;stroke:#000000;stroke-width:0.5;"
           id="path279" />
        <path
           clip-path="url(#p054b34a444)"
           d="M 63.685648 95.012089  L 63.57045 95.021204  L 58.31445 95.303454  L 53.05845 95.436901  L 47.80245 95.406475  L 42.54645 95.199179  L 37.29045 94.80803  L 32.03445 94.239407  "
           style="fill:none;stroke:#000000;stroke-width:0.5;"
           id="path281" />
      </g>
      <g
         id="LineCollection_5">
        <path
           clip-path="url(#p054b34a444)"
           d="M 137.15445 87.771683  L 131.89845 89.600876  L 126.64245 91.389902  L 121.757871 93.008599  L 121.38645 93.084081  L 117.90146 93.772906  "
           style="fill:none;stroke:#000000;stroke-width:0.5;"
           id="path284" />
        <path
           clip-path="url(#p054b34a444)"
           d="M 103.81541 96.346019  L 100.36245 96.918324  L 95.10645 97.718079  L 90.657676 98.329214  L 89.85045 98.386829  L 84.59445 98.717547  L 79.33845 98.986223  L 74.08245 99.186488  L 68.82645 99.311811  L 63.57045 99.35587  L 58.31445 99.313239  L 53.05845 99.180596  L 47.80245 98.958821  L 42.54645 98.65651  L 37.878614 98.329214  L 37.29045 98.242563  L 32.03445 97.14715  "
           style="fill:none;stroke:#000000;stroke-width:0.5;"
           id="path286" />
        <path
           clip-path="url(#p054b34a444)"
           d="M 32.03445 45.770431  L 32.275562 45.23973  "
           style="fill:none;stroke:#000000;stroke-width:0.5;"
           id="path288" />
        <path
           clip-path="url(#p054b34a444)"
           d="M 35.703207 34.282358  L 36.809776 29.161219  "
           style="fill:none;stroke:#000000;stroke-width:0.5;"
           id="path290" />
      </g>
      <g
         id="line2d_12">
        <defs
           id="defs294">
          <path
             d="M -0.75 1.5  L 0 0.75  L 0.75 1.5  L 1.5 0.75  L 0.75 0  L 1.5 -0.75  L 0.75 -1.5  L 0 -0.75  L -0.75 -1.5  L -1.5 -0.75  L -0.75 0  L -1.5 0.75  z "
             id="m826fa262ca" />
        </defs>
        <g
           clip-path="url(#p054b34a444)"
           id="g298" />
      </g>
      <g
         id="patch_3">
        <path
           d="M 32.03445 103.649829  L 32.03445 29.161219  "
           style="fill:none;stroke:#000000;stroke-linecap:square;stroke-linejoin:miter;stroke-width:0.8;"
           id="path301" />
      </g>
      <g
         id="patch_4">
        <path
           d="M 32.03445 103.649829  L 137.15445 103.649829  "
           style="fill:none;stroke:#000000;stroke-linecap:square;stroke-linejoin:miter;stroke-width:0.8;"
           id="path304" />
      </g>
      <g
         id="text_14">
        <g
           clip-path="url(#p054b34a444)"
           id="g311">
          <!-- 1 -->
          <g
             transform="translate(112.393856 47.573573)rotate(-77.101515)scale(0.08 -0.08)"
             id="g309">
            <use
               xlink:href="#ArialMT-31"
               id="use307" />
          </g>
        </g>
      </g>
      <g
         id="text_15">
        <g
           clip-path="url(#p054b34a444)"
           id="g318">
          <!-- 2 -->
          <g
             transform="translate(85.776172 62.059997)rotate(-69.981599)scale(0.08 -0.08)"
             id="g316">
            <use
               xlink:href="#ArialMT-32"
               id="use314" />
          </g>
        </g>
      </g>
      <g
         id="text_16">
        <g
           clip-path="url(#p054b34a444)"
           id="g325">
          <!-- 2 -->
          <g
             transform="translate(120.922482 42.39384)rotate(-78.523378)scale(0.08 -0.08)"
             id="g323">
            <use
               xlink:href="#ArialMT-32"
               id="use321" />
          </g>
        </g>
      </g>
      <g
         id="text_17">
        <g
           clip-path="url(#p054b34a444)"
           id="g332">
          <!-- 5 -->
          <g
             transform="translate(71.86944 42.360498)rotate(-79.709272)scale(0.08 -0.08)"
             id="g330">
            <use
               xlink:href="#ArialMT-35"
               id="use328" />
          </g>
        </g>
      </g>
      <g
         id="text_18">
        <g
           clip-path="url(#p054b34a444)"
           id="g339">
          <!-- 5 -->
          <g
             transform="translate(66.855144 96.915926)rotate(-6.615457)scale(0.08 -0.08)"
             id="g337">
            <use
               xlink:href="#ArialMT-35"
               id="use335" />
          </g>
        </g>
      </g>
      <g
         id="text_19">
        <g
           clip-path="url(#p054b34a444)"
           id="g348">
          <!-- 10 -->
          <g
             transform="translate(107.015875 98.14274)rotate(-13.207107)scale(0.08 -0.08)"
             id="g346">
            <use
               xlink:href="#ArialMT-31"
               id="use342" />
            <use
               x="55.615234"
               xlink:href="#ArialMT-30"
               id="use344" />
          </g>
        </g>
      </g>
      <g
         id="text_20">
        <g
           clip-path="url(#p054b34a444)"
           id="g357">
          <!-- 10 -->
          <g
             transform="translate(35.161368 44.614614)rotate(-76.289479)scale(0.08 -0.08)"
             id="g355">
            <use
               xlink:href="#ArialMT-31"
               id="use351" />
            <use
               x="55.615234"
               xlink:href="#ArialMT-30"
               id="use353" />
          </g>
        </g>
      </g>
      <g
         id="text_21">
        <!-- Deviation from in vitro -->
        <defs
           id="defs368">
          <path
             d="M 42.09375 16.703125  L 51.171875 15.578125  Q 49.03125 7.625 43.21875 3.21875  Q 37.40625 -1.171875 28.375 -1.171875  Q 17 -1.171875 10.328125 5.828125  Q 3.65625 12.84375 3.65625 25.484375  Q 3.65625 38.578125 10.390625 45.796875  Q 17.140625 53.03125 27.875 53.03125  Q 38.28125 53.03125 44.875 45.953125  Q 51.46875 38.875 51.46875 26.03125  Q 51.46875 25.25 51.421875 23.6875  L 12.75 23.6875  Q 13.234375 15.140625 17.578125 10.59375  Q 21.921875 6.0625 28.421875 6.0625  Q 33.25 6.0625 36.671875 8.59375  Q 40.09375 11.140625 42.09375 16.703125  M 13.234375 30.90625  L 42.1875 30.90625  Q 41.609375 37.453125 38.875 40.71875  Q 34.671875 45.796875 27.984375 45.796875  Q 21.921875 45.796875 17.796875 41.75  Q 13.671875 37.703125 13.234375 30.90625  "
             id="ArialMT-65" />
          <path
             d="M 21 0  L 1.265625 51.859375  L 10.546875 51.859375  L 21.6875 20.796875  Q 23.484375 15.765625 25 10.359375  Q 26.171875 14.453125 28.265625 20.21875  L 39.796875 51.859375  L 48.828125 51.859375  L 29.203125 0  z "
             id="ArialMT-76" />
          <path
             d="M 6.640625 61.46875  L 6.640625 71.578125  L 15.4375 71.578125  L 15.4375 61.46875  z M 6.640625 0  L 6.640625 51.859375  L 15.4375 51.859375  L 15.4375 0  z "
             id="ArialMT-69" />
          <path
             d="M 40.4375 6.390625  Q 35.546875 2.25 31.03125 0.53125  Q 26.515625 -1.171875 21.34375 -1.171875  Q 12.796875 -1.171875 8.203125 3  Q 3.609375 7.171875 3.609375 13.671875  Q 3.609375 17.484375 5.34375 20.625  Q 7.078125 23.78125 9.890625 25.6875  Q 12.703125 27.59375 16.21875 28.5625  Q 18.796875 29.25 24.03125 29.890625  Q 34.671875 31.15625 39.703125 32.90625  Q 39.75 34.71875 39.75 35.203125  Q 39.75 40.578125 37.25 42.78125  Q 33.890625 45.75 27.25 45.75  Q 21.046875 45.75 18.09375 43.578125  Q 15.140625 41.40625 13.71875 35.890625  L 5.125 37.0625  Q 6.296875 42.578125 8.984375 45.96875  Q 11.671875 49.359375 16.75 51.1875  Q 21.828125 53.03125 28.515625 53.03125  Q 35.15625 53.03125 39.296875 51.46875  Q 43.453125 49.90625 45.40625 47.53125  Q 47.359375 45.171875 48.140625 41.546875  Q 48.578125 39.3125 48.578125 33.453125  L 48.578125 21.734375  Q 48.578125 9.46875 49.140625 6.21875  Q 49.703125 2.984375 51.375 0  L 42.1875 0  Q 40.828125 2.734375 40.4375 6.390625  M 39.703125 26.03125  Q 34.90625 24.078125 25.34375 22.703125  Q 19.921875 21.921875 17.671875 20.9375  Q 15.4375 19.96875 14.203125 18.09375  Q 12.984375 16.21875 12.984375 13.921875  Q 12.984375 10.40625 15.640625 8.0625  Q 18.3125 5.71875 23.4375 5.71875  Q 28.515625 5.71875 32.46875 7.9375  Q 36.421875 10.15625 38.28125 14.015625  Q 39.703125 17 39.703125 22.796875  z "
             id="ArialMT-61" />
          <path
             d="M 25.78125 7.859375  L 27.046875 0.09375  Q 23.34375 -0.6875 20.40625 -0.6875  Q 15.625 -0.6875 12.984375 0.828125  Q 10.359375 2.34375 9.28125 4.8125  Q 8.203125 7.28125 8.203125 15.1875  L 8.203125 45.015625  L 1.765625 45.015625  L 1.765625 51.859375  L 8.203125 51.859375  L 8.203125 64.703125  L 16.9375 69.96875  L 16.9375 51.859375  L 25.78125 51.859375  L 25.78125 45.015625  L 16.9375 45.015625  L 16.9375 14.703125  Q 16.9375 10.9375 17.40625 9.859375  Q 17.875 8.796875 18.921875 8.15625  Q 19.96875 7.515625 21.921875 7.515625  Q 23.390625 7.515625 25.78125 7.859375  "
             id="ArialMT-74" />
          <path
             d="M 6.59375 0  L 6.59375 51.859375  L 14.5 51.859375  L 14.5 44.484375  Q 20.21875 53.03125 31 53.03125  Q 35.6875 53.03125 39.625 51.34375  Q 43.5625 49.65625 45.515625 46.921875  Q 47.46875 44.1875 48.25 40.4375  Q 48.734375 37.984375 48.734375 31.890625  L 48.734375 0  L 39.9375 0  L 39.9375 31.546875  Q 39.9375 36.921875 38.90625 39.578125  Q 37.890625 42.234375 35.28125 43.8125  Q 32.671875 45.40625 29.15625 45.40625  Q 23.53125 45.40625 19.453125 41.84375  Q 15.375 38.28125 15.375 28.328125  L 15.375 0  z "
             id="ArialMT-6e" />
          <path
             d="M 8.6875 0  L 8.6875 45.015625  L 0.921875 45.015625  L 0.921875 51.859375  L 8.6875 51.859375  L 8.6875 57.375  Q 8.6875 62.59375 9.625 65.140625  Q 10.890625 68.5625 14.078125 70.671875  Q 17.28125 72.796875 23.046875 72.796875  Q 26.765625 72.796875 31.25 71.921875  L 29.9375 64.265625  Q 27.203125 64.75 24.75 64.75  Q 20.75 64.75 19.09375 63.03125  Q 17.4375 61.328125 17.4375 56.640625  L 17.4375 51.859375  L 27.546875 51.859375  L 27.546875 45.015625  L 17.4375 45.015625  L 17.4375 0  z "
             id="ArialMT-66" />
          <path
             d="M 6.59375 0  L 6.59375 51.859375  L 14.453125 51.859375  L 14.453125 44.578125  Q 16.890625 48.390625 20.9375 50.703125  Q 25 53.03125 30.171875 53.03125  Q 35.9375 53.03125 39.625 50.640625  Q 43.3125 48.25 44.828125 43.953125  Q 50.984375 53.03125 60.84375 53.03125  Q 68.5625 53.03125 72.703125 48.75  Q 76.859375 44.484375 76.859375 35.59375  L 76.859375 0  L 68.109375 0  L 68.109375 32.671875  Q 68.109375 37.9375 67.25 40.25  Q 66.40625 42.578125 64.15625 43.984375  Q 61.921875 45.40625 58.890625 45.40625  Q 53.421875 45.40625 49.796875 41.765625  Q 46.1875 38.140625 46.1875 30.125  L 46.1875 0  L 37.40625 0  L 37.40625 33.6875  Q 37.40625 39.546875 35.25 42.46875  Q 33.109375 45.40625 28.21875 45.40625  Q 24.515625 45.40625 21.359375 43.453125  Q 18.21875 41.5 16.796875 37.734375  Q 15.375 33.984375 15.375 26.90625  L 15.375 0  z "
             id="ArialMT-6d" />
        </defs>
        <g
           transform="translate(41.082262 13.536562)scale(0.09 -0.09)"
           id="g416">
          <use
             xlink:href="#ArialMT-44"
             id="use370" />
          <use
             x="72.216797"
             xlink:href="#ArialMT-65"
             id="use372" />
          <use
             x="127.832031"
             xlink:href="#ArialMT-76"
             id="use374" />
          <use
             x="177.832031"
             xlink:href="#ArialMT-69"
             id="use376" />
          <use
             x="200.048828"
             xlink:href="#ArialMT-61"
             id="use378" />
          <use
             x="255.664062"
             xlink:href="#ArialMT-74"
             id="use380" />
          <use
             x="283.447266"
             xlink:href="#ArialMT-69"
             id="use382" />
          <use
             x="305.664062"
             xlink:href="#ArialMT-6f"
             id="use384" />
          <use
             x="361.279297"
             xlink:href="#ArialMT-6e"
             id="use386" />
          <use
             x="416.894531"
             xlink:href="#ArialMT-20"
             id="use388" />
          <use
             x="444.677734"
             xlink:href="#ArialMT-66"
             id="use390" />
          <use
             x="472.460938"
             xlink:href="#ArialMT-72"
             id="use392" />
          <use
             x="505.761719"
             xlink:href="#ArialMT-6f"
             id="use394" />
          <use
             x="561.376953"
             xlink:href="#ArialMT-6d"
             id="use396" />
          <use
             x="644.677734"
             xlink:href="#ArialMT-20"
             id="use398" />
          <use
             x="672.460938"
             xlink:href="#ArialMT-69"
             id="use400" />
          <use
             x="694.677734"
             xlink:href="#ArialMT-6e"
             id="use402" />
          <use
             x="750.292969"
             xlink:href="#ArialMT-20"
             id="use404" />
          <use
             x="778.076172"
             xlink:href="#ArialMT-76"
             id="use406" />
          <use
             x="828.076172"
             xlink:href="#ArialMT-69"
             id="use408" />
          <use
             x="850.292969"
             xlink:href="#ArialMT-74"
             id="use410" />
          <use
             x="878.076172"
             xlink:href="#ArialMT-72"
             id="use412" />
          <use
             x="911.376953"
             xlink:href="#ArialMT-6f"
             id="use414" />
        </g>
        <!--  doubling time -->
        <defs
           id="defs422">
          <path
             d="M 40.234375 0  L 40.234375 6.546875  Q 35.296875 -1.171875 25.734375 -1.171875  Q 19.53125 -1.171875 14.328125 2.25  Q 9.125 5.671875 6.265625 11.796875  Q 3.421875 17.921875 3.421875 25.875  Q 3.421875 33.640625 6 39.96875  Q 8.59375 46.296875 13.765625 49.65625  Q 18.953125 53.03125 25.34375 53.03125  Q 30.03125 53.03125 33.6875 51.046875  Q 37.359375 49.078125 39.65625 45.90625  L 39.65625 71.578125  L 48.390625 71.578125  L 48.390625 0  z M 12.453125 25.875  Q 12.453125 15.921875 16.640625 10.984375  Q 20.84375 6.0625 26.5625 6.0625  Q 32.328125 6.0625 36.34375 10.765625  Q 40.375 15.484375 40.375 25.140625  Q 40.375 35.796875 36.265625 40.765625  Q 32.171875 45.75 26.171875 45.75  Q 20.3125 45.75 16.375 40.96875  Q 12.453125 36.1875 12.453125 25.875  "
             id="ArialMT-64" />
          <path
             d="M 14.703125 0  L 6.546875 0  L 6.546875 71.578125  L 15.328125 71.578125  L 15.328125 46.046875  Q 20.90625 53.03125 29.546875 53.03125  Q 34.328125 53.03125 38.59375 51.09375  Q 42.875 49.171875 45.625 45.671875  Q 48.390625 42.1875 49.953125 37.25  Q 51.515625 32.328125 51.515625 26.703125  Q 51.515625 13.375 44.921875 6.09375  Q 38.328125 -1.171875 29.109375 -1.171875  Q 19.921875 -1.171875 14.703125 6.5  z M 14.59375 26.3125  Q 14.59375 17 17.140625 12.84375  Q 21.296875 6.0625 28.375 6.0625  Q 34.125 6.0625 38.328125 11.0625  Q 42.53125 16.0625 42.53125 25.984375  Q 42.53125 36.140625 38.5 40.96875  Q 34.46875 45.796875 28.765625 45.796875  Q 23 45.796875 18.796875 40.796875  Q 14.59375 35.796875 14.59375 26.3125  "
             id="ArialMT-62" />
          <path
             d="M 6.390625 0  L 6.390625 71.578125  L 15.1875 71.578125  L 15.1875 0  z "
             id="ArialMT-6c" />
          <path
             d="M 4.984375 -4.296875  L 13.53125 -5.5625  Q 14.0625 -9.515625 16.5 -11.328125  Q 19.78125 -13.765625 25.4375 -13.765625  Q 31.546875 -13.765625 34.859375 -11.328125  Q 38.1875 -8.890625 39.359375 -4.5  Q 40.046875 -1.8125 39.984375 6.78125  Q 34.234375 0 25.640625 0  Q 14.9375 0 9.078125 7.71875  Q 3.21875 15.4375 3.21875 26.21875  Q 3.21875 33.640625 5.90625 39.90625  Q 8.59375 46.1875 13.6875 49.609375  Q 18.796875 53.03125 25.6875 53.03125  Q 34.859375 53.03125 40.828125 45.609375  L 40.828125 51.859375  L 48.921875 51.859375  L 48.921875 7.03125  Q 48.921875 -5.078125 46.453125 -10.125  Q 44 -15.1875 38.640625 -18.109375  Q 33.296875 -21.046875 25.484375 -21.046875  Q 16.21875 -21.046875 10.5 -16.875  Q 4.78125 -12.703125 4.984375 -4.296875  M 12.25 26.859375  Q 12.25 16.65625 16.296875 11.96875  Q 20.359375 7.28125 26.46875 7.28125  Q 32.515625 7.28125 36.609375 11.9375  Q 40.71875 16.609375 40.71875 26.5625  Q 40.71875 36.078125 36.5 40.90625  Q 32.28125 45.75 26.3125 45.75  Q 20.453125 45.75 16.34375 40.984375  Q 12.25 36.234375 12.25 26.859375  "
             id="ArialMT-67" />
        </defs>
        <g
           transform="translate(56.579137 23.05575)scale(0.09 -0.09)"
           id="g452">
          <use
             xlink:href="#ArialMT-20"
             id="use424" />
          <use
             x="27.783203"
             xlink:href="#ArialMT-64"
             id="use426" />
          <use
             x="83.398438"
             xlink:href="#ArialMT-6f"
             id="use428" />
          <use
             x="139.013672"
             xlink:href="#ArialMT-75"
             id="use430" />
          <use
             x="194.628906"
             xlink:href="#ArialMT-62"
             id="use432" />
          <use
             x="250.244141"
             xlink:href="#ArialMT-6c"
             id="use434" />
          <use
             x="272.460938"
             xlink:href="#ArialMT-69"
             id="use436" />
          <use
             x="294.677734"
             xlink:href="#ArialMT-6e"
             id="use438" />
          <use
             x="350.292969"
             xlink:href="#ArialMT-67"
             id="use440" />
          <use
             x="405.908203"
             xlink:href="#ArialMT-20"
             id="use442" />
          <use
             x="433.691406"
             xlink:href="#ArialMT-74"
             id="use444" />
          <use
             x="461.474609"
             xlink:href="#ArialMT-69"
             id="use446" />
          <use
             x="483.691406"
             xlink:href="#ArialMT-6d"
             id="use448" />
          <use
             x="566.992188"
             xlink:href="#ArialMT-65"
             id="use450" />
        </g>
      </g>
    </g>
  </g>
  <defs
     id="defs460">
    <clipPath
       id="p054b34a444">
      <rect
         height="74.48861"
         width="105.12"
         x="32.03445"
         y="29.161219"
         id="rect457" />
    </clipPath>
  </defs>
</svg>
